<svg width="614.4" height="460.8" viewBox="0 0 460.8 345.6" xmlns="http://www.w3.org/2000/svg" xmlns:xlink="http://www.w3.org/1999/xlink"><defs><style>*{stroke-linecap:butt;stroke-linejoin:round}</style></defs><path d="M0 345.6h460.8V0H0z" fill="#fff"/><path d="M57.6 307.58h357.12V41.47H57.6z" fill="#fff"/><defs><path id="md855b5f822" d="M0 0v3.5" stroke="#000" stroke-width=".8"/></defs><use x="72.35" y="307.584" stroke="#000" stroke-width=".8" xlink:href="#md855b5f822"/><g transform="matrix(.1 0 0 -.1 69.169 322.18)"><defs><path id="DejaVuSans-48" d="M31.781 66.406q-7.61 0-11.453-7.5Q16.5 51.422 16.5 36.375q0-14.984 3.828-22.484 3.844-7.5 11.453-7.5 7.672 0 11.5 7.5 3.844 7.5 3.844 22.484 0 15.047-3.844 22.531-3.828 7.5-11.5 7.5zm0 7.813q12.266 0 18.734-9.704 6.469-9.687 6.469-28.14 0-18.407-6.469-28.11-6.469-9.687-18.734-9.687-12.25 0-18.719 9.687-6.469 9.703-6.469 28.11 0 18.452 6.469 28.14 6.469 9.703 18.719 9.703z"/></defs><use xlink:href="#DejaVuSans-48"/></g><use x="131.658" y="307.584" stroke="#000" stroke-width=".8" xlink:href="#md855b5f822"/><g transform="matrix(.1 0 0 -.1 128.48 322.18)"><defs><path id="DejaVuSans-49" d="M12.406 8.297h16.109v55.625l-17.531-3.516v8.985l17.438 3.515h9.86V8.297H54.39V0H12.406z"/></defs><use xlink:href="#DejaVuSans-49"/></g><use x="190.967" y="307.584" stroke="#000" stroke-width=".8" xlink:href="#md855b5f822"/><g transform="matrix(.1 0 0 -.1 187.79 322.18)"><defs><path id="DejaVuSans-50" d="M19.188 8.297H53.61V0H7.329v8.297q5.61 5.812 15.297 15.594 9.703 9.797 12.188 12.64 4.734 5.313 6.61 9 1.89 3.688 1.89 7.25 0 5.813-4.078 9.47-4.078 3.672-10.625 3.672-4.64 0-9.797-1.61-5.14-1.61-11-4.89v9.968q5.953 2.391 11.125 3.61 5.188 1.219 9.484 1.219 11.328 0 18.062-5.672 6.735-5.656 6.735-15.125 0-4.5-1.688-8.531-1.672-4.016-6.125-9.485-1.218-1.422-7.765-8.187-6.532-6.766-18.453-18.922z"/></defs><use xlink:href="#DejaVuSans-50"/></g><use x="250.275" y="307.584" stroke="#000" stroke-width=".8" xlink:href="#md855b5f822"/><g transform="matrix(.1 0 0 -.1 247.09 322.18)"><defs><path id="DejaVuSans-51" d="M40.578 39.312q7.078-1.516 11.047-6.313 3.984-4.78 3.984-11.812 0-10.78-7.422-16.703-7.421-5.906-21.093-5.906-4.579 0-9.438.907T7.625 2.203v9.516q4.094-2.39 8.969-3.61 4.89-1.218 10.219-1.218 9.265 0 14.125 3.656t4.86 10.64q0 6.454-4.516 10.079-4.516 3.64-12.562 3.64h-8.5v8.11h8.89q7.266 0 11.125 2.906t3.86 8.375q0 5.61-3.985 8.61-3.969 3.015-11.39 3.015-4.063 0-8.704-.89-4.64-.875-10.203-2.72v8.782q5.625 1.562 10.531 2.344t9.25.781q11.234 0 17.766-5.11 6.547-5.093 6.547-13.78 0-6.063-3.469-10.234t-9.86-5.782z"/></defs><use xlink:href="#DejaVuSans-51"/></g><use x="309.584" y="307.584" stroke="#000" stroke-width=".8" xlink:href="#md855b5f822"/><g transform="matrix(.1 0 0 -.1 306.4 322.18)"><defs><path id="DejaVuSans-52" d="M37.797 64.312 12.891 25.39h24.906zm-2.594 8.594H47.61V25.39h10.406v-8.203H47.61V-.001h-9.812v17.188H4.89v9.515z"/></defs><use xlink:href="#DejaVuSans-52"/></g><use x="368.892" y="307.584" stroke="#000" stroke-width=".8" xlink:href="#md855b5f822"/><g transform="matrix(.1 0 0 -.1 365.71 322.18)"><defs><path id="DejaVuSans-53" d="M10.797 72.906h38.719v-8.313H19.828V46.736q2.14.734 4.281 1.093 2.156.36 4.313.36 12.203 0 19.328-6.688 7.14-6.687 7.14-18.109 0-11.766-7.328-18.297Q40.234-1.42 26.906-1.42q-4.594 0-9.36.78-4.75.782-9.827 2.345v9.922q4.39-2.391 9.078-3.563t9.906-1.172q8.453 0 13.375 4.438 4.938 4.437 4.938 12.062 0 7.609-4.938 12.047-4.922 4.453-13.375 4.453-3.953 0-7.89-.875-3.922-.875-8.016-2.735z"/></defs><use xlink:href="#DejaVuSans-53"/></g><g transform="matrix(.1 0 0 -.1 215.83 335.86)"><defs><path id="DejaVuSans-84" d="M-.297 72.906h61.672v-8.313H35.5V0h-9.906v64.594H-.297z"/><path id="DejaVuSans-105" d="M9.422 54.688h8.984V0H9.422zm0 21.297h8.984V64.594H9.422z"/><path id="DejaVuSans-109" d="M52 44.188q3.375 6.063 8.063 8.938T71.093 56q8.547 0 13.189-5.985 4.64-5.969 4.64-17V0h-9.031v32.72q0 7.859-2.797 11.655-2.781 3.813-8.484 3.813-6.985 0-11.047-4.641-4.047-4.625-4.047-12.641V0h-9.031v32.719q0 7.906-2.782 11.688t-8.593 3.781q-6.891 0-10.953-4.656-4.047-4.656-4.047-12.625V.001H9.078v54.688h9.032v-8.5q3.078 5.031 7.375 7.422T35.688 56q5.968 0 10.14-3.03 4.173-3.016 6.173-8.782z"/><path id="DejaVuSans-101" d="M56.203 29.594v-4.39H14.891q.594-9.282 5.594-14.142t13.938-4.859q5.172 0 10.03 1.266t9.657 3.812v-8.5Q49.266.734 44.188-.344T33.891-1.422q-13.094 0-20.734 7.61-7.64 7.624-7.64 20.624 0 13.422 7.25 21.297Q20.017 56 32.329 56q11.03 0 17.453-7.11 6.421-7.093 6.421-19.296zm-8.984 2.64q-.094 7.36-4.125 11.75-4.032 4.407-10.672 4.407-7.516 0-12.031-4.25t-5.203-11.97z"/><path id="DejaVuSans-40" d="M31 75.875q-6.531-11.219-9.719-22.219Q18.11 42.672 18.11 31.39q0-11.266 3.203-22.328T31-13.188h-7.813Q15.875-1.704 12.234 9.374T8.594 31.39q0 10.891 3.61 21.922 3.624 11.047 10.983 22.562z"/><path id="DejaVuSans-115" d="M44.281 53.078v-8.5q-3.797 1.953-7.906 2.922-4.094.984-8.5.984-6.688 0-10.031-2.047T14.5 40.281q0-3.125 2.39-4.906t9.626-3.39l3.078-.688q9.562-2.047 13.594-5.781t4.03-10.422q0-7.625-6.03-12.078-6.032-4.438-16.578-4.438-4.39 0-9.156.86T5.421 2v9.281q4.985-2.594 9.813-3.89 4.828-1.282 9.578-1.282 6.344 0 9.75 2.172 3.422 2.172 3.422 6.125 0 3.657-2.469 5.61-2.453 1.953-10.812 3.765l-3.125.735q-8.344 1.75-12.062 5.39-3.703 3.64-3.703 9.985 0 7.719 5.469 11.906Q16.752 56 26.813 56q4.97 0 9.36-.735 4.407-.718 8.11-2.187z"/><path id="DejaVuSans-41" d="M8.016 75.875h7.812q7.313-11.516 10.953-22.562 3.64-11.031 3.64-21.922 0-10.938-3.64-22.016T15.828-13.187H8.016Q14.5-1.999 17.703 9.063t3.203 22.328q0 11.281-3.203 22.266-3.203 11-9.687 22.219z"/></defs><use xlink:href="#DejaVuSans-84"/><use x="57.959" xlink:href="#DejaVuSans-105"/><use x="85.742" xlink:href="#DejaVuSans-109"/><use x="183.154" xlink:href="#DejaVuSans-101"/><use x="244.678" xlink:href="#DejaVuSans-32"/><use x="276.465" xlink:href="#DejaVuSans-40"/><use x="315.479" xlink:href="#DejaVuSans-115"/><use x="367.578" xlink:href="#DejaVuSans-41"/></g><path d="M57.6 307.58h357.12" clip-path="url(#pd564141661)" fill="none" stroke="#b0b0b0" stroke-linecap="square" stroke-opacity=".2" stroke-width=".8"/><defs><path id="m2ebe468bb0" d="M0 0h-3.5" stroke="#000" stroke-width=".8"/></defs><use x="57.6" y="307.584" stroke="#000" stroke-width=".8" xlink:href="#m2ebe468bb0"/><use xlink:href="#DejaVuSans-48" transform="matrix(.1 0 0 -.1 44.238 311.38)"/><path d="M57.6 290.95h357.12" clip-path="url(#pd564141661)" fill="none" stroke="#b0b0b0" stroke-linecap="square" stroke-opacity=".2" stroke-width=".8"/><use x="57.6" y="290.952" stroke="#000" stroke-width=".8" xlink:href="#m2ebe468bb0"/><g transform="matrix(.1 0 0 -.1 37.875 294.75)"><use xlink:href="#DejaVuSans-53"/><use x="63.623" xlink:href="#DejaVuSans-48"/></g><path d="M57.6 274.32h357.12" clip-path="url(#pd564141661)" fill="none" stroke="#b0b0b0" stroke-linecap="square" stroke-opacity=".2" stroke-width=".8"/><use x="57.6" y="274.32" stroke="#000" stroke-width=".8" xlink:href="#m2ebe468bb0"/><g transform="matrix(.1 0 0 -.1 31.512 278.12)"><use xlink:href="#DejaVuSans-49"/><use x="63.623" xlink:href="#DejaVuSans-48"/><use x="127.246" xlink:href="#DejaVuSans-48"/></g><path d="M57.6 257.69h357.12" clip-path="url(#pd564141661)" fill="none" stroke="#b0b0b0" stroke-linecap="square" stroke-opacity=".2" stroke-width=".8"/><use x="57.6" y="257.688" stroke="#000" stroke-width=".8" xlink:href="#m2ebe468bb0"/><g transform="matrix(.1 0 0 -.1 31.512 261.49)"><use xlink:href="#DejaVuSans-49"/><use x="63.623" xlink:href="#DejaVuSans-53"/><use x="127.246" xlink:href="#DejaVuSans-48"/></g><path d="M57.6 241.06h357.12" clip-path="url(#pd564141661)" fill="none" stroke="#b0b0b0" stroke-linecap="square" stroke-opacity=".2" stroke-width=".8"/><use x="57.6" y="241.056" stroke="#000" stroke-width=".8" xlink:href="#m2ebe468bb0"/><g transform="matrix(.1 0 0 -.1 31.512 244.86)"><use xlink:href="#DejaVuSans-50"/><use x="63.623" xlink:href="#DejaVuSans-48"/><use x="127.246" xlink:href="#DejaVuSans-48"/></g><path d="M57.6 224.42h357.12" clip-path="url(#pd564141661)" fill="none" stroke="#b0b0b0" stroke-linecap="square" stroke-opacity=".2" stroke-width=".8"/><use x="57.6" y="224.424" stroke="#000" stroke-width=".8" xlink:href="#m2ebe468bb0"/><g transform="matrix(.1 0 0 -.1 31.512 228.22)"><use xlink:href="#DejaVuSans-50"/><use x="63.623" xlink:href="#DejaVuSans-53"/><use x="127.246" xlink:href="#DejaVuSans-48"/></g><path d="M57.6 207.79h357.12" clip-path="url(#pd564141661)" fill="none" stroke="#b0b0b0" stroke-linecap="square" stroke-opacity=".2" stroke-width=".8"/><use x="57.6" y="207.792" stroke="#000" stroke-width=".8" xlink:href="#m2ebe468bb0"/><g transform="matrix(.1 0 0 -.1 31.512 211.59)"><use xlink:href="#DejaVuSans-51"/><use x="63.623" xlink:href="#DejaVuSans-48"/><use x="127.246" xlink:href="#DejaVuSans-48"/></g><path d="M57.6 191.16h357.12" clip-path="url(#pd564141661)" fill="none" stroke="#b0b0b0" stroke-linecap="square" stroke-opacity=".2" stroke-width=".8"/><use x="57.6" y="191.16" stroke="#000" stroke-width=".8" xlink:href="#m2ebe468bb0"/><g transform="matrix(.1 0 0 -.1 31.512 194.96)"><use xlink:href="#DejaVuSans-51"/><use x="63.623" xlink:href="#DejaVuSans-53"/><use x="127.246" xlink:href="#DejaVuSans-48"/></g><path d="M57.6 174.53h357.12" clip-path="url(#pd564141661)" fill="none" stroke="#b0b0b0" stroke-linecap="square" stroke-opacity=".2" stroke-width=".8"/><use x="57.6" y="174.528" stroke="#000" stroke-width=".8" xlink:href="#m2ebe468bb0"/><g transform="matrix(.1 0 0 -.1 31.512 178.33)"><use xlink:href="#DejaVuSans-52"/><use x="63.623" xlink:href="#DejaVuSans-48"/><use x="127.246" xlink:href="#DejaVuSans-48"/></g><path d="M57.6 157.9h357.12" clip-path="url(#pd564141661)" fill="none" stroke="#b0b0b0" stroke-linecap="square" stroke-opacity=".2" stroke-width=".8"/><use x="57.6" y="157.896" stroke="#000" stroke-width=".8" xlink:href="#m2ebe468bb0"/><g transform="matrix(.1 0 0 -.1 31.512 161.7)"><use xlink:href="#DejaVuSans-52"/><use x="63.623" xlink:href="#DejaVuSans-53"/><use x="127.246" xlink:href="#DejaVuSans-48"/></g><path d="M57.6 141.26h357.12" clip-path="url(#pd564141661)" fill="none" stroke="#b0b0b0" stroke-linecap="square" stroke-opacity=".2" stroke-width=".8"/><use x="57.6" y="141.264" stroke="#000" stroke-width=".8" xlink:href="#m2ebe468bb0"/><g transform="matrix(.1 0 0 -.1 31.512 145.06)"><use xlink:href="#DejaVuSans-53"/><use x="63.623" xlink:href="#DejaVuSans-48"/><use x="127.246" xlink:href="#DejaVuSans-48"/></g><path d="M57.6 124.63h357.12" clip-path="url(#pd564141661)" fill="none" stroke="#b0b0b0" stroke-linecap="square" stroke-opacity=".2" stroke-width=".8"/><use x="57.6" y="124.632" stroke="#000" stroke-width=".8" xlink:href="#m2ebe468bb0"/><g transform="matrix(.1 0 0 -.1 31.512 128.43)"><use xlink:href="#DejaVuSans-53"/><use x="63.623" xlink:href="#DejaVuSans-53"/><use x="127.246" xlink:href="#DejaVuSans-48"/></g><path d="M57.6 108h357.12" clip-path="url(#pd564141661)" fill="none" stroke="#b0b0b0" stroke-linecap="square" stroke-opacity=".2" stroke-width=".8"/><use x="57.6" y="108" stroke="#000" stroke-width=".8" xlink:href="#m2ebe468bb0"/><g transform="matrix(.1 0 0 -.1 31.512 111.8)"><defs><path id="DejaVuSans-54" d="M33.016 40.375q-6.64 0-10.531-4.547-3.875-4.531-3.875-12.438 0-7.86 3.875-12.438 3.89-4.562 10.531-4.562t10.516 4.562q3.875 4.578 3.875 12.438 0 7.906-3.875 12.438-3.875 4.547-10.516 4.547zm19.578 30.922v-8.984q-3.719 1.75-7.5 2.671-3.781.938-7.5.938-9.766 0-14.922-6.594-5.14-6.594-5.875-19.922 2.875 4.25 7.219 6.516 4.36 2.265 9.578 2.265 10.984 0 17.359-6.672 6.375-6.656 6.375-18.125 0-11.234-6.64-18.03-6.641-6.782-17.673-6.782-12.656 0-19.344 9.688-6.687 9.703-6.687 28.109 0 17.28 8.203 27.562t22.016 10.28q3.719 0 7.5-.734t7.89-2.187z"/></defs><use xlink:href="#DejaVuSans-54"/><use x="63.623" xlink:href="#DejaVuSans-48"/><use x="127.246" xlink:href="#DejaVuSans-48"/></g><path d="M57.6 91.368h357.12" clip-path="url(#pd564141661)" fill="none" stroke="#b0b0b0" stroke-linecap="square" stroke-opacity=".2" stroke-width=".8"/><use x="57.6" y="91.368" stroke="#000" stroke-width=".8" xlink:href="#m2ebe468bb0"/><g transform="matrix(.1 0 0 -.1 31.512 95.167)"><use xlink:href="#DejaVuSans-54"/><use x="63.623" xlink:href="#DejaVuSans-53"/><use x="127.246" xlink:href="#DejaVuSans-48"/></g><path d="M57.6 74.736h357.12" clip-path="url(#pd564141661)" fill="none" stroke="#b0b0b0" stroke-linecap="square" stroke-opacity=".2" stroke-width=".8"/><use x="57.6" y="74.736" stroke="#000" stroke-width=".8" xlink:href="#m2ebe468bb0"/><g transform="matrix(.1 0 0 -.1 31.512 78.535)"><defs><path id="DejaVuSans-55" d="M8.203 72.906h46.875v-4.203L28.61 0H18.312l24.906 64.594H8.202z"/></defs><use xlink:href="#DejaVuSans-55"/><use x="63.623" xlink:href="#DejaVuSans-48"/><use x="127.246" xlink:href="#DejaVuSans-48"/></g><path d="M57.6 58.104h357.12" clip-path="url(#pd564141661)" fill="none" stroke="#b0b0b0" stroke-linecap="square" stroke-opacity=".2" stroke-width=".8"/><use x="57.6" y="58.104" stroke="#000" stroke-width=".8" xlink:href="#m2ebe468bb0"/><g transform="matrix(.1 0 0 -.1 31.512 61.903)"><use xlink:href="#DejaVuSans-55"/><use x="63.623" xlink:href="#DejaVuSans-53"/><use x="127.246" xlink:href="#DejaVuSans-48"/></g><g transform="matrix(0 -.1 -.1 0 25.433 219.82)"><defs><path id="DejaVuSans-73" d="M9.813 72.906h9.859V0h-9.86z"/><path id="DejaVuSans-110" d="M54.891 33.016V0h-8.984v32.719q0 7.766-3.032 11.609-3.03 3.86-9.078 3.86-7.28 0-11.484-4.641-4.203-4.625-4.203-12.641V0H9.08v54.688h9.031v-8.5q3.235 4.937 7.594 7.375Q30.079 56 35.798 56q9.422 0 14.25-5.828 4.844-5.828 4.844-17.156z"/><path id="DejaVuSans-112" d="M18.109 8.203v-29H9.078v75.484h9.031V46.39q2.844 4.875 7.156 7.235Q29.593 56 35.593 56q9.969 0 16.188-7.907 6.235-7.906 6.235-20.797T51.78 6.484q-6.219-7.906-16.188-7.906-6 0-10.328 2.375-4.312 2.375-7.156 7.25zm30.578 19.094q0 9.906-4.078 15.547t-11.203 5.64q-7.14 0-11.22-5.64T18.11 27.297t4.078-15.547 11.219-5.64q7.125 0 11.203 5.64t4.078 15.547z"/><path id="DejaVuSans-117" d="M8.5 21.578v33.109h8.984V21.921q0-7.766 3.016-11.656 3.031-3.875 9.094-3.875 7.265 0 11.484 4.64 4.234 4.641 4.234 12.657v31h8.985V-.001h-8.985v8.406Q42.047 3.42 37.718.999q-4.312-2.422-10.03-2.422-9.422 0-14.313 5.86Q8.5 10.294 8.5 21.576z"/><path id="DejaVuSans-116" d="M18.312 70.219V54.688h18.5v-6.984h-18.5V18.016q0-6.688 1.828-8.594t7.453-1.906h9.219V0h-9.219Q17.187 0 13.234 3.875q-3.953 3.89-3.953 14.141v29.688H2.687v6.984h6.594V70.22z"/><path id="DejaVuSans-111" d="M30.609 48.391q-7.219 0-11.422-5.64t-4.203-15.454 4.172-15.453q4.187-5.64 11.453-5.64 7.187 0 11.375 5.656 4.203 5.672 4.203 15.438 0 9.719-4.203 15.406-4.188 5.688-11.375 5.688zm0 7.61q11.719 0 18.406-7.626 6.703-7.609 6.703-21.078 0-13.422-6.703-21.078-6.688-7.64-18.406-7.64-11.766 0-18.438 7.64-6.656 7.657-6.656 21.078 0 13.47 6.656 21.078Q18.843 56 30.609 56z"/><path id="DejaVuSans-119" d="M4.203 54.688h8.985L24.42 12.016l11.173 42.672h10.594l11.234-42.672L68.61 54.688h8.984L63.282 0H52.688L40.922 44.828 29.11 0H18.5z"/><path id="DejaVuSans-114" d="M41.109 46.297q-1.516.875-3.297 1.281Q36.031 48 33.89 48q-7.625 0-11.703-4.953T18.11 28.813V.001H9.078v54.688h9.031v-8.5q2.844 4.984 7.375 7.39 4.547 2.422 11.047 2.422.922 0 2.047-.125 1.125-.109 2.484-.359z"/><path id="DejaVuSans-87" d="M3.328 72.906h9.953L28.61 11.281l15.28 61.625h11.094l15.328-61.625 15.281 61.625H95.61L77.297 0H64.891L49.516 63.281 33.986 0H21.578z"/></defs><use xlink:href="#DejaVuSans-73"/><use x="29.492" xlink:href="#DejaVuSans-110"/><use x="92.871" xlink:href="#DejaVuSans-112"/><use x="156.348" xlink:href="#DejaVuSans-117"/><use x="219.727" xlink:href="#DejaVuSans-116"/><use x="258.936" xlink:href="#DejaVuSans-32"/><use x="290.723" xlink:href="#DejaVuSans-112"/><use x="354.199" xlink:href="#DejaVuSans-111"/><use x="415.381" xlink:href="#DejaVuSans-119"/><use x="497.168" xlink:href="#DejaVuSans-101"/><use x="558.691" xlink:href="#DejaVuSans-114"/><use x="599.805" xlink:href="#DejaVuSans-32"/><use x="631.592" xlink:href="#DejaVuSans-40"/><use x="670.605" xlink:href="#DejaVuSans-109"/><use x="768.018" xlink:href="#DejaVuSans-87"/><use x="866.895" xlink:href="#DejaVuSans-41"/></g><path d="m73.833 153.31.415-11.347.415-4.712.119-.312.119.321.059.517.118 5.972.238 22.39.356 34.357.355 5.835.534 4.968.83 4.862.712 4.45.06-.743.059-.072.118.55.356 1.959.238.127.118-.08.297.078.237-.04.119.04.177-.242.297-.53.297-.564.059-.2.06.038.118-.161.237-.723.119-.444.178 1.617.118-.19.178-.313 1.127 2.76.237.48.178.36.297.563.356.52h.118l.415.604.415.4.95.519.355.082.178.118.356.038.178.277.237.24.356.113.356.078.296.235.594.08.296.24.178.08.356.121h.06l.118-.117.118.08.297-.074.415.082.237.04 1.068.086.178.002.237-.157.178-.04.237.08.178-.042.178.115.237-.036.83.038.179.08.237-.042h.06l.058-.12.06.118.652.313.297-.16.178.12.237-.04.237.036h.415l.712.08h.118l.06-.078.06.08.355-.078.237-.078.297.08.711.088.238.04 1.66.084.178.034h.119l.06.04.058-.2.06.158.593.273.237-.042h.06l.059-.12.059.04.178.118.178-.04.178.076.178-.08h.178l.533.24.297-.078 1.601-.067.178-.12.237.08.416-.158.177.002h.12l.177.078.415-.164.237-.082.178-.04.178-.004.119-.04.237.042.178.117.178-.157.119.04.355-.002.06-.158.059.118.297.075.711.084.178.08.297.124.118-.08.238.042.355.082.356.118 1.542-.033.356-.124.356.16.356-.122 1.186.071.178.118.77.004.238.236.356-.198.178.16.178-.04.474.2.415-.076.475-.234.415.16.297-.078.237-.195.712-.04.296-.278.475.076.474.196.178-.082.297-.082 1.304.073.119.158.06-.042.236-.078.06.04.118-.158.178.08.238-.04.177-.082.178.002.119.08.119.002.415.156.178-.038.296.082.475-.038.178-.078.237.04 1.542-.077.119-.04.177.036.297-.122.356.117.296.076h.178l.95.038.118.12.118-.078.178.16.653.086.06.04.058-.158.06.12.118.04.178-.038h.178l.178-.078.237.04.534-.072.119-.082.178.082.178-.122.533-.08.06-.12.059.042h1.364l.178.159.771-.084.06-.158.059.078.593.275.356-.118.177.12.712-.086.119-.078.178.08.296.082.119-.04 1.305-.034.296-.08.178-.077.178-.038.297.08.296-.082 1.72.03.06-.2.059.118.593.273.77.038.12.037.296-.08.178.08.296.082.356-.12.119.042.118.04.594-.075.177-.036h.12l.177-.04.119-.002.415-.196.237.164.356-.12 1.838.076.178.202.475.074.178-.002.593.04.237.155.415.086.119.04.652-.074.238-.08.177.043.12.042.118-.04.178-.118.118.08.356-.122.297-.038.178-.118.474-.08.415-.16.356.118.237-.081.237.037h.178l.653.076.178-.002.178.082.355.116.06-.158.06.118.236.237.178.08.178.078.178-.036.119.04.059-.158.06.04.118.08.178-.038.237.08.178-.038.178.08.237-.038.178.042.119.038.237-.158.652-.075.238-.2.77-.084.12-.12.177.12 1.246-.088.059-.12.06.038.474.238.178-.007.415.124.178.038h.118l.178-.002.356-.275.06.12.177.08 1.246-.072.237-.156 1.305-.073.296-.082.12-.003.118.003.237.037.178-.04.118.16.475.078.178.034.296-.162.178.08.356.078.356.118.119.041.237.158 1.66.006.178.16.475-.078.356-.118.178-.08.178.003.118-.083.119-.04.83-.075.119.04.178.002.178-.042.178-.12.89.082.177.198h.178l.593-.04.06-.12.059.038.415.158.178-.004.237.042.534.082.118-.005.593-.32.534.043.119.08.178-.038h.178l.296-.076.415-.158.178.08.178-.08 1.957.038.475.232.356-.122.178.12.237.04.178.155h.178l.356.122.296.08.237.036h.178l.119-.158.06.04.177.082.297-.034.118-.038.83-.038.179-.115.355-.08.178-.078.238-.08.118-.078h.356l.415-.046.178-.082.237.036h.178l.593.082.238.074.178-.2.059.158.296.078.771.081.238.042 1.186-.08.178-.155.415.161 1.245-.076.238-.037 1.008.086.178-.002 1.601.07.237.195.238.08.059-.198.06.078.236.156.178.08.119.078.296-.082.297.081.178-.042.119.16.059-.08.237-.038.712-.033.237-.198h.119l.178-.04.118-.04.297-.073.178-.118.178.042.355-.118.238-.078.118-.08.119.042.356.078.237.038.949.074.178-.005.118.082.238.034.356.078.237.038.118.084.178.118.356-.198.178.16.237-.036.119.078.178-.118.178.04.178-.12h.178l.83-.075.237-.04.119-.044.178-.158.237.04.534-.044.178-.078.118.002.297-.082.178.158.178.038.118-.12.297.233 1.364.158.237.038.119.08.415.195.119-.158h.178l.415-.08.237-.035.949-.032.178-.16.118.002.771-.395.238.04.296-.078.119-.04.178.122.593-.04.178-.075.237.036.178.08.415.155.475.078.118.08.119-.042.296.077.712.076.178.076.178.078.237.037.237-.077.06-.198.059.12h.178l.178.042.118.04.178-.078.83-.036.12-.038.236.04.416-.153.118-.08.237-.036 1.127-.086.178-.118.178.16h.771l.06-.118.059.038.237.038 1.068.078.237.2.178-.04.118.04.12-.12.296.08h1.898l.296-.282.89-.08.118.002.178.118.356-.118.83.002.06-.2.059.158.297.08 1.067.078.119.078.237-.08.534.237 1.423.084.178.04.356-.116.119.04.178-.16.177.043.356-.12.415.124.178.118 1.305.033.178.12.356.082.356.116.06-.158.058.118.178.118.178-.082.119.038.534-.278.178.04.178.004.118-.002h.119l.237.122.119-.08h.118l.178-.036.119.08.711-.357.356-.076.119.002.296.118.297-.082.474-.08.356-.123.771.075.238.16.415.038.118.078.238-.04h.059l.06-.118.059.12.177.2.594.077h.118l.119-.038.237.04.119.042.118.036.178-.118.237.04.119-.04.119.04.355-.076.12-.038.296.08.415-.038.237-.16.771-.004.178-.078.949.074.178.078.178-.122.118-.04.416.078.474.24.119-.12.296.08.178.082.237.038.178.04.06-.238.059.08.178.12.356-.082.118-.118.178.162.178-.038h.178l.297-.078.355-.118.593-.04.12-.078.236.08.415-.197.178.002h.297l.237-.162.06.118.059-.04.474.08.593.272.415-.08.297-.082.237.078.119.077.237-.042.356.08.06.08.059-.078.118.08.178.077.119-.04.178.08.178-.075.178-.08.059-.158.06.08h.177l.89-.074.237-.033.296-.078.653-.317.118-.08.178.002.178.036.356-.122.415.078.238.075.177-.04.178.198.178.076.712.038.237.197.119.042.178.12.178.042.178.12.059-.04.178.162.237.04.119.04.178-.158.178.12.118-.118h.178l.178.084.06.08.059-.082.237-.038.415-.078.771-.402.415-.035.178-.242.237.04.356-.082.356-.202.237.2.238-.08.059.12.06-.04.118.08.415.16.178-.002.118.04.06-.12.06.118.177.12.237.077.178.12.771.082.119-.002.237-.08.119.04.118-.08.178.04.178-.12.06.12.059-.08.237-.038.178-.04.118-.038.238-.08.356-.16.237.082.296-.081 1.483.042.119-.004.118-.04 1.068-.004.237.242.178.037h.119l.118-.002.178-.042h.119l.06-.12.058.078.178.118.238.078h.178l.177.004.238.08.178-.003.415-.075.178.002 1.364-.105.356-.156.355.158.475-.078.237-.038.653-.088.177-.12.12.082.355-.124.237.08.178-.004.534-.038.06-.238.059.158.296.078.119.082.178-.002.296.002.06-.12.059.082.237.042.119.084.059.078.06-.082.177-.078.356.12.474-.08.12-.078.177.12.178.04.119.04.355-.082.178.004.712-.088.119-.08.355.118.178-.042.297.08.178-.078.119.038.415-.164.237.04.178.082.178.076.237.08.06-.158.059.12.237.157.178.084.178.118.237-.038.06.04.059-.118.059.08.296.084.475.122.237.042.415-.04.178-.078.83-.08.178-.076.712-.084.178-.08.178.039.237-.082.06.16.059-.04.415.04.119.037.237-.044.06.08.177-.122.949.078.297.075.533.004.119-.159.178.12.178-.04.178.04.178.004.118.04.119-.118.178.08.237-.038.119-.04.178.002.237-.08.356-.115.118.04.178-.12.178.082.356-.12.297-.078.118-.16.06.043.177.033.178-.04.356.2.178-.12.119.042.83.032.119.042.178.036.177.16.12-.083.236.156.178.084.178.08.178-.036.06.08.059-.12.059.04.415.084.119.078.237-.042h.119l.059-.158.06.12.118.08.178-.078.118.162.06-.082.237-.038.356-.078.237-.035.119-.003.178-.12.178.078.177-.08h.178l.238-.084.296-.075.237.038.416-.084.118-.08.178.082.237-.082.06-.04.178.158.711.033.06.08.177-.718.594-3.428.237-.24.237-.399.119-.759.415-2.79.296-.478.06.08.237-.636.474-3.308.06-.12.118-.796.06.12.415 2.66.06.2.058-.32.06.08.059.043.474-2.432.06.123.356 2.036.059.12.06.397.059-.202h.059l.178-.362.118-.479h.06l.059-.317.06.28.059.476.059-.48.06.08.236 1.152.12-.123.058.36.06-.08.118-.042.238-.874.177-.834.06.28.06-.08.118.077.237.677.119-.043.118.4.06-.32.059.2.06-.08.236-.919.178-.474.06.082.059.36.06-.48.058.357.06.12.06-.28.118.32.059-.358.06.203.059.16.059-.24.119.322.059-.357.06.242.059.12.059-.32.06.2.058.08.06-.278.06.04.058.4.06-.32.296.679.06-.32.059.16.06.402.058-.32.06-.04.06.4.118-.397.059.359.06-.28.059-.24.059.32.06-.162.059.04.059.317.06-.28.058-.157.06.4.06-.12.058-.04.06.317.059-.242.06-.32.118.482.06-.16.059.28.059-.16.06-.279.118.317.06-.16.058.2.06-.122.059-.277.119.434.059-.361.06.279.059.12.059-.32.118.439.06-.36.06.2.058.238.06-.322.059.24.06.117.059-.277.118.4.119-.322.06.319.059-.28.296.637.06-.16.118.238.119-.317.059.397.06-.278.059-.042.059.28.06-.238.058.042.06.32.06-.162.058-.08.06.16.118-.24.06.32.059-.24.06-.08.059.24.059-.118.06-.04.118.32.06-.278.058.362.06-.08.059-.24.06.163.118-.082.06.24.059-.08.059-.358.06.28.058.08.06-.2.118.317.06-.36.059.24.06.322.059-.24.118.158.06-.32.059.282.06.2.058-.277.06.117.06.08.058-.157.119.677.06-.28.059-.082.059.32.06-.2.118.399.119-.28.059.16.06-.12.296.602.118-.163.06.24.059-.082.06-.118.059.28.059-.122.06-.12.058.24.12-.28.058.24.06-.16.059-.08.119.357.059-.24.06.2.059-.04.059-.28.06.322.058-.122.06-.2.06.2.058-.04.06-.037.118.317.06-.279.059.157.06.082.059-.197.118.237.06-.32.059.123.06.2.058-.278.06.16.059.157.06-.24.059.163.059.16.06-.238.059.158.059.08.118-.24.06.317.06-.322.058.16.06.24.059-.118.297.48.118-.24.06.28.059-.12.06.04.058.28.06-.118.059-.198.06.24.059-.16.059-.04.06.32.059-.122.059-.04.06.277.059-.12h.059l.06.24.118-.4.118.4.06-.2.059.2.06-.08.059-.24.118.277.06-.08.059.198.06-.042.058-.238.12.357.058-.24.06.119.059.16.06-.12.118.277.06-.237.059.122.059.08.06-.2.058.157.06.078.06-.197.058.122.06.08.118-.16.06.24.118-.24.06.239.059-.2.296.438.119-.238.06.202.059-.158h.059l.06.16.059-.12.059.003.119.24.059-.12.06.16.058-.12.06-.118.059.24.06-.12.059-.08.059.12.06-.078.059.003.118.28.06-.2.059.2.06-.08.058-.16.06.159.06-.04.058-.157.06.12.059-.003.06-.16.059.12h.059l.06-.157.118.197.06-.162.058.118.06.24.06-.16.414.401.06.04.059-.118.06.118.058.32.06-.162.06-.003.058.198.06-.12.059.04.06.24.118-.242.237.437.06-.158.059-.04.06.12.058-.04.06-.002.118.195.06-.158.059.2.06-.08.059-.157.059.24.06-.04.058.04.06.239.06-.04.058-.04.119.28.06-.12.118.195.06-.16.059.162.059-.037.06-.16.059.16.059-.158.118.198.06.08.059-.12.119.237.059-.118.06.118.059.08.059-.24.06.04.059.122.059-.157.06.12.058.12.06-.16.118.24.06-.08.118.077.06-.157.059.04.06.16.059-.04h.059l.06.12.058-.078.06-.078.06.16.058-.083.119.2.119-.2.059.12.06-.12.059-.002.059.202.06-.118.058-.16.06.12.118-.12.06.162.059-.042h.06l.237.318.296-.158.119.118.059-.2.119.282.059-.042.06.117.059-.042.059-.16.119.2.118.04.06.042.059-.12.059.04.06.118.059-.12h.059l.237.275.119-.04.118.04h.06l.06.198.058-.04.06.04.059.202.06-.122.652.477.059-.16.06.04.118.2.237-.083.06.24.059-.04h.178l.059.002.119.24.059-.238.06.2.236.24.06-.118.06.122.177.12h.06l.059-.12.059.042.178.08.356.044.237.162.06-.078.059.08.059.082.06-.08h.058l.06.12.06-.08.118.16.059-.12.237-.16.06.12.059-.12.118-.04.178.082.06.08.059-.12.06.16.059-.04.059-.08.06.08.118-.04.06.12.059-.082.237-.078.118.12.238-.202.118.12.119.04.178.078.118-.078.119.12.119-.084 1.127.677.118-.12.178.158.237.24.238.077.118.042h.237l.119.24.06-.04.177-.04.178.036.119-.08.237.162.119-.158.237.08.118-.038.06.08.178-.162.118.002.238.04.474-.198.178.002.77-.078.12-.12.237.162.178-.12.652.08.119.036.237-.201.178.158.712.35h.059l.06-.16.058.119.356.117h.06l.059.12.06-.042.236.078.416.162.83.046.178.08.237-.04.178-.158.415.203.297-.077.118-.08.178-.036.238.036.355-.12.771-.047.178-.077.771-.002.119-.082.296.08.297-.086.356.084.178.12.83.084.178.037h.297l.118-.08.237.122.06-.08.059.082h.119l.178-.037.178.042.474-.278.06.08.059-.08.652-.038.178-.241.119.12.474-.196.178.082.237-.04.415-.081.178.002.534.117.237.04.89.08.356.156.356-.284.177.277.297.08.178.076h.297l.059-.12.06.04.948.078.297.08.415-.154.237.042.297-.078.415-.195.237.038.296-.078 1.898.11.475.235.237-.042.712.36.178-.158h.118l.119-.158.06.118.177.08.653-.118.177.002.416-.078.178-.118.177-.038.238-.157.356-.038.118-.12.178.122.178-.044.178-.08.237-.078.119-.04.06-.08.058.08.178.12.238-.042.059.118.06-.08h.058" clip-path="url(#pd564141661)" fill="none" stroke="#1f77b4" stroke-linecap="square" stroke-width="1.5"/><path d="m73.833 70.143.771-56.542L74.886-1m.321 0 .227 11.231.297 31.229.178 10.901 2.313 49.053.06.246.058-.273.593 9.823.178 1.37.178 1.961.06-.074.059-.12.178 1.517.06-.28.236-2.162.06-.12.118.25.712-3.269.178-.52.06.04.177-1.207.178 1.908.06-.12.296-1.603.06.04.059.04.118.559.178-.36h.119l.89 3.497.059-.074.059-.36.06.155.059.16.059.524.06-.16.059-.08.118.28.178-.604.06.405.059-.325.178.37.059-.4.178.73.06-.24.177.73.297-.764.059-.04.119.4.177-.56.06.04.178-.837.059.074.06.52.059-.036.059.04.06-.12.059.285.118-.394.06.24.118-.52.178.48.06-.32.059.24.059-.12.06.04.059.04.178.913.059-.324.06.165.058.234.06-.12.059.006.06.314.177-.599.06.48.059-.246.06.16.236-.673.06.12.593 2.534.118-.4.12.12.058-.28.06.475.059-.4.06.04.118-.558.06.154.474 1.956.059-.28.178-.987.119.524.177-.485.12.404.058-.359.06.155.178-.04.178.4.118.074.06.115.177-.55.06.086.059.36.06-.126h.059l.059-.354.178.77.119-.565.059.04.06-.12.118.868.06-.04.177-.189.06.12.414-1.203.178 1.233.06-.12.118-.25.356.17.06-.039.059.4.06-.235.058-.52.06.12.178.44.178-.749.296-.758.06.2.474-1.557.06.005.118.514.06-.04.058.434.06-.08.059.045.06-.399.059.155.118.08.119.24.237-1.08.297.68.059-.395.119.435.118-.41.178.833.06-.394.059.24.059-.28.237.908.297.753.415 1.967.119-.124.237-.709.06.04.118.235.178-.28.296 1.203.06-.08.177-.439.12.075.177.634.06.16.059-.08.178-.085.059-.005.237.503.06-.314.059.045.178.355.059-.04.119-.718.059.16.237.244.06-.28.059.474.059-.315.178.395.06.394.059-.32.059-.114.178.404.06.075.058-.08.06-.12.059-.444.06.24.118-.08.06.235.059-.08.059.005.296-.714.06.16.178-.36.237.81.118-.23.06.04.06.194.058-.08.06-.394.059.045.178.519.06.24.177-.52.06-.124.059.32.178-.63.059.435.06-.235.177-.08.119-.2.06.4.058-.354.12.04.058.444.06-.474.059.16.178.758.06-.04.059.155.059-.2.06.045.058.275.06-.195.06-.035.118.484.059-.234.475-1.323.118.435.06-.2.059-.36.118.515.06-.36.118.515.06-.405.059.045.06-.08.059.24.059-.16.06-.08.058-.434.06.24.06-.036.236.824.178-.718.06.12h.059l.06.354.236-1.393.06.04.118-.31.178-.005.178-.359.06.075.118-.165.06.04.533 1.637.297-1.199.118.48.178-.32.119.678.119-.364.059.04.118.01.178-.325.119.594.178-.554.237.674h.06l.118.36.06-.155.177.598.06-.12.118.53.06-.155.118-.314.119.359.06-.04.177-.51.178-.04.237.964.119-.554.06.2h.058l.06.12.118-.44.06.435.059-.075.06.085.118-.479.178.883.06-.035.058-.08.119.355.06.36.059-.235.059.16.06-.4.059.235.059.115.06-.195.118.474.06-.32.058.08.119-.08.06.08.059-.359.059.24.119.44.059-.245.06-.08.059.08.059.314.118-.439.12.35.058-.08.06.045.118.519.119-.52.356 1.344.118-.115.119-.36.237.6.297-1.348.06.155.058.04.178.364.06.234.059-.04.06-.124.177.24.06-.006.237-.758.118-.16.119.04.06-.315.118.554.06-.075.058.005.06.12.178-.48.059.16.06-.04.355-1.586.06.194.118-.005.178-.204.119-.679.059.12.297 1.347.237.035.118-.868.06.28.059-.2.415 1.038.06-.16.059.24.118-.758.06.354.059-.314.178-.554.06-.08.059.08.059.035.06-.24.296 1.273h.059l.119.793.118-.469.119.554.06-.32.058-.314.178.52.238-.834.118.274.178-.913.06.12.059.434.06-.195.058.24.06-.435.059.08.06.12.059-.08.059-.24.06.2.177.439.06-.04.059.439.06-.32.355 1.418.119-.195.118-.559.119.484.06-.04.118.125.06-.36.177.635.06-.045.414 1.827.12.399.058-.2.297.869.119-.474.059.04.118.394.178.08.178-.684.119.2.06-.2.118.6.356-.754h.059l.119.28.237-1.473.06.04.058.354.12-.554.058.08.594-2.35.059.124.178.554.059-.274.119.604.059-.12.06.04.059-.125.118-.434.06.32.059-.12.118.16.06.204.06-.115.118.114.059-.035.06-.394.059.16h.059l.06.234.118-.314.118.2.06.274.06-.4.058.235.178.759.178-.24.119.035.06-.074.058.354.06-.12.06-.075.355.958.06-.164.177-.315.06.394.059-.124.06-.24.118.355.059-.155.119.474.059-.324.06.24.059.314.059-.275.119-.403.177.599.06.32.059-.315.06.234h.059l.059.16.06-.4.059.24.059.28.06-.315.059.08.118-.075.06.394.118-.394.178.838.06-.314h.118l.06.279.059-.16.118-.24.119.245.06-.04.118-.713.059.28.06-.235.237.754.296-.435.06.244.059-.08.118-.394.06.16.059-.075.237-.724h.06l.177-.709.06.035.118.04.178.714.356-.999.06.036.118.629.178-.839.06.04.118-.519.178-.519.118-.04.06-.005.118-.394.06-.04.118-.52.06.04.178.515.059-.08.178.12.118-.28.416 1.349h.059l.118.2.178-.913.06.234.059.125.06-.04.059-.074.059.08.06.354.059-.04.059-.04.06-.354.058.084.297 1.154.06.04.237 1.316.118-.48.119.08.06-.314.058.32.06-.08.059-.04.06.195.118-.35.06.08.059-.12.177.714.178-.514.06.08.059.279.178-.594.119.434.118-.399.06.434.059-.12.178-.199 2.49 41.227.475 7.307.06-.149.059-.146.178-.812.06.084.058-.08.119-.25.237-1.863.297-4.383.534-9.303.652-13.563.356-10.457.652-21.147 1.127-28.826.297-6.344.059-.206.356-6.433.06-.085.118.149.356 5.258.355 6.276.95 14.442 1.067 27.138.296 2.418.06-.125.237 1.323.06-.12.059-.08.118.804.178 1.05.06-.04.118.968.06-.235.177-.355.06.12.059-.404.06.08.177.474.06.12.059-.315.06.12.058-.08.06.12.118-.56.119.04.178.365.06-.085.177-.354.06.2.118-.155.119-.32.118.12.06-.32.059.04.119.125.059-.239.06.155.058-.155.06.439.06-.04.058-.08.119.395.06-.315.059.16.118.234.06-.359.059.075.06.285.058-.165.238.44.059-.156.06.08.237.16.118-.115.06.2.059-.04.06.044.058-.08.238-.479.059.32.06-.16.059.08.118-.32.119.2.06-.155.177.36.06-.285.059.315.059-.2.237-.32.119.32.118-.235.06.2.178-.64.178.564.059-.035.237-.678.178.195.119-.28.059.16.178-.479.178.59.178.28.118-.245.178.319h.119l.178.195h.118l.06.125.118-.475.238.844.118-.16.119.394.06-.239.058.195.12.604.058-.324.119.075.119.274.118-.274.237.439.12.24.058-.32.06.2.059-.08.06.394.059-.479.059.205.06.124.059-.075.059-.2.06.12.296.75.059-.16.06.2.059-.12.178.11.059-.16.06.12.177.629.06-.045.118-.444.06.12.059-.12.118-.714.06.12.177-.434.06-.035.118-.634.06.084.118-.09.06.16.059-.12.297-1.312.118.08.06-.395.059.04.06.12.058-.045.119-.21.06.196.059-.005.059.195.06-.235.059.04.237.195.178-.315.118.32.238-.714.059-.155.296.873.06-.04.237.63.178.593.06-.484.058.36.238.758.296.989.06-.2.059.16.178-.405.118.005.06-.155.059.165.06-.275.118.355.178-.346.06.12.058-.16.06.04.296-.244.06.285.059-.04.06.035.236-.395h.06l.06.32.177-.834.06-.08.237.804.059.085.118-.2.06.24.06-.2.058-.235.06.2.237.59.06-.2.059.04.177-.47.06.24.06-.08.058-.245.119.31.119-.234.118.195.06-.32.059.475.06-.275.118-.075.118.559.06-.035.237-.574.06.204.059.08.178-.599.059.4.06-.315.236.084.178-.444.119.245.119-.484.059.075.06-.16.058.04.12-.035.177-.355.06-.12.059.12.059.2.237-.77.119.165.06.399.058-.12.178-.51.06-.08.118.28.06-.2.059.32.06-.08.058.08.06-.08.06-.075.296.918.059-.08.06-.279.059.12h.059l.06-.32.058.12.06.076.296-.609.06.075.059.16.178-.27.06.075.296 1.07.059-.04.297 1.052.118-.124.237-.758h.06l.118.32.06-.32.059.274.06-.084.059-.28.059.205.06.32.059-.045.118-.4.06.04.296.28.06.239.059-.12h.178l.059.2.178-.24.237 1.003.237-1.064.06.24.059-.36.06.12.058.32.06-.2.06.2.058-.126.119-.24.178.075.119.2.118.878.06-.16.059-.12.06.32.058-.32.06.045.059.4.06-.165.059-.36.059.085.119.355.118-.644.06.04.059.32.06-.08.058-.24.06.155.059.235.119-.28.059.395.06-.24.118.005.06.285.059-.24.177-.4.06.08.118.28.06.155.118-.394.06.16.178-.41.059.245.118-.034.06-.08.06-.285.118.364.356-.833.059.32.178-.395.06.04.058.32.06-.28.178.568.118-.519.06.195.059-.08.237-.55.06.085.118-.28.178.4.119-.484.059.274.06.24.058-.125h.06l.118-.24.178.155.06-.16.118.355.06-.045.059.08.06-.28.059.285.059-.28.06.16.236.234.06.44.059-.2.237-.524.06.36.059-.32.06.2.058-.2.06.28.06-.32.177.48.119.439.059-.32.178-.24.118.684.12-.364.414.609.06-.155.059.275.06-.075.118-.315.06.035.058.124.06-.075.059.005.06-.364.177.484h.06l.059-.115.118.16.06-.045.06-.2.058.035h.06l.178.72.059-.235.06-.045.059-.195.059.24.06-.165.118-.085.06.16.058-.315.06.32.06-.36.058.275.06.045.118.36.178-.44.178.484.06-.364.059.04.06-.04.058.359.178-.48.06.24.059-.164.06.08.059.444.059-.2.178-.444.06-.284.058.155.06-.04.178-.324.118.32.06-.16.059-.075.06.244.058-.2.12-.04.177.435.119-.484.059.324.06-.12.118-.12.06-.359.058.12.06.044.06.28.058-.08.06.075.059-.12.178.569.06-.16.118-.359.119.275.118-.12.178.444.178-.474.534 2.25.06-.04.118-.394.059.074.06.16.177-.36.356.734.06-.2.059.076.059.12.178.997.119-.599.059.24.06.204.058-.16.238-.758.415 1.403.118-.125.178.479.534-2.45.06-.04.177.324.06-.16.118.56.06.28.178-.56.178.235.118.205.119-.56.178-1.037.059.08.119-.56.237.64.06.159.474-1.752.118.04.475 1.554.059-.075.06.04.059.2.059-.12.06.04.177.514.178-.32.119.838.059-.164.119-.555.059.125.178-.559.06.04.355 1.507.06-.319.118.559.06-.32.059.04.237.844.06.08.118-.12.118.2.06-.085.178-.32.296-.544.06.035.177.478.178-.284.06-.08.237-.842.06-.2.058.12.178-.005.119-.204.119.558.059-.084.237-1.033.06-.16.059.359.06-.04.236-.37.119.475.119-.444.118.555.119-.604.06.084.118.28.237.634.06-.165.059.08.059.36.06-.32h.058l.12.32.118-.394.118.16.06-.48.059.12h.06l.059.12.059-.2.06.28.058-.245.06-.205.06.045.058.36.06-.2.178.245.118.164.06-.08.059-.08.178-.37.06.365.058-.324.06.12.118-.32.06-.035.059.2.178-.47.06.32.059-.205.296-1.393.178.21.06-.355.059.399.059-.245.119-.2.059.4.06-.12.058-.08.12.12.058-.12.06.395.059-.285.06.125.059-.4.059.325.06-.08.177.354.06-.36.059.24.118-.04.06-.12.296 1.519.06-.44.177.485.12.035.118-.08.118.16.119-.36.178.52.06-.04.059.36.059-.28.178.385.178-.124.059.319.06-.284.118-.325.178.444.06-.4.058.165.12.4.058-.204h.06l.059-.245.178.52.06-.28.059.28.059-.36.06.355.058-.275.238-.794.059.32.06-.28.237-.52.059-.084.06.399.058-.4.06.24.178.085.059-.04.06-.36.059.12.178.115.059-.036.118-.394.12.563.058-.32.06.16.118.57.06-.325.237.954.06-.354.058.2.178.288.178.04.06.24.059-.12.119-.035.059.24.118-.48.12.559.058-.36.06.12.178.565.059-.005.06.2.177-.4.178-.364.119.604.06-.16h.058l.119.17.178-.489.178-.609.06.045.058.04.06-.36.06.32.236-.634.06.12.118-.164.119.683.06-.08.177-.559.06.24.059-.08.059-.12.06.115.059.08.059-.12.178-.643.118.009.178.204.178-.399.06.16.059-.12.119.125.059-.205.06.08.058.32.06-.44.06.12h.058l.119.72.06-.035.118-.16.119.125.059-.08.06.359.059-.035.177-.48.238.245.296-.514.178.554.06.16.118-.515.06.04.118.16.06.439.059-.12.178-1.003.118.075.06-.04.237 1.198h.059l.178-.914.06.479.059-.404.059.12.118-.316.238.879.118-.28.119-.204.356.918.06-.045.058.12.06-.045.059-.164.06.075.059.04.237-1.073.296 1.433.178-.564.238.843.059.045.296-1.636h.06l.237.723h.06l.059.364.237-.838.237.474.297-1.113.237-1.362.415 1.407.06-.245.296-1.028.178.719.118-.364.178.404.356 1.228.178-.16.06.04.118-.644.06.12.236.394.12-.195.296.51.118.074.06.28.059-.12.119-.036.059.32.06-.125.058-.12.178-.559.356-.479.06.24.177-.714.06.16.06-.086.058.116.06-.08.118-.315.06.04.059.32.178-.564.06.12.118-.524.178.404.059-.244.119.56.178-.485.118-.399.119.205.06-.24.118.405.059-.32.06.285.118.275.06-.324.177.718.06-.24.059.12.178.83h.059l.06-.12.177.559.297.759.06-.284.058.08.119.08.06-.32.118.524.178-.554.178.474.118-.235.06-.4.06.045.177-.04.178.364.296.753.356-.848.119.523.237-.72.06.08.059.28.118-.399.119.2.06-.04.118.284.178-.32.06.08.058-.314.06.359.06-.04.058-.08.178.834.238-.798.118.638.119-.084.06-.04.058.36.06-.24.059-.005.178-.559.178-.199.118.205.06-.12.06.24.058-.16h.06l.118-.32.119.04.178.445.06.04.177.4.06.04.237-.476.059-.034.06.399.059-.32.059.36.06-.08.059-.2.177.474.06-.16.178.714.118-.2.119-.644.06.245.059-.08.059-.164.06.075.296.927.059.005.178.644h.06l.118-.6.118.484.178-.638.119.084.356-.843.178-.13.118.724.178-.604.178.245.119-.435.119.12.118-.554.237.733.178-.563.119.244.06.24.059-.16.177-.644.06.04.06.2.058-.28.416 1.842.237-.524.118.324.238-.52.237-.163.178.444.178-.05.059.32.06-.28.059-.24.059.036.237.439.178-.324.119.563.118-.124.119-.44.06.28.059-.28.059.24h.06l.474-1.865.296.883.119-.48.296.64.119-.28.178-.528.06.04.058-.28.06.165.178.364.059.32.119-.4.059.16.06-.28.059.16.177.204.178-.519.06-.314.059.08.178.204.119-.084.237.334.178.04.296-1.158.119.24.06-.08.118-.285.118.524.06-.235.118.044.356 1.003.237-.169.06.32.06-.165h.058l.297 1.048.06-.12.414-.524.06-.32.059.04h.06l.059-.199.237.803.356 1.078.178-.164.118.724.06-.12.177-.125.12-.409.058.085h.06l.118.279.06-.164.296-.586.06.285.059-.12.237-1.132.06.16.533 1.417h.06l.059-.28.059.36.237-.933.06.164.059-.044.118-.285.06.12.06-.075.058-.12.06.125.118.24.06-.405.059.24.178-.12h.06l.118.205.06-.08.177-.833.06.16.177-.4.238.719.118-.16.06.085h.059l.178.21.178-.28.059-.28.06.08.118.04.118.44.06.004.178.729.059-.404.06.04.177.404.119-.045.356-.759.118.12.06.4.059-.204.119-.44.059.08.119.56.059-.28h.118l.12-.28.058.036.119-.48.06.2.059-.04.178-.479.177.56.12-.16.118.17.356-.365.177-.16.06.165.237-.444.119.48.059-.236.06.165.177.2.178.119h.06l.177.314h.06l.059-.4.06.24.177.798.06-.16.059-.28.06.08.236.689.06-.324.059.24h.06l.059-.285.059.28.06-.04.058-.04.178-.275.119.2.06-.12.059.319.059-.2.119.045.118.32.06-.155.059.24.06-.036.058.04.178-.28h.119l.06.16.237-.474.059.404.06-.325.058.365.06-.16.118.274.297-.803.06.2.059-.04.059-.04.06.165.118-.489.118.285.178-.115.06-.04.178.2.059.08.118-.405.06.44.06-.24.118.284.059-.08.06-.2.059.04.059-.044.06.08.059-.32.177.36.12-.04.177.514.06.16.059-.12.118.035.297-.274.06.28.058-.316.06.2.059-.12.06.125.059-.04.237.678.356-.728.059.319.06-.4.059.4.059-.08.06-.124.059.16.059-.04.06-.28.059.12.177-.37.178.49.06-.285.059.32.06-.36.059.4.178-.53.059-.119.06-.4.058.12.178-.075.06-.319.178.519.237.08.118.12.06-.08.118.235.178-.434.178.684.06-.085.118.125.06-.24.059.24.06-.48.058.2.06-.2.059.085.06.04.177.444.06-.285.177.395.06-.404.06.284.058-.2.06.24.059-.16.119-.075.118.165.119.56.178-.045.118.035.178-.28.06.12.059-.28.06.28.059-.32.059.48.06-.16.118.12.118-.08.06-.284.059.16.178-.2.297.279.118.364.178-.883.06-.2.177.28.06-.44.059.205.06.244.059-.364.059.28.06-.2.058.12.06.2.06-.32.058.359.06-.035.178-.2.118.449.119-.16h.118l.178-.2h.119l.297-.609.118.205.178.005.178.36.06-.16.059.04.059.159.06-.4.059.036.237.08.118-.24h.06l.059.12.06-.16.059.12.059.285.178-.444.06.12.058-.04.238-.644.118.04.06-.24.059.16h.06l.118-.164.119.32.059.12.06-.285.118.32h.118l.297 1.242.06-.125.118.15.06-.403.058.044.06.36.06-.24.058-.125.178.484.06-.2.059.04.296.879.238.075.118.075.119-.16.178.56.296-.365.06-.044.059.085.06.124.118-.359.119.165.059-.275.06.08.058.359.06-.275.118-.519.06.08h.118l.06.124.059-.394.06.164.118.524.119-.4.118.245.119-.28.118.605.06-.4.059.04.178-.31.06.165.118.075.118.404.12-.394.118.24.118-.4.06.24.059.239.06-.2.118.25.06-.116.118-.01.296.595.119-.764.178.71.06-.04.058.04.12-.12.177.03.119-.159.059.035.119-.329.059.115.06.475.059-.32.237.195.118.594.178-.524.415.39.238.404.178-.693.059.12.178.443.178-.319.178.529.059-.04.119-.24.059.04.119.195.059.364.06-.244.058-.155.06.12.178.728.059-.115.83-3.07.119.24.06-.116.296-.754.178-.034.118.164.178-.115.06.08.237 1.033.118-.04.119.2.237-1.607.06.084.177.2.12.24.414 1.64h.06l.118-.119.237.803.238.998.296.394.119-.16.178.525.534-3.084.118-.68.119.28.178.893.237-.568.296-1.452.06-.044.06.08.118-.52.059.08.119.729.059-.125.296-1.047.12-.24.296.554.059-.08.178.404.06-.204.177.803.119-.005.356 1.478.059.04.06.239.355-1.168.119.045.237.848.06-.115.058-.035.06.4.06-.245.058.04.119-.529.119.529.059-.324.06.155.177.08.06.16.059-.04.356-.121.118-.559.119.204.06-.08.177.689.534-1.322.06.325.118.484.178-.205.178.599.237-.688.06-.28.059.24.237.32.06-.204.058.16.119.01.06.159.059-.08.296-.843.237.843.06-.045.237-1.207h.06l.118.2.118-.275.12.759.058-.116.06-.04.059-.399.06.479.059-.244.059-.325.06.205.118.13.119.319.177-.4.06.085.237.918.178.444.178-.435.118.035.06-.239.06.16.296-.27.118-.04.06.08.059-.24.06.125.236.364.119-.08.119-.234.059.08.178-.484.06.16.118.438.06-.08.118.365.178-.254.059.04.06-.155.059.04.118.16h.06l.059.12.06-.28.058.115.119-.08.119-.28.118.444.06-.04.059-.075.06.12.058-.12.12-.16.118.515.059-.124h.06l.059-.205.059.08.06-.04.237.35.177-.48.12.754.058-.12.119.04.119.48.059-.164.06-.08.059.085.118-.04.178.573.06-.324.059.16.059.319.06-.08.118-.36.06.045.059-.04.118-.439.06.4.059-.165.237.474.06.36.059-.245.059-.28.119.64.059-.24.296-.59.06.24.059-.44.06.364.237-.564.059.165.118-.554.12.598.177-.793.178.399.178-.444.178.04.178-.48.118.52.119-.514.06.08.059.16.059-.16.06.044.059.005.237-.888.178.444.178-.324.059-.24.06.164.118.475.06-.36.058.4.06-.284.118.444.06-.045.059-.359.06.12.118.16.06-.48.059.036.177.359.594-3.668.118.19.119-.608.06.275.058.319.06-.08.711-4.82.119.4.06-.125.118-.759.06.24.059-.12.83-4.232.119.235.296 1.676.06.435.059-.28.178-.554.296-1.662.06-.08.237 1.112.237 1.866h.06l.118.355.296-1.473.06.045.118-.005.06-.914.059.634.178.36.06-.445.058.32.12 1.037.058-.4.178-.833.06.165.474-1.847.06.484.059-.404.296.434.237-.125.178-.364.119-.394.06.284.118-.879.06.36.059-.28.059-.319.178 1.232.118.24.06-.114.059.673.06-.28.059-.239.059.52.06-.235.118.48.06-.045.058-.399.06.599.06-.125.058-.12.06.678.059-.204.06-.12.059.28.059-.115.06-.12.236.999.12-.44.177.68h.06l.118-.485.119.68.059-.12.06-.006.059.28.118-.594.06.515.059-.52.118.64.06-.434.118.598.06-.793.059.4.06.075.059-.594.059.359.06.319.118-.429.06.634.058-.434.119.998.06-.44.118.404.06-.518.118.838.118-.798.12.604.058-.08.119.32.119-.08.059-.48.06.085.059.274.059-.44.06.04.118.235.06-.194.296.85.059-.595.06.799.059-.205.059-.475.06.24.059-.08.059-.434.06.554.058-.24.06-.359.06.719.058-.115.06-.555.118.555.06-.16.118.594.06-.56.059.6.06-.166.058-.518.06.364.06.2.058-.4.06.28.059.075.06-.394.059.32.059.479.06-.245.059-.16.059.16.06-.2.058.165.12-.044.118.843.059-.434.06.164.059.475.059-.355.06.04.059.44.059-.28.06-.36.058.155h.06l.06-.434.058.758.06-.404.059.005.119.2.059-.32.06.559.059-.474.059.08.118.279.178-.08.06-.4.059.28.06.155.059-.474.059.364.06-.124.177.639.06-.565.059.36.178-.315.059.2.06-.475.059.16.059.08.06-.2.059.28.059-.085.119-.035.059.12.06-.28.058.12.06.32.06-.355.058.04.178.439.06.16.118-.4.06.08.118-.395.06.6.059-.28.06-.04.058.559.06-.48.178.6.059-.4.06.355.059-.04.237-.799.06.275.058-.2.06-.155.059.115.06.24.059-.359.059.564.06-.125.177.275.06-.48.059.36.237.793.06-.274.059.16.059.28.119-.684.059.36.06-.56.058.4.06.194.06-.28.058.04.06.315.059-.639.178 1.238.06-.12.059.195.059-.404.06.28.058-.006.06-.359.06.12.058.2.06-.36.059.04.06.28.059-.24.296.728.119-.194.06.399.058-.12.178-.36.178.205h.06l.059.234.06-.16.059-.08.059.2.06-.04.058-.199.06.434.059-.244.06-.155.118.519.06-.2.177.4.119.154.06-.315.058.12.12-.2.118.64.059-.24.178-.275.119.354.059-.16.06.36.058-.165.178-.08.119-.364.237 1.073.06-.479.059.244.06-.044.236.434.06-.355.059.24.119-.48.118.44.06-.24.237.565.118-.2.119.355.237-.52.06.156.059.52.06-.2.118-.365.06-.32.058.246.06.16.059-.365.178.599.06-.085.592 1.008.06-.08.059.275.06-.244.296-1.153.06.439.058-.36.12.565.118-.196.059.04.237-.768.06.205.059-.16.118-.115.06.359.06-.115.058-.234.119.643.06-.395.059.24.059.36.06-.28.236.604.12-.394.296.763.059-.275.178-.41.06.16h.058l.12-.483.533 1.606.06-.04.118-.409.06.12.058-.045.178-.27.297.316.06-.16.118.838.06-.24.058-.12.06.356.059-.236.06-.16.059.36.059-.04.119-.08.059-.04.119.474.059-.124.06.04.058.28.06-.04.118-.205.238.56.059-.2.296 1.402.06-.324.118.603.06-.08.059.08.119-.28.355 1.612.12.554.058-.124.06-.16.059.165.06-.275.118.32.237-1.034.06.035.118.16.06-.28.059.155.059.04.237-.673.178-.609.178.449.178-.32.119.36.237-.635.118-.035.06-.16.06.08.058-.08.119.56.06-.24.237-1.288.118.2.119-.39.06.32.058-.125.06-.08.118-.444.238 1.033.059-.04.178.4.06.044.236.928.119-.045.06.364.059-.08.237-.638.06.084.177.4.06.16.059-.16.059.08.119.319.059-.04.296-.44.297 1.279.119-.758.059.035.06-.005.118-.404.06.08.118.403.06-.04.058-.199.06.08.118.209.119-.404.178.474.178-.653.06.205.177.284.119-.12.118.48.119-.2.296-.933.178-.084.119.359.06-.165.059.155.118.44.237-.55.12.598.177-.12.178.404.06-.04.059-.239.059.08h.06l.177-.604.06.4.059-.2.118-.474.06.204.296.679.178-.439.06-.08.118-.409.178.923.119-.24.415.773.118-.639.06.04.237.594.06-.12.058.08.297 1.372.119-.04.059.2.06-.16.236.155.12-.364.058.4.06-.12.118-.076.178-.683.237.234.06-.165.178.01.118-.683.178.684.119-.489.178-.444.06.04.236.52.119-.32.119.24.237-.688.118-.36.12-.279.118.04.118-.15.06.319.059-.195.06.04.177.604.119-.404.06.12.118.244.118-.444.06.124.059-.239.06.085.059.16.059-.08.118-.156.06.24.06-.32.058.2.119-.36.06.205.296-.639h.118l.06-.08.06.16.177-.315.06.08.177-.195.178.758.06-.044.059-.284.06.12.058.239.119-.16.06.32.059-.04.178-.2.059-.16.06.4.059-.085.059.08.06-.244.236.594.06.04.178-.245.178.874.118-.558.415.753.238-.678.059-.005.06.28.058-.08.12.085.058-.284.06.075.118-.08.119-.474.06.284.059-.04.059.04.06.2.058-.16.178-.4.06.16.059-.399.06.035.237.05.177-.155.12.324.177.843.178-.595.119.48.118-.15.06-.2.059.124.06.364.058-.04.06-.399.059.04.119.28.059.194.119-.32.178.68.177-.16.06.04.06.319.058-.045.178-.44.06-.199.355 1.318.12-.2.296.524.059-.32.06.28.236-1.083.178.44.119-.04.297-.578.059.04.06.359.058-.08.178-.395.06.2.059-.12.237-.278.178-.444.06-.04.118.204h.06l.118.32.06-.045.296-1.163.119.444.059-.164.06.04h.118l.118.16.119-.08.119.363.059-.04.06-.16.059.196.177-.44.297.89.119-.04.178.35.118.163.178-.32.119.155.059.325.06-.16.118-.37.06-.278.059.359.059-.125.118-.359.12-.035.058-.245.06.16.118.564.06-.12.059-.324.06.324.177-.404.119.04.06-.28.058.32.06-.4.06.24.058.04.06-.16.178.44.178-.315.059.16.118-.684.12.319.058-.395.06.085h.059l.119-.364.059.04h.06l.177.364.119-.4.118.45.119.279.06-.035.059.359.059-.16.06-.364.059.12.059.2.06-.16.177.16.119-.235.059.124.297.435h.059l.06.399.058-.244.06-.08.06.164.058-.32.06.28.118-.16.06-.24.059.156.06-.165.118.564.06-.324.059.04.237.595.06-.08.058-.12.06.04.118.16.06-.325.059.08.119.15.177-.643.06.16.06-.08.058.04.178.568.06.164.059-.124.119-.404.118.195.06-.045.237-.524.118.24.06-.36.059.325.06-.04.059-.36.059.24.06-.004.058-.12.12.714.058-.32.06.085.237-.031.06.28.118-.355.237.284.119-.444.178.569.474-.235.06.315.118-.764.06.04.059.444.059-.279.178.369.06-.155.177.803.119-.359.06.08.058-.44.06.28.118-.16" clip-path="url(#pd564141661)" fill="none" stroke="#ff7f0e" stroke-linecap="square" stroke-width="1.5"/><path d="M57.6 307.58V41.47m357.12 266.11V41.47M57.6 307.58h357.12M57.6 41.472h357.12" fill="none" stroke="#000" stroke-linecap="square" stroke-width=".8"/><path d="M295.05 78.828h112.67q2 0 2-2V48.472q0-2-2-2H295.05q-2 0-2 2v28.356q0 2 2 2z" fill="#fff" opacity=".8" stroke="#ccc"/><path d="M297.05 54.57h20" fill="none" stroke="#1f77b4" stroke-linecap="square" stroke-width="2"/><g transform="matrix(.1 0 0 -.1 325.05 58.07)"><defs><path id="DejaVuSans-78" d="M9.813 72.906h13.28l32.329-60.984v60.984h9.562V0H51.703L19.391 60.984V0H9.813z"/><path id="DejaVuSans-99" d="M48.781 52.594v-8.406q-3.813 2.11-7.64 3.156t-7.735 1.047q-8.75 0-13.594-5.547-4.828-5.531-4.828-15.547t4.828-15.562q4.844-5.531 13.594-5.531 3.906 0 7.734 1.047t7.641 3.156V2.094Q45.015.344 40.984-.53q-4.016-.89-8.562-.89-12.36 0-19.641 7.765-7.266 7.766-7.266 20.953 0 13.375 7.344 21.031Q20.219 56 33.015 56q4.14 0 8.094-.86 3.953-.843 7.671-2.546z"/><path id="DejaVuSans-97" d="M34.281 27.484q-10.891 0-15.094-2.484t-4.203-8.5q0-4.782 3.156-7.594 3.156-2.797 8.563-2.797 7.484 0 12 5.297t4.515 14.078v2zm17.922 3.719V0h-8.984v8.297Q40.14 3.327 35.547.953T24.313-1.422q-8.39 0-13.36 4.719-4.952 4.719-4.952 12.625 0 9.219 6.171 13.906 6.188 4.687 18.438 4.687h12.61v.89q0 6.204-4.079 9.595t-11.453 3.39q-4.687 0-9.14-1.125-4.438-1.125-8.531-3.375v8.313q4.921 1.906 9.562 2.844Q24.22 56 28.61 56q11.875 0 17.734-6.157 5.86-6.14 5.86-18.64z"/><path id="DejaVuSans-100" d="M45.406 46.391v29.594h8.984V.001h-8.984v8.203Q42.578 3.33 38.25.954 33.937-1.42 27.875-1.42q-9.906 0-16.141 7.906-6.219 7.922-6.219 20.812t6.219 20.797q6.234 7.907 16.14 7.907 6.063 0 10.376-2.375 4.328-2.36 7.156-7.235zM14.797 27.297q0-9.906 4.078-15.547t11.203-5.64 11.22 5.64q4.108 5.64 4.108 15.547t-4.109 15.547q-4.094 5.64-11.219 5.64t-11.203-5.64-4.078-15.547z"/><path id="DejaVuSans-103" d="M45.406 27.984q0 9.766-4.031 15.125-4.016 5.375-11.297 5.375-7.219 0-11.25-5.375-4.031-5.36-4.031-15.125 0-9.719 4.03-15.094t11.25-5.375q7.282 0 11.298 5.375 4.031 5.375 4.031 15.094zM54.39 6.781q0-13.953-6.203-20.766Q42-20.797 29.203-20.797q-4.734 0-8.937.703t-8.156 2.172v8.734q3.953-2.14 7.812-3.156 3.86-1.031 7.86-1.031 8.843 0 13.234 4.609t4.39 13.938v4.453q-2.781-4.844-7.125-7.234T27.875 0Q17.828 0 11.672 7.656q-6.156 7.672-6.156 20.328 0 12.688 6.156 20.344Q17.828 56 27.875 56q6.063 0 10.406-2.39t7.125-7.22v8.298h8.985z"/></defs><use xlink:href="#DejaVuSans-78"/><use x="74.805" xlink:href="#DejaVuSans-111"/><use x="135.986" xlink:href="#DejaVuSans-32"/><use x="167.773" xlink:href="#DejaVuSans-99"/><use x="222.754" xlink:href="#DejaVuSans-97"/><use x="284.033" xlink:href="#DejaVuSans-114"/><use x="325.146" xlink:href="#DejaVuSans-116"/><use x="364.355" xlink:href="#DejaVuSans-114"/><use x="405.469" xlink:href="#DejaVuSans-105"/><use x="433.252" xlink:href="#DejaVuSans-100"/><use x="496.729" xlink:href="#DejaVuSans-103"/><use x="560.205" xlink:href="#DejaVuSans-101"/></g><path d="M297.05 69.249h20" fill="none" stroke="#ff7f0e" stroke-linecap="square" stroke-width="2"/><g transform="matrix(.1 0 0 -.1 325.05 72.749)"><defs><path id="DejaVuSans-69" d="M9.813 72.906h46.093v-8.313H19.674V43.017h34.719V34.72h-34.72V8.297h37.11V0H9.812z"/><path id="DejaVuSans-90" d="M5.61 72.906h57.28v-7.531L16.796 8.297h47.22V0H4.498v7.516l46.094 57.078H5.61z"/><path id="DejaVuSans-45" d="M4.89 31.391h26.313v-8H4.89z"/><path id="DejaVuSans-70" d="M9.813 72.906h41.89v-8.313h-32.03V43.11h28.905v-8.297H19.672V0H9.813z"/><path id="DejaVuSans-76" d="M9.813 72.906h9.859V8.297h35.5V0H9.812z"/><path id="DejaVuSans-65" d="M34.188 63.188 20.797 26.907h26.812zm-5.578 9.719h11.188L67.578 0h-10.25l-6.64 18.703H17.83L11.19 0H.783z"/><path id="DejaVuSans-83" d="M53.516 70.516v-9.625q-5.61 2.688-10.594 4-4.984 1.328-9.625 1.328-8.047 0-12.422-3.125t-4.375-8.89q0-4.844 2.906-7.313 2.906-2.453 11.016-3.969l5.953-1.219q11.031-2.109 16.281-7.406t5.25-14.172q0-10.609-7.11-16.078-7.093-5.469-20.811-5.469-5.172 0-11.016 1.172Q13.14.922 6.89 3.22v10.155q6-3.36 11.766-5.078 5.765-1.703 11.328-1.703 8.437 0 13.03 3.312 4.595 3.329 4.595 9.485 0 5.36-3.297 8.39T33.5 32.328L27.485 33.5q-11.03 2.188-15.969 6.875-4.922 4.688-4.922 13.047 0 9.672 6.813 15.234t18.766 5.563q5.14 0 10.453-.938 5.328-.922 10.89-2.765z"/><path id="DejaVuSans-72" d="M9.813 72.906h9.859V43.015h35.844v29.891h9.86V0h-9.86v34.719H19.672V0h-9.86z"/><path id="DejaVuSans-74" d="M9.813 72.906h9.859V5.078q0-13.188-5-19.141t-16.094-5.953h-3.75v8.297h3.078q6.531 0 9.219 3.672Q9.812-4.391 9.812 5.078z"/></defs><use xlink:href="#DejaVuSans-69"/><use x="63.184" xlink:href="#DejaVuSans-90"/><use x="129.939" xlink:href="#DejaVuSans-45"/><use x="166.023" xlink:href="#DejaVuSans-70"/><use x="223.543" xlink:href="#DejaVuSans-76"/><use x="281.506" xlink:href="#DejaVuSans-65"/><use x="349.914" xlink:href="#DejaVuSans-83"/><use x="413.391" xlink:href="#DejaVuSans-72"/><use x="488.586" xlink:href="#DejaVuSans-32"/><use x="520.373" xlink:href="#DejaVuSans-74"/><use x="549.865" xlink:href="#DejaVuSans-117"/><use x="613.244" xlink:href="#DejaVuSans-110"/><use x="676.623" xlink:href="#DejaVuSans-105"/><use x="704.406" xlink:href="#DejaVuSans-111"/><use x="765.588" xlink:href="#DejaVuSans-114"/></g><defs><clipPath id="pd564141661"><path d="M57.6 41.472h357.12v266.11H57.6z"/></clipPath></defs></svg>