<svg width="614.4" height="460.8" viewBox="0 0 460.8 345.6" xmlns="http://www.w3.org/2000/svg" xmlns:xlink="http://www.w3.org/1999/xlink"><defs><style>*{stroke-linecap:butt;stroke-linejoin:round}</style></defs><path d="M0 345.6h460.8V0H0z" fill="#fff"/><path d="M57.6 307.58h357.12V41.47H57.6z" fill="#fff"/><defs><path id="m7655f70e10" d="M0 0v3.5" stroke="#000" stroke-width=".8"/></defs><use x="72.35" y="307.584" stroke="#000" stroke-width=".8" xlink:href="#m7655f70e10"/><g transform="matrix(.1 0 0 -.1 69.169 322.18)"><defs><path id="DejaVuSans-48" d="M31.781 66.406q-7.61 0-11.453-7.5Q16.5 51.422 16.5 36.375q0-14.984 3.828-22.484 3.844-7.5 11.453-7.5 7.672 0 11.5 7.5 3.844 7.5 3.844 22.484 0 15.047-3.844 22.531-3.828 7.5-11.5 7.5zm0 7.813q12.266 0 18.734-9.704 6.469-9.687 6.469-28.14 0-18.407-6.469-28.11-6.469-9.687-18.734-9.687-12.25 0-18.719 9.687-6.469 9.703-6.469 28.11 0 18.452 6.469 28.14 6.469 9.703 18.719 9.703z"/></defs><use xlink:href="#DejaVuSans-48"/></g><use x="131.658" y="307.584" stroke="#000" stroke-width=".8" xlink:href="#m7655f70e10"/><g transform="matrix(.1 0 0 -.1 128.48 322.18)"><defs><path id="DejaVuSans-49" d="M12.406 8.297h16.109v55.625l-17.531-3.516v8.985l17.438 3.515h9.86V8.297H54.39V0H12.406z"/></defs><use xlink:href="#DejaVuSans-49"/></g><use x="190.967" y="307.584" stroke="#000" stroke-width=".8" xlink:href="#m7655f70e10"/><g transform="matrix(.1 0 0 -.1 187.79 322.18)"><defs><path id="DejaVuSans-50" d="M19.188 8.297H53.61V0H7.329v8.297q5.61 5.812 15.297 15.594 9.703 9.797 12.188 12.64 4.734 5.313 6.61 9 1.89 3.688 1.89 7.25 0 5.813-4.078 9.47-4.078 3.672-10.625 3.672-4.64 0-9.797-1.61-5.14-1.61-11-4.89v9.968q5.953 2.391 11.125 3.61 5.188 1.219 9.484 1.219 11.328 0 18.062-5.672 6.735-5.656 6.735-15.125 0-4.5-1.688-8.531-1.672-4.016-6.125-9.485-1.218-1.422-7.765-8.187-6.532-6.766-18.453-18.922z"/></defs><use xlink:href="#DejaVuSans-50"/></g><use x="250.275" y="307.584" stroke="#000" stroke-width=".8" xlink:href="#m7655f70e10"/><g transform="matrix(.1 0 0 -.1 247.09 322.18)"><defs><path id="DejaVuSans-51" d="M40.578 39.312q7.078-1.516 11.047-6.313 3.984-4.78 3.984-11.812 0-10.78-7.422-16.703-7.421-5.906-21.093-5.906-4.579 0-9.438.907T7.625 2.203v9.516q4.094-2.39 8.969-3.61 4.89-1.218 10.219-1.218 9.265 0 14.125 3.656t4.86 10.64q0 6.454-4.516 10.079-4.516 3.64-12.562 3.64h-8.5v8.11h8.89q7.266 0 11.125 2.906t3.86 8.375q0 5.61-3.985 8.61-3.969 3.015-11.39 3.015-4.063 0-8.704-.89-4.64-.875-10.203-2.72v8.782q5.625 1.562 10.531 2.344t9.25.781q11.234 0 17.766-5.11 6.547-5.093 6.547-13.78 0-6.063-3.469-10.234t-9.86-5.782z"/></defs><use xlink:href="#DejaVuSans-51"/></g><use x="309.584" y="307.584" stroke="#000" stroke-width=".8" xlink:href="#m7655f70e10"/><g transform="matrix(.1 0 0 -.1 306.4 322.18)"><defs><path id="DejaVuSans-52" d="M37.797 64.312 12.891 25.39h24.906zm-2.594 8.594H47.61V25.39h10.406v-8.203H47.61V-.001h-9.812v17.188H4.89v9.515z"/></defs><use xlink:href="#DejaVuSans-52"/></g><use x="368.892" y="307.584" stroke="#000" stroke-width=".8" xlink:href="#m7655f70e10"/><g transform="matrix(.1 0 0 -.1 365.71 322.18)"><defs><path id="DejaVuSans-53" d="M10.797 72.906h38.719v-8.313H19.828V46.736q2.14.734 4.281 1.093 2.156.36 4.313.36 12.203 0 19.328-6.688 7.14-6.687 7.14-18.109 0-11.766-7.328-18.297Q40.234-1.42 26.906-1.42q-4.594 0-9.36.78-4.75.782-9.827 2.345v9.922q4.39-2.391 9.078-3.563t9.906-1.172q8.453 0 13.375 4.438 4.938 4.437 4.938 12.062 0 7.609-4.938 12.047-4.922 4.453-13.375 4.453-3.953 0-7.89-.875-3.922-.875-8.016-2.735z"/></defs><use xlink:href="#DejaVuSans-53"/></g><g transform="matrix(.1 0 0 -.1 215.83 335.86)"><defs><path id="DejaVuSans-84" d="M-.297 72.906h61.672v-8.313H35.5V0h-9.906v64.594H-.297z"/><path id="DejaVuSans-105" d="M9.422 54.688h8.984V0H9.422zm0 21.297h8.984V64.594H9.422z"/><path id="DejaVuSans-109" d="M52 44.188q3.375 6.063 8.063 8.938T71.093 56q8.547 0 13.189-5.985 4.64-5.969 4.64-17V0h-9.031v32.72q0 7.859-2.797 11.655-2.781 3.813-8.484 3.813-6.985 0-11.047-4.641-4.047-4.625-4.047-12.641V0h-9.031v32.719q0 7.906-2.782 11.688t-8.593 3.781q-6.891 0-10.953-4.656-4.047-4.656-4.047-12.625V.001H9.078v54.688h9.032v-8.5q3.078 5.031 7.375 7.422T35.688 56q5.968 0 10.14-3.03 4.173-3.016 6.173-8.782z"/><path id="DejaVuSans-101" d="M56.203 29.594v-4.39H14.891q.594-9.282 5.594-14.142t13.938-4.859q5.172 0 10.03 1.266t9.657 3.812v-8.5Q49.266.734 44.188-.344T33.891-1.422q-13.094 0-20.734 7.61-7.64 7.624-7.64 20.624 0 13.422 7.25 21.297Q20.017 56 32.329 56q11.03 0 17.453-7.11 6.421-7.093 6.421-19.296zm-8.984 2.64q-.094 7.36-4.125 11.75-4.032 4.407-10.672 4.407-7.516 0-12.031-4.25t-5.203-11.97z"/><path id="DejaVuSans-40" d="M31 75.875q-6.531-11.219-9.719-22.219Q18.11 42.672 18.11 31.39q0-11.266 3.203-22.328T31-13.188h-7.813Q15.875-1.704 12.234 9.374T8.594 31.39q0 10.891 3.61 21.922 3.624 11.047 10.983 22.562z"/><path id="DejaVuSans-115" d="M44.281 53.078v-8.5q-3.797 1.953-7.906 2.922-4.094.984-8.5.984-6.688 0-10.031-2.047T14.5 40.281q0-3.125 2.39-4.906t9.626-3.39l3.078-.688q9.562-2.047 13.594-5.781t4.03-10.422q0-7.625-6.03-12.078-6.032-4.438-16.578-4.438-4.39 0-9.156.86T5.421 2v9.281q4.985-2.594 9.813-3.89 4.828-1.282 9.578-1.282 6.344 0 9.75 2.172 3.422 2.172 3.422 6.125 0 3.657-2.469 5.61-2.453 1.953-10.812 3.765l-3.125.735q-8.344 1.75-12.062 5.39-3.703 3.64-3.703 9.985 0 7.719 5.469 11.906Q16.752 56 26.813 56q4.97 0 9.36-.735 4.407-.718 8.11-2.187z"/><path id="DejaVuSans-41" d="M8.016 75.875h7.812q7.313-11.516 10.953-22.562 3.64-11.031 3.64-21.922 0-10.938-3.64-22.016T15.828-13.187H8.016Q14.5-1.999 17.703 9.063t3.203 22.328q0 11.281-3.203 22.266-3.203 11-9.687 22.219z"/></defs><use xlink:href="#DejaVuSans-84"/><use x="57.959" xlink:href="#DejaVuSans-105"/><use x="85.742" xlink:href="#DejaVuSans-109"/><use x="183.154" xlink:href="#DejaVuSans-101"/><use x="244.678" xlink:href="#DejaVuSans-32"/><use x="276.465" xlink:href="#DejaVuSans-40"/><use x="315.479" xlink:href="#DejaVuSans-115"/><use x="367.578" xlink:href="#DejaVuSans-41"/></g><path d="M57.6 307.58h357.12" clip-path="url(#p7e62fe09d8)" fill="none" stroke="#b0b0b0" stroke-linecap="square" stroke-opacity=".2" stroke-width=".8"/><defs><path id="mc359d527e8" d="M0 0h-3.5" stroke="#000" stroke-width=".8"/></defs><use x="57.6" y="307.584" stroke="#000" stroke-width=".8" xlink:href="#mc359d527e8"/><use xlink:href="#DejaVuSans-48" transform="matrix(.1 0 0 -.1 44.238 311.38)"/><path d="M57.6 290.95h357.12" clip-path="url(#p7e62fe09d8)" fill="none" stroke="#b0b0b0" stroke-linecap="square" stroke-opacity=".2" stroke-width=".8"/><use x="57.6" y="290.952" stroke="#000" stroke-width=".8" xlink:href="#mc359d527e8"/><g transform="matrix(.1 0 0 -.1 37.875 294.75)"><use xlink:href="#DejaVuSans-53"/><use x="63.623" xlink:href="#DejaVuSans-48"/></g><path d="M57.6 274.32h357.12" clip-path="url(#p7e62fe09d8)" fill="none" stroke="#b0b0b0" stroke-linecap="square" stroke-opacity=".2" stroke-width=".8"/><use x="57.6" y="274.32" stroke="#000" stroke-width=".8" xlink:href="#mc359d527e8"/><g transform="matrix(.1 0 0 -.1 31.512 278.12)"><use xlink:href="#DejaVuSans-49"/><use x="63.623" xlink:href="#DejaVuSans-48"/><use x="127.246" xlink:href="#DejaVuSans-48"/></g><path d="M57.6 257.69h357.12" clip-path="url(#p7e62fe09d8)" fill="none" stroke="#b0b0b0" stroke-linecap="square" stroke-opacity=".2" stroke-width=".8"/><use x="57.6" y="257.688" stroke="#000" stroke-width=".8" xlink:href="#mc359d527e8"/><g transform="matrix(.1 0 0 -.1 31.512 261.49)"><use xlink:href="#DejaVuSans-49"/><use x="63.623" xlink:href="#DejaVuSans-53"/><use x="127.246" xlink:href="#DejaVuSans-48"/></g><path d="M57.6 241.06h357.12" clip-path="url(#p7e62fe09d8)" fill="none" stroke="#b0b0b0" stroke-linecap="square" stroke-opacity=".2" stroke-width=".8"/><use x="57.6" y="241.056" stroke="#000" stroke-width=".8" xlink:href="#mc359d527e8"/><g transform="matrix(.1 0 0 -.1 31.512 244.86)"><use xlink:href="#DejaVuSans-50"/><use x="63.623" xlink:href="#DejaVuSans-48"/><use x="127.246" xlink:href="#DejaVuSans-48"/></g><path d="M57.6 224.42h357.12" clip-path="url(#p7e62fe09d8)" fill="none" stroke="#b0b0b0" stroke-linecap="square" stroke-opacity=".2" stroke-width=".8"/><use x="57.6" y="224.424" stroke="#000" stroke-width=".8" xlink:href="#mc359d527e8"/><g transform="matrix(.1 0 0 -.1 31.512 228.22)"><use xlink:href="#DejaVuSans-50"/><use x="63.623" xlink:href="#DejaVuSans-53"/><use x="127.246" xlink:href="#DejaVuSans-48"/></g><path d="M57.6 207.79h357.12" clip-path="url(#p7e62fe09d8)" fill="none" stroke="#b0b0b0" stroke-linecap="square" stroke-opacity=".2" stroke-width=".8"/><use x="57.6" y="207.792" stroke="#000" stroke-width=".8" xlink:href="#mc359d527e8"/><g transform="matrix(.1 0 0 -.1 31.512 211.59)"><use xlink:href="#DejaVuSans-51"/><use x="63.623" xlink:href="#DejaVuSans-48"/><use x="127.246" xlink:href="#DejaVuSans-48"/></g><path d="M57.6 191.16h357.12" clip-path="url(#p7e62fe09d8)" fill="none" stroke="#b0b0b0" stroke-linecap="square" stroke-opacity=".2" stroke-width=".8"/><use x="57.6" y="191.16" stroke="#000" stroke-width=".8" xlink:href="#mc359d527e8"/><g transform="matrix(.1 0 0 -.1 31.512 194.96)"><use xlink:href="#DejaVuSans-51"/><use x="63.623" xlink:href="#DejaVuSans-53"/><use x="127.246" xlink:href="#DejaVuSans-48"/></g><path d="M57.6 174.53h357.12" clip-path="url(#p7e62fe09d8)" fill="none" stroke="#b0b0b0" stroke-linecap="square" stroke-opacity=".2" stroke-width=".8"/><use x="57.6" y="174.528" stroke="#000" stroke-width=".8" xlink:href="#mc359d527e8"/><g transform="matrix(.1 0 0 -.1 31.512 178.33)"><use xlink:href="#DejaVuSans-52"/><use x="63.623" xlink:href="#DejaVuSans-48"/><use x="127.246" xlink:href="#DejaVuSans-48"/></g><path d="M57.6 157.9h357.12" clip-path="url(#p7e62fe09d8)" fill="none" stroke="#b0b0b0" stroke-linecap="square" stroke-opacity=".2" stroke-width=".8"/><use x="57.6" y="157.896" stroke="#000" stroke-width=".8" xlink:href="#mc359d527e8"/><g transform="matrix(.1 0 0 -.1 31.512 161.7)"><use xlink:href="#DejaVuSans-52"/><use x="63.623" xlink:href="#DejaVuSans-53"/><use x="127.246" xlink:href="#DejaVuSans-48"/></g><path d="M57.6 141.26h357.12" clip-path="url(#p7e62fe09d8)" fill="none" stroke="#b0b0b0" stroke-linecap="square" stroke-opacity=".2" stroke-width=".8"/><use x="57.6" y="141.264" stroke="#000" stroke-width=".8" xlink:href="#mc359d527e8"/><g transform="matrix(.1 0 0 -.1 31.512 145.06)"><use xlink:href="#DejaVuSans-53"/><use x="63.623" xlink:href="#DejaVuSans-48"/><use x="127.246" xlink:href="#DejaVuSans-48"/></g><path d="M57.6 124.63h357.12" clip-path="url(#p7e62fe09d8)" fill="none" stroke="#b0b0b0" stroke-linecap="square" stroke-opacity=".2" stroke-width=".8"/><use x="57.6" y="124.632" stroke="#000" stroke-width=".8" xlink:href="#mc359d527e8"/><g transform="matrix(.1 0 0 -.1 31.512 128.43)"><use xlink:href="#DejaVuSans-53"/><use x="63.623" xlink:href="#DejaVuSans-53"/><use x="127.246" xlink:href="#DejaVuSans-48"/></g><path d="M57.6 108h357.12" clip-path="url(#p7e62fe09d8)" fill="none" stroke="#b0b0b0" stroke-linecap="square" stroke-opacity=".2" stroke-width=".8"/><use x="57.6" y="108" stroke="#000" stroke-width=".8" xlink:href="#mc359d527e8"/><g transform="matrix(.1 0 0 -.1 31.512 111.8)"><defs><path id="DejaVuSans-54" d="M33.016 40.375q-6.64 0-10.531-4.547-3.875-4.531-3.875-12.438 0-7.86 3.875-12.438 3.89-4.562 10.531-4.562t10.516 4.562q3.875 4.578 3.875 12.438 0 7.906-3.875 12.438-3.875 4.547-10.516 4.547zm19.578 30.922v-8.984q-3.719 1.75-7.5 2.671-3.781.938-7.5.938-9.766 0-14.922-6.594-5.14-6.594-5.875-19.922 2.875 4.25 7.219 6.516 4.36 2.265 9.578 2.265 10.984 0 17.359-6.672 6.375-6.656 6.375-18.125 0-11.234-6.64-18.03-6.641-6.782-17.673-6.782-12.656 0-19.344 9.688-6.687 9.703-6.687 28.109 0 17.28 8.203 27.562t22.016 10.28q3.719 0 7.5-.734t7.89-2.187z"/></defs><use xlink:href="#DejaVuSans-54"/><use x="63.623" xlink:href="#DejaVuSans-48"/><use x="127.246" xlink:href="#DejaVuSans-48"/></g><path d="M57.6 91.368h357.12" clip-path="url(#p7e62fe09d8)" fill="none" stroke="#b0b0b0" stroke-linecap="square" stroke-opacity=".2" stroke-width=".8"/><use x="57.6" y="91.368" stroke="#000" stroke-width=".8" xlink:href="#mc359d527e8"/><g transform="matrix(.1 0 0 -.1 31.512 95.167)"><use xlink:href="#DejaVuSans-54"/><use x="63.623" xlink:href="#DejaVuSans-53"/><use x="127.246" xlink:href="#DejaVuSans-48"/></g><path d="M57.6 74.736h357.12" clip-path="url(#p7e62fe09d8)" fill="none" stroke="#b0b0b0" stroke-linecap="square" stroke-opacity=".2" stroke-width=".8"/><use x="57.6" y="74.736" stroke="#000" stroke-width=".8" xlink:href="#mc359d527e8"/><g transform="matrix(.1 0 0 -.1 31.512 78.535)"><defs><path id="DejaVuSans-55" d="M8.203 72.906h46.875v-4.203L28.61 0H18.312l24.906 64.594H8.202z"/></defs><use xlink:href="#DejaVuSans-55"/><use x="63.623" xlink:href="#DejaVuSans-48"/><use x="127.246" xlink:href="#DejaVuSans-48"/></g><path d="M57.6 58.104h357.12" clip-path="url(#p7e62fe09d8)" fill="none" stroke="#b0b0b0" stroke-linecap="square" stroke-opacity=".2" stroke-width=".8"/><use x="57.6" y="58.104" stroke="#000" stroke-width=".8" xlink:href="#mc359d527e8"/><g transform="matrix(.1 0 0 -.1 31.512 61.903)"><use xlink:href="#DejaVuSans-55"/><use x="63.623" xlink:href="#DejaVuSans-53"/><use x="127.246" xlink:href="#DejaVuSans-48"/></g><g transform="matrix(0 -.1 -.1 0 25.433 219.82)"><defs><path id="DejaVuSans-73" d="M9.813 72.906h9.859V0h-9.86z"/><path id="DejaVuSans-110" d="M54.891 33.016V0h-8.984v32.719q0 7.766-3.032 11.609-3.03 3.86-9.078 3.86-7.28 0-11.484-4.641-4.203-4.625-4.203-12.641V0H9.08v54.688h9.031v-8.5q3.235 4.937 7.594 7.375Q30.079 56 35.798 56q9.422 0 14.25-5.828 4.844-5.828 4.844-17.156z"/><path id="DejaVuSans-112" d="M18.109 8.203v-29H9.078v75.484h9.031V46.39q2.844 4.875 7.156 7.235Q29.593 56 35.593 56q9.969 0 16.188-7.907 6.235-7.906 6.235-20.797T51.78 6.484q-6.219-7.906-16.188-7.906-6 0-10.328 2.375-4.312 2.375-7.156 7.25zm30.578 19.094q0 9.906-4.078 15.547t-11.203 5.64q-7.14 0-11.22-5.64T18.11 27.297t4.078-15.547 11.219-5.64q7.125 0 11.203 5.64t4.078 15.547z"/><path id="DejaVuSans-117" d="M8.5 21.578v33.109h8.984V21.921q0-7.766 3.016-11.656 3.031-3.875 9.094-3.875 7.265 0 11.484 4.64 4.234 4.641 4.234 12.657v31h8.985V-.001h-8.985v8.406Q42.047 3.42 37.718.999q-4.312-2.422-10.03-2.422-9.422 0-14.313 5.86Q8.5 10.294 8.5 21.576z"/><path id="DejaVuSans-116" d="M18.312 70.219V54.688h18.5v-6.984h-18.5V18.016q0-6.688 1.828-8.594t7.453-1.906h9.219V0h-9.219Q17.187 0 13.234 3.875q-3.953 3.89-3.953 14.141v29.688H2.687v6.984h6.594V70.22z"/><path id="DejaVuSans-111" d="M30.609 48.391q-7.219 0-11.422-5.64t-4.203-15.454 4.172-15.453q4.187-5.64 11.453-5.64 7.187 0 11.375 5.656 4.203 5.672 4.203 15.438 0 9.719-4.203 15.406-4.188 5.688-11.375 5.688zm0 7.61q11.719 0 18.406-7.626 6.703-7.609 6.703-21.078 0-13.422-6.703-21.078-6.688-7.64-18.406-7.64-11.766 0-18.438 7.64-6.656 7.657-6.656 21.078 0 13.47 6.656 21.078Q18.843 56 30.609 56z"/><path id="DejaVuSans-119" d="M4.203 54.688h8.985L24.42 12.016l11.173 42.672h10.594l11.234-42.672L68.61 54.688h8.984L63.282 0H52.688L40.922 44.828 29.11 0H18.5z"/><path id="DejaVuSans-114" d="M41.109 46.297q-1.516.875-3.297 1.281Q36.031 48 33.89 48q-7.625 0-11.703-4.953T18.11 28.813V.001H9.078v54.688h9.031v-8.5q2.844 4.984 7.375 7.39 4.547 2.422 11.047 2.422.922 0 2.047-.125 1.125-.109 2.484-.359z"/><path id="DejaVuSans-87" d="M3.328 72.906h9.953L28.61 11.281l15.28 61.625h11.094l15.328-61.625 15.281 61.625H95.61L77.297 0H64.891L49.516 63.281 33.986 0H21.578z"/></defs><use xlink:href="#DejaVuSans-73"/><use x="29.492" xlink:href="#DejaVuSans-110"/><use x="92.871" xlink:href="#DejaVuSans-112"/><use x="156.348" xlink:href="#DejaVuSans-117"/><use x="219.727" xlink:href="#DejaVuSans-116"/><use x="258.936" xlink:href="#DejaVuSans-32"/><use x="290.723" xlink:href="#DejaVuSans-112"/><use x="354.199" xlink:href="#DejaVuSans-111"/><use x="415.381" xlink:href="#DejaVuSans-119"/><use x="497.168" xlink:href="#DejaVuSans-101"/><use x="558.691" xlink:href="#DejaVuSans-114"/><use x="599.805" xlink:href="#DejaVuSans-32"/><use x="631.592" xlink:href="#DejaVuSans-40"/><use x="670.605" xlink:href="#DejaVuSans-109"/><use x="768.018" xlink:href="#DejaVuSans-87"/><use x="866.895" xlink:href="#DejaVuSans-41"/></g><path d="m73.833 153.31.415-11.347.415-4.712.119-.312.119.321.059.517.118 5.972.238 22.39.356 34.357.355 5.835.534 4.968.83 4.862.712 4.45.06-.743.059-.072.118.55.356 1.959.238.127.118-.08.297.078.237-.04.119.04.177-.242.297-.53.297-.564.059-.2.06.038.118-.161.237-.723.119-.444.178 1.617.118-.19.178-.313 1.127 2.76.237.48.178.36.297.563.356.52h.118l.415.604.415.4.95.519.355.082.178.118.356.038.178.277.237.24.356.113.356.078.296.235.594.08.296.24.178.08.356.121h.06l.118-.117.118.08.297-.074.415.082.237.04 1.068.086.178.002.237-.157.178-.04.237.08.178-.042.178.115.237-.036.83.038.179.08.237-.042h.06l.058-.12.06.118.652.313.297-.16.178.12.237-.04.237.036h.415l.712.08h.118l.06-.078.06.08.355-.078.237-.078.297.08.711.088.238.04 1.66.084.178.034h.119l.06.04.058-.2.06.158.593.273.237-.042h.06l.059-.12.059.04.178.118.178-.04.178.076.178-.08h.178l.533.24.297-.078 1.601-.067.178-.12.237.08.416-.158.177.002h.12l.177.078.415-.164.237-.082.178-.04.178-.004.119-.04.237.042.178.117.178-.157.119.04.355-.002.06-.158.059.118.297.075.711.084.178.08.297.124.118-.08.238.042.355.082.356.118 1.542-.033.356-.124.356.16.356-.122 1.186.071.178.118.77.004.238.236.356-.198.178.16.178-.04.474.2.415-.076.475-.234.415.16.297-.078.237-.195.712-.04.296-.278.475.076.474.196.178-.082.297-.082 1.304.073.119.158.06-.042.236-.078.06.04.118-.158.178.08.238-.04.177-.082.178.002.119.08.119.002.415.156.178-.038.296.082.475-.038.178-.078.237.04 1.542-.077.119-.04.177.036.297-.122.356.117.296.076h.178l.95.038.118.12.118-.078.178.16.653.086.06.04.058-.158.06.12.118.04.178-.038h.178l.178-.078.237.04.534-.072.119-.082.178.082.178-.122.533-.08.06-.12.059.042h1.364l.178.159.771-.084.06-.158.059.078.593.275.356-.118.177.12.712-.086.119-.078.178.08.296.082.119-.04 1.305-.034.296-.08.178-.077.178-.038.297.08.296-.082 1.72.03.06-.2.059.118.593.273.77.038.12.037.296-.08.178.08.296.082.356-.12.119.042.118.04.594-.075.177-.036h.12l.177-.04.119-.002.415-.196.237.164.356-.12 1.838.076.178.202.475.074.178-.002.593.04.237.155.415.086.119.04.652-.074.238-.08.177.043.12.042.118-.04.178-.118.118.08.356-.122.297-.038.178-.118.474-.08.415-.16.356.118.237-.081.237.037h.178l.653.076.178-.002.178.082.355.116.06-.158.06.118.236.237.178.08.178.078.178-.036.119.04.059-.158.06.04.118.08.178-.038.237.08.178-.038.178.08.237-.038.178.042.119.038.237-.158.652-.075.238-.2.77-.084.12-.12.177.12 1.246-.088.059-.12.06.038.474.238.178-.007.415.124.178.038h.118l.178-.002.356-.275.06.12.177.08 1.246-.072.237-.156 1.305-.073.296-.082.12-.003.118.003.237.037.178-.04.118.16.475.078.178.034.296-.162.178.08.356.078.356.118.119.041.237.158 1.66.006.178.16.475-.078.356-.118.178-.08.178.003.118-.083.119-.04.83-.075.119.04.178.002.178-.042.178-.12.89.082.177.198h.178l.593-.04.06-.12.059.038.415.158.178-.004.237.042.534.082.118-.005.593-.32.534.043.119.08.178-.038h.178l.296-.076.415-.158.178.08.178-.08 1.957.038.475.232.356-.122.178.12.237.04.178.155h.178l.356.122.296.08.237.036h.178l.119-.158.06.04.177.082.297-.034.118-.038.83-.038.179-.115.355-.08.178-.078.238-.08.118-.078h.356l.415-.046.178-.082.237.036h.178l.593.082.238.074.178-.2.059.158.296.078.771.081.238.042 1.186-.08.178-.155.415.161 1.245-.076.238-.037 1.008.086.178-.002 1.601.07.237.195.238.08.059-.198.06.078.236.156.178.08.119.078.296-.082.297.081.178-.042.119.16.059-.08.237-.038.712-.033.237-.198h.119l.178-.04.118-.04.297-.073.178-.118.178.042.355-.118.238-.078.118-.08.119.042.356.078.237.038.949.074.178-.005.118.082.238.034.356.078.237.038.118.084.178.118.356-.198.178.16.237-.036.119.078.178-.118.178.04.178-.12h.178l.83-.075.237-.04.119-.044.178-.158.237.04.534-.044.178-.078.118.002.297-.082.178.158.178.038.118-.12.297.233 1.364.158.237.038.119.08.415.195.119-.158h.178l.415-.08.237-.035.949-.032.178-.16.118.002.771-.395.238.04.296-.078.119-.04.178.122.593-.04.178-.075.237.036.178.08.415.155.475.078.118.08.119-.042.296.077.712.076.178.076.178.078.237.037.237-.077.06-.198.059.12h.178l.178.042.118.04.178-.078.83-.036.12-.038.236.04.416-.153.118-.08.237-.036 1.127-.086.178-.118.178.16h.771l.06-.118.059.038.237.038 1.068.078.237.2.178-.04.118.04.12-.12.296.08h1.898l.296-.282.89-.08.118.002.178.118.356-.118.83.002.06-.2.059.158.297.08 1.067.078.119.078.237-.08.534.237 1.423.084.178.04.356-.116.119.04.178-.16.177.043.356-.12.415.124.178.118 1.305.033.178.12.356.082.356.116.06-.158.058.118.178.118.178-.082.119.038.534-.278.178.04.178.004.118-.002h.119l.237.122.119-.08h.118l.178-.036.119.08.711-.357.356-.076.119.002.296.118.297-.082.474-.08.356-.123.771.075.238.16.415.038.118.078.238-.04h.059l.06-.118.059.12.177.2.594.077h.118l.119-.038.237.04.119.042.118.036.178-.118.237.04.119-.04.119.04.355-.076.12-.038.296.08.415-.038.237-.16.771-.004.178-.078.949.074.178.078.178-.122.118-.04.416.078.474.24.119-.12.296.08.178.082.237.038.178.04.06-.238.059.08.178.12.356-.082.118-.118.178.162.178-.038h.178l.297-.078.355-.118.593-.04.12-.078.236.08.415-.197.178.002h.297l.237-.162.06.118.059-.04.474.08.593.272.415-.08.297-.082.237.078.119.077.237-.042.356.08.06.08.059-.078.118.08.178.077.119-.04.178.08.178-.075.178-.08.059-.158.06.08h.177l.89-.074.237-.033.296-.078.653-.317.118-.08.178.002.178.036.356-.122.415.078.238.075.177-.04.178.198.178.076.712.038.237.197.119.042.178.12.178.042.178.12.059-.04.178.162.237.04.119.04.178-.158.178.12.118-.118h.178l.178.084.06.08.059-.082.237-.038.415-.078.771-.402.415-.035.178-.242.237.04.356-.082.356-.202.237.2.238-.08.059.12.06-.04.118.08.415.16.178-.002.118.04.06-.12.06.118.177.12.237.077.178.12.771.082.119-.002.237-.08.119.04.118-.08.178.04.178-.12.06.12.059-.08.237-.038.178-.04.118-.038.238-.08.356-.16.237.082.296-.081 1.483.042.119-.004.118-.04 1.068-.004.237.242.178.037h.119l.118-.002.178-.042h.119l.06-.12.058.078.178.118.238.078h.178l.177.004.238.08.178-.003.415-.075.178.002 1.364-.105.356-.156.355.158.475-.078.237-.038.653-.088.177-.12.12.082.355-.124.237.08.178-.004.534-.038.06-.238.059.158.296.078.119.082.178-.002.296.002.06-.12.059.082.237.042.119.084.059.078.06-.082.177-.078.356.12.474-.08.12-.078.177.12.178.04.119.04.355-.082.178.004.712-.088.119-.08.355.118.178-.042.297.08.178-.078.119.038.415-.164.237.04.178.082.178.076.237.08.06-.158.059.12.237.157.178.084.178.118.237-.038.06.04.059-.118.059.08.296.084.475.122.237.042.415-.04.178-.078.83-.08.178-.076.712-.084.178-.08.178.039.237-.082.06.16.059-.04.415.04.119.037.237-.044.06.08.177-.122.949.078.297.075.533.004.119-.159.178.12.178-.04.178.04.178.004.118.04.119-.118.178.08.237-.038.119-.04.178.002.237-.08.356-.115.118.04.178-.12.178.082.356-.12.297-.078.118-.16.06.043.177.033.178-.04.356.2.178-.12.119.042.83.032.119.042.178.036.177.16.12-.083.236.156.178.084.178.08.178-.036.06.08.059-.12.059.04.415.084.119.078.237-.042h.119l.059-.158.06.12.118.08.178-.078.118.162.06-.082.237-.038.356-.078.237-.035.119-.003.178-.12.178.078.177-.08h.178l.238-.084.296-.075.237.038.416-.084.118-.08.178.082.237-.082.06-.04.178.158.711.033.06.08.177-.718.594-3.428.237-.24.237-.399.119-.759.415-2.79.296-.478.06.08.237-.636.474-3.308.06-.12.118-.796.06.12.415 2.66.06.2.058-.32.06.08.059.043.474-2.432.06.123.356 2.036.059.12.06.397.059-.202h.059l.178-.362.118-.479h.06l.059-.317.06.28.059.476.059-.48.06.08.236 1.152.12-.123.058.36.06-.08.118-.042.238-.874.177-.834.06.28.06-.08.118.077.237.677.119-.043.118.4.06-.32.059.2.06-.08.236-.919.178-.474.06.082.059.36.06-.48.058.357.06.12.06-.28.118.32.059-.358.06.203.059.16.059-.24.119.322.059-.357.06.242.059.12.059-.32.06.2.058.08.06-.278.06.04.058.4.06-.32.296.679.06-.32.059.16.06.402.058-.32.06-.04.06.4.118-.397.059.359.06-.28.059-.24.059.32.06-.162.059.04.059.317.06-.28.058-.157.06.4.06-.12.058-.04.06.317.059-.242.06-.32.118.482.06-.16.059.28.059-.16.06-.279.118.317.06-.16.058.2.06-.122.059-.277.119.434.059-.361.06.279.059.12.059-.32.118.439.06-.36.06.2.058.238.06-.322.059.24.06.117.059-.277.118.4.119-.322.06.319.059-.28.296.637.06-.16.118.238.119-.317.059.397.06-.278.059-.042.059.28.06-.238.058.042.06.32.06-.162.058-.08.06.16.118-.24.06.32.059-.24.06-.08.059.24.059-.118.06-.04.118.32.06-.278.058.362.06-.08.059-.24.06.163.118-.082.06.24.059-.08.059-.358.06.28.058.08.06-.2.118.317.06-.36.059.24.06.322.059-.24.118.158.06-.32.059.282.06.2.058-.277.06.117.06.08.058-.157.119.677.06-.28.059-.082.059.32.06-.2.118.399.119-.28.059.16.06-.12.296.602.118-.163.06.24.059-.082.06-.118.059.28.059-.122.06-.12.058.24.12-.28.058.24.06-.16.059-.08.119.357.059-.24.06.2.059-.04.059-.28.06.322.058-.122.06-.2.06.2.058-.04.06-.037.118.317.06-.279.059.157.06.082.059-.197.118.237.06-.32.059.123.06.2.058-.278.06.16.059.157.06-.24.059.163.059.16.06-.238.059.158.059.08.118-.24.06.317.06-.322.058.16.06.24.059-.118.297.48.118-.24.06.28.059-.12.06.04.058.28.06-.118.059-.198.06.24.059-.16.059-.04.06.32.059-.122.059-.04.06.277.059-.12h.059l.06.24.118-.4.118.4.06-.2.059.2.06-.08.059-.24.118.277.06-.08.059.198.06-.042.058-.238.12.357.058-.24.06.119.059.16.06-.12.118.277.06-.237.059.122.059.08.06-.2.058.157.06.078.06-.197.058.122.06.08.118-.16.06.24.118-.24.06.239.059-.2.296.438.119-.238.06.202.059-.158h.059l.06.16.059-.12.059.003.119.24.059-.12.06.16.058-.12.06-.118.059.24.06-.12.059-.08.059.12.06-.078.059.003.118.28.06-.2.059.2.06-.08.058-.16.06.159.06-.04.058-.157.06.12.059-.003.06-.16.059.12h.059l.06-.157.118.197.06-.162.058.118.06.24.06-.16.414.401.06.04.059-.118.06.118.058.32.06-.162.06-.003.058.198.06-.12.059.04.06.24.118-.242.237.437.06-.158.059-.04.06.12.058-.04.06-.002.118.195.06-.158.059.2.06-.08.059-.157.059.24.06-.04.058.04.06.239.06-.04.058-.04.119.28.06-.12.118.195.06-.16.059.162.059-.037.06-.16.059.16.059-.158.118.198.06.08.059-.12.119.237.059-.118.06.118.059.08.059-.24.06.04.059.122.059-.157.06.12.058.12.06-.16.118.24.06-.08.118.077.06-.157.059.04.06.16.059-.04h.059l.06.12.058-.078.06-.078.06.16.058-.083.119.2.119-.2.059.12.06-.12.059-.002.059.202.06-.118.058-.16.06.12.118-.12.06.162.059-.042h.06l.237.318.296-.158.119.118.059-.2.119.282.059-.042.06.117.059-.042.059-.16.119.2.118.04.06.042.059-.12.059.04.06.118.059-.12h.059l.237.275.119-.04.118.04h.06l.06.198.058-.04.06.04.059.202.06-.122.652.477.059-.16.06.04.118.2.237-.083.06.24.059-.04h.178l.059.002.119.24.059-.238.06.2.236.24.06-.118.06.122.177.12h.06l.059-.12.059.042.178.08.356.044.237.162.06-.078.059.08.059.082.06-.08h.058l.06.12.06-.08.118.16.059-.12.237-.16.06.12.059-.12.118-.04.178.082.06.08.059-.12.06.16.059-.04.059-.08.06.08.118-.04.06.12.059-.082.237-.078.118.12.238-.202.118.12.119.04.178.078.118-.078.119.12.119-.084 1.127.677.118-.12.178.158.237.24.238.077.118.042h.237l.119.24.06-.04.177-.04.178.036.119-.08.237.162.119-.158.237.08.118-.038.06.08.178-.162.118.002.238.04.474-.198.178.002.77-.078.12-.12.237.162.178-.12.652.08.119.036.237-.201.178.158.712.35h.059l.06-.16.058.119.356.117h.06l.059.12.06-.042.236.078.416.162.83.046.178.08.237-.04.178-.158.415.203.297-.077.118-.08.178-.036.238.036.355-.12.771-.047.178-.077.771-.002.119-.082.296.08.297-.086.356.084.178.12.83.084.178.037h.297l.118-.08.237.122.06-.08.059.082h.119l.178-.037.178.042.474-.278.06.08.059-.08.652-.038.178-.241.119.12.474-.196.178.082.237-.04.415-.081.178.002.534.117.237.04.89.08.356.156.356-.284.177.277.297.08.178.076h.297l.059-.12.06.04.948.078.297.08.415-.154.237.042.297-.078.415-.195.237.038.296-.078 1.898.11.475.235.237-.042.712.36.178-.158h.118l.119-.158.06.118.177.08.653-.118.177.002.416-.078.178-.118.177-.038.238-.157.356-.038.118-.12.178.122.178-.044.178-.08.237-.078.119-.04.06-.08.058.08.178.12.238-.042.059.118.06-.08h.058" clip-path="url(#p7e62fe09d8)" fill="none" stroke="#1f77b4" stroke-linecap="square" stroke-width="1.5"/><path d="m73.833 153.21.415-11.337.475-4.93.059-.087.119.66.059.485.118 5.79.238 21.95.356 35.133.415 7.005.534 4.646.652 4.138.83 5.094.06-.543.118-.34.534 2.282.178-.072.118-.035.12-.04.355-.322.119.117.296-.558.593-1.456.06.078.237-.678.178-.721.178 1.762.118-.03.178-.318.06.038.355.993.712 1.595.534.881.237.48.415.68.237.12.297.358.593.64.297.083.118-.038.415.397h.178l.06.002.118.116.237-.036.297.076.415.164.475.084h.296l.593.353.06-.157.059.08.118.04.12.08.296.24.474.196.178.04.178.158.178-.038.178-.006.296.082.475.204.178-.08.178-.116 1.127.082.237.038.237-.044h.119l.118.002.178.04.06-.12.059.038.593.04.296.275h.178l.415-.078h.12l.177.036.415-.198.237.164.534.076h.178l.95.036.118.16.059-.043h.178l.119.08.177-.038.416.202.237-.08.178.04.178-.078.474-.08.356-.113.237.002.06-.2.059.16h.118l.178-.117.238.042.118-.08.237.04.06-.16.06.04.651.084.178-.002.416.082.237.035.593.122.296.076 2.195-.042.118-.04.416.162.237-.038.534.038.178.2.177-.04.178.002.297-.076h.119l.059-.158.06.078.177.04.178.005.178.035.119.042.237-.042.237-.2 1.483.074.178.074.711.08.178.075.356-.12.237.078.178-.035h.178l.297-.116.356.114.296-.078.178-.076.297.08.178-.08.177-.036.12-.002.177-.076.415.198.178-.004.297.04.237.153.06-.16.058.04h.12l.177.005.297.077.177.036.238-.042.237.04.119.038.77.042.178.084.238-.035.118-.08.238-.074.296.08.415-.078.237-.158.06-.04.178.158.118.038.178-.078.119.038.178-.122.415-.038.178-.12 1.364.08.178.12.06-.158.059.04 1.245.087.237.035.178.002.771-.124.06-.04.177.196.297-.122.178.12.89.078.296.081.949.118.178.044.296-.235 2.076-.084.06-.118.059.08.652.082.178.036.237-.04.238.04.178-.04.178.075.296-.12.237.04.415-.075.356-.118.356.078.237.044.356-.116.178.158 1.008-.086.238-.04.415.076.118.036h.119l.119-.04.178-.08.533-.009.119-.197.593.042.119.078.296-.12.475.2.711.123.416.202.296-.076.119.04.178.12.296-.08.119-.08.118.002.416.162.237-.04.474-.08.06-.16.059.118.415-.157 1.186.034.178.115.119-.08.118-.04.178.12.297-.078.237-.04.475.082h.177l.475-.195 1.542.084.178.08h.118l.238.081.356-.122.237.045.178-.118.415.156.178-.08.178-.08.178-.078.355-.122.475-.082.119.04.237.038.296.08.238.04h.118l.237.317.356-.117.534.32.237-.079.297.078.296.078.06.12.059-.08.237-.16.771-.082.119-.077.415.2.593-.276h.652l.178-.24.238.08.059-.198.06.16h.177l.119-.04.593-.046.06-.12.058.04h.238l.474.24.237-.082.534.241.593.038.238.158.296.082.237-.036.712-.084.237-.036.771-.086.178.004.119-.044.118-.04h.178l.356-.122.178.084.119-.004.059-.12.06.08h.177l.178.003 1.839.157.296.08h.119l.119.036.178-.116.237.08.178.078.237.077h.178l.237-.035.652-.034.178-.078.119-.04.178.158.119-.08.177-.075.178.044.119-.12.237.162.534-.038.178-.24.356.12.237-.04 1.601-.013.06-.16.059.039h.119l.118.002.237.04.119.04.06.12.059-.043.355-.122 1.602-.042.118-.037.297.08.237.04.297-.078.178.004h.118l.119.118.237-.042.89-.074.237-.038.237.08.178.076.119-.038.118.08.178-.08.119.08.178-.042.296.155.06-.157.059.04.415.2.119-.04.178.117 2.016-.164.119.044.415-.082.178-.04.119-.04.355-.116.178.12.238.042.533.036.06-.16.059.038 1.601.003.178.115.06-.002.118-.118.415.198.178-.08.119.04 1.78-.002.118.08.178-.118.77-.038.179-.08.296.124.415-.153h.178l.356.078.237.04.89-.04h.178l.949.117.178.116.178.082.237.078.118-.158.238.04 1.304.084.12.038.177-.12.178.12.415-.076.475-.197.652-.082.237-.036.356.117.356-.046.178-.078h.178l.06-.118.058.078.178-.08.119-.041.237.037.119.002.178.116 2.016-.117.119-.04.77-.078.179.004.356.116.355-.087.178.005.653.077h.118l.119.003.237.04.89.044.06-.16.058.12.178.04.178-.076.415.16.297-.084 1.127.036.237.195.653.078.237.037.178-.042.178.08.178-.075.118.04.534.075h.119l.177-.078.238.078.178.04.237-.033.237-.08.356-.078.296-.076.178-.077.119-.08.237.04.95-.036.059-.198.059.04.118-.04.12-.08.236.036.119-.04.178.078.118-.082h.12l.414.155.178.08.178.036.237-.036.475.042.178.12.415.082h.178l.178-.04.118.082.238-.157.177.117.416-.157.178-.08.237-.038.296.076.178-.002.238-.082.177-.078.297.076.178.04.178-.038.178-.005.178.082.118-.004.06-.118.059.08.474.202.238.08.178.036.059-.12.06.08 1.007-.074.178-.04.238.043 1.423-.036.119-.038.415-.087.356-.12.474.318.178-.118.178-.044.118-.038.178.118.178-.12.119-.04 1.186.087.297.117.474-.243.119.082.237.037.237-.044.119-.078.118-.001.297.12.237-.085.119.08.356-.116.356.118.296-.08.178-.036.178.12.296-.08.238.084.237-.078.356.2.118-.08.238.084.178-.08.177.082.06-.16.06.118 2.075-.09h.178l.534.074.296.082.415.042.178.12.237-.078.356.122 1.424-.16.296-.078.593-.08.06-.12.059.082.119.04.059-.08.178.158.415-.08.237-.036.119.036.06-.118.058.038.356.124.238-.042.237.036.77.042.06.08.06-.082.118-.002.178-.078.119-.04.237.162.178.004.178-.004.178-.078.355.16.238-.04h.118l.178-.078 1.72-.082.178-.038.119.042.178-.08.83.038.06-.2.058.158.178.04.119-.08.178.04h.178l.178.036.237-.044 1.483-.004.118.16.178-.118.237.082.356.122 2.076-.03.119-.2.06.04.236.04.238-.04.177-.119.95.078.177-.002 1.068.109.178-.002.474.04.119.04.178-.08.178.08.118-.038.178-.078h.178l.178-.002.475-.036.118-.038.237.12.238-.16.178.002.178-.038.177-.002h.178l.416-.08.237-.037.178.08.178.08.178-.123 1.482.078.06-.157.059.12h.178l.118.081.356.118.238.074.118-.16.415.164.178-.038.178.078.119-.038.652.04.119.038.237-.038.771-.038.119-.078.296.08.356-.117.119-.002.178-.118.118.042h.06l.177.118.297-.076.119-.044.118-.12.237.078h.12l.177.04.237-.036.83.034.178.08.416.073.059-.237.06.04.296.2.178-.003 1.66.078.178-.003.415-.12.178.005 1.009.048.177.16 1.068-.082.178-.04.237.04.178.04.119.036h.178l.77-.046.12-.12h.177l1.424.044.118.038.415-.156.238.038.178.08h.118l.297-.078.711-.073.119.002.178.08 1.068.084.118.04.119-.04.237-.036.119-.08.237.04.118-.04.594.036.177.08.772.035.177.12.119-.004.119-.158.118.08.119.04.356.042.118.038.238-.078.296.078.415-.078.297-.08.712-.126.118-.078.297.082.474-.042.119-.08.356.12.652.078.178.038.06-.118.059.12h.178l.118.002.178.082.119-.08.178.118.474-.204.178.08.415-.004.119-.118.356.124 1.127.036h.177l.297-.116.356.118.237-.036h.119l.118-.157.06.042.178.037h.177l.178-.082.475-.193.178.08.118.04.178-.122.771.116.297.077.89.076.177-.002.416-.164.83-.04.119-.078.177.002.297-.038.178-.12.119.08.177-.08.12-.08.118.12h.296l.178.085.119.04h.118l.475.24.237-.036h.119l.237-.038.356.12.83.04.119.04.178-.04.178.077.178.004.177.036.06-.198.06.04.355.082.415.158 1.957-.166.178.002.653-.04.237-.16.296-.08.534-.077.178.004.297.076.296-.08h.89l.118.08.238-.042.178.075.059-.12.06.12.414.082.415.194.297-.118.297.082.89-.082.177-.12.297-.077.296-.076.237.16.593-.314.297.16.178-.124.593.124.178.12h.178l.296.04.238.197.178-.12.296-.08.475.236.296-.28.119-.197.06.04.414-1.642.534-3.434h.06l.177-.32.178-.08.297-1.597.652-3.351.237-.198.06-.002.533-2.313.06.037.296.847.297 1.832h.118l.119-.204.356-2.035.06.082.058-.28.06.24.415 1.44h.06l.237-.756.059-.08.237-.915.06.24.059-.08.059-.117.06.04.059.359.059-.04.06.043.059.319.059-.043h.06l.058.278.06-.163.06-.157.058.32.06-.202.296-1.316.06-.077.118-.397.178.564.237.756.06-.002.059.157.119-.36.118.478.06-.36.059.237.06.16.058-.28.119.677.06-.277.118.28.06-.24.118.396.118-.357.06.24.06-.28.058.238.06.399.059-.32.06.08.059.36.059-.282.296.521.06-.32.06.12.058.402.06-.317.059-.002.06.399.059-.2.059.037.06.36.059-.28.059-.242.06.357.058-.122.06.082.06.4.058-.24.06-.12.059.24.06-.117.059-.12.118.36.06-.32.118.44.06-.32.059.28.118-.4.06.2.118-.203.119.358.06-.317.118.439.06-.32.059.28.059.12.06-.36.058.2.06.117.06-.36.058.123.06.16.059-.36.06.24.059.117.059-.317.06.24.059.122.118-.282.06.48.059-.28.118.56.06-.28.237.242.06.077.118-.354.06.36.058-.118.06-.002.06.357.058-.28.06-.12.059.32.06-.12.059-.16.059.24.06-.163.059-.077.059.317.06-.16.058-.08.06.24.06-.12.058-.32.06.278.059.04.06-.322.059.24.059-.082.06-.28.059.28.059-.04.06-.078.059.36.059-.04.06-.28.118.4.06-.238.118.398.059-.242.119.399.059-.28.06.2h.059l.059-.28.118.52.06-.16.118.2.119-.278.06.357.059-.24.059-.002.06.2.059-.237.059.122.06.24.058-.12.12.24.058-.16.06.002.059.317.06-.197h.059l.059.242.06-.12h.059l.059.28.06-.08.058-.118.06.322.06-.16.058-.04.06.28.059-.16.06-.12.059.28.059-.2.06-.08.118.322.06-.28.058.197.06-.04.06-.28.058.243.119-.24.06.2.059-.042.059-.12.119.32.059-.32.06.157.059.122.059-.197.118.514.06-.24.118.203.06-.198.118.278.06-.2.059.118.06.12.059-.16.118.357.119-.238.06.32.058-.123.297.28.119-.202.059.4.06-.16h.058l.06.24.06-.24.058.04.06.36.059-.12.06-.123.059.28.059-.12.06-.157.059.28.059-.122.06-.08.058.157.06-.158.06.003.118.359.059-.24.119.402.059-.2.06.198.059-.08.059-.2.06.122.236.193.06-.277.059.2.06.121.059-.2.059.16.06.08.059-.197.059.12.06.157.059-.282.059.122.06.16.058-.2.119.278.06-.238.059.12.059.082.119-.2.059.24.06-.12.296.36.06-.2.058.12.06.277.059-.198.06-.12.059.242.059-.077.06-.042.059.197.059-.12.06-.24.058.24.06-.04.178-.162.059-.117.06.24.059-.082.059-.08.06.16.059-.08.059-.158.118.28.06-.162.06.2.058-.04.06-.2.059.24.06-.043.059-.118.059.203.06-.083.059-.24.059.12.06.04.058-.157.12.28.058-.123.06.12.178.28.059.199.06-.2.059.123.177.16.06.04.118-.158.06.282.059-.16h.06l.237.361.118-.16.237.362.119-.117.06.2.059-.078h.059l.119.195.059-.237.06.28.059-.04.059-.08.06.2.058-.123.06.042.06.24.058-.08.06.04.118.28.06-.12.118.237.06-.122.059.122.118-.2.06.12h.06l.058-.16.119.36.06-.122.237.157.059.238.06-.122.118.195.06-.2.058.12.238.24.059-.08.06.08.059.117.059-.077.06-.04.058.242.06-.08.118.157.06-.16.237.042.06.16.059-.08.059.003.06.12.118-.16.118.122.06-.12.059.12.297-.238.118.118.06-.04.118.2.06-.2.059.082.06.042.058-.12.06.12.296-.273.119.16.06-.12.058.08.178.12h.06l.118-.118.06.158.118-.162.237.202.12-.04.058.08.06-.08 1.067.595.06-.16.237.357.118-.118.178.238.119.115.06-.16.059.158.059.08.06-.16.059.04h.118l.237.238.238.155.059-.16.06.08.296.04.237.237.178.045.356-.118.237.24.415-.087.178-.118.119.042.237.16.652.084.356.156.119-.162.06.122.236.078.06-.08.118.2.06-.082.593.044.118.04.06-.08.118.2.593.042.238.157.296-.044.119-.038.533.24h.06l.118.12.238-.04.474.193.119-.04.059.16.06-.08 1.957-.07.118-.04.415.203.297-.076.178-.08.118.04.416.156 1.66-.009.119-.157.415.16.237.077h.119l.296-.118.297.08.237-.12.119.078.296-.078 1.66-.11.238-.077h.178l.712.086.593.278.593-.124.237-.04.237.078.119-.04.237.157.178-.042h.297l.533.038.119-.157.237.04.771.035.238.16.355-.04.238-.2.178.042h.177l.356-.084.356-.115.593.08.119-.003.118-.038.238.08.356-.16.177.123h.178l.178.117.06-.12.059.118.237.04.119.084.356.158.474-.246.297.082.77.038.179.078.237-.04.237-.238.356.16.237-.044h.119l.178-.078.118.042.238.078.118.037.237-.157h.119l.119-.04.237-.078.415-.162.474.202.712-.073.178.002.119-.042.118.16.653.084.178.075.059-.118.06.078.236.08.178.124 3.203-.201.237-.158.178-.002.238.08.177-.038h.119l.119-.12.178.12.178.04" clip-path="url(#p7e62fe09d8)" fill="none" stroke="#ff7f0e" stroke-linecap="square" stroke-width="1.5"/><path d="m73.833 153.43.415-11.287.415-5.047.119-.408.06.092.118.963.118 5.413.238 21.335.356 36.125.415 6.548.474 4.567 1.008 6.059.356 1.768.178 1.516.178-1.566.119.43.356 1.766.415.172.178-.035.237-.23.119.04 1.008-2.123.356-1.164.177 2.53.06.126.06-.073.236-.553.06.198.178.4 2.016 3.792h.06l.592.951.534.597.119.038.356.322.059.04.178.277.178.078.415.157.119.08.178.118h.118l.237.162.712.002.178.118.178-.038.415.157.06-.16.059.04.118.042.06.08.059-.08.83.036.119.038.178.002.89.078.237.037.533.083.356.122.415.042.178.084.475.197.237-.037.119.08.059.04.06-.12.118.2.474.081.297.08h.06l.059-.12.059.04.83-.08.237-.082.178-.004.238-.038.296.08.237-.04h.178l.119-.038.237.038 1.364.036.178.084.237.08.119-.002.297-.08.296.082.593-.082h.119l.415.158.178-.08.178.004.296.12.06-.16.059.038.89.002.178-.162.237-.08.178.004.296.08.415-.151.653-.042.06-.078.118.12.296-.084.297.075.474.084.297.078.415.038.178.118.77.077.594.282.237-.038.178.08.06.04.059-.118.06.118 1.185-.076.297-.117h.296l.119-.082.415-.162.83-.042.178-.038.178.036.238-.04.415.08.415.155.356-.038.178.162.178.083.237.035.593.08.178.16.178-.118.356.12.177-.12.238-.04.237-.158.712-.082.415-.157.534-.084.178-.038.237.04.652.077.297.24.356-.08h.118l.534.24.356-.042.118.197.178.005.178-.004 1.008-.122.297-.078.297.08.296-.08.356-.155.178.121.178-.197.178-.08.356-.116 1.838.082.237.156.297-.118.237.162 1.008.04.06.118.059-.08.178.075.237.042.356.08.296.078.238-.036.118.04.119.16.06-.16.059.038.652.078.237.04.06-.08.059.08.356-.078.356-.12.118.04.06-.118.059.04.296-.08.238-.042.296-.082.178-.042.178.04.237-.042.178-.084.415-.162.415.156h.534l.06.117.059-.04.296.078.238.045.593.044.178.16.237.082.237.161.06-.12.059.08.652-.075.356-.12.296-.08.238-.078.296.08.178-.16.178-.002.178-.158 1.483-.035.118-.04.238.04.118.082.119-.005.178-.002h.296l.178.122h.06l.118.12.356-.126 1.008.076.593.28.178-.079.356.124.297-.12.118-.04.237-.075.178.08.238.04.237-.04.415-.076.534-.24 1.186.038.178.156.296-.082.475.082.237.153.237.04.238.042.177.078.06-.037.178.157.178-.115.77-.042.179-.076h.355l.06-.24.059.158.178.002.119-.04.118-.16.06.042h.415l.178-.16.711-.042.178-.12.237-.04.178-.077.238-.084.177.04.178.002.416.161.177-.123.356.041.178.078.475-.082.178-.04.296.24.178.08.237.038.119.042.237.08.119-.04.178-.04h.356l.296.08h.06l.059-.12.06.08.533.084.237.08.356-.12.77-.082.297-.084 1.661-.08.06-.078.059.08.178.08.237.078.118-.004.297-.078.474.482.178.033.356-.157.178.117.356-.04.178-.117.771-.082.178-.036.296.078h.06l.118-.158.238-.076.178-.118.118.082.297.12.474-.198.297.24 2.253-.006.119.042.83.075.475.2.296-.235 2.254-.04.06-.238.059.08.474.08.178.036.297-.082.711.075.415.202.238-.038.237.036.652.122.119.08.178-.002.237.04.178.004.119.158.237.082.178-.002.415-.036.06-.12.059.038.177.078h.12l.236-.158.534-.08.475-.198.296-.037.178-.16.415-.158.712-.08.178-.08.296.078.653.08.356.115.355.082.356.122.238-.082h.177l1.127.04.178.162h.237l.178-.117.356.12.178-.122.237-.082.178.004 1.364-.04.12-.198.83-.084.177-.04.178.08.475.076h.178l.415.086.237.036.178.08.415.16 1.127.126h.119l.237-.036.712-.086.296-.076 1.364-.078.356-.12.178.082.237-.082.237-.037.178.12 1.009-.085.237-.042.534.08.118.118.356-.124.297.082.237.08.237-.082.119-.002.237-.038.593.082h.119l.237-.078.118.077.475-.2h.178l.534-.081.178-.082.237.04.178.084.118-.004.415-.204.12.077.236-.04.178.036.119-.077.118.04.178-.118.178.237.178-.04.119.038.237.08.237.082.06-.04.118.122.178.002.178-.004.712.088.237.04.771.085h.119l.237-.196.356.16.06-.2.058.078.238-.04.118-.12.119.084.178-.04.296.078.356-.16.178.124.83.082.178.117.178-.081.534.042.119.16.059-.043.296-.084.712-.081.237-.04.712-.082.119-.04.118.042.297-.04.178-.122h.178l.237-.036.178.04.415-.16h.297l.237.158.415-.2.178-.002h.119l.177.002.83.08.594.038.178.08.77.002.179.158.83.04.119.16.711.042.119.12.06-.12.059.037.415-.037.118-.038.712-.08.297-.078.178.078.118.08.119-.16.237-.04.178-.078.415-.044.178-.078.178.036.178-.04.237.035.415.082.119.078.118-.04.12.08.296-.082 1.127.076.237.157.83-.033.06-.12.059.078.178-.036.118-.04.237-.078.356.122.178-.08.237.04.12.042.414.002.06-.12.059.04.178.043.237-.04.949.082.178.075.356-.04.06-.078.058.08.475.078.178-.002.237-.08.119.04.118.082.119.044.356.114.237-.038 1.068.08.177.16.178-.08.297-.116.296.12.178-.122.297-.084.178-.036.296.08.416-.078h.118l.178.042.534-.279.118.08.12.04.236.038.356-.118.178.12 1.127.034.119.08.237-.085h.178l1.067-.08.119-.08.297.12.296-.077.297-.04.059-.2.06.16.296-.08.178.002.296.078.119-.04.178-.12 3.143.031.237.158.771.088.119.08.297-.08.533.084h.119l.178-.038h.178l.237.042.178.083.178.037.237-.157.178-.04.178.08.06-.16.059.038.237-.084.178-.078.296.08 1.127-.045.119-.08.178.08.118-.117.297.233.296-.08.119.042.237.082.237.036.178-.04h.119l.178.002.178.24.712.076.237.038.296-.082.238-.036.296.08.237-.042.178-.08.178.004.356-.04.178-.238.415-.153.415-.122.178-.12.297.082.237.036.712.076.178.075.355.078.356.122.119.04.178.076.118-.04.297.002.178.118 1.068.006.118.04.178-.118.949-.04.119.002.296.08.178-.118.237-.037.119-.16.06.042.177-.002h.238l.059-.198.059.12.83-.044.178-.122.178.04h.178l.89.035.178.12.237-.04.415.158.119.004.178.078.533.004.119.158.178.082.119.04.237-.038.296.08.06-.12.059.038 1.186-.042.178-.12.475-.002.177-.238.178-.042.178-.078 2.491.165.653.32.652.035.178.078.178-.078.415.08.237.038.356-.156.237.04h.06l.178-.162.237-.08.178-.115.237.04.415-.198h.119l.178.006.356.158.296-.238 1.008.072.415-.084h.178l.416.162h.177l.89.077.178.04.237-.037.178.12 1.068.041.06-.12.058.078.771.08h.119l.178-.08.178-.082.178.002.415-.042.119-.038.296.087.119.082.178.035h.178l.118-.042.06-.078.059.08.356.12.89.042.177.078h.178l.593.078.119.12.237-.202.356.122.178-.082.118.004.12-.002.296-.078.237.08.06-.16.058.158.534-.238.237.076.712-.357.712-.084.178-.04.237.037 1.364.087.415.157.534.038.06.122.059-.04.178.082.118.04.178-.08.653.08.118-.002.297-.078.593-.038.178-.12.237.085h.238l.058-.198.06.078.178-.002.237-.038.178.042.415-.162.237.04.178.002 1.246.032h.178l.178.08.355.16.238-.045 1.008.086.178.08.178-.002.178.082.118-.002.237-.036.416-.04.178-.162.118.04.237-.195.238.04.355.078.12.04.177-.16.237.078.415-.158.119-.042.178-.08h.178l.474.036.119.12.178-.118.178.155.237-.042.178.04h.237l.119-.038.178.078.296-.078.415.08.238.08.178-.077.177.12.178-.078.06.161.059-.04.178.04.06.08.059-.08.177-.078.356-.04.06-.12.059.039 1.839-.005.177-.16 1.246.083.237.075.415-.16.238.04.118.04.178.116.178-.078.178.08.474.204.653.076.296.08.297-.118.534.24.237-.04.119-.118.296.082.178-.16.534-2.5.237-.167.06-.002.592-3.99.297-1.12.178-.202.237-.561.06.04.474-3.506.296-.92.356 1.663.06.12.237-.916.178-.794.059.08.06-.318.059.243.356 2.356.118.794.06-.32.118.157.356-2.19.06.358.118-.72.06.36.058.16.06-.16.296 1.435.119-.24.06.28.059-.237.415-1.039.118-.117.119.282.119.08.059.2.06-.24.058.16.06.279.118-.557.06.12.356-1.194.059.083.06-.4.059.24.118.237.237 1.038.119-.317.06.399.059-.2.059-.08.06.32.059-.2.059-.317.06.399.058-.042.06-.202.06.32.058-.16.06-.2.059.24.119-.36.059.28.06-.16.059-.4.059.24.06.042.058-.319.12.437.058-.362.06.237.059.08.06-.24.118.44.06-.36.059.238.059.2.06-.198.118.322.118-.36.06.478.059-.282.297.683.059-.239.06.117.058.2.12-.237.058.397.06-.32h.059l.06.36.059-.203.118.437.06-.242.059-.037.06.202.118-.28.06.36.058-.16.06.002.059.28.06-.16h.059l.118.48.06-.123.059.397.06-.202.059-.36.059.362.06-.12.058-.16.06.278.06-.16.058-.359.06.28.059.081.06-.32.059.236.059.08.06-.28.118.596.06-.36.058.123.06-.042.06-.278.118.437.059-.359.06.16.059.122.118-.282.06.52.059-.318.118.36.06-.28.06.12.058.16.06-.24.059.122.06.12.118-.32.06.32.059-.28.059-.04.06.32.058-.28h.06l.06.28.058-.12.238-.48.059.36.06-.24.059-.039.059.317.06-.157h.058l.12.439.058-.32.06.32.059-.04.06-.2.059.28.059-.242.06-.24.059.2.118-.12.119.318.06-.32.118.44.06-.24.058.16.06.08.059-.32.06.24.059.077.059-.2.119.4.059-.2.118.397.06-.24.118.6.06-.24.059.04.06.317.059-.2.296.517.06-.2.118.64.06-.238.059-.042.059.32.06-.198h.059l.059.28.06-.202.059-.12.059.32.06-.12.058.041.06.24.06-.16.058-.077.06.4.059-.038.06-.04.059.237.059-.2.06-.277.118.36.06-.2.118.24.06-.198.058.16.119-.12.119.277.059-.2.06.12h.059l.059-.24.119.24.059-.28.118.24.06-.237.06.12.058.12.06-.16.118.319.06-.238.059.2h.06l.118-.362.06.282.058-.237.297.479.119-.16.059.118.119-.2.059.318.06-.28.058-.122.06.162.06-.158.118.4.059-.082.06-.16.059.16.059-.12.06-.08.059.198.059-.118h.06l.058.2.06-.118.06-.202.058.16.06.12.059-.198.06.24.059-.082.059-.202.119.24.059-.12.06.16.058-.12.06-.32.06.2.058.162.06-.24.059.2.06.04.059-.16.118.6.06-.122.059.157.06-.042.059-.237.059.2.06.079.058-.24.06.078.118-.038.119.4.06-.198.059.042.178.395.059.158.06-.16.058.082.06.16.06-.12.058-.04.06.24.059-.078.06-.042.059.24.059-.12h.06l.059.162.059-.04.06-.08.058.197.06-.12.06-.12.058.203.06-.12.059-.04.237.519.06.08.059-.162.118.24.06-.118.06.24.058-.12.178-.116.06.003.118.277.06-.12.118.282.06-.12.059.12.06.078.058-.12.06.08.059.117.06-.2.059.04.059.04.06-.157.059.122.059.04.06-.12.058.12.06.16.118-.16.178.16.06.199.059-.08.119.162.059-.12.06.12.059.202.059-.12h.06l.058.158.06-.12.06-.04.058.16.06-.12.059-.2.06.2.059-.04h.059l.06.16.118-.28.118.16h.06l.06.118.058-.08.06-.16.059.12.178.08.119-.2.059.12.06.04.058-.118.12.24.058-.12.06.117.059.038.06-.12.059.08.059.04.06-.12.059.08.059.078.06-.118.058.08.178.2.06.038.059-.158.06.12 1.126.674.119-.035.118.16.06-.12.06.08.118-.04.059.2.06-.08.059-.04.059.12.06-.038.059-.12.059.12.237.04.06-.08.118.12.06-.038.059.12.059-.08.06-.162.059.08h.059l.06-.118.118.157.06-.12.058.12.178.16.238.078.059-.24.06.08.058.08.12-.16.058.158.06-.12h.059l.237.282.119-.042.178.12.06-.12.058.04h.06l.118.12.06-.043.118.122.119.044.296.076.06.12.06-.12.058-.08.119.28.06-.08.118.077.06-.04.059.12.059-.04.178-.002.118.082.238.158.059-.038.119.24.059-.04.06-.039.177.118.178.08.297.082h.059l.06.16.058-.08h.06l.237.238.119-.043.059.122.06-.08h.177l.178.282.06-.082.237.324.296-.078.119.12.06-.08.058.082.06.04.059-.12.06.118.415-.08.059-.078.06.08.533.078.178.077.356-.117.118.04h.119l.06-.162.059.04.237-.08.118-.08.06.122.059-.078.652.08.356.158.297-.084.89.077.533.244.06.002.177.156h.178l.238-.04.059-.12.06.08.296.08.296-.076.178.08.178.04.178.158.356-.156.237.04.178-.04.178-.121.415-.16.475-.084.118-.08.178-.002.593-.042.119-.158.474.2.534.08.237.04.178-.003.356.12.178-.04.178.122.178.002h.118l.178-.04.297.08.415-.08.237-.078.416.2.237-.076h.118l.178-.038.178.04.237-.12.178.078h.178l.06-.08.059.08.474-.08.119-.04.534-.04.178-.081.237-.12.178.16.178-.04.118.002.238-.084.178.04.118.042.237.038.712.037.178.08.178.042.119.036.711.082.297.078.178.002h.118l.416-.158.118.082.475-.2.415.082.118-.04.416-.16.177-.04.178-.161.178-.082.119-.08.237.04.178-.08.119-.002.118.038.178-.004.178.04.237.155.712.082.237.236.416.124.177.12.119.042.237.035.119.082.237.082.297-.076.296-.08.119.003.296.08.475-.082.237-.036.237.08.297-.08.118-.002.238-.036.356-.04.059-.2.06.158.652-.082h.118l.119-.04.118-.118.178.038h.178l.475-.084.178.002.83.034.237.162.178-.034.178.078.178-.038.237.04.237-.084.297.082.237-.036.415.078" clip-path="url(#p7e62fe09d8)" fill="none" stroke="#2ca02c" stroke-linecap="square" stroke-width="1.5"/><path d="m73.833 151.63.474-13.075.416-4.594.118-.183.119.555.118 3.398.238 18.086.534 52.502.415 7.893.77 8.984.712 7.009.771 6.239.95 5.671 1.067 5.152.593 1.961 1.186 3.51.475 1.238 1.127 2.194.059-.04.237-.52.06.038.592.637.653.32h.77l.179-.558.534-1.716.118.08.119-.277 1.067-3.844 1.009-3.237.237.16.178-2.07.356-.486 1.245-7.3.83-5.36.356-2.474.119.986.06-.078.355-1.52.178-.08.89-.479.296-.2.178-.002h.178l.178-.084.178-.24.474-.201.356-.082.119-.082.118-.04h.178l.178-.08.534-.237.415-.082.356-.118.771-.034.237-.157.178.002.297-.08.89-.042.177-.08h.356l.297.076 1.186.075.237.038.415-.04.06-.12.059.038.237.2.237.08.178.044.475-.198.237.042.297-.037.237-.196.356.12.533-.24.238.042.89.038.177.118.593.038.178.075.178-.16.475.202 1.304-.046.06-.158.059.08.178-.04.178.12.237-.042.297-.078h.118l.119.04.356-.082.118-.04.119.002.237-.075.297.08.296-.074.178.002.297.082.178.04.237-.036h.178l.237-.035.356-.042.119-.08.296.08.119.08.356.113.177-.002.594-.05.177-.08.534.035.237.194.06-.118.06.08.414.16.475-.08.059-.08.06.08h.177l1.424-.072.356-.117 1.72.09.474.236h.178l.237.038.119.04.178-.005.118-.042 1.78-.08.237-.157.178.08.356.08h.118l.356-.118 1.423-.084.297-.12.178.08.118-.04.83.042.238.16.119-.08.178.004.83.08.474.248.416-.162.652-.042.178-.078.356.078.237.084.474-.24.356-.084.356-.126 2.254.162.237.042.593.044.119.16.83-.05.06-.08.059.08h.178l.355.077.297.122.356-.158.178.04.237-.037.237.075.119-.118.118.08.356-.122 1.424-.029.237-.042 2.194.076.178.038.237-.038.12.076.058-.16.178.2.178.04.178.08.178.003.119.078.296-.08.297.08.296-.078.238-.082.237-.04.652-.082.178-.035.297.08.296-.085.119-.042.118-.038.416-.077.237-.038.534.078.178.04.237-.078.178.04h.118l.356.118.712-.076.178-.002.415.16.237-.04.237-.044.06-.118.059.04.237.08.178-.003 3.559.093h.178l2.075.076.238.036.237-.043.118-.042.178-.157.178.08 1.305.033.178.122.297-.078.296.08 3.321.04.178.078.356-.08.178.002 1.483.038.06-.198.058.08.238.08.356.118.711-.08.475-.2.533-.075.178-.043.178-.004.178.004 1.008-.113.06-.04.178.2.296.08.89.113.118.044.238-.117.178.076 1.008-.085.178-.118.296.08.238-.075h.118l.178-.078.83-.078.178-.073.415-.08.178.004.89.078.237.04.119.002.356.12.296.082.178-.002.119-.003.178.114.059-.04.178.158.474.197.83-.04.179-.038.178.078.178-.12.77-.042.238-.198h.178l.237-.08.415-.161.475-.08.177.002.178-.082.119-.04.119.082.237-.042 1.245.082.416.16.355.118.119.04.178.16.178-.04.178.037.118-.12.06.12.533.08.297.08.237-.042.297-.08.237-.04.119-.042.237-.158.237.04.119-.04.178-.082.178.038.118-.08.237.042.653-.082.118.002.178.042.238-.04.415-.12h.118l.356.118 1.424.085.296.155.06-.12.059.12.593.28.296-.042.06-.12.059.04.297.08.237.077.296-.12.356.12.297-.08.474-.235h.178l1.601.055.238.2.296-.08.415.08.534.235h1.601l.06-.158.059.04.237.04.653.007.178-.12.237-.04.593-.08h.178l.474-.076.297-.082 1.72-.088.178-.04.118-.002.178-.002.356.12.237.077.178.078.178-.042.178.04h.178l1.245.034h.12l.177-.08.178.08.296-.08.95-.082.652-.315.83-.08.119-.04.237.04.119-.045.237.038.178-.04.118-.002.06-.08.059.16.06-.04.355.084.178.08.119.08.178.116.118-.04.178.08.178.004.534.277h.178l.534.087h.118l.297-.078h.178l.474-.038.237-.158.356.12.415-.078.297-.078 2.135-.069.178-.08 1.008.08.297.078.237-.042.119-.08.355.16.238-.038.178-.004.296-.08.771.038.06-.158.059.04.237.04.237-.08.356-.12h.178l.712-.08h.178l.296.078.119-.04 1.364.076.178.077.059-.04.119.16.296.08.178-.004.178.08.178-.002.06-.12.059.08h.177l.12.04.355.08.237.037.178-.002.712-.077.178-.158.237.04 1.423-.074.297-.075 2.254-.09h.296l.119.001.237.036.06-.16.177.2 1.305.082.297.086.296-.078.237.08.238.04.237-.08.178-.076.89.084.237.04.415-.157.534.074h.177l.238-.038.237.078.237.075.119-.08.296.08.593.076.238.16h.118l.178.078.237.084h.178l.06-.158.059.04.415.078.119.002.178.002.593-.078.296-.12.06.04.237-.277h.118l.238.04.296-.078.119-.002.237-.038.237.08.297-.078.178-.002.652.082.297.12.118-.038.178.078.475.08.118-.003.475-.204.118.08.297.08.296-.082.178-.006.06-.158.178.24.355-.082h.178l.119-.002.356-.122 1.542-.076.237-.158 1.246.082.355.122.178-.04.356.158.237-.04.594.353.177-.08.238.083.237.037 1.008-.08.475-.281.237.04.237-.078.415-.156.237.038.416-.075.355-.156.238.038.77.08.238.08.237-.038.178-.002.297-.002.237.24.534.077.593.278.593-.085.178-.08.178-.04.237.036.356-.04.178-.078.83-.038.06-.12.059.04 1.779.094h.296l.178-.08.178.004.95.076.236.075h.178l.119-.042.178.2.356.118.415-.083.119-.08.296.08 1.423-.075.238-.198.059.08.06-.08.355-.12.237.042 1.187-.031.118-.082.297.078h.178l.89.035h.118l.237-.042.119.078.118.04.89-.004.06-.12.059.08 1.542-.078.474-.195 2.254-.082.118-.04.238.155.89.08.355.12.237-.04.534.086.178.038.06-.04.177.28.356.16.237-.04h.119l.237-.083.237.04.416-.08.237-.08.237.04.178-.042.119-.082.178.04.533-.235.119-.08.237-.033.356.048.178.08.237.04 1.068.12.118.04.178-.038.178-.005.356.08.297.076.415-.168.237.04.652.002.06-.198.059.16.297.08.118-.002.237-.036.238-.04.178-.122.415-.157.356.124.77-.076.179-.04.296.08h.178l.06-.122.059.042.415.076.178.08.356.12.533-.085h.178l.415.158.238.077.118.078.297-.082.534.042.118.04.119-.16.06.08.889-.002.06-.12.058.078.356-.08.237-.157h.12l.118-.2.059.042.652-.082.356-.117h.356l.237-.04.593.08.356.123.475-.042.178.2.296.082.297.082.949.038.118.038.356-.12.475.076h.237l.118-.118.416.157.474-.075h.119l.296.08 1.068-.08.237-.036 1.483.078h.178l.949.078.237.197.534-.08.178-.04.237.038.178-.077.178.04.178-.118.533-.08.119.004h.119l.296-.077.534-.08.356-.16.296.08 2.67-.007.177.12.237.08.119-.002.297-.082.118.038.178-.12.297.08.77.08.238.04.237-.038h.119l.296-.08.297.08 1.898-.078.237-.038.296.078.297-.08.297-.12.415.16.89.04.177.04.06-.04.178.2.77-.082.12-.042.236.08.238.035.296-.077.297-.078.593-.08.237-.196.652.086.119.04.119.003.118.002.237-.996.594-4.06.296-.288.06.04.83-4.386.178-.201.178-.04.237-1.162.356-2.317.118-.44.06.16.474 3.343.06-.243.059.08.059.12.415-2.19.297.756.296 1.632h.119l.296-1.276.06-.04.059-.319.06.042.059.36.118-.437.119.52.06-.08.118.24.06-.28.118.397.118-.16.06.12.474-1.797.415 1.031.119.32.06.12.058-.44.06.198.06.12.296-1.156.059.357.06-.32.059.08.059.32.06-.32.059.28.059.24.06-.24.058.157.06.12.118-.24.06.437.059-.32.06-.002.059.322.059-.2.296.639.12-.32.058.32.06-.24.059-.04.06.4.059-.238.059-.08.119.44.059-.16.06.4.058-.162.06-.28.06.322.058-.08.06-.12.059.28.06-.197.059-.36.118.522.06-.317.059.237.06.04.058-.32.12.639.058-.36.06.202.118-.36.119.437.06-.359.059.2.059.162.06-.28.058.24.06.357.06-.32.118.325.059-.242.06.202.059.12.059-.32.06.04.059.158.118-.32.06.36.059-.28h.06l.058.32.06-.283.059.12.06.402.059-.12.059-.117.06.16.118-.477.06.401.059-.277.059-.04.06.36.058-.198.06-.003.118.44.06-.36.059.28.06-.078.059-.277.059.36.06-.242.059-.16.059.24.06-.12.058-.08.12.32.058-.28.119.44.06-.28.059.24.059-.043.06-.317.059.202.059-.002.06-.162.118.317.06-.237.118.32.059-.2.119.558.059-.24.06.04.059.238.059-.28.06.243.058.2.06-.283.06.122.058.158.06-.277.059.2.06.436.059-.239.059-.002.06.4.059-.2.059-.003.06.28.058-.24.06-.16.06.36.058-.082h.06l.059.277.06-.24.059-.12.059.36.06-.118.059-.002.059.28.06-.2.059-.24.118.32.06-.16.059.24.06-.08.058-.118.06.28.059-.083.06-.08.118.322.06-.16.118.237.06-.28.058.24.06.08.06-.24.058.12.06.12.059-.157.119.399.059-.32.06.24.059.038.059-.237.118.317.12-.242.058.162.06-.16.296.598.119-.16.06.118.118-.155.06.36.058-.237.06-.043.059.2.06-.157.059.08.059.32.06-.08.059-.12.059.16.118-.2.06.2.06-.16.058-.078.06.242.059-.157.06-.282.059.16.059.08.06-.158.059.242.059-.08.06-.241.059.24.059-.04.06-.08.058.237.06-.12.06-.28.058.238.06.122.059-.158.119.238.059-.2.119.4.059-.202.06.12.058-.003.06-.2.06.16.058.08.06-.28.059.078.237.442.06-.24.059.04.06.24.058-.158.12.24.058-.122.119.24.119-.2.059.24.06-.08h.059l.059.319.06-.16h.058l.06.242.06-.038.058-.117.06.197.059-.122.06-.12.059.32.059-.12.06-.04.059.2.059-.157.06.04.118.4.06-.199.058.2.06-.038.059-.157.06.24.059-.08.237-.16.118.319.06-.2.118.362.06-.16.118.198.06-.238.059.122.06.078.059-.2.059.12.06.077.059-.277.059.202.06.08.058-.16.12.44.058-.2.06-.04.059.237.06-.24.059.08.059.198.06-.08.118.115.06-.2.058.12.06.12.06-.08.058.04.06.24.059-.08.119.28.059-.2.06-.16.059.2.059-.08h.06l.058.197.06-.12.06-.16.118.282.059-.04.06.2.059-.08.059-.2.119.2.059-.16.06.12.118-.157.06.16.118-.043.118.198.06-.12.118.238.06-.122.118.2.06-.16.059.12.06.08.058-.158.12.319.058-.118.119.118.06-.157.118.24.06-.16.059.04.059.199.06-.16.236.2.06.2.059-.12.119.155.118-.155.06.28.059-.12.118.037.12.04.058.2.119-.08.119.16h.059l.06.117.059-.04.059-.037.06.12.058-.04.06-.08.118.16.06-.28.059.16.297-.08.059.12.06-.04.059-.162.059.117.237.202.06-.16.059.122.059.08.06-.12.059.12.059.08.06-.12.059.12.059.08.06-.16.058.038.06.002.118-.118.06.158.118-.2.06.12.059-.198.06.08.059.12.059-.08h.178l.237-.038.06.12.059-.04h.059l.06.12.059-.08.059-.038.118.16h.06l.06.16.058-.08h.06l.059.12.06-.08.059-.04.237.235h.06l.177-.122.06-.08.059.078.178.08.059.08.06-.162.059.078.237.315.06-.12.058.04.238.237h.118l1.246.872.059.16.06-.038.059-.08.059.122.06-.08.059.04.178.28.177.08.12.08.058-.16.119.244.06-.038.889.04.119.12.059-.12.06.082.118.042.534-.235.296.122.297-.158.059.082.06-.118.059.08.118.04h.06l.059.12.06-.04.118-.04.534.084.059.08.06-.08.236.04.356.078.593.276 1.008.08.238.077.178-.04.178.118.059-.08.06.08.118.04.237-.04.237.042.237-.078.178-.16.238.04.415.031.118.038.83.086h.179l.118-.077h.178l.237-.04.12-.08.118.08.178-.042.296.08h.178l1.186.042.119.08.178-.082.178.117.178.08.474.196.534.077h.771l.06-.16.177.24.653-.078.237-.161.474-.2.237-.076.178-.117 1.127-.082.238-.04.711.08.237.04.178.08.475.233h.296l.534.082.178.075.119-.08.178.08.652.005.06-.118.059.08.296.08.475-.078.296-.08.237.04.416-.078.237-.038 2.372-.008.237.08" clip-path="url(#p7e62fe09d8)" fill="none" stroke="#d62728" stroke-linecap="square" stroke-width="1.5"/><path d="M57.6 307.58V41.47m357.12 266.11V41.47M57.6 307.58h357.12M57.6 41.472h357.12" fill="none" stroke="#000" stroke-linecap="square" stroke-width=".8"/><path d="M296.53 108.18h111.19q2 0 2-2V48.468q0-2-2-2H296.53q-2 0-2 2v57.712q0 2 2 2z" fill="#fff" opacity=".8" stroke="#ccc"/><path d="M298.53 54.57h20" fill="none" stroke="#1f77b4" stroke-linecap="square" stroke-width="2"/><g transform="matrix(.1 0 0 -.1 326.53 58.07)"><defs><path id="DejaVuSans-78" d="M9.813 72.906h13.28l32.329-60.984v60.984h9.562V0H51.703L19.391 60.984V0H9.813z"/><path id="DejaVuSans-99" d="M48.781 52.594v-8.406q-3.813 2.11-7.64 3.156t-7.735 1.047q-8.75 0-13.594-5.547-4.828-5.531-4.828-15.547t4.828-15.562q4.844-5.531 13.594-5.531 3.906 0 7.734 1.047t7.641 3.156V2.094Q45.015.344 40.984-.53q-4.016-.89-8.562-.89-12.36 0-19.641 7.765-7.266 7.766-7.266 20.953 0 13.375 7.344 21.031Q20.219 56 33.015 56q4.14 0 8.094-.86 3.953-.843 7.671-2.546z"/><path id="DejaVuSans-97" d="M34.281 27.484q-10.891 0-15.094-2.484t-4.203-8.5q0-4.782 3.156-7.594 3.156-2.797 8.563-2.797 7.484 0 12 5.297t4.515 14.078v2zm17.922 3.719V0h-8.984v8.297Q40.14 3.327 35.547.953T24.313-1.422q-8.39 0-13.36 4.719-4.952 4.719-4.952 12.625 0 9.219 6.171 13.906 6.188 4.687 18.438 4.687h12.61v.89q0 6.204-4.079 9.595t-11.453 3.39q-4.687 0-9.14-1.125-4.438-1.125-8.531-3.375v8.313q4.921 1.906 9.562 2.844Q24.22 56 28.61 56q11.875 0 17.734-6.157 5.86-6.14 5.86-18.64z"/><path id="DejaVuSans-100" d="M45.406 46.391v29.594h8.984V.001h-8.984v8.203Q42.578 3.33 38.25.954 33.937-1.42 27.875-1.42q-9.906 0-16.141 7.906-6.219 7.922-6.219 20.812t6.219 20.797q6.234 7.907 16.14 7.907 6.063 0 10.376-2.375 4.328-2.36 7.156-7.235zM14.797 27.297q0-9.906 4.078-15.547t11.203-5.64 11.22 5.64q4.108 5.64 4.108 15.547t-4.109 15.547q-4.094 5.64-11.219 5.64t-11.203-5.64-4.078-15.547z"/><path id="DejaVuSans-103" d="M45.406 27.984q0 9.766-4.031 15.125-4.016 5.375-11.297 5.375-7.219 0-11.25-5.375-4.031-5.36-4.031-15.125 0-9.719 4.03-15.094t11.25-5.375q7.282 0 11.298 5.375 4.031 5.375 4.031 15.094zM54.39 6.781q0-13.953-6.203-20.766Q42-20.797 29.203-20.797q-4.734 0-8.937.703t-8.156 2.172v8.734q3.953-2.14 7.812-3.156 3.86-1.031 7.86-1.031 8.843 0 13.234 4.609t4.39 13.938v4.453q-2.781-4.844-7.125-7.234T27.875 0Q17.828 0 11.672 7.656q-6.156 7.672-6.156 20.328 0 12.688 6.156 20.344Q17.828 56 27.875 56q6.063 0 10.406-2.39t7.125-7.22v8.298h8.985z"/></defs><use xlink:href="#DejaVuSans-78"/><use x="74.805" xlink:href="#DejaVuSans-111"/><use x="135.986" xlink:href="#DejaVuSans-32"/><use x="167.773" xlink:href="#DejaVuSans-99"/><use x="222.754" xlink:href="#DejaVuSans-97"/><use x="284.033" xlink:href="#DejaVuSans-114"/><use x="325.146" xlink:href="#DejaVuSans-116"/><use x="364.355" xlink:href="#DejaVuSans-114"/><use x="405.469" xlink:href="#DejaVuSans-105"/><use x="433.252" xlink:href="#DejaVuSans-100"/><use x="496.729" xlink:href="#DejaVuSans-103"/><use x="560.205" xlink:href="#DejaVuSans-101"/></g><path d="M298.53 69.249h20" fill="none" stroke="#ff7f0e" stroke-linecap="square" stroke-width="2"/><g transform="matrix(.1 0 0 -.1 326.53 72.749)"><defs><path id="DejaVuSans-71" d="M59.516 10.406v19.578H43.407v8.11h25.875V6.78Q63.579 2.735 56.688.656 49.813-1.422 42-1.422q-17.094 0-26.75 9.985-9.64 10-9.64 27.812 0 17.875 9.64 27.859 9.656 9.984 26.75 9.984 7.125 0 13.547-1.766 6.422-1.75 11.844-5.171v-10.5q-5.469 4.64-11.625 6.984t-12.938 2.344q-13.391 0-20.109-7.469-6.703-7.469-6.703-22.266 0-14.75 6.703-22.219 6.719-7.469 20.109-7.469 5.219 0 9.312.906 4.11.907 7.375 2.813z"/><path id="DejaVuSans-66" d="M19.672 34.812V8.109H35.5q7.953 0 11.781 3.297 3.844 3.297 3.844 10.078 0 6.844-3.844 10.078-3.828 3.25-11.781 3.25zm0 29.984V42.827h14.609q7.219 0 10.75 2.703 3.547 2.719 3.547 8.281 0 5.516-3.547 8.25-3.531 2.735-10.75 2.735zm-9.86 8.11h25.204q11.28 0 17.375-4.688Q58.5 63.53 58.5 54.89q0-6.703-3.125-10.656t-9.188-4.922q7.282-1.563 11.313-6.531 4.03-4.953 4.03-12.375 0-9.766-6.64-15.094Q48.25-.001 35.984-.001H9.812z"/><path id="DejaVuSans-45" d="M4.89 31.391h26.313v-8H4.89z"/><path id="DejaVuSans-67" d="M64.406 67.281V56.89q-4.984 4.64-10.625 6.922-5.64 2.297-11.984 2.297-12.5 0-19.141-7.64t-6.64-22.095q0-14.406 6.64-22.047t19.141-7.64q6.344 0 11.984 2.297t10.625 6.937V5.609Q59.234 2.093 53.437.328q-5.781-1.75-12.219-1.75-16.562 0-26.094 10.125-9.516 10.14-9.516 27.672 0 17.578 9.516 27.703 9.531 10.14 26.094 10.14 6.531 0 12.312-1.734 5.797-1.734 10.875-5.203z"/><path id="DejaVuSans-65" d="M34.188 63.188 20.797 26.907h26.812zm-5.578 9.719h11.188L67.578 0h-10.25l-6.64 18.703H17.83L11.19 0H.783z"/><path id="DejaVuSans-82" d="M44.391 34.188q3.172-1.078 6.172-4.594t6.031-9.672L66.61 0H56.001L46.69 18.703q-3.625 7.328-7.016 9.72t-9.25 2.39h-10.75V0h-9.86v72.906H32.08q12.5 0 18.656-5.235 6.156-5.218 6.156-15.766 0-6.89-3.203-11.438-3.203-4.53-9.297-6.28zM19.672 64.797V38.922h12.406q7.125 0 10.766 3.297t3.64 9.687-3.64 9.641-10.766 3.25z"/><path id="DejaVuSans-75" d="M9.813 72.906h9.859V42.094L52.39 72.906h12.703L28.906 38.922 67.672 0H54.688L19.672 35.109V0h-9.86z"/></defs><use xlink:href="#DejaVuSans-71"/><use x="77.49" xlink:href="#DejaVuSans-66"/><use x="146.094" xlink:href="#DejaVuSans-45"/><use x="182.178" xlink:href="#DejaVuSans-67"/><use x="252.002" xlink:href="#DejaVuSans-65"/><use x="320.41" xlink:href="#DejaVuSans-82"/><use x="382.643" xlink:href="#DejaVuSans-84"/><use x="443.727" xlink:href="#DejaVuSans-51"/><use x="507.35" xlink:href="#DejaVuSans-50"/><use x="570.973" xlink:href="#DejaVuSans-75"/><use x="626.049" xlink:href="#DejaVuSans-45"/><use x="659.883" xlink:href="#DejaVuSans-65"/></g><path d="M298.53 83.927h20" fill="none" stroke="#2ca02c" stroke-linecap="square" stroke-width="2"/><g transform="matrix(.1 0 0 -.1 326.53 87.427)"><use xlink:href="#DejaVuSans-71"/><use x="77.49" xlink:href="#DejaVuSans-66"/><use x="146.094" xlink:href="#DejaVuSans-45"/><use x="182.178" xlink:href="#DejaVuSans-67"/><use x="252.002" xlink:href="#DejaVuSans-65"/><use x="320.41" xlink:href="#DejaVuSans-82"/><use x="382.643" xlink:href="#DejaVuSans-84"/><use x="443.727" xlink:href="#DejaVuSans-50"/><use x="507.35" xlink:href="#DejaVuSans-53"/><use x="570.973" xlink:href="#DejaVuSans-54"/><use x="634.596" xlink:href="#DejaVuSans-75"/><use x="689.672" xlink:href="#DejaVuSans-45"/><use x="723.506" xlink:href="#DejaVuSans-65"/></g><path d="M298.53 98.605h20" fill="none" stroke="#d62728" stroke-linecap="square" stroke-width="2"/><g transform="matrix(.1 0 0 -.1 326.53 102.1)"><defs><path id="DejaVuSans-56" d="M31.781 34.625q-7.031 0-11.062-3.766-4.016-3.765-4.016-10.344 0-6.593 4.016-10.359 4.031-3.765 11.062-3.765t11.078 3.781q4.062 3.797 4.062 10.344 0 6.578-4.03 10.344-4.016 3.766-11.11 3.766zm-9.86 4.188q-6.343 1.562-9.89 5.906Q8.5 49.079 8.5 55.328q0 8.734 6.219 13.812 6.234 5.078 17.062 5.078 10.89 0 17.094-5.078t6.203-13.812q0-6.25-3.547-10.61-3.531-4.343-9.828-5.905 7.125-1.657 11.094-6.5 3.984-4.829 3.984-11.797 0-10.61-6.469-16.281-6.468-5.657-18.53-5.657-12.048 0-18.532 5.657-6.468 5.671-6.468 16.28 0 6.97 4 11.798 4.015 4.843 11.14 6.5zM18.313 54.39q0-5.656 3.531-8.828 3.547-3.171 9.938-3.171 6.36 0 9.937 3.171 3.594 3.172 3.594 8.829 0 5.671-3.594 8.843-3.578 3.172-9.937 3.172-6.39 0-9.938-3.172-3.53-3.172-3.53-8.844z"/><path id="DejaVuSans-77" d="M9.813 72.906h14.702L43.11 23.297l18.702 49.609h14.704V0H66.89v64.016l-18.796-50h-9.907l-18.797 50V0H9.812z"/></defs><use xlink:href="#DejaVuSans-71"/><use x="77.49" xlink:href="#DejaVuSans-66"/><use x="146.094" xlink:href="#DejaVuSans-45"/><use x="182.178" xlink:href="#DejaVuSans-67"/><use x="252.002" xlink:href="#DejaVuSans-65"/><use x="320.41" xlink:href="#DejaVuSans-82"/><use x="382.643" xlink:href="#DejaVuSans-84"/><use x="443.727" xlink:href="#DejaVuSans-56"/><use x="507.35" xlink:href="#DejaVuSans-77"/><use x="593.629" xlink:href="#DejaVuSans-45"/><use x="627.463" xlink:href="#DejaVuSans-65"/></g><defs><clipPath id="p7e62fe09d8"><path d="M57.6 41.472h357.12v266.11H57.6z"/></clipPath></defs></svg>