<svg width="614.4" height="460.8" viewBox="0 0 460.8 345.6" xmlns="http://www.w3.org/2000/svg" xmlns:xlink="http://www.w3.org/1999/xlink"><defs><marker id="marker1655" overflow="visible" orient="auto"><path d="M-10.69-4.437 1.328-.017-10.69 4.401c1.92-2.61 1.908-6.18 0-8.84z" fill-rule="evenodd" stroke="#000" stroke-linejoin="round" stroke-width=".688"/></marker><marker id="Arrow2Lend" overflow="visible" orient="auto"><path d="M-10.69-4.437 1.328-.017-10.69 4.401c1.92-2.61 1.908-6.18 0-8.84z" fill-rule="evenodd" stroke="#000" stroke-linejoin="round" stroke-width=".688"/></marker><style>*{stroke-linecap:butt;stroke-linejoin:round}</style></defs><path d="M0 345.6h460.8V0H0z" fill="#fff"/><path d="M57.6 307.58h357.12V41.47H57.6z" fill="#fff"/><defs><path id="ma9eae38d8b" d="M0 0v3.5" stroke="#000" stroke-width=".8"/></defs><use x="73.833" y="307.584" stroke="#000" stroke-width=".8" xlink:href="#ma9eae38d8b"/><g transform="matrix(.1 0 0 -.1 70.651 322.18)"><defs><path id="DejaVuSans-48" d="M31.781 66.406q-7.61 0-11.453-7.5Q16.5 51.422 16.5 36.375q0-14.984 3.828-22.484 3.844-7.5 11.453-7.5 7.672 0 11.5 7.5 3.844 7.5 3.844 22.484 0 15.047-3.844 22.531-3.828 7.5-11.5 7.5zm0 7.813q12.266 0 18.734-9.704 6.469-9.687 6.469-28.14 0-18.407-6.469-28.11-6.469-9.687-18.734-9.687-12.25 0-18.719 9.687-6.469 9.703-6.469 28.11 0 18.452 6.469 28.14 6.469 9.703 18.719 9.703z"/></defs><use xlink:href="#DejaVuSans-48"/></g><use x="145.032" y="307.584" stroke="#000" stroke-width=".8" xlink:href="#ma9eae38d8b"/><g transform="matrix(.1 0 0 -.1 141.85 322.18)"><defs><path id="DejaVuSans-53" d="M10.797 72.906h38.719v-8.313H19.828V46.736q2.14.734 4.281 1.093 2.156.36 4.313.36 12.203 0 19.328-6.688 7.14-6.687 7.14-18.109 0-11.766-7.328-18.297Q40.234-1.42 26.906-1.42q-4.594 0-9.36.78-4.75.782-9.827 2.345v9.922q4.39-2.391 9.078-3.563t9.906-1.172q8.453 0 13.375 4.438 4.938 4.437 4.938 12.062 0 7.609-4.938 12.047-4.922 4.453-13.375 4.453-3.953 0-7.89-.875-3.922-.875-8.016-2.735z"/></defs><use xlink:href="#DejaVuSans-53"/></g><use x="216.231" y="307.584" stroke="#000" stroke-width=".8" xlink:href="#ma9eae38d8b"/><g transform="matrix(.1 0 0 -.1 209.87 322.18)"><defs><path id="DejaVuSans-49" d="M12.406 8.297h16.109v55.625l-17.531-3.516v8.985l17.438 3.515h9.86V8.297H54.39V0H12.406z"/></defs><use xlink:href="#DejaVuSans-49"/><use x="63.623" xlink:href="#DejaVuSans-48"/></g><use x="287.431" y="307.584" stroke="#000" stroke-width=".8" xlink:href="#ma9eae38d8b"/><g transform="matrix(.1 0 0 -.1 281.07 322.18)"><use xlink:href="#DejaVuSans-49"/><use x="63.623" xlink:href="#DejaVuSans-53"/></g><use x="358.63" y="307.584" stroke="#000" stroke-width=".8" xlink:href="#ma9eae38d8b"/><g transform="matrix(.1 0 0 -.1 352.27 322.18)"><defs><path id="DejaVuSans-50" d="M19.188 8.297H53.61V0H7.329v8.297q5.61 5.812 15.297 15.594 9.703 9.797 12.188 12.64 4.734 5.313 6.61 9 1.89 3.688 1.89 7.25 0 5.813-4.078 9.47-4.078 3.672-10.625 3.672-4.64 0-9.797-1.61-5.14-1.61-11-4.89v9.968q5.953 2.391 11.125 3.61 5.188 1.219 9.484 1.219 11.328 0 18.062-5.672 6.735-5.656 6.735-15.125 0-4.5-1.688-8.531-1.672-4.016-6.125-9.485-1.218-1.422-7.765-8.187-6.532-6.766-18.453-18.922z"/></defs><use xlink:href="#DejaVuSans-50"/><use x="63.623" xlink:href="#DejaVuSans-48"/></g><g transform="matrix(.1 0 0 -.1 215.83 335.86)"><defs><path id="DejaVuSans-84" d="M-.297 72.906h61.672v-8.313H35.5V0h-9.906v64.594H-.297z"/><path id="DejaVuSans-105" d="M9.422 54.688h8.984V0H9.422zm0 21.297h8.984V64.594H9.422z"/><path id="DejaVuSans-109" d="M52 44.188q3.375 6.063 8.063 8.938T71.093 56q8.547 0 13.189-5.985 4.64-5.969 4.64-17V0h-9.031v32.72q0 7.859-2.797 11.655-2.781 3.813-8.484 3.813-6.985 0-11.047-4.641-4.047-4.625-4.047-12.641V0h-9.031v32.719q0 7.906-2.782 11.688t-8.593 3.781q-6.891 0-10.953-4.656-4.047-4.656-4.047-12.625V.001H9.078v54.688h9.032v-8.5q3.078 5.031 7.375 7.422T35.688 56q5.968 0 10.14-3.03 4.173-3.016 6.173-8.782z"/><path id="DejaVuSans-101" d="M56.203 29.594v-4.39H14.891q.594-9.282 5.594-14.142t13.938-4.859q5.172 0 10.03 1.266t9.657 3.812v-8.5Q49.266.734 44.188-.344T33.891-1.422q-13.094 0-20.734 7.61-7.64 7.624-7.64 20.624 0 13.422 7.25 21.297Q20.017 56 32.329 56q11.03 0 17.453-7.11 6.421-7.093 6.421-19.296zm-8.984 2.64q-.094 7.36-4.125 11.75-4.032 4.407-10.672 4.407-7.516 0-12.031-4.25t-5.203-11.97z"/><path id="DejaVuSans-40" d="M31 75.875q-6.531-11.219-9.719-22.219Q18.11 42.672 18.11 31.39q0-11.266 3.203-22.328T31-13.188h-7.813Q15.875-1.704 12.234 9.374T8.594 31.39q0 10.891 3.61 21.922 3.624 11.047 10.983 22.562z"/><path id="DejaVuSans-115" d="M44.281 53.078v-8.5q-3.797 1.953-7.906 2.922-4.094.984-8.5.984-6.688 0-10.031-2.047T14.5 40.281q0-3.125 2.39-4.906t9.626-3.39l3.078-.688q9.562-2.047 13.594-5.781t4.03-10.422q0-7.625-6.03-12.078-6.032-4.438-16.578-4.438-4.39 0-9.156.86T5.421 2v9.281q4.985-2.594 9.813-3.89 4.828-1.282 9.578-1.282 6.344 0 9.75 2.172 3.422 2.172 3.422 6.125 0 3.657-2.469 5.61-2.453 1.953-10.812 3.765l-3.125.735q-8.344 1.75-12.062 5.39-3.703 3.64-3.703 9.985 0 7.719 5.469 11.906Q16.752 56 26.813 56q4.97 0 9.36-.735 4.407-.718 8.11-2.187z"/><path id="DejaVuSans-41" d="M8.016 75.875h7.812q7.313-11.516 10.953-22.562 3.64-11.031 3.64-21.922 0-10.938-3.64-22.016T15.828-13.187H8.016Q14.5-1.999 17.703 9.063t3.203 22.328q0 11.281-3.203 22.266-3.203 11-9.687 22.219z"/></defs><use xlink:href="#DejaVuSans-84"/><use x="57.959" xlink:href="#DejaVuSans-105"/><use x="85.742" xlink:href="#DejaVuSans-109"/><use x="183.154" xlink:href="#DejaVuSans-101"/><use x="244.678" xlink:href="#DejaVuSans-32"/><use x="276.465" xlink:href="#DejaVuSans-40"/><use x="315.479" xlink:href="#DejaVuSans-115"/><use x="367.578" xlink:href="#DejaVuSans-41"/></g><path d="M57.6 307.58h357.12" clip-path="url(#p4176bc1c31)" fill="none" stroke="#b0b0b0" stroke-linecap="square" stroke-opacity=".2" stroke-width=".8"/><defs><path id="m948ddfcaea" d="M0 0h-3.5" stroke="#000" stroke-width=".8"/></defs><use x="57.6" y="307.584" stroke="#000" stroke-width=".8" xlink:href="#m948ddfcaea"/><use xlink:href="#DejaVuSans-48" transform="matrix(.1 0 0 -.1 44.238 311.38)"/><path d="M57.6 290.95h357.12" clip-path="url(#p4176bc1c31)" fill="none" stroke="#b0b0b0" stroke-linecap="square" stroke-opacity=".2" stroke-width=".8"/><use x="57.6" y="290.952" stroke="#000" stroke-width=".8" xlink:href="#m948ddfcaea"/><g transform="matrix(.1 0 0 -.1 37.875 294.75)"><use xlink:href="#DejaVuSans-53"/><use x="63.623" xlink:href="#DejaVuSans-48"/></g><path d="M57.6 274.32h357.12" clip-path="url(#p4176bc1c31)" fill="none" stroke="#b0b0b0" stroke-linecap="square" stroke-opacity=".2" stroke-width=".8"/><use x="57.6" y="274.32" stroke="#000" stroke-width=".8" xlink:href="#m948ddfcaea"/><g transform="matrix(.1 0 0 -.1 31.512 278.12)"><use xlink:href="#DejaVuSans-49"/><use x="63.623" xlink:href="#DejaVuSans-48"/><use x="127.246" xlink:href="#DejaVuSans-48"/></g><path d="M57.6 257.69h357.12" clip-path="url(#p4176bc1c31)" fill="none" stroke="#b0b0b0" stroke-linecap="square" stroke-opacity=".2" stroke-width=".8"/><use x="57.6" y="257.688" stroke="#000" stroke-width=".8" xlink:href="#m948ddfcaea"/><g transform="matrix(.1 0 0 -.1 31.512 261.49)"><use xlink:href="#DejaVuSans-49"/><use x="63.623" xlink:href="#DejaVuSans-53"/><use x="127.246" xlink:href="#DejaVuSans-48"/></g><path d="M57.6 241.06h357.12" clip-path="url(#p4176bc1c31)" fill="none" stroke="#b0b0b0" stroke-linecap="square" stroke-opacity=".2" stroke-width=".8"/><use x="57.6" y="241.056" stroke="#000" stroke-width=".8" xlink:href="#m948ddfcaea"/><g transform="matrix(.1 0 0 -.1 31.512 244.86)"><use xlink:href="#DejaVuSans-50"/><use x="63.623" xlink:href="#DejaVuSans-48"/><use x="127.246" xlink:href="#DejaVuSans-48"/></g><path d="M57.6 224.42h357.12" clip-path="url(#p4176bc1c31)" fill="none" stroke="#b0b0b0" stroke-linecap="square" stroke-opacity=".2" stroke-width=".8"/><use x="57.6" y="224.424" stroke="#000" stroke-width=".8" xlink:href="#m948ddfcaea"/><g transform="matrix(.1 0 0 -.1 31.512 228.22)"><use xlink:href="#DejaVuSans-50"/><use x="63.623" xlink:href="#DejaVuSans-53"/><use x="127.246" xlink:href="#DejaVuSans-48"/></g><path d="M57.6 207.79h357.12" clip-path="url(#p4176bc1c31)" fill="none" stroke="#b0b0b0" stroke-linecap="square" stroke-opacity=".2" stroke-width=".8"/><use x="57.6" y="207.792" stroke="#000" stroke-width=".8" xlink:href="#m948ddfcaea"/><g transform="matrix(.1 0 0 -.1 31.512 211.59)"><defs><path id="DejaVuSans-51" d="M40.578 39.312q7.078-1.516 11.047-6.313 3.984-4.78 3.984-11.812 0-10.78-7.422-16.703-7.421-5.906-21.093-5.906-4.579 0-9.438.907T7.625 2.203v9.516q4.094-2.39 8.969-3.61 4.89-1.218 10.219-1.218 9.265 0 14.125 3.656t4.86 10.64q0 6.454-4.516 10.079-4.516 3.64-12.562 3.64h-8.5v8.11h8.89q7.266 0 11.125 2.906t3.86 8.375q0 5.61-3.985 8.61-3.969 3.015-11.39 3.015-4.063 0-8.704-.89-4.64-.875-10.203-2.72v8.782q5.625 1.562 10.531 2.344t9.25.781q11.234 0 17.766-5.11 6.547-5.093 6.547-13.78 0-6.063-3.469-10.234t-9.86-5.782z"/></defs><use xlink:href="#DejaVuSans-51"/><use x="63.623" xlink:href="#DejaVuSans-48"/><use x="127.246" xlink:href="#DejaVuSans-48"/></g><path d="M57.6 191.16h357.12" clip-path="url(#p4176bc1c31)" fill="none" stroke="#b0b0b0" stroke-linecap="square" stroke-opacity=".2" stroke-width=".8"/><use x="57.6" y="191.16" stroke="#000" stroke-width=".8" xlink:href="#m948ddfcaea"/><g transform="matrix(.1 0 0 -.1 31.512 194.96)"><use xlink:href="#DejaVuSans-51"/><use x="63.623" xlink:href="#DejaVuSans-53"/><use x="127.246" xlink:href="#DejaVuSans-48"/></g><path d="M57.6 174.53h357.12" clip-path="url(#p4176bc1c31)" fill="none" stroke="#b0b0b0" stroke-linecap="square" stroke-opacity=".2" stroke-width=".8"/><use x="57.6" y="174.528" stroke="#000" stroke-width=".8" xlink:href="#m948ddfcaea"/><g transform="matrix(.1 0 0 -.1 31.512 178.33)"><defs><path id="DejaVuSans-52" d="M37.797 64.312 12.891 25.39h24.906zm-2.594 8.594H47.61V25.39h10.406v-8.203H47.61V-.001h-9.812v17.188H4.89v9.515z"/></defs><use xlink:href="#DejaVuSans-52"/><use x="63.623" xlink:href="#DejaVuSans-48"/><use x="127.246" xlink:href="#DejaVuSans-48"/></g><path d="M57.6 157.9h357.12" clip-path="url(#p4176bc1c31)" fill="none" stroke="#b0b0b0" stroke-linecap="square" stroke-opacity=".2" stroke-width=".8"/><use x="57.6" y="157.896" stroke="#000" stroke-width=".8" xlink:href="#m948ddfcaea"/><g transform="matrix(.1 0 0 -.1 31.512 161.7)"><use xlink:href="#DejaVuSans-52"/><use x="63.623" xlink:href="#DejaVuSans-53"/><use x="127.246" xlink:href="#DejaVuSans-48"/></g><path d="M57.6 141.26h357.12" clip-path="url(#p4176bc1c31)" fill="none" stroke="#b0b0b0" stroke-linecap="square" stroke-opacity=".2" stroke-width=".8"/><use x="57.6" y="141.264" stroke="#000" stroke-width=".8" xlink:href="#m948ddfcaea"/><g transform="matrix(.1 0 0 -.1 31.512 145.06)"><use xlink:href="#DejaVuSans-53"/><use x="63.623" xlink:href="#DejaVuSans-48"/><use x="127.246" xlink:href="#DejaVuSans-48"/></g><path d="M57.6 124.63h357.12" clip-path="url(#p4176bc1c31)" fill="none" stroke="#b0b0b0" stroke-linecap="square" stroke-opacity=".2" stroke-width=".8"/><use x="57.6" y="124.632" stroke="#000" stroke-width=".8" xlink:href="#m948ddfcaea"/><g transform="matrix(.1 0 0 -.1 31.512 128.43)"><use xlink:href="#DejaVuSans-53"/><use x="63.623" xlink:href="#DejaVuSans-53"/><use x="127.246" xlink:href="#DejaVuSans-48"/></g><path d="M57.6 108h357.12" clip-path="url(#p4176bc1c31)" fill="none" stroke="#b0b0b0" stroke-linecap="square" stroke-opacity=".2" stroke-width=".8"/><use x="57.6" y="108" stroke="#000" stroke-width=".8" xlink:href="#m948ddfcaea"/><g transform="matrix(.1 0 0 -.1 31.512 111.8)"><defs><path id="DejaVuSans-54" d="M33.016 40.375q-6.64 0-10.531-4.547-3.875-4.531-3.875-12.438 0-7.86 3.875-12.438 3.89-4.562 10.531-4.562t10.516 4.562q3.875 4.578 3.875 12.438 0 7.906-3.875 12.438-3.875 4.547-10.516 4.547zm19.578 30.922v-8.984q-3.719 1.75-7.5 2.671-3.781.938-7.5.938-9.766 0-14.922-6.594-5.14-6.594-5.875-19.922 2.875 4.25 7.219 6.516 4.36 2.265 9.578 2.265 10.984 0 17.359-6.672 6.375-6.656 6.375-18.125 0-11.234-6.64-18.03-6.641-6.782-17.673-6.782-12.656 0-19.344 9.688-6.687 9.703-6.687 28.109 0 17.28 8.203 27.562t22.016 10.28q3.719 0 7.5-.734t7.89-2.187z"/></defs><use xlink:href="#DejaVuSans-54"/><use x="63.623" xlink:href="#DejaVuSans-48"/><use x="127.246" xlink:href="#DejaVuSans-48"/></g><path d="M57.6 91.368h357.12" clip-path="url(#p4176bc1c31)" fill="none" stroke="#b0b0b0" stroke-linecap="square" stroke-opacity=".2" stroke-width=".8"/><use x="57.6" y="91.368" stroke="#000" stroke-width=".8" xlink:href="#m948ddfcaea"/><g transform="matrix(.1 0 0 -.1 31.512 95.167)"><use xlink:href="#DejaVuSans-54"/><use x="63.623" xlink:href="#DejaVuSans-53"/><use x="127.246" xlink:href="#DejaVuSans-48"/></g><path d="M57.6 74.736h357.12" clip-path="url(#p4176bc1c31)" fill="none" stroke="#b0b0b0" stroke-linecap="square" stroke-opacity=".2" stroke-width=".8"/><use x="57.6" y="74.736" stroke="#000" stroke-width=".8" xlink:href="#m948ddfcaea"/><g transform="matrix(.1 0 0 -.1 31.512 78.535)"><defs><path id="DejaVuSans-55" d="M8.203 72.906h46.875v-4.203L28.61 0H18.312l24.906 64.594H8.202z"/></defs><use xlink:href="#DejaVuSans-55"/><use x="63.623" xlink:href="#DejaVuSans-48"/><use x="127.246" xlink:href="#DejaVuSans-48"/></g><path d="M57.6 58.104h357.12" clip-path="url(#p4176bc1c31)" fill="none" stroke="#b0b0b0" stroke-linecap="square" stroke-opacity=".2" stroke-width=".8"/><use x="57.6" y="58.104" stroke="#000" stroke-width=".8" xlink:href="#m948ddfcaea"/><g transform="matrix(.1 0 0 -.1 31.512 61.903)"><use xlink:href="#DejaVuSans-55"/><use x="63.623" xlink:href="#DejaVuSans-53"/><use x="127.246" xlink:href="#DejaVuSans-48"/></g><g transform="matrix(0 -.1 -.1 0 25.433 219.82)"><defs><path id="DejaVuSans-73" d="M9.813 72.906h9.859V0h-9.86z"/><path id="DejaVuSans-110" d="M54.891 33.016V0h-8.984v32.719q0 7.766-3.032 11.609-3.03 3.86-9.078 3.86-7.28 0-11.484-4.641-4.203-4.625-4.203-12.641V0H9.08v54.688h9.031v-8.5q3.235 4.937 7.594 7.375Q30.079 56 35.798 56q9.422 0 14.25-5.828 4.844-5.828 4.844-17.156z"/><path id="DejaVuSans-112" d="M18.109 8.203v-29H9.078v75.484h9.031V46.39q2.844 4.875 7.156 7.235Q29.593 56 35.593 56q9.969 0 16.188-7.907 6.235-7.906 6.235-20.797T51.78 6.484q-6.219-7.906-16.188-7.906-6 0-10.328 2.375-4.312 2.375-7.156 7.25zm30.578 19.094q0 9.906-4.078 15.547t-11.203 5.64q-7.14 0-11.22-5.64T18.11 27.297t4.078-15.547 11.219-5.64q7.125 0 11.203 5.64t4.078 15.547z"/><path id="DejaVuSans-117" d="M8.5 21.578v33.109h8.984V21.921q0-7.766 3.016-11.656 3.031-3.875 9.094-3.875 7.265 0 11.484 4.64 4.234 4.641 4.234 12.657v31h8.985V-.001h-8.985v8.406Q42.047 3.42 37.718.999q-4.312-2.422-10.03-2.422-9.422 0-14.313 5.86Q8.5 10.294 8.5 21.576z"/><path id="DejaVuSans-116" d="M18.312 70.219V54.688h18.5v-6.984h-18.5V18.016q0-6.688 1.828-8.594t7.453-1.906h9.219V0h-9.219Q17.187 0 13.234 3.875q-3.953 3.89-3.953 14.141v29.688H2.687v6.984h6.594V70.22z"/><path id="DejaVuSans-111" d="M30.609 48.391q-7.219 0-11.422-5.64t-4.203-15.454 4.172-15.453q4.187-5.64 11.453-5.64 7.187 0 11.375 5.656 4.203 5.672 4.203 15.438 0 9.719-4.203 15.406-4.188 5.688-11.375 5.688zm0 7.61q11.719 0 18.406-7.626 6.703-7.609 6.703-21.078 0-13.422-6.703-21.078-6.688-7.64-18.406-7.64-11.766 0-18.438 7.64-6.656 7.657-6.656 21.078 0 13.47 6.656 21.078Q18.843 56 30.609 56z"/><path id="DejaVuSans-119" d="M4.203 54.688h8.985L24.42 12.016l11.173 42.672h10.594l11.234-42.672L68.61 54.688h8.984L63.282 0H52.688L40.922 44.828 29.11 0H18.5z"/><path id="DejaVuSans-114" d="M41.109 46.297q-1.516.875-3.297 1.281Q36.031 48 33.89 48q-7.625 0-11.703-4.953T18.11 28.813V.001H9.078v54.688h9.031v-8.5q2.844 4.984 7.375 7.39 4.547 2.422 11.047 2.422.922 0 2.047-.125 1.125-.109 2.484-.359z"/><path id="DejaVuSans-87" d="M3.328 72.906h9.953L28.61 11.281l15.28 61.625h11.094l15.328-61.625 15.281 61.625H95.61L77.297 0H64.891L49.516 63.281 33.986 0H21.578z"/></defs><use xlink:href="#DejaVuSans-73"/><use x="29.492" xlink:href="#DejaVuSans-110"/><use x="92.871" xlink:href="#DejaVuSans-112"/><use x="156.348" xlink:href="#DejaVuSans-117"/><use x="219.727" xlink:href="#DejaVuSans-116"/><use x="258.936" xlink:href="#DejaVuSans-32"/><use x="290.723" xlink:href="#DejaVuSans-112"/><use x="354.199" xlink:href="#DejaVuSans-111"/><use x="415.381" xlink:href="#DejaVuSans-119"/><use x="497.168" xlink:href="#DejaVuSans-101"/><use x="558.691" xlink:href="#DejaVuSans-114"/><use x="599.805" xlink:href="#DejaVuSans-32"/><use x="631.592" xlink:href="#DejaVuSans-40"/><use x="670.605" xlink:href="#DejaVuSans-109"/><use x="768.018" xlink:href="#DejaVuSans-87"/><use x="866.895" xlink:href="#DejaVuSans-41"/></g><path d="m73.833 229.87.27-5.032.029-.477.228-4.348.043.12.142-3.832.057 1.314.1 2.155.042-.96.086-1.672.057.799.1 2.225.056-.679.029-.279.057-.916.057.754h.014l.043.44.17-2.202.03.4.085 1.073.057-.277.113-1.398.029.12.114.758.014-.357.014-.037.1.602.028-.32.057.4.029-.195.071.44.043-.238.014-.237.071.639.015-.362.113.519.015-.437.07.48.015-.24.114.829.043-.158.014-.2.028.52.029-.158.057.362.057-.28.014-.12.014.362.029-.282.057.48.028-.56.029.365.1-.472-.072.514.086-.237.057.28-.029-.4.071.362.015-.237.028.396.057-.277.071.44.043-.005.014-.28.071.56.015-.16.114.401.014-.16.156.79.015-.158.014-.36.085.16.114.277.057-.237.029.519.014-.198.043-.04.07.44.015-.237.071.519.015-.16.113.442.015-.237.057-.158.028.318.014-.12.015.28.1-.125.056-.117-.014.237.028.002.043.078-.014-.24.028.12.057-.282.029.397.014-.2.043-.042.071.275.1-.24-.057.32.071-.202.1.632.014-.36h.014l.143.406h.014l.014-.2.014.238.071-.124.143.643.014-.002.057-.237.029.319.014-.16.114.68.014-.28.157.481.014-.16.071.317.014-.12.114.244.014-.16.015-.161.057.439.028-.28.114.362.057-.317.057.16h.014l.014-.118.029.275.057-.12.156.522.029-.12.014.28.029-.08.1.284.014-.12h.014l.114.277.014-.12.057.36.014-.082h.014l.143.44.028-.04.2.476.014-.12.028.24.057-.2.114.402.015-.04.014-.04.014.12h.028l.015.078.028-.196.057.08.029-.117.014.16h.028l.057.119.029-.16.028.12.057-.12.029.242.014-.082.242.475.014-.16.1.082.1.237-.057-.28.07.238.058-.117.014.16h.014l.114.359.043-.084.071-.16.043.084.157.273.028-.08.043.12.1.238.028-.078.142.204.057-.078.014-.04.015.122.028-.038.143.28.07-.118.03.08.127.202.015-.042.057.124.227.435.029-.042.085-.078.015.122.128.197-.057-.237.071.195.014-.237.086.16.1.035-.058-.075.072.035.042-.157.057.117.057-.042.043.082.071-.161.043.077.128-.048.128-.116.157.118.256.036.014-.16.086.122.142.198.014-.04.029.04.157.284.028-.045.043-.117.057.12.128-.083.028-.036.043.08h.014l.057-.044.057.122.143-.198.128-.273.071.042.057-.082.085-.113.029.124.17-.038.1-.118.129.28.057.08.028.038.029-.122h.028l.057.082.142.073.072-.04.028.082.128-.084.029-.117.07.16.143-.083.015-.04.07.118.086.078.029-.08.142-.202.214-.038.114-.16.114.238.014-.08.1-.037.014.04.156.239-.1-.284.129.244.043.08.028.118.085-.082.114.08.015.04.057-.158.057-.04.014.08h.028l.1-.124.142-.2.057.078.029-.12.057-.116.057.038.057.04.042-.078.029-.08.043.162.156.164.029-.04.028.08.043-.042.043.12.07-.116.1-.044.015-.16.057.2h.028l.328.152.028.04.071-.08.385-.034.057-.116.057.08.128-.353.057.042.128.242.043-.042.014-.08.071.122.043.08.071-.08.071.082.029-.044.2.357.028-.004.014-.158.1.12.07.038.03.157.07-.163.114.084.029.082.043-.162.028.042.1-.082.2-.273.084.04.015-.04.128-1.149.427-8.084.142-.236.057-.073.043-.235.029.434.441 7.386.256.122.086.513.156.796.171-2.445.072-.563.07.117.2.679.043-.274.156-.157.186 3.281.114.603.014-.002.441-6.176.328-3.731.085-.075.143-.395.014.04.043.04.042-.08.185-.472.015.08.057-.2.014.003.028.042.029-.202.028.042.086-.08.014.04.057-.115.014.04.043-.08.028.12.043-.082.2-.042.042-.12.057.04.128.16.114.037.043.197.057-.237.185-.441.071-.038.014-.08.043.202.029-.08.057-.04.057.083.056-.24.072.117.085-.234.057.077.114.197.014-.04.071.043.029-.08.028.2.072-.165.142-.202.114.16.014-.08.043.16.043-.043.085-.086-.057.164.086-.082.085.117.043-.042.1-.2.028.04.043.16.07-.08.129-.2.043.12.057-.075.042-.04.029.124.014.08.043-.162.028.04.071-.115.057.04.057.198.072-.08.028.08.114.122.085-.122.043.082.1-.083.014-.082.057.162h.014l.029.083.042.157.072-.118.1-.155.014.04.014.082.028-.122.057.04h.014l.057-.197.057.12.114-.073.1-.12.014.04.014.04.043-.162.086-.2.057.118.042.08.015.04.028-.123.043.043.042-.08.029.16.014-.043.014.078.029-.12h.043l.085-.167-.028.204.057-.044.156.122.057-.002.114.275.014-.08.015-.08.056.242.029-.115.085-.035-.057.075.086-.035h.043l.114.162.1-.202.013.08.086.124.028-.04.029-.16.085.085.029.08.028-.202.128-.048.114-.08.072-.08-.029.12.043.003.057.08.042-.04.114-.28.015.122.1.038-.043-.08.057.04.014-.04.057.125.028-.038.128.115.015-.04.042.12.043-.042h.014l.128.233.143.154.014-.04.071-.037.029.04.1.075.014-.04.1-.077.014.04.085.04.142-.477.015.04.042-.16.086-.118.057.036.128-.075.028-.16.043.24.014-.003.015.077.07-.16.03-.037.014.083.042-.043.128.242.015-.08.057.2.085.12.057-.035.085.08.057-.036.029.08.043-.195.057.2.042.04.043-.12.014.082.214-.322.014.038.029-.16.028-.124.071.117.029.04.085.197.029-.122.057.077.057-.122.085.04.014-.082.057.082.242.404.185-.28.057.198.072-.037.014-.04.028.162.043-.043.043.04-.015-.12.057-.002.057-.077.043.04.1-.242.028-.12.057.162.014-.04.057.077.043-.075.1-.24.028.04.029.08.071-.074.057-.158.071.12.043.04.028-.08.029.045.014-.043.057.12.043.08.028-.12h.029l.042-.117.072.037.07.318.058-.2.028.08.1.155.028-.043.015-.042.057.08h.028l.128.277.015-.082.07.04.129.12.057-.158.043.078.028.12.085-.085.072-.195.07.08.015.08.043-.282.256-.482.014.038.171.197.086-.113.014.04.114.153.014-.08.043.322.057.037.142.367.057.117.029-.2.014.04.043-.084.085-.075.014.082.1.197.028-.12.385-.72.071-.076.043.082.142-.317.014.04.043-.2.029.08.142.085.128.162.014-.037.029.12.043-.038.142.155.014-.037.072.08.113.117.1-.162.029.16.07-.163.03.118.099-.118.014.04.029.08.057-.12.085-.28.029.04.057.12.056-.114.043-.078.014-.08.043.204.029-.042.042.12.043-.162.014.04.029-.08.028-.12.029.16.057-.043.042-.08.015-.04.042.123.015-.003.227.313.029-.002.028.237.1-.082.014-.04.043.204.014-.042.043.04.128.28.071.037.029-.08.085-.277.043.12.1.164.014-.12.043-.202.07.124.03.08.028-.122.043-.002h.014l.042-.282.086.042.17.09.03.075.056-.162.114-.163.029.163.07-.165.044-.04.028.125.085.125.057-.043.057-.082.029.08.114.23.014-.117.114.204-.071-.24.114.158.07-.082.015-.038.029.122.07.16.03-.162.17-.165.029.043.057-.115.014.082.057-.198.057.118.1-.118-.058.158.072-.115.028-.038.128-.16.086.045-.057-.084.085.044.014-.08.029.12.057-.037.1.117.028-.082.014-.04.057.155.015-.08.199.55.1-.2.014.08.1.197.028-.08.157-.117.014.002.014.123.057-.28.014.002.157-.072.085-.235.043.117.043.12.057-.155.07.077.172.238.014-.123.057.202h.014l.071.038.015-.08.1-.127.056.315.057-.08.057.04.057-.122.185.24.128-.123.015.04.142.284.029-.12.128-.072.014.04.057-.163.014.04.1-.002.142-.28h.015l.128-.164.114-.12.028.038.086.155.042-.12.157.002.114.123.185.077.114.157.014-.04.086-.115.014.08.057.12.028-.04.014-.2.1.08.128.115.015-.04.213-.073.043-.12.043.16.042-.082.043-.04.114-.115.057.04.028-.08.029.04.114-.072.014.042.043.038.014-.08.028.002.057-.08.029.12.014-.002.043.08.057.073.057-.078h.014l.128.237.029-.042.014-.077.028.16h.043l.014.08.072-.156.028.118.028-.162.086.042.014.08.071-.153.086-.31.057.077.114-.04.128-.279.014.08.086-.122.014-.04.028.162.157.274.057.033.057.235.071-.077.014-.08.057.2.029-.08.028.28.086-.043.028-.12.029.16.042-.003.285-.04.1-.2.014.04.028.04.015-.08h.042l.129-.154.028.04.114-.078.114-.115.028.04.114.04.1.197.014-.08.1-.115.014.08.014.08.086-.084.028-.12.057.162.029-.042.213.075.2.362.014-.083.043-.084.07-.16.03.122.07.24.043-.2h.015l.1-.198.013.078.129-.077.042-.238.086.038.142-.155.014.042.057.155.057-.04.029-.04.028.123h.014l.1.075.029-.035.042-.12.057.155.043-.043.114.158.014-.04.043.122.028-.002.072.155.07-.075.314-.075.171-.275-.128.322.156-.282.057-.038.072-.397.085.115.043-.08.1-.195.028.082.085-.042.086-.164.028.08.114.2.071-.12.029.08.356.674.028-.04.029.16h.014l.086.035-.029-.158.043.078.014-.122.085.124.043.117.043-.077.142-.355.015.08.07-.157.058-.24.07.12.03.12.085-.083.043-.12.028.163.014.08.071-.16.029-.12.057.162.014.002.029.04.1.195.028-.04.085.08.057.277.057-.08.014-.04.057.165.043-.04.057.08.085-.08.015.04.114.11.014-.08.114.083.014.04.057-.12.157-.277.014.08.057-.198.028.08.029-.24.085.158.1.087.014-.08.086-.037.113-.322.043.04.143.192.1-.08.014.04.128.235.1.035.113.16.015-.04.028.16.1.157.014-.04.043-.073.07.08.1.127-.014-.16.029.118.1-.192.028.04.071-.036.057-.202.057.12.17-.192.058.035.014-.08.043.04.071.035.043-.122.042.24.072-.163.028-.08.043.123.028-.04.128.16.015-.08.014-.08.043.157.042-.122.072.355.057-.158.042.122.071-.16.157.238-.1-.322.114.282.114-.404.086.122.028.08.071-.038.114-.275.029.08.1-.082.17-.16.086.08.114.237.014-.08.085-.277.029.12.1.115.014-.08.014-.04.029.085.056-.042.029.2.085-.125.129.078.028.04.029-.122.014.002.057-.078.014.12.028.16.086-.035.057-.158.043.2.042.08.057-.08.071-.315.086.04.014.08.043-.122.028.084.043-.24.071.2.157-.127.043.202.085-.164.029-.083.028.162.043-.04.014-.04.014.08.071-.002.057.04.114.155.015-.04.042-.04.185.397.1-.115.029.202.085-.037.057-.115.071.082.029-.08.142-.077.014.04.029-.122h.042l.243-.632.085.037.2.235.028-.077.057.122.085-.08.086.235h.014l.128.394.014-.04.143.238.028-.078.071.12.1.115-.014-.16.043.075.028-.04.028.08h.043l.029.08.042-.157.015.002.042-.08.257-.472.014.082.071-.122h.014l.157-.387.014.038.071-.04.015-.083.028.163.057-.125.2.237.028.038.028.16.086-.123.014-.04.029.16.1.275.028-.043.142-.077.043.002.043.118.07-.078.186-.437-.128.477.17-.394.03.12.042-.16.028-.003.228-.314.057-.038.114-.082.028-.04.015-.08.028.122.057-.042.128.237.015-.04.057.083h.042l.157.394.128.193.014-.038.071.122.129.16.1-.115.028.08.057-.038.057-.24.057.085.07-.08.1-.36.029.045.014.08.086-.082.114-.28.028.08.086.076.014-.12.128.122.014.038.086-.083.028.08.143.275.085.082.142.282.072-.117.028.16.057-.083.014-.08.029.155.057-.08.07.12.044-.12.156-.274.029.08.057-.08.1-.283.056.118.114.085-.071-.125.085.085.129-.118.07.038.044-.12.1.155.013-.04.029-.12.057.163.014-.083.2.24.042-.043.057.275.071-.04.143.282.014-.04.085-.157.015.12.028.08.029-.122h.014l.17-.365.058.04.014-.08.057-.357.071.124.057-.082.1-.362.043.16.07.075.015-.08.028-.077.057.202h.015l.114.202.028-.122.071.122.228.357.043.08.085-.115.128-.005.015.16.1-.042.056.122.143-.397.028.08.071-.04.1-.312.028.082.157-.072.057-.315.057.237.1-.075-.057.155.071-.115.1.197.042-.122.043-.04.043.12.057-.045.014.12.185.23.014-.04.043.197.014-.04.015.038.042-.195.043-.12.028.16.029-.003.043.08.014.118.043-.202.042.082.057.04.072-.16.014.16.028-.202.057.045.2-.315-.129.434.143-.394.142.002.057-.277.071.12.029.12.028-.16.043.002.1.12-.057-.2.085.118.043-.08.028-.122.029.162.043-.005.028.082.157.28.057-.045.014.12.043.153.07-.078.03.08.113.117.014-.082.086-.157.014.082.1.277.028-.164.214-.07.043-.236.085.082.043.04.043-.077h.014l.028-.12.043.165.028-.003.057-.082.1-.235.029.083.042.032.015-.08h.028l.028-.199.086.033.057.24.057-.083.028-.08.057.118.015-.04.213.476.057-.037.057-.162.057.122.114.202.014-.042.185-.203h.015l.156-.444.029.08.07-.035.03-.16.085.12.028.08.029-.16h.014l.085-.155.043.12.057.158.085-.073.043-.077.043.16.057.082.085.035.015-.043.014-.04.028.2.015-.04.014.078.1-.038.113.315.1-.042.029.08.07-.08.03.117.113-.2.014.043.043.037.029-.035.1-.118.013.04.072.04.014-.12.043-.077.07-.19.058.077.242.083.043-.083.085.12.157-.24.014.08.028.08.1.15.057-.04.014-.04.043.16.228.36.071-.08.014.16.029-.042.057-.078.042.12.086-.033.028.08.171-.357.114-.432.1.155.071-.08.029-.08.056.157.072-.08.1-.169.014.12.1.152.014-.08.014-.04.042.203.1.312.071-.16.015-.08.042.205.029-.043.043.078.056-.042.129.242.27-.04.27-.477.115.16.014-.08.1-.357.057.202.014.037.057-.12.071.048.043-.158.185.482.043.08.113.077.015-.04h.028l.128.313.072-.075.028.12.1.277-.043-.318.071.193.313-.707.015.04.028.12.057-.155.014.04.057-.277.057.157.043.04.043-.12.014.083.057-.278.071.078.157.082.1.155.014-.04.028-.12.071.078.057.155.071-.12.029-.12.043.158.042-.12.057.237.072-.038.014-.04.028.12.057-.04.029.118.085-.08.143.204.014-.04.028-.12.071.083.043.12.071-.08.086-.12.043.037.028.08.057-.157.057-.2.057.125.028-.08.143-.322.043.12.1-.045.028.125.057-.043.028.122.014-.04.171.238.014-.04.086-.085-.057.125.085-.045.157.28.014-.123.185-.28.015.16.057-.244.028.002.071.08-.042-.12.07.08.086-.24.043.085.114-.077.071-.12.029.164.085.155.028-.12.057-.077.029-.04.028.205.214.035.043.155.07-.122.015-.08.057.24.014-.043.029-.12.085.078.171.237.014-.042.043-.077.057.08.114.114.114-.197.028.08.029-.2.014.003.328-.702-.285.744.327-.71.242.083.271.474.014-.08.043.2.028-.005.043.08.029.162.085-.075.1-.08.014.08.028.157.072-.12.1-.12.028.043.014.04.029-.08.056.003.029.04.057-.08.057.16.043-.205.085.115.029.08.056-.037.057-.32.086.042.128-.077.17-.162.115.204-.071-.284.114.204.057-.16.07.12h.015l.142.36h.015l.114.274.014-.082.228-.002.057-.118.042.16.057-.082.27-.634.015.2.1-.16.028.04.014.08.086-.153.043-.117.042.16.057.037.029-.12.014.043.028.08.043-.043.114.157.142.08.243.355.028-.085.014-.037.029.082h.042l.129.202.057-.197.057.16.028.079.057-.115.014.04.171-.36.029-.074.057-.16.057.085.128-.083.057-.242.085.038.142.037.1.24.029-.08.028.08.128.27.015-.08.014-.037.028.08.043-.04.1.197-.043-.24.071.157.071-.037.072-.12.028.045.043.157.07-.12.115-.077.156-.244-.128.284.143-.244.014.08.071-.118h.014l.029-.16.071.16.043.12.057-.122.057-.162.057.082.17.005.072.2.042-.078.114-.08.057.277.072-.038.014-.08.043.123.042-.083.057.198.057-.12.029-.08.028.12.057-.085.2.32.014-.04h.07l.03-.16.085.122.071-.04.071-.202.057.078.128-.08.114-.16.1-.04.043-.24.07.155.129.083.043-.078.028.122.043-.04.057-.08.057.123.1-.09-.029.165.043-.122.185.284.1-.4.028.12.1.123.014-.04.014-.122.086.084.042.04.043-.037.057-.238.071.04.157-.322.014.082.114.278.028-.08.057.077.029-.04.114.158.028-.08.043.16.029-.04.014.002.128.16.071.2.1-.043.014-.037.043.08h.028l.114.112-.057-.157.086.117.028-.037.057.08.014.04.043-.158.043.118.071-.2.142-.037.015.16.07-.278h.015l.071.038-.028-.08.057.002.028.005.057-.28.071.078.2.043.057.197.057-.12.028.04.029-.16.07.195.086-.197.071.077.214.282.114-.085-.057.122.071-.082.057.08.114.157.014-.04.086-.197.028.08.086.077.014-.042.114-.2.014.04.029-.08.1-.157.042.082.043-.082.142-.312.029.162.057.073.028.08.043-.197.014.04.014.002.043-.16.028.202.029-.042.228.44.014-.04.071-.078.014.12.129.196.014-.08.057.125.014-.04.128.275.014-.04.1-.197.014.08.015.04.07-.116.015.078.057-.237.071.115.043-.083.1-.167.042.08.057-.082.128-.477.043.078.086-.122.028-.08.071.077.114.162.043-.077.057.122h.014l.128.162.128.36.015-.043.014-.12.071.245.029.04.057-.04.056.157.1-.117.014.08.029.04.043-.158.07-.321.058.12.07-.08.1-.115.015.122.043-.045.17-.516.1.197.014-.04.029-.122.071.12.057.239.071-.16.014-.04.043.12.029-.002.242.359h.014l.128.242.029.082.1.04-.03-.08.044.04.07-.237.058.12.085.082-.028-.12.057.078.014-.123.1.085.085-.078.142-.321.015.04.114-.162.014.082.057.115.042-.12.114-.235.043.12.029-.084.142-.162-.1.202.114-.163.128.198.015-.04.042.2.029-.078.156.042.114.232.015-.082h.014l.085-.235.029.12.085.202.043-.16.17-.075.015-.08.071.158.071.073.029-.08.1-.23.057.118.057.077.014-.12.114-.242.028.04.128.038.057.117.057-.077.114.004.128.313.015-.038.07.082.115.195.014-.08.1-.314.028.12.086.077-.029-.158.043.118.042-.153.057.12.029.08.028-.2.029.045.071-.24-.043.36.1-.282.17.01.115.234.114-.28.014.08.028.076.029-.162h.014l.043-.04.043.12.057.037.114.4.028-.08.2.314.028-.16.085.122.128.282.015-.08.042.16.043-.08.043-.002.114-.32.028.08.057-.154.014.08.057-.238.072.043.028.04.043-.12h.014l.057-.24.057.197.17-.394.015.122.029.16.085-.125.085-.164.029.12.114.192.014-.08.142.275.029-.117.057-.2.043.2.085.114.014-.082.086-.075.014.08.028.162.086-.127.1-.317.028.12.014.08.043-.163.071-.197.043.045.085-.04.057-.278.057.163.043.16.071-.123.1-.15.014.08.114.16.029-.077.042.162.029-.08.085.075.27.477.015-.04.043.16.028-.045.029.04.028.117.086-.04.128.075.014.12.085-.045.129-.277.014.04.028-.24.171-.075.071-.115-.042.158.085-.078.128.165.128-.28.114.078-.057-.12.072.08.014-.04.028.162h.029l.2.075.013.12.086-.08.028-.08.029.12.042-.082.186.446.028-.12.043.24.014.037.043-.164.014.002.157.085.014.04.028-.24.242-.476.015.04.014.042.043-.085h.042l.1-.36.043.088.114-.127.028.04h.014l.029-.16.057.277.014-.002.043-.078.028-.08.043.2.043.038.128.195.028-.08.043.12.043-.04.057.112.057-.117.028-.04.029.202.114-.045.014-.12.071.245.114.157.014-.042.114-.16.029.08.028-.2.014.003.057-.076.2-.312.07.125.044-.084.17-.512.015.082.014-.042.014.077.043.003.17.354.03.075.113.364.029-.085.028-.08.043.158.213.399-.17-.477.185.435.028-.115.086.122.1.117-.03-.157.043.075.1-.158.014.08.029-.04.114-.272.028.042.086-.122.1-.195.014.003.028.12.057-.245.014.08.1-.157.028.042.1.16.043-.12.043.158.028-.04.128.237.014-.04.029.08.1.112.014-.082.014-.042.057.162.014-.04.029.04.1.157.014-.12.085-.237.029.12.014.08.057-.155.028.117.086-.277.057.08.085.037-.014-.16.028.12.029-.077.057.12.028-.08.029.04.028-.122.029.045.042-.2.057.2.015.037.057-.04.028-.162.086.035.113.315.029-.12.185.327.014-.04.015-.08.057.242.014-.042.028.04.057.194.057-.117.029-.04.028.122.043-.037.071-.083.014-.12.086.123.114-.085.156-.442.114-.197-.057.277.071-.195.086.078.014-.043.057-.2.1.078.128-.075.028-.12.043.245.014-.003.143.163.057-.202.07.035.03-.04.042.122h.014l.171.367.029-.04.128.192.1-.197.014.04.057-.085.057.16.256-.557.014.082.015.043.042-.2.171-.35-.142.39.185-.352.114.12.014-.038.028-.08.043.12.014-.042.157.315.17.075.172.481.014-.037.157.08.014.08.071-.198.128-.2.029.28.1-.036.17-.486.015.08.028.038.029.117.07-.122h.015l.071-.16.043.04.071.078.029-.12.014.04.014.002.057-.282.057.118.085-.08.043.202.029-.118.042.205.029-.005.043-.117.056.122.072-.078.057.238.028-.038.029.16.028-.08.114.237.014-.082.071-.24.1.077.057-.042.043-.16.071.082.1.2-.057-.242.07.12.115-.195.014.08.029-.08.057-.075.042.043.043.162.071-.082.071-.275.057.202.015.043.057-.122.028.04.128-.158.057.153.057-.078.029.08.128.153.028-.078.057.16.143.272.028-.082.071.122.071-.04.043.2.029-.163.057.205h.014l.114.117-.057-.197.071.155.128-.277.014.04.057-.118.072-.2.042.16.043.118.043-.16.014.003.17-.205.044-.04.042.085.029-.12.042.202h.029l.114.04.114.324.028-.08.057-.157.057.157.086.195.07-.075.058.08.057-.12.028.12.043-.202.014.002.128-.04.043.078.071-.2.057.235.057-.117.086-.317.1.117.07-.037.043-.162.057.16.071.077.057-.038.171-.197.171.272.014-.04.086-.037-.043.12.057-.04.057.037.114.16.028-.12.086.037.071-.047.085.162.129-.075.1-.077.014.04.028-.043.057.08.043-.282.085.078.143-.233.014.04.028.08.071-.045.114-.157.015.04.014.122.071-.204.014.04.086-.157.028.12.128.319.015-.12.142.357.043-.115.042-.12.029.16h.014l.171.197.014-.08.1.045.014.04.029-.12.042.005.214-.482.028.083.057.277.057-.202.072-.195.07.115.343.08.085.24.043-.123.028-.08.043.12.128.32.014-.04.086-.195.057.122h.014l.185 2.475.37 5.132.257 2.598.028-.08.086-.277.47-11.318.185-3.198.1-1.247.028.322.1 1.117.028-.32.014.317.029-1.147.028.234.014-.392.043.556.029-.194.1 1.51.028-.4.014.04.142-1.917.1 1.311.043-.037.142-1.433.071 1.147.043-.477.029.157.142-1.187.142 1.641.015.078.028-.354.1-1.194.057.598.1.521.014-.157.028-.08.029-.242.07-1.066.058.313.07.594.044-.2.057-.719.057.114.028-.44.17 1.306.086-.606.015.198.128 1.585.014-.476.085-.796.029.315.057.718-.029-.753.072.439.057-.557.028.915.029-.514.028.234.071-.397.057.478.029-.747.028.394.057.282.057-.514.043-.04.1 1.111.085-.517-.029.554.043-.397.086.717.042-.043.086-.672.057.157.028.038.029.912.07-.795.044.197.042-.275.071.437-.028-.556.071.241.114-.357-.028.517.042-.477.015.553.057-.833.028.4.014-.038.015.2.014.355.014-.635.071.316.043.045.014-.122.014-.197.029.753.043-.508.014.237.043-.352.057.2.028.635.028-.71.057.113.015-.16.042.64.015-.158.07.279-.013-.517.028.355.1-1.186-.057 1.27.085-.714.171-.597.029.075.014-.315.085.313.015-.003.028-.793.085.515h.015l.07-1.033.058.119.028.553.029-1.232.028.75.015-.315.028.437.057-.117.014.077.014-.12.015-.393.042.514.029-.4.014.714.071-1.113.015.042.1.354-.043-.633.056.354.043.519.029-.636.028.158.014-.67.1.51.014-.357.057 1.192.014.197.057-.467.029.393.014-.674.086.479.1.796-.072-1.272.114.992.128-1.305.128 1.23h.015l.057.2.028-.47.028.434.086-.8.043.554h.014l.1.476-.043-.633.071.316.043-.439.014.243.043-.12.085 1.192.014.038.015-.514.085.642.029-.28.014.043.014.434.029-1.308.028.151.014-.117.029.165.085.876.014-.555.129-.791.128.552.1-.566-.072.605.1-.408.028.035.1-.753.029 1.068.1-.079.07.313-.014-.792.043.313.1.554.014-.474.014-.357.085.633.015-.362.057.44-.015-.637.029.477.085-.715.015.594.07.2-.013-.358.028.155.014-.157.029.793.057-.51.028-.4.043.636.057.876-.029-.913.086.195.014-.077.014.24.015.002.142.916.014-.24.057.64.029-.512.014.554.1-.362h.014l.071.236-.014-.673.028.197.143-.92.014-.037.014.673.086-.713.014-.038.014.16.014.673.086-.79h.014l.071-.202.014.473.029-.668.028.755.043-.354.014.317.043-.878.043.434.014-.237.028.952.015-.04.1.647.042-.835.071.357.029.197.028-.435.029.197.128-.67.014.039.014.04.015.593.042-.632.043.391.014-.553.072.922.014-.2.156-1.667.015.832.1.479.014-.12.1-.473-.03.633.043-.276.086.64.028-.04.043.32.057-.591.057.71.028-.986.029.631.043-.55.042.71.029-.514.028.915.086-.637.028-.002.086-.478-.015.514.029-.272.014.511.057-.554.043.232.014.24.029-.516.042.238.029-.594.028.671.057-.237.014.55.1-.082.114-.748.014.63.057-.357.015.436.113.52.029-1.032.085.594.086.667.028-.117.015-.317.07.715.015-.2.071-.633.029.514.014.12.028-.634.015-.038.014.673.1-.476.113-.761.015.518.085.316.014-.396.114-.948.043.353.1.558-.057-.676.07.359.072-.322.014.36.157.641-.128-.722.142.68.043-.392.028.796.029-.197h.014l.043-.357.028.552.029-.195.043.317.028-.553.014.317.1-.677.014.32h.029l.014.199.057-.479.028.235.057-.078.015.474.085-.517h.014l.086.916.042-.357.015-.162.057.478.028-.2.214 1.315h.014l.014.319.057-.71.029.32.057-.281.028.197.014.361.071-.479.015.078.085.514-.057-.556.128.205.043.274.142-.801.114.636.129.644.014-.04.028.192.228 1.319.043.047.014-.12.185 1.484.1.24.028-.122.015-.083.057.24h.014l.043.084.028-.16h.014l.043.04.085-.082.314-.004.128.242.114.077.07-.04.058.198.1.042.1.078.013-.043.1-.117.029.08.028-.08h.057l.214-.353.014.158.043-.28.042.042.086-.082.327-1.315.029.12.043-.167h.014l.384-1.073.029.24.213.64.029-.197.085.085.143.394.014-.12.028-.077.015.12.028-.003.128.517.029-.122.128.157.014-.08.029.045.128.395.014-.04.028.08.3.563.056-.08.015.12.028-.002.086.08.042.24.086-.04.057-.162.071.12.028-.003.114-.207.015.002.085-.08.114-.195.157-2.117.014.038.014-.24.27-3.16.072-.04.156-2.246.015-.002.014-.238.028.677.015-.04.057.441.028-.636.029.591.014-.674.085 1.03.128 1-.1-1.354.115 1.314.128-.944.142 1.639.014.16.057-.6.072-.791.057.084.085.684.014-.28.043.083.1-1.388.014.55.085-.673.029.434.085-.323.071-.955.057.401.043-.045.114.992.128-.992.157 1.987.071-1.032.057.197.128.808-.071-.918.085.479h.029l.028.277.029-.474.043.28.014-.359.028.674.043-.236.071.439-.028-.594.042.432.1-.673.014.12.043.035.043-.43.085.63.029-.12h.014l.057-.483-.014.636.07-.197.044.157.014-.4.071-.479.014.002.015.587.056-.636.029.275.085-.68-.042.953.07-.718.1-.472.015.59.085-.992.014-.037.086 1.03.043-.514.014-.002.014-.357.057.836.029-.234.085.716.028-.117.072-.312-.029.634h.043l.142.886.029-.477.014.753.057-.437.071.32.014-.357.043.441.114-1.076.014.354.043-.59h.043l.014-.04.085.91.029-.634.028.355.043-.477.029.193.042-.28.015.477.028-.16.029.752.07-.676.03-.12.028.549.057.559-.029-.916.086.4.114-.368.042.439.071-.285.043-.04.071-1.198.057.157.128-.677.015.202.014.158.028-.874.129.552.057.399-.029-.441.057.201.014-.357.086.12.114.959.014-.12.071-.234-.043.599.072-.28.014.003.014-.198.057.52.014-.238.086.514-.043-.874.071.642.071.436-.028-.516.085.36h.015l.057.362.028-.754.128.635.014-.12.015-.04.028.242.014-.12.015.358.014-.593.085.312.1 1-.071-1.12.156.76.015-.434.085.557.029-.12.128.88.042-.476.057.432.072-.313.028.63.128-1.027.114.321.128-1.117.015.237.028-.36.242-1.683-.185 1.756.2-1.397.028.393.014-.752.071.71.114-.594.014.08.1.913.057-.157.043-.155.043.282.014-.04.07.72.015-.396.014-.551.086.446.014.397.043-.635.057.356.057-.434.028.872.014-.277.043.196.114-.801.014.555.029-.75.057.28.014-.038.014.314.057-.596.014.354.029-.799.028 1.07.043-.276.029.114.085-.55.014.122.015.474.014-.674.071.275.014.002.014.397.029-.516.057.04.071.078-.028-.197.042.155.029.83.085-.598.143.996.042-.157.043-.205.043.516h.014l.014-.236.029.715.057-.637.07.639-.028-.756.057.123.015.002.014.395.071-.511.014-.553.1.248.014.038.014-.118.029.08.1-.472.014.277.014.075.029-.388.028.357.142-.679.043.472.043-.597.028.471.029-.472.071.513.057.753.057-.404.028-.396.086-.717-.043.871.057-.161.057-.12.071.632.086-1.187.028.637.071.433-.028-.712.071.68.029-.474.085.358.029.275.028-.749.043.314.128.803-.1-.955.143.835.085-.67.014.042.128 1.389.1-.905-.028 1.11.042-.836.043.32.014-.435.057.197.015-.117.028.553.014-.118.029.083.014-.516.057.796.043-.515.1.353-.058-.672.072.515.042.315.086-.593.028-.357.014-.195.057.669.015-.511.028.989.086-.395h.014l.17-.757.015.04.085.758.029-.515.028-.516.057.55.029-.276.042.511.057-.441.057-.12.057.515.043-.399.014-.04.128.6.015.04.014.595.057-.954.028.197.015-.043.1.596-.058-.636.072.36.028.002.014-.238.057.397.029-.035.014.357.014-.394.071-.002h.015l.085.595-.057-.754.086.237.17 1.058.043-.473.043-.28.028.395.029-.117.014.237.057-.799.014.157.043.276.057-.48.014.514.086-.752.014-.082.014.434.057-.394.029.476.057-.556.014.08.028-.002.086.483.014-.437.043-.155.042.077.1.758.029-.117.014-.2.057.362.028-.16.128.797.015.075.042-.318.015.197.1-.16.013.08.129.957.07-.193.03-.005.498 3.332.299.834.042-.16.143-.08.043.12.07-.08.186-.237.071-.08.1-.075.028.08.029-.16.014-.118.028.198.072-.116.1-.08.042-.117.029.197.028-.077.1.195.014-.04.1-.16.014.04.128.156.014-.08.043.16.057-.12.114.113h.014l.043.24.071-.038.27-1.311.2-.754.17-.958.086-.245.029.24.1.279.014-.08.028-.12.029.24.042-.16.157.31.014.003.185.632.3 1.23.014-.04.028.04.157.564.028-.16.057.242.014-.04h.029l.1.287.028-.122.043.08.142-.318.029.04.028-.077.043.04.043-.2.07.12.143-.082.157-.284.028.044.128.358.143-.795.1.113.042-.553.014-.003.057.198.029-.394.014-.08.029.158.042.002.015.08.028-.394.185-.8-.128.917.142-.877.029.513.085-.354.029.516.057-.59.014.08.029-.037.028.394.085-.315.029.552.043-.672.042.156.015-.04.028.473.071-.436.015-.12.028.63h.014l.086-.391.014.24.014.236.071-.596h.015l.042.474.072-.199.113-.356-.07.633.099-.553.028.356.057-.394.015.038.014-.12.028.436.043-.194.214.75-.157-.832.214.556.028-.16.014.28.015.235.057-.47.028.077h.014l.029.394.042-.474.029.118.1-.152-.057.506.07-.389.058.235.057-.434.014.157.028-.67.029.078.028-.32.072-.441.057.08.014.08.128-1.282.028-.082.043.08.057-.44.157-1.4.014.157.071-.359.014-.04.015.198.028-.12.014.24.029-.557h.043l.014.077.028-.314.043.434.071-.716.029.477.042-.514.043.272.043-.318.014.397.1.52.014-.198.057.08.071.475-.014-.63.043.233.042-.158.015.477.014.077.014-.436.014-.237.015.357.085-.243.029.75.085-.077.014-.672.1.168.128.589.014-.274.029.2.1-.76.1.593.013-.393.015-.117.042.556.015.16.028-.51.071.474.043.007.014.71.1-.355.028-.357.086.157.014-.04.114.993.014-.274.214 1.911.114-.04.028-.393.043.354.071.477.057-.034.071-.122.071.47.015-.038.142.79.086-.673.028.44.014.116.043-.432.028.196.1-.32-.057.634.1-.596.028.514.072-.356.085-.148-.043.509.057-.47.071.355.029-.431.028-.16.043.075.029.394.07-.356.015-.08.029.434.056-.357.043.077.029.515.085-.235.029.633.085-.516.043.354.085-.557.029.592.085-.353.1-.235-.057.552.071-.434.043.357.042-.43.057-.121.015.2.014.236.057-.828.014.238.171.557-.142-.597.156.437.086-.347.014.16.014.197.057-.594h.029l.128-1.226.028.391.043-.673.057-.164.028.436.428-2.794.057 1.232.057-.281.042-.716.071.399.243-1.523.014.12.057 1.23.085-.364.057.395.014.237.057-.434.043-.724.057.828.1-.36-.072.443.086-.362.057 1.03.1-.399.014-.12.028.514.014.437.072-1.03h.014l.028-.358.043.714.014-.077.015.24.042-.515.015.12.028-.4.029.674h.014l.042.404.057-.676.114.403-.085-.643.1.526.057-.836.042.913.114-.507-.085.592.1-.275.056.674.086-.155h.014l.142.879.015-.16.028.599.114.44.014-.12.029.437.185 1.473.028-.474.072.632.057.237.028-.316.029-.16.028.472.057.402.043-.437.028-.28.043.59.014.08.057-.197.057-.395.029.39.028.28.057-.392.043-.436.042.788.015.123.057-.233.057-.677.042.672.015.002.1-1.066.042.747.014.082.057-.153.057-.636.057.472.029.044.014-.122.057-.592.042.71.015.042.042-.153.057-.634.043.674.029.125.042-.118.057-.476.029.511.057.288.042-.434.029-.357.057.756.071-.068.043-.552.057.791.1-.866.042.63.029.006.085-1.314.057.242.114-1.35.028.354.029.162.014-.713.114-.718.029.235.014.16.028-.751.2-1.4.085.836.029-.24.028-.204.043.511.014-.04.014.043.029-.197h.014l.028-.636.072.788.1-.48.028.195.043.72.07-.48.03-.204.028.471.028.482.071-.631.114.718.043-.198.014-.635.057 1.068.029-.112.085-.674.043.516.014.197.071-.55.043-.432.043.752.057.126.014-.08.057-.713.057.511.057.007.028-.792.071.912.086-.357.014-.317.071.632.057.077-.028-.154.057-.005.014-.12.043.47.07.16.015-.278.043-.12.014.397.143.627.028.314.157 1.152.07-.312-.042.355.057-.038.242 1.402.057-.311h.029l.014.24.085-.275.043-.237.028.511.029.165.057-.355.043-.631.057.79.07-.351.044-.676.042.712.029-.158.028.085.014-.16.043-.596.043.71.014-.079.043.085.014.04.014-.237.029-.357.057.67.085-.472.029-.16.028.432.057.242.029-.242.042-.514.043.629.029.162.042-.238.057-.476.029.432.042.282.057-.197.029-.596.057.87.014-.077.071-.47.029-.24.042.627.015-.077.07-.315.03-.4.042.827.014.12.072-.275.042-.322.043.547.028.045.029-.043.057-.678.043.706.028.042.014-.2.2-2.165.042-.201.057.427.242-2.56.186-1.437.057.512.028-.633.028.237.029.16.128-.754.029.237.028-.434.057 1 .057-.552.085-.48.015.237.085.643.014-.319.114-1.074.014.003.114 1.317.029-.352.128.592.057-.434.028.67.029-.352.057.911.071-.119.029-.314.028.117.114 1.597.028-.391h.015l.114.631.07-.748.044.085.014-.04.028.197.086.399-.043-.519.057.082.114-.592-.043.908.071-.793.015.237.028-.394.057.075.057-.357.014.471.014.117.015-.394.014.005.043-.598.057.154.014.474.071-1.03.014.474.072-.122.028.319.043-1.035.085.078.029.715.085-.08.014-.04.114-.868.014.043.015.234.014-.556.085.511.057-.551.029.51.085.44.015-.12.028-.402.057 1.035.028.08.029-.554.085.314.015-.002.1.72-.058-.957.072.876.056-.68.043.672.029.2.014-.436.043.074.014-.715.1.4.1.155-.058-.592.071.474.015.04.014-.237.014.12.029-.633.042.706.029-.195.028.157.029-.471.014.04.029.237.113.599-.014-.637.043.6.057.159.014-.52.014-.234.043.71.029.4.028-.513.029.157.014-.556.071.714.028-.277.015.04.028-.517.029.87.042-.157.1.509-.028-.551.07.473.143-.666-.114.789.171-.39.029.202.028-.394.014.04.015-.397.1.158.042-.155.014.32.029-.238.028.434.057-.471.014.04.057-.794.072.202.028-.524.014-.474.057.546.043-.197.043.399.057-.56.014.317.1-1.427.028.592.014.08.029-.434.042-.087.043-.354.014.436.114.713-.057-.791.072.514.014-.04.028.157.029-.12.071.722.071-.199.029-.431.014.71.17 1.275-.113-1.746.142 1.704.086-.2-.015.515.029-.433.014.117.043-.474.014-.118.029.628.014.002.028-.511.086.32.028.236.043-.513.028.312.114-.317-.085.514.1-.431.014.552.085-.312.057-.591.071.16.1.912.029-.12.028-.117.014.316.029-.042.014.08.014-.473.029.274.042-.759.072.4.042.476.015.08.028-.667.086.391.028.237.043-.512.028.232.114-1.063.014.12.029.157.014-.399.014.003.015.002.085-.636.029.513h.014l.028-.71.057.787.014-.04.043.153.029-.554.042.67.043-.195.043-.518.057.624.014-.08.014.162.1.594-.043-.949.057.826.086-.596.028.157.057.44.029-.16.056.084.072-.829.028-.434.043.714.028-.078.114.56-.057-.876.072.678.07-.434-.042.479.071-.005.356 1.89-.313-1.975.327 1.499.015-.234.057.59.028-.193.029-.003.1-.356.014.28.014.037.014-.16.014-.474.057.597.029-.155.1.362-.043-.751.057.71.07-.548.043.355.015.4.07-.63.015-.28.029.671.07-.48.03-.042.014-.712.1.277.028-.44.028.594.043-.08.014-.002.157-.955.028-.04.015-.08.014.55.014.118.028-.592.043.11.029-.354.128.994.028-.511.029.986h.014l.014.082.015-.71.1.437.056-.28.057.714.071-.8.043.358.043.115.1-.944.028.272.014.005.014.36.086-.512.085-.274.057.99.171-1.308.057.992.071-.237.071.326.029-.748.028.866.1-.199.1-.55-.043.592.057-.196.014.154.057-.554.014.003.015.117.042-.556.072-.077.07.556.1-.513-.028.553.043-.359.114.908-.072-1.187.114.87.129-1.111.014.31.185.925.028-1.026.086.513.014.357.029-.596.07.476.015-.038.1-1.591.014.477.014.197.057-.676.029.317h.014l.014.79.086-.875.085-.397-.043.793.057-.676.057 1.144.071-.55.057.352.015-.08.014-.434.071.35.028 1.112.1-.114.143.95.014-.514.085.243.029.633.028-.79.043.03.014.003.029.832.085-.513.085-.357-.042.952.085-.912.029.752.085-.346.1-.394-.057.912.085-.832.157 1.236.028-1.03.086.634.071-.237.014.317.029-.157.014.752.071-.952h.014l.015-.04.028.434.086-.204.014-.038.014.673.086-.6h.014l.028.433.057-.63.014.154.029-.16.014.753.057-.477.043-.042.014.2.014.156.043-.708.014-.002.071.71.057-.474.057.394.015-.24.042-.476.057.676.015.12.028-.59.057.036.157.798.057-.509.042.12.143.95.057-.512.042.078.029.556.071-.676.014-.12.015.277.057.64.056-.355.186 1.156.014-.037.043-.083.014.043.142.673.043.007.014-.12.057.44.057.242.057-.082.071-.12.114.557.014-.12.072-.2.042.08.114.397-.071-.437.114.36.142-.16.129.237.042.08.071-.16.043-.04.128.437.043-.08.029.202.042-.042.114.195.014-.04.043.204.143.195.327.714.029-.042.028-.038.014.08.043-.002.2.364.014-.04.085-.158.028.083.029-.04.114-.198.014.002.185-.086.185-.282.1.12.014-.043.114-.002.029.278.085-.12.086-.08.042.042.128.158.086.082.043.122.07-.077.1.042.029.08.057-.2.17.16h.015l.128-.273.185-.042.029-.16.085.044h.029l.114-.2.014.043.1-.078.028-.08.043.158.028-.078.128.113.057-.197.057.12.029.122.085-.086.043.08.128.16.014-.083.057.12h.015l.128.12.1-.156.028.12.085-.08.086-.038.028.04.043.08.043-.16.042.04.086-.077h.057l.042-.24.072.04.156.275.072-.356-.043.436.057-.396.128-1.685.014.002.214-2.49.057.08.156-2.118.072-.399.07-.956.043.595h.015l.1.44.014-.397.042.438.015-.59.1.912.014-.394.028.2.028-.639.015-.115.014.676.028-.596.015.517.085-.163.128-1.157.057.836.057-.561.043.117.085-.837.086.955.028-.793.157 1.547.071-.55-.028.633.085-.434.157 1.514.014-.59.085.914.143-1.035.028.516h.015l.07-.393-.014.435.043-.118.014.04.015-.043.07-1.113.058.479.028.356.029-.472.043.277.07-1.028.058.519.014.2.043-.637.028.235.086-1.303.057.474.1.754.013-.67.086.083-.057-.242.071.202.071-.12.015.32.056-.555-.014.712.057-.155.014.354.072-.759.014-.04.014.12.043-.195.1 1.346.042.084.1-1.073.014.04.143 1.306.1-1.591.028.35.028-.242.029.716.028-.155.029.357.014-.596.014.12.071-.676-.028.754.085-.638.086.674.042-.479.015-.077.014.557.071-.879.014.002.029.317.014-.122.014-.516.029.715.057-.516.071.842.043-.472.028.155.014-.635.015-.038.085 1.432.043-.197.014.237.014-.556.057.32.029-.554.07.276.072.876.043-.478.014-.038.128 1.152.043-.67.114.04.085.353.015-.04.1-.83-.058.95.086-.519.085-.312.029.237.014.08.014-.24.043.12.071-.72.043.276.128-.762-.057 1.036.071-1.034.071.59.043-.275.043.434.014-.593.029.277.028-.876.071 1.067.029-.042.07-.276-.042.358.057-.196.043-.476.071 1.071.1-.835.028.636.014-.042.015-.514.07.796h.015l.071.198.015-.399.014-.197.028.71.029-.036.057.324.042-.399.072-.2.028.472.014-.673.057 1.035.029-.122.028-.359.071-.28.015.396.014.118.028-.674.057.556.029-.002.142-.992.014.553.086-.08.071-.674.043.514.014-.274.014.553.072-.317.156 1.007-.128-1.397.17 1.24.058-.791.057.356.057-.08.071.637.057-.632.057.556.014.158.029-.44.128-.79.042.473.072-.195.1-1.231.014.556.156-1.305.057.118h.014l.029.434.057-.155.014-.593.043.875.043-.317.085.355.014-.36.057-.401.029.16.085 1.106.029-.157.057-.719-.029.916.071-.602.114.836.086-1.429.042.596.057.511.057-.237.086-.71.028.517.029-.082.028.319.014.317.072-.593.014.319.014-.162.029.676.028-.155.085.393-.028-.472.057.112.085 1.035.029-.04.1.405.028-.796.071.793.029.518.028-.59.029.396.1-1.628.028.274.043.442.07.36.015-.515.071-.281.014-.477.086.514.071-.68.057.515h.014l.057-.958.057.392.128 1.146.043-.516.029-.519.07.352.115 1.353.028-.355.071-.676.057.277.015-.117.028.512.014-.28.029.993.085-.357.086-.592.028.316.014-.198.029.831.028-.112.015.237.056-.601.029.314h.014l.086-.555.028.235.114.635.014-.04.029-.434.071.554.057-.59.057.28.014.155.043-.354.043.237.085-.392-.057.591.071-.549.014.398.072-.557.014.04.014-.04.029.233.014-.08.014.32.071-.597.015.357.028-.394.029.516.056-.314.029-.08.057.678.057-.481.014-.075.029.397.014-.08.028-.038.043-.836.085.476.072.6-.029-.714.071.198.086-.83.043.203.014.12.014-.2.128-1.073.029-.082.014.075.057.244.057-.082.028-.2.043.481.029-.234.014.117.042-.52.029.32.043-.274.042.557.043.756.114-.081.043-.198.085 1.034.043-.673.071.554.029-.035.014-.28.071.513.014.24.015-.557.085.475.014.077.014-.277.086-1.035.043.358.014.003.057-.36.028.516.015.083.014-.354.042-.594.057.748.186-.868.057.788.07-.473.015-.238.043.83.085-.231.029.476.057-.59.057.317.028.516.1-.005.057-.431.028.517.029-.235.128.718.014-.002.157 1.117.014-.198.057.552.156 1.628.029-.033.057.636.142.83.072.082.056.24.1-.125.014-.037.015.082.1.202.014-.04.1-.32.099.082h.014l.143-.277.142-.004.128.273.157.126.042.158.086-.042.028.08.1.202-.028-.243.057.205.1.042.013.08.072-.16.014.12.213-.277.015.077.042-.2.029.045.114-.08.043.04.057-.597.199-.758.185-.521.014.12.043-.196.057.12.043-.082.07-.237.044.198.142.798.043-.04.014-.038.043.12h.028l.157.402.014-.08.071-.047.057-.158.043.12.043.28.085-.125.1-.2.014.04.157.317.17.118.1.155.057-.042.029-.08.042.122.043-.04.029.08.17.23.015-.04.213.083.157.286.043.08.014.04.014-.12.014.04.214-2.033.014-.042.143-2.029.042-.284.214-2.918.014.038.071-1.232.057.79.057-.161.043.44.071-.717.014.756.057.756.072-.242.014.04.014-.2.057-.114-.014.553.028-.27.086 1.077.028-.676.128.673.015-.08.142-1.143.057.2.014.513.086-.195.07-.633.03.594.028-.277.014.675.085-.282.015-.713.085.752.029-.237.014.558.085-.08.015-.755.085 1.233.014.04.014-.315.057.397.029-.12.014.118.014-.755.015-.077.085.95.043-.12.1-.758-.03.793.044-.08.014.12.014-.397.057.241.029.042.1-.753.013.752.072-1.162.07-.317.03.16.07.593.015-.756.128-.87-.1.91.128-.673.029-.117.043.596.057-.52.128-1.153.042.356.086 1.2.043-.272.014.317.028-.837.043.195.029-.157.113 1.36.015-.24.014.396.057-.953.014.197.014-.24.043.64.029-.277.213 1.466.057-.522.014-.12.043.522.071.36.029-.16.1-.889-.072 1.043.1-.886.028.836.086-.317.057-.16-.014.514.07-.4h.015l.029.554.07-.756.03-.238.028.597.042-.396.029-.162.043.395.1-.794.014.482.014.354.085-.511.029.354.014-.279.128-.913.043.202.028-.356.015-.078.014.4.014.157.028-.671.015.436.057-.837.057.319.07.484.044-.4.07-.716.043.476.015-.277.07.353.03.396.042-.868.014.115.015-.237.042.678.029-.392.085.47.014-.678.015-.633.085 1.03.143-1.185.014.792.014.155.014-.397.057.204.128-.702.029 1.383.085-.472.072-.202.028.557.014-.55.071 1.438.057-.795.072.355.014.075.014-.67.071 1.16.015-.042.014.037.142-1.27.057.594.057-.401.029.394.028-.75.029.473.028-.673.085.19.114.517-.085-.793.1.633.014-.273.028.71.057-.36.214 1.121-.185-1.515.2 1.395.013.08.015-.673.085.878.17.8-.142-.957.157.6.014-.037.015.2.085.632.029-.313.056-.716.057.2.1.431.043-.913.071.75h.057l.085-.916.072.312h.014l.028.432.015-.59.057.077.014-.317.028.552.057-.233.071.753.043-.593.071.67-.028-.79.1.393.042-.113.015.234.028-.755.071.12.014.71.086-.638.014.003.029.472.1-.755.028.71.071-.439.128-.838-.085 1.072.1-1.07.028.596.028-.636.043.075.1-.56-.057.876.071-.478.085-.827-.028.952.1-.872.014.713.1-.472.056-.63-.028.83.1-.792.085.79.029-.12.014-.037.014.516.029-.597.057.12.014.003.085.833.029-.16.014-.316.057 1.11.028.124.029-.16.071.839.043-.44.014-.32.028 1.149.043-.275.114.637-.085-.674.128.398.014-.202.029.637.042-.073.043-.639.1.133.1.436.014-.277.085-.595.014.752.029-.707.085.475.014.274.029-.553.057.082.014.042.014.596.029-.673.057.08.057.873.114-.133.1-.638.014.357.014.356.071-.599.028.354.015.279.07-.514.015.037.114-.594-.071.995.1-.76.014.396.085-.272.043.316.085-.787.029.636.085-.317.072-.311-.029.787.085-.71.029.516.085-.2.015-.079.014.12.014.635.071-.792.015.04.028.235.043-.474h.014l.057.275.014.672.086-.793.128-.478-.057.719.071-.641.029.667.085-.552.057.394.028-.277.043-.555.057.914.185-1.04.014.273.015.394.085-.44.014.08.015-.042.1-.75.014.12.056.198-.028-.392.071.116.029-.04.028-.357.029.555.057-.439.014.078.014-.517.029.437.014-.436.071.48.014-.036.27 1.75-.213-1.952.285 1.678.014-.12.029.676.028-.2.014-.397.072.834.014.36.057-.714.028.317.029.558.085-.479.029.04.014.599.057-1.113.028.04.029.354.043-.47.014.002.057-.238.014.593.085-.988.015-.04.014.203h.014l.014.04.043-.118.014.038.029-.158.014.556.086-.518h.014l.043.477.07-.278.015-.08.043.637.07-.44.015.003.171 1.26.014-.118.057.2.157.87.014-.037.014-.038.029.24.057.474.285 1.566.042.044.228.714.27.038.072.277.071-.045.1-.077.014.04.085.08.029-.08.085-.036.029.04.014.04.014-.197.057.082.2-.473.042.123h.015l.014-.12.085.08.029.08.028-.2.029.04.299.08.07.113.044-.08h.014l.071.357.043-.195.213-.923.015.042.042-.202.1-.037.313-1.156.157.676.142-.154.143.033.185.634.014-.04.043.162h.014l.541 1.348.043-.035.313-.036.071-.16.043.078.157-.08.228-.362.085.118.043-.04.071-.56.057.314.014.038.014-.157.029-.437.085.315.057-.633.071.44.015.04.014-.118.057-.204.057.118.014.04.014-.157.029-.317.071.315.043-.277.071.472.057-.275.014-.277.043.511.043-.16.028.08.014-.317.015-.12.042.55h.015l.07-.672.058.272.057.124.014-.194.014-.237.057.434.029-.115.014.038.014-.2.029-.392.056.63.015-.118.028.082.029-.753.085.638.029.12.014-.32.014-.239.057.552.029-.195.014.08.028-.436.043.314.028.322.057-.4.015-.276.057.55.028-.076.014.12.029-.435.014-.157.043.63.014.04.028-.154.015.12.028-.516.057.674.057.087-.028-.16.042.003.015-.315.057.679.028-.195.114.518-.071-.673.085.476.057-.511.029.434.028.277.057-.035.157-2.038.228-2.444.085-.768.014.12.1-1.945.043.033.014-.038.071-.96.043.792.057.156.014-.08.014-.236.057.836.014-.197.015-.117.042.554.086.477.043-.272.014-.08.014.36.1.91-.072-.955.114.676h.015l.114.637.1-.829.028.2.014.157.057-.556.028.472.029-.634.014.24.1-.838.014.513.014.037.015-.08.113-.593.114.752.057-.508.043.39.142.955.043-.23.014-.08.015.314.085.647.029-.357.057.082.014-.117.071.197.057-.672.028.475.057-.59.029.272.128-.591.128.916.228 1.668.028-.352.015.002.213 2.06.043-.55.043.792h.014l.071-.632.043.472.014.12.057-.08.014-.317.072.516.014-.115.114.272-.057-.47.071.43.071-.477.029.395.028.237.071-.399.015-.12.028.432.029.358.07-.397.03.312.028.195.057-.115.028-.471.043.586.028-.115.029.158.014-.24.029-.352.042.475.029-.078.028.002.029-.474.085.275.057-.27.057.596.085-.712.057.197.072-.558.042.552.015.082.057-.237.028-.432.057.505.014-.118.029.043.028-.594.086.358.057-.399.057.51.213-1.666.014.08.029.235.043-.198.185-2.473.057.632.042-.748.015.077.014-.077.142-1.273.1.635.028-.237.015-.117.028.474.029.117.014-.473.014.042.029-.242.057.559.014-.043.014.282.1.873-.057-1.105.085.517.1-.644.028.437.015.042.07.194.058-.869.014.436.057-.479.043.435.014-.477.057.513.043-.436.1-.482-.072.678.157-.636.085.586-.043-.629.072.551.014-.354.057.632.028-.312.128.67.015-.158.014-.317.057.677.028-.394.129 1.04.085-.239.028-.514.072.678.014-.234h.014l.043.472.057-.515.014.355.057-.63.028.792.029-.232.214 1.303.014-.2.043-.077.014.277.128.875.014-.12.043.32.043-.192.142 1.19.014-.077.029.277.028-.314.029-.155.014.237.028-.08.029.594.085-.394.029.517.057-.554.071.472.057-.154.014.197h.029l.028.392.071-.436.015-.118.028.476.043-.232.057.04.014.314.071-.556h.014l.1-.23-.057.469.086-.432.014-.04.014.28.014.116.057-.431.057.438.043-.511.057-.162.014.239.014.274.043-.392.043.113.028.312.029-.356.042-.32.043.2.014.394.043-.434.043.075.014-.042.014.277.015.117.057-.434.057.474.042-.512.014-.04.015.115.028-.082.029.317.07-.153.086-.315-.042.59.07-.472.058.399.07-.12.13-1.155.013-.04.143-1.436.014.237.043-.717.17-1.32.015.197.071-.722.014.038.1-1.146.014.516.029.042.014-.476.085.202.057.677.086-.081.085-.35-.043.635.057-.517.086.601.043-.04.014-.55.043.717.042-.63.128.942.114-.788-.07.871.085-.437.014-.042.014.037.014-.476.029.482.057-.277.028.392.043-.397.057.362.014-.595.071.672.015-.431.028.712.057-.715.028.194.015.04.028-.476.086.241.042.591.015-.673.057.597.1-.466-.043.628.056-.312.029-.082.028-.195.015.125.1.671.028-.16.1-.6.028.355.014.036.057.636.043-.759.014.202.014-.002.2 1.666.014-.078.014.32.014-.04.214 1.509.014-.163.029.04.028.757.071-.113.057.634.015.042.028.674.086-.518h.014l.028.396.086-.319.028.512.057-.554.014.038.057.12.086-.632.028.517.057-.791.071.514.072-.234.1-.27-.058.546.072-.467.057.474.07-.392.015-.08.028.437h.015l.028-.352.071.355.015.317.042-.432.043.078.157.556.014-.157.043-.435.057.357.014.077.043-.272.042-.162.015.08.014.277.043-.437.042.036.1-.6-.057.797.1-.717.028.392.071-.276.015-.08.014.2.014.314.057-.637.028.118.015-.04.028.431.043-.514.028.196.129-1.28.014-.002.014.202.057-.556.299-2.428.014.277.071-.514.114-1.268.072.08.014.758.071-.913.028.593.057.242-.028-.436.057.356.043-.713.042.793.015-.197.028.519.043-.551.043.317h.014l.042.48.057-.513.129.91.028-.631.014-.04.015.274.014-.122.085.598.029-.434.057.32.014-.476.043.316.085-.357.014.12.015-.434.014.556.071-.24.057.592.071-.039.1-.31.014.274.043.477.057-.602.014.083.014-.637.1.471.014.434.043-.636.057.35.014.12.014-.517.057.275.1-.719.014.47.029-.04.042-.436.043.713.014-.394.214 1.915.071-.082.2 1.84.028-.274.057.513.043-.033.114.677.057-.394.042.202.029.351.028-.394.043.035.014-.237.029.596.07-.473h.03l.028.512.071-.357.014-.158.029.754.057-.55.07.468.072-.077.014-.04.015.2.028.318.043-.394.028.076.015-.078.014.24.128.553.014.04.014-.195.1.04.057-.432.071.514.043-.43.085.355.029-.354.057-.204.014.196.014.317.057-.392.029.038.028.354.057-.434.029-.082.014-.08.014.24.014.234.043-.512.029.118.1-.243-.043.515.056-.477.057.632.057-.59.072.273.028-.314.071-.359-.028.516.071-.481.142-1.39.029.035.085-.599.157-1.636.157-1.599.028.357.029-.872.028.114.014.117.043-.513.043.43.014-.475.085.235.057-.516.043.75.014-.593.086.555.014.514.043-.754.042.32.029-.28.028.357.043-.198.157.917.028-.038.029-.39.07.516.044-.32.028.085.086.673-.043-.753.071.441h.014l.057-.876.071.437.043.482.029-.674.042.235.029-.793.085.558.015.082.014-.317.057.193.085-.43-.043.594.072-.271.028.23.014-.357.015-.077.014.356.014.118.014-.08.015-.673.085 1.16h.028l.1-.482.114 1.108.086-.877.042.122.043-.277.071.589.043-.278.014-.274.043.435.028-.278.029.63.085-.403.043.05.085-.556.015.002.085-.115-.057.431.071-.275.072.28.014-.323.014-.08.043.272.014.2.057-.547.028.512.015-.163.028.516.043-.468.071.51.043-.352.213 1.458.015-.394.085.594.014.28.015-.553.07.525.143-.752.029.394.042-.555.029.12.014-.04.028.676.072-.631.042.4.015-.2.028-.597.1.115.085-.357.128.826.143.714-.086-.829.1.555h.014l.015-.197.014.2.042-.007.015.556.042-.75.043.355.014-.16.043.522.043-.397.071.755.071-.155.014.002.029.16.342-2.667.042.514.057-.515.015-.12.042.552.029-.277.014-.002.014.117.029-.593.014-.12.029.668.042-.355.014-.045.029.275.114.764.028-.399.015.037.1.992.042-.04.014-.003.014.118.015-.637.014.043.057-.28-.014.474.042-.235.015.118.042-.552.029.397.185-1.265.014.237.014.038.015-.242.07-.4-.042.596.071-.237.015.203.028-.553.043.195.085-.438.014.002.114.709.015-.71.042.711.043-.192.142 1.306.015-.24.014.08.085-.877.029.52.1.553-.043-.669.071.549.2-.664.014.593.1-.282.085-.75.028.359.057.323-.028-.402.07.17.015-.2.014.511.072-.242.057-.157.014.239.1.078.014-.596.028.677.057-.83.014.393.057.155.057-.517.029.511.043-.947.028.195.043.315.057-.638.014.397.043-.467.057.278.028-.636.057.83.043-.591.042.12.1.713-.057-.988.071.554.015.003.014-.157.043.322.114.916-.072-.994.086.875.085-.195-.057.355.071-.235.143.753.014-.117.071.194.057-.512.043.27-.014-.394.07.077h.015l.114.789.071-.519.057.122.057.668.057-.593.128.791.057-.391.043.552.014-.235.014-.115.015.277.014-.08.014.593.1-.396.014.003.114-.515.014.04.014-.002.015.12.028-.357.043-.317.028.71.043-.588.029-.084.014.237.014.237.071-.516.015.394.07-.469.03.474.013-.196.043-.12.014.396.043-.436.071.63.015-.196.057.593.014.08.014-.194.057-.32.014.395.043-.153.028.04.114.753.029-.508.057.629.042-.557.143.752.014-.117.086.239.042-.631.015-.04.014.077.114.873.014-.273.043-.318.042.435.057-.074.128 1.076.057-.073.129.67.057-.192.014.474.114.277.028-.115.014-.16.043.393.029-.077.028.12.057-.207.014.04.057-.16.043.2.1-.122.014.122.1.04.042.077-.014-.12.086.08.028-.037.014.08h.057l.171.526.014-.04.043.2.47 1.153.014-.08.086-.12.014.077.157.275.085.04.028.078.057-.125h.015l.028.04.143.202.085.045.057.237.071-.115.143-.157.014.04.128-.033.085-.04.129-.402.042.04.071-.162.043.12.014.12.1-.083.114.08.014.04.029-.082.057-.003.114.078.142.232.17.087.129.16.085.082.171.162.015-.082.07.205.03.08.028-.12.057.082.27-.44.057-.081.143-.198.042-.08.114-.16.086.043" clip-path="url(#p4176bc1c31)" fill="none" stroke="#1f77b4" stroke-linecap="square" stroke-width="1.5"/><path d="M57.6 307.58V41.47m357.12 266.11V41.47M57.6 307.58h357.12M57.6 41.472h357.12" fill="none" stroke="#000" stroke-linecap="square" stroke-width=".8"/><path d="M297.71 64.15h110.01q2 0 2-2V48.472q0-2-2-2H297.71q-2 0-2 2V62.15q0 2 2 2z" fill="#fff" opacity=".8" stroke="#ccc"/><path d="M299.71 54.57h20" fill="none" stroke="#1f77b4" stroke-linecap="square" stroke-width="2"/><g transform="matrix(.1 0 0 -.1 327.71 58.07)"><defs><path id="DejaVuSans-103" d="M45.406 27.984q0 9.766-4.031 15.125-4.016 5.375-11.297 5.375-7.219 0-11.25-5.375-4.031-5.36-4.031-15.125 0-9.719 4.03-15.094t11.25-5.375q7.282 0 11.298 5.375 4.031 5.375 4.031 15.094zM54.39 6.781q0-13.953-6.203-20.766Q42-20.797 29.203-20.797q-4.734 0-8.937.703t-8.156 2.172v8.734q3.953-2.14 7.812-3.156 3.86-1.031 7.86-1.031 8.843 0 13.234 4.609t4.39 13.938v4.453q-2.781-4.844-7.125-7.234T27.875 0Q17.828 0 11.672 7.656q-6.156 7.672-6.156 20.328 0 12.688 6.156 20.344Q17.828 56 27.875 56q6.063 0 10.406-2.39t7.125-7.22v8.298h8.985z"/></defs><use xlink:href="#DejaVuSans-84"/><use x="44.084" xlink:href="#DejaVuSans-101"/><use x="105.607" xlink:href="#DejaVuSans-116"/><use x="144.816" xlink:href="#DejaVuSans-114"/><use x="185.93" xlink:href="#DejaVuSans-105"/><use x="213.713" xlink:href="#DejaVuSans-115"/><use x="265.813" xlink:href="#DejaVuSans-32"/><use x="297.6" xlink:href="#DejaVuSans-40"/><use x="336.613" xlink:href="#DejaVuSans-103"/><use x="400.09" xlink:href="#DejaVuSans-101"/><use x="461.613" xlink:href="#DejaVuSans-110"/><use x="524.992" xlink:href="#DejaVuSans-117"/><use x="588.371" xlink:href="#DejaVuSans-105"/><use x="616.154" xlink:href="#DejaVuSans-110"/><use x="679.533" xlink:href="#DejaVuSans-101"/><use x="741.057" xlink:href="#DejaVuSans-41"/></g><defs><clipPath id="p4176bc1c31"><path d="M57.6 41.472h357.12v266.11H57.6z"/></clipPath></defs><g stroke-width=".75"><text x="82.261" y="188.074" font-family="sans-serif" font-size="10" letter-spacing="0" word-spacing="0" style="line-height:125%" xml:space="preserve"><tspan x="82.261" y="188.074">1. boot ROM ends</tspan></text><path d="m87.462 193.41 6.19 24.183" fill="none" marker-end="url(#Arrow2Lend)" stroke="#000"/><text x="209.4" y="170.725" font-family="sans-serif" font-size="10" letter-spacing="0" word-spacing="0" style="line-height:125%" xml:space="preserve"><tspan x="209.4" y="170.725">2. title screen (with music)</tspan></text><path d="m213.49 174.83 3.306 33.887" fill="none" marker-end="url(#marker1655)" stroke="#000"/></g></svg>