<svg width="614.4" height="460.8" viewBox="0 0 460.8 345.6" xmlns="http://www.w3.org/2000/svg" xmlns:xlink="http://www.w3.org/1999/xlink"><defs><style>*{stroke-linecap:butt;stroke-linejoin:round}</style></defs><path d="M0 345.6h460.8V0H0z" fill="#fff"/><path d="M57.6 307.58h357.12V41.47H57.6z" fill="#fff"/><defs><path id="m7a31781d86" d="M0 0v3.5" stroke="#000" stroke-width=".8"/></defs><use x="72.35" y="307.584" stroke="#000" stroke-width=".8" xlink:href="#m7a31781d86"/><g transform="matrix(.1 0 0 -.1 69.169 322.18)"><defs><path id="DejaVuSans-48" d="M31.781 66.406q-7.61 0-11.453-7.5Q16.5 51.422 16.5 36.375q0-14.984 3.828-22.484 3.844-7.5 11.453-7.5 7.672 0 11.5 7.5 3.844 7.5 3.844 22.484 0 15.047-3.844 22.531-3.828 7.5-11.5 7.5zm0 7.813q12.266 0 18.734-9.704 6.469-9.687 6.469-28.14 0-18.407-6.469-28.11-6.469-9.687-18.734-9.687-12.25 0-18.719 9.687-6.469 9.703-6.469 28.11 0 18.452 6.469 28.14 6.469 9.703 18.719 9.703z"/></defs><use xlink:href="#DejaVuSans-48"/></g><use x="131.658" y="307.584" stroke="#000" stroke-width=".8" xlink:href="#m7a31781d86"/><g transform="matrix(.1 0 0 -.1 128.48 322.18)"><defs><path id="DejaVuSans-49" d="M12.406 8.297h16.109v55.625l-17.531-3.516v8.985l17.438 3.515h9.86V8.297H54.39V0H12.406z"/></defs><use xlink:href="#DejaVuSans-49"/></g><use x="190.967" y="307.584" stroke="#000" stroke-width=".8" xlink:href="#m7a31781d86"/><g transform="matrix(.1 0 0 -.1 187.79 322.18)"><defs><path id="DejaVuSans-50" d="M19.188 8.297H53.61V0H7.329v8.297q5.61 5.812 15.297 15.594 9.703 9.797 12.188 12.64 4.734 5.313 6.61 9 1.89 3.688 1.89 7.25 0 5.813-4.078 9.47-4.078 3.672-10.625 3.672-4.64 0-9.797-1.61-5.14-1.61-11-4.89v9.968q5.953 2.391 11.125 3.61 5.188 1.219 9.484 1.219 11.328 0 18.062-5.672 6.735-5.656 6.735-15.125 0-4.5-1.688-8.531-1.672-4.016-6.125-9.485-1.218-1.422-7.765-8.187-6.532-6.766-18.453-18.922z"/></defs><use xlink:href="#DejaVuSans-50"/></g><use x="250.275" y="307.584" stroke="#000" stroke-width=".8" xlink:href="#m7a31781d86"/><g transform="matrix(.1 0 0 -.1 247.09 322.18)"><defs><path id="DejaVuSans-51" d="M40.578 39.312q7.078-1.516 11.047-6.313 3.984-4.78 3.984-11.812 0-10.78-7.422-16.703-7.421-5.906-21.093-5.906-4.579 0-9.438.907T7.625 2.203v9.516q4.094-2.39 8.969-3.61 4.89-1.218 10.219-1.218 9.265 0 14.125 3.656t4.86 10.64q0 6.454-4.516 10.079-4.516 3.64-12.562 3.64h-8.5v8.11h8.89q7.266 0 11.125 2.906t3.86 8.375q0 5.61-3.985 8.61-3.969 3.015-11.39 3.015-4.063 0-8.704-.89-4.64-.875-10.203-2.72v8.782q5.625 1.562 10.531 2.344t9.25.781q11.234 0 17.766-5.11 6.547-5.093 6.547-13.78 0-6.063-3.469-10.234t-9.86-5.782z"/></defs><use xlink:href="#DejaVuSans-51"/></g><use x="309.584" y="307.584" stroke="#000" stroke-width=".8" xlink:href="#m7a31781d86"/><g transform="matrix(.1 0 0 -.1 306.4 322.18)"><defs><path id="DejaVuSans-52" d="M37.797 64.312 12.891 25.39h24.906zm-2.594 8.594H47.61V25.39h10.406v-8.203H47.61V-.001h-9.812v17.188H4.89v9.515z"/></defs><use xlink:href="#DejaVuSans-52"/></g><use x="368.892" y="307.584" stroke="#000" stroke-width=".8" xlink:href="#m7a31781d86"/><g transform="matrix(.1 0 0 -.1 365.71 322.18)"><defs><path id="DejaVuSans-53" d="M10.797 72.906h38.719v-8.313H19.828V46.736q2.14.734 4.281 1.093 2.156.36 4.313.36 12.203 0 19.328-6.688 7.14-6.687 7.14-18.109 0-11.766-7.328-18.297Q40.234-1.42 26.906-1.42q-4.594 0-9.36.78-4.75.782-9.827 2.345v9.922q4.39-2.391 9.078-3.563t9.906-1.172q8.453 0 13.375 4.438 4.938 4.437 4.938 12.062 0 7.609-4.938 12.047-4.922 4.453-13.375 4.453-3.953 0-7.89-.875-3.922-.875-8.016-2.735z"/></defs><use xlink:href="#DejaVuSans-53"/></g><g transform="matrix(.1 0 0 -.1 215.83 335.86)"><defs><path id="DejaVuSans-84" d="M-.297 72.906h61.672v-8.313H35.5V0h-9.906v64.594H-.297z"/><path id="DejaVuSans-105" d="M9.422 54.688h8.984V0H9.422zm0 21.297h8.984V64.594H9.422z"/><path id="DejaVuSans-109" d="M52 44.188q3.375 6.063 8.063 8.938T71.093 56q8.547 0 13.189-5.985 4.64-5.969 4.64-17V0h-9.031v32.72q0 7.859-2.797 11.655-2.781 3.813-8.484 3.813-6.985 0-11.047-4.641-4.047-4.625-4.047-12.641V0h-9.031v32.719q0 7.906-2.782 11.688t-8.593 3.781q-6.891 0-10.953-4.656-4.047-4.656-4.047-12.625V.001H9.078v54.688h9.032v-8.5q3.078 5.031 7.375 7.422T35.688 56q5.968 0 10.14-3.03 4.173-3.016 6.173-8.782z"/><path id="DejaVuSans-101" d="M56.203 29.594v-4.39H14.891q.594-9.282 5.594-14.142t13.938-4.859q5.172 0 10.03 1.266t9.657 3.812v-8.5Q49.266.734 44.188-.344T33.891-1.422q-13.094 0-20.734 7.61-7.64 7.624-7.64 20.624 0 13.422 7.25 21.297Q20.017 56 32.329 56q11.03 0 17.453-7.11 6.421-7.093 6.421-19.296zm-8.984 2.64q-.094 7.36-4.125 11.75-4.032 4.407-10.672 4.407-7.516 0-12.031-4.25t-5.203-11.97z"/><path id="DejaVuSans-40" d="M31 75.875q-6.531-11.219-9.719-22.219Q18.11 42.672 18.11 31.39q0-11.266 3.203-22.328T31-13.188h-7.813Q15.875-1.704 12.234 9.374T8.594 31.39q0 10.891 3.61 21.922 3.624 11.047 10.983 22.562z"/><path id="DejaVuSans-115" d="M44.281 53.078v-8.5q-3.797 1.953-7.906 2.922-4.094.984-8.5.984-6.688 0-10.031-2.047T14.5 40.281q0-3.125 2.39-4.906t9.626-3.39l3.078-.688q9.562-2.047 13.594-5.781t4.03-10.422q0-7.625-6.03-12.078-6.032-4.438-16.578-4.438-4.39 0-9.156.86T5.421 2v9.281q4.985-2.594 9.813-3.89 4.828-1.282 9.578-1.282 6.344 0 9.75 2.172 3.422 2.172 3.422 6.125 0 3.657-2.469 5.61-2.453 1.953-10.812 3.765l-3.125.735q-8.344 1.75-12.062 5.39-3.703 3.64-3.703 9.985 0 7.719 5.469 11.906Q16.752 56 26.813 56q4.97 0 9.36-.735 4.407-.718 8.11-2.187z"/><path id="DejaVuSans-41" d="M8.016 75.875h7.812q7.313-11.516 10.953-22.562 3.64-11.031 3.64-21.922 0-10.938-3.64-22.016T15.828-13.187H8.016Q14.5-1.999 17.703 9.063t3.203 22.328q0 11.281-3.203 22.266-3.203 11-9.687 22.219z"/></defs><use xlink:href="#DejaVuSans-84"/><use x="57.959" xlink:href="#DejaVuSans-105"/><use x="85.742" xlink:href="#DejaVuSans-109"/><use x="183.154" xlink:href="#DejaVuSans-101"/><use x="244.678" xlink:href="#DejaVuSans-32"/><use x="276.465" xlink:href="#DejaVuSans-40"/><use x="315.479" xlink:href="#DejaVuSans-115"/><use x="367.578" xlink:href="#DejaVuSans-41"/></g><path d="M57.6 307.58h357.12" clip-path="url(#pa07a1ccc3f)" fill="none" stroke="#b0b0b0" stroke-linecap="square" stroke-opacity=".2" stroke-width=".8"/><defs><path id="m745a367e1e" d="M0 0h-3.5" stroke="#000" stroke-width=".8"/></defs><use x="57.6" y="307.584" stroke="#000" stroke-width=".8" xlink:href="#m745a367e1e"/><use xlink:href="#DejaVuSans-48" transform="matrix(.1 0 0 -.1 44.238 311.38)"/><path d="M57.6 290.95h357.12" clip-path="url(#pa07a1ccc3f)" fill="none" stroke="#b0b0b0" stroke-linecap="square" stroke-opacity=".2" stroke-width=".8"/><use x="57.6" y="290.952" stroke="#000" stroke-width=".8" xlink:href="#m745a367e1e"/><g transform="matrix(.1 0 0 -.1 37.875 294.75)"><use xlink:href="#DejaVuSans-53"/><use x="63.623" xlink:href="#DejaVuSans-48"/></g><path d="M57.6 274.32h357.12" clip-path="url(#pa07a1ccc3f)" fill="none" stroke="#b0b0b0" stroke-linecap="square" stroke-opacity=".2" stroke-width=".8"/><use x="57.6" y="274.32" stroke="#000" stroke-width=".8" xlink:href="#m745a367e1e"/><g transform="matrix(.1 0 0 -.1 31.512 278.12)"><use xlink:href="#DejaVuSans-49"/><use x="63.623" xlink:href="#DejaVuSans-48"/><use x="127.246" xlink:href="#DejaVuSans-48"/></g><path d="M57.6 257.69h357.12" clip-path="url(#pa07a1ccc3f)" fill="none" stroke="#b0b0b0" stroke-linecap="square" stroke-opacity=".2" stroke-width=".8"/><use x="57.6" y="257.688" stroke="#000" stroke-width=".8" xlink:href="#m745a367e1e"/><g transform="matrix(.1 0 0 -.1 31.512 261.49)"><use xlink:href="#DejaVuSans-49"/><use x="63.623" xlink:href="#DejaVuSans-53"/><use x="127.246" xlink:href="#DejaVuSans-48"/></g><path d="M57.6 241.06h357.12" clip-path="url(#pa07a1ccc3f)" fill="none" stroke="#b0b0b0" stroke-linecap="square" stroke-opacity=".2" stroke-width=".8"/><use x="57.6" y="241.056" stroke="#000" stroke-width=".8" xlink:href="#m745a367e1e"/><g transform="matrix(.1 0 0 -.1 31.512 244.86)"><use xlink:href="#DejaVuSans-50"/><use x="63.623" xlink:href="#DejaVuSans-48"/><use x="127.246" xlink:href="#DejaVuSans-48"/></g><path d="M57.6 224.42h357.12" clip-path="url(#pa07a1ccc3f)" fill="none" stroke="#b0b0b0" stroke-linecap="square" stroke-opacity=".2" stroke-width=".8"/><use x="57.6" y="224.424" stroke="#000" stroke-width=".8" xlink:href="#m745a367e1e"/><g transform="matrix(.1 0 0 -.1 31.512 228.22)"><use xlink:href="#DejaVuSans-50"/><use x="63.623" xlink:href="#DejaVuSans-53"/><use x="127.246" xlink:href="#DejaVuSans-48"/></g><path d="M57.6 207.79h357.12" clip-path="url(#pa07a1ccc3f)" fill="none" stroke="#b0b0b0" stroke-linecap="square" stroke-opacity=".2" stroke-width=".8"/><use x="57.6" y="207.792" stroke="#000" stroke-width=".8" xlink:href="#m745a367e1e"/><g transform="matrix(.1 0 0 -.1 31.512 211.59)"><use xlink:href="#DejaVuSans-51"/><use x="63.623" xlink:href="#DejaVuSans-48"/><use x="127.246" xlink:href="#DejaVuSans-48"/></g><path d="M57.6 191.16h357.12" clip-path="url(#pa07a1ccc3f)" fill="none" stroke="#b0b0b0" stroke-linecap="square" stroke-opacity=".2" stroke-width=".8"/><use x="57.6" y="191.16" stroke="#000" stroke-width=".8" xlink:href="#m745a367e1e"/><g transform="matrix(.1 0 0 -.1 31.512 194.96)"><use xlink:href="#DejaVuSans-51"/><use x="63.623" xlink:href="#DejaVuSans-53"/><use x="127.246" xlink:href="#DejaVuSans-48"/></g><path d="M57.6 174.53h357.12" clip-path="url(#pa07a1ccc3f)" fill="none" stroke="#b0b0b0" stroke-linecap="square" stroke-opacity=".2" stroke-width=".8"/><use x="57.6" y="174.528" stroke="#000" stroke-width=".8" xlink:href="#m745a367e1e"/><g transform="matrix(.1 0 0 -.1 31.512 178.33)"><use xlink:href="#DejaVuSans-52"/><use x="63.623" xlink:href="#DejaVuSans-48"/><use x="127.246" xlink:href="#DejaVuSans-48"/></g><path d="M57.6 157.9h357.12" clip-path="url(#pa07a1ccc3f)" fill="none" stroke="#b0b0b0" stroke-linecap="square" stroke-opacity=".2" stroke-width=".8"/><use x="57.6" y="157.896" stroke="#000" stroke-width=".8" xlink:href="#m745a367e1e"/><g transform="matrix(.1 0 0 -.1 31.512 161.7)"><use xlink:href="#DejaVuSans-52"/><use x="63.623" xlink:href="#DejaVuSans-53"/><use x="127.246" xlink:href="#DejaVuSans-48"/></g><path d="M57.6 141.26h357.12" clip-path="url(#pa07a1ccc3f)" fill="none" stroke="#b0b0b0" stroke-linecap="square" stroke-opacity=".2" stroke-width=".8"/><use x="57.6" y="141.264" stroke="#000" stroke-width=".8" xlink:href="#m745a367e1e"/><g transform="matrix(.1 0 0 -.1 31.512 145.06)"><use xlink:href="#DejaVuSans-53"/><use x="63.623" xlink:href="#DejaVuSans-48"/><use x="127.246" xlink:href="#DejaVuSans-48"/></g><path d="M57.6 124.63h357.12" clip-path="url(#pa07a1ccc3f)" fill="none" stroke="#b0b0b0" stroke-linecap="square" stroke-opacity=".2" stroke-width=".8"/><use x="57.6" y="124.632" stroke="#000" stroke-width=".8" xlink:href="#m745a367e1e"/><g transform="matrix(.1 0 0 -.1 31.512 128.43)"><use xlink:href="#DejaVuSans-53"/><use x="63.623" xlink:href="#DejaVuSans-53"/><use x="127.246" xlink:href="#DejaVuSans-48"/></g><path d="M57.6 108h357.12" clip-path="url(#pa07a1ccc3f)" fill="none" stroke="#b0b0b0" stroke-linecap="square" stroke-opacity=".2" stroke-width=".8"/><use x="57.6" y="108" stroke="#000" stroke-width=".8" xlink:href="#m745a367e1e"/><g transform="matrix(.1 0 0 -.1 31.512 111.8)"><defs><path id="DejaVuSans-54" d="M33.016 40.375q-6.64 0-10.531-4.547-3.875-4.531-3.875-12.438 0-7.86 3.875-12.438 3.89-4.562 10.531-4.562t10.516 4.562q3.875 4.578 3.875 12.438 0 7.906-3.875 12.438-3.875 4.547-10.516 4.547zm19.578 30.922v-8.984q-3.719 1.75-7.5 2.671-3.781.938-7.5.938-9.766 0-14.922-6.594-5.14-6.594-5.875-19.922 2.875 4.25 7.219 6.516 4.36 2.265 9.578 2.265 10.984 0 17.359-6.672 6.375-6.656 6.375-18.125 0-11.234-6.64-18.03-6.641-6.782-17.673-6.782-12.656 0-19.344 9.688-6.687 9.703-6.687 28.109 0 17.28 8.203 27.562t22.016 10.28q3.719 0 7.5-.734t7.89-2.187z"/></defs><use xlink:href="#DejaVuSans-54"/><use x="63.623" xlink:href="#DejaVuSans-48"/><use x="127.246" xlink:href="#DejaVuSans-48"/></g><path d="M57.6 91.368h357.12" clip-path="url(#pa07a1ccc3f)" fill="none" stroke="#b0b0b0" stroke-linecap="square" stroke-opacity=".2" stroke-width=".8"/><use x="57.6" y="91.368" stroke="#000" stroke-width=".8" xlink:href="#m745a367e1e"/><g transform="matrix(.1 0 0 -.1 31.512 95.167)"><use xlink:href="#DejaVuSans-54"/><use x="63.623" xlink:href="#DejaVuSans-53"/><use x="127.246" xlink:href="#DejaVuSans-48"/></g><path d="M57.6 74.736h357.12" clip-path="url(#pa07a1ccc3f)" fill="none" stroke="#b0b0b0" stroke-linecap="square" stroke-opacity=".2" stroke-width=".8"/><use x="57.6" y="74.736" stroke="#000" stroke-width=".8" xlink:href="#m745a367e1e"/><g transform="matrix(.1 0 0 -.1 31.512 78.535)"><defs><path id="DejaVuSans-55" d="M8.203 72.906h46.875v-4.203L28.61 0H18.312l24.906 64.594H8.202z"/></defs><use xlink:href="#DejaVuSans-55"/><use x="63.623" xlink:href="#DejaVuSans-48"/><use x="127.246" xlink:href="#DejaVuSans-48"/></g><path d="M57.6 58.104h357.12" clip-path="url(#pa07a1ccc3f)" fill="none" stroke="#b0b0b0" stroke-linecap="square" stroke-opacity=".2" stroke-width=".8"/><use x="57.6" y="58.104" stroke="#000" stroke-width=".8" xlink:href="#m745a367e1e"/><g transform="matrix(.1 0 0 -.1 31.512 61.903)"><use xlink:href="#DejaVuSans-55"/><use x="63.623" xlink:href="#DejaVuSans-53"/><use x="127.246" xlink:href="#DejaVuSans-48"/></g><g transform="matrix(0 -.1 -.1 0 25.433 219.82)"><defs><path id="DejaVuSans-73" d="M9.813 72.906h9.859V0h-9.86z"/><path id="DejaVuSans-110" d="M54.891 33.016V0h-8.984v32.719q0 7.766-3.032 11.609-3.03 3.86-9.078 3.86-7.28 0-11.484-4.641-4.203-4.625-4.203-12.641V0H9.08v54.688h9.031v-8.5q3.235 4.937 7.594 7.375Q30.079 56 35.798 56q9.422 0 14.25-5.828 4.844-5.828 4.844-17.156z"/><path id="DejaVuSans-112" d="M18.109 8.203v-29H9.078v75.484h9.031V46.39q2.844 4.875 7.156 7.235Q29.593 56 35.593 56q9.969 0 16.188-7.907 6.235-7.906 6.235-20.797T51.78 6.484q-6.219-7.906-16.188-7.906-6 0-10.328 2.375-4.312 2.375-7.156 7.25zm30.578 19.094q0 9.906-4.078 15.547t-11.203 5.64q-7.14 0-11.22-5.64T18.11 27.297t4.078-15.547 11.219-5.64q7.125 0 11.203 5.64t4.078 15.547z"/><path id="DejaVuSans-117" d="M8.5 21.578v33.109h8.984V21.921q0-7.766 3.016-11.656 3.031-3.875 9.094-3.875 7.265 0 11.484 4.64 4.234 4.641 4.234 12.657v31h8.985V-.001h-8.985v8.406Q42.047 3.42 37.718.999q-4.312-2.422-10.03-2.422-9.422 0-14.313 5.86Q8.5 10.294 8.5 21.576z"/><path id="DejaVuSans-116" d="M18.312 70.219V54.688h18.5v-6.984h-18.5V18.016q0-6.688 1.828-8.594t7.453-1.906h9.219V0h-9.219Q17.187 0 13.234 3.875q-3.953 3.89-3.953 14.141v29.688H2.687v6.984h6.594V70.22z"/><path id="DejaVuSans-111" d="M30.609 48.391q-7.219 0-11.422-5.64t-4.203-15.454 4.172-15.453q4.187-5.64 11.453-5.64 7.187 0 11.375 5.656 4.203 5.672 4.203 15.438 0 9.719-4.203 15.406-4.188 5.688-11.375 5.688zm0 7.61q11.719 0 18.406-7.626 6.703-7.609 6.703-21.078 0-13.422-6.703-21.078-6.688-7.64-18.406-7.64-11.766 0-18.438 7.64-6.656 7.657-6.656 21.078 0 13.47 6.656 21.078Q18.843 56 30.609 56z"/><path id="DejaVuSans-119" d="M4.203 54.688h8.985L24.42 12.016l11.173 42.672h10.594l11.234-42.672L68.61 54.688h8.984L63.282 0H52.688L40.922 44.828 29.11 0H18.5z"/><path id="DejaVuSans-114" d="M41.109 46.297q-1.516.875-3.297 1.281Q36.031 48 33.89 48q-7.625 0-11.703-4.953T18.11 28.813V.001H9.078v54.688h9.031v-8.5q2.844 4.984 7.375 7.39 4.547 2.422 11.047 2.422.922 0 2.047-.125 1.125-.109 2.484-.359z"/><path id="DejaVuSans-87" d="M3.328 72.906h9.953L28.61 11.281l15.28 61.625h11.094l15.328-61.625 15.281 61.625H95.61L77.297 0H64.891L49.516 63.281 33.986 0H21.578z"/></defs><use xlink:href="#DejaVuSans-73"/><use x="29.492" xlink:href="#DejaVuSans-110"/><use x="92.871" xlink:href="#DejaVuSans-112"/><use x="156.348" xlink:href="#DejaVuSans-117"/><use x="219.727" xlink:href="#DejaVuSans-116"/><use x="258.936" xlink:href="#DejaVuSans-32"/><use x="290.723" xlink:href="#DejaVuSans-112"/><use x="354.199" xlink:href="#DejaVuSans-111"/><use x="415.381" xlink:href="#DejaVuSans-119"/><use x="497.168" xlink:href="#DejaVuSans-101"/><use x="558.691" xlink:href="#DejaVuSans-114"/><use x="599.805" xlink:href="#DejaVuSans-32"/><use x="631.592" xlink:href="#DejaVuSans-40"/><use x="670.605" xlink:href="#DejaVuSans-109"/><use x="768.018" xlink:href="#DejaVuSans-87"/><use x="866.895" xlink:href="#DejaVuSans-41"/></g><path d="m73.833 153.31.415-11.347.415-4.712.119-.312.119.321.059.517.118 5.972.238 22.39.356 34.357.355 5.835.534 4.968.83 4.862.712 4.45.06-.743.059-.072.118.55.356 1.959.238.127.118-.08.297.078.237-.04.119.04.177-.242.297-.53.297-.564.059-.2.06.038.118-.161.237-.723.119-.444.178 1.617.118-.19.178-.313 1.127 2.76.237.48.178.36.297.563.356.52h.118l.415.604.415.4.95.519.355.082.178.118.356.038.178.277.237.24.356.113.356.078.296.235.594.08.296.24.178.08.356.121h.06l.118-.117.118.08.297-.074.415.082.237.04 1.068.086.178.002.237-.157.178-.04.237.08.178-.042.178.115.237-.036.83.038.179.08.237-.042h.06l.058-.12.06.118.652.313.297-.16.178.12.237-.04.237.036h.415l.712.08h.118l.06-.078.06.08.355-.078.237-.078.297.08.711.088.238.04 1.66.084.178.034h.119l.06.04.058-.2.06.158.593.273.237-.042h.06l.059-.12.059.04.178.118.178-.04.178.076.178-.08h.178l.533.24.297-.078 1.601-.067.178-.12.237.08.416-.158.177.002h.12l.177.078.415-.164.237-.082.178-.04.178-.004.119-.04.237.042.178.117.178-.157.119.04.355-.002.06-.158.059.118.297.075.711.084.178.08.297.124.118-.08.238.042.355.082.356.118 1.542-.033.356-.124.356.16.356-.122 1.186.071.178.118.77.004.238.236.356-.198.178.16.178-.04.474.2.415-.076.475-.234.415.16.297-.078.237-.195.712-.04.296-.278.475.076.474.196.178-.082.297-.082 1.304.073.119.158.06-.042.236-.078.06.04.118-.158.178.08.238-.04.177-.082.178.002.119.08.119.002.415.156.178-.038.296.082.475-.038.178-.078.237.04 1.542-.077.119-.04.177.036.297-.122.356.117.296.076h.178l.95.038.118.12.118-.078.178.16.653.086.06.04.058-.158.06.12.118.04.178-.038h.178l.178-.078.237.04.534-.072.119-.082.178.082.178-.122.533-.08.06-.12.059.042h1.364l.178.159.771-.084.06-.158.059.078.593.275.356-.118.177.12.712-.086.119-.078.178.08.296.082.119-.04 1.305-.034.296-.08.178-.077.178-.038.297.08.296-.082 1.72.03.06-.2.059.118.593.273.77.038.12.037.296-.08.178.08.296.082.356-.12.119.042.118.04.594-.075.177-.036h.12l.177-.04.119-.002.415-.196.237.164.356-.12 1.838.076.178.202.475.074.178-.002.593.04.237.155.415.086.119.04.652-.074.238-.08.177.043.12.042.118-.04.178-.118.118.08.356-.122.297-.038.178-.118.474-.08.415-.16.356.118.237-.081.237.037h.178l.653.076.178-.002.178.082.355.116.06-.158.06.118.236.237.178.08.178.078.178-.036.119.04.059-.158.06.04.118.08.178-.038.237.08.178-.038.178.08.237-.038.178.042.119.038.237-.158.652-.075.238-.2.77-.084.12-.12.177.12 1.246-.088.059-.12.06.038.474.238.178-.007.415.124.178.038h.118l.178-.002.356-.275.06.12.177.08 1.246-.072.237-.156 1.305-.073.296-.082.12-.003.118.003.237.037.178-.04.118.16.475.078.178.034.296-.162.178.08.356.078.356.118.119.041.237.158 1.66.006.178.16.475-.078.356-.118.178-.08.178.003.118-.083.119-.04.83-.075.119.04.178.002.178-.042.178-.12.89.082.177.198h.178l.593-.04.06-.12.059.038.415.158.178-.004.237.042.534.082.118-.005.593-.32.534.043.119.08.178-.038h.178l.296-.076.415-.158.178.08.178-.08 1.957.038.475.232.356-.122.178.12.237.04.178.155h.178l.356.122.296.08.237.036h.178l.119-.158.06.04.177.082.297-.034.118-.038.83-.038.179-.115.355-.08.178-.078.238-.08.118-.078h.356l.415-.046.178-.082.237.036h.178l.593.082.238.074.178-.2.059.158.296.078.771.081.238.042 1.186-.08.178-.155.415.161 1.245-.076.238-.037 1.008.086.178-.002 1.601.07.237.195.238.08.059-.198.06.078.236.156.178.08.119.078.296-.082.297.081.178-.042.119.16.059-.08.237-.038.712-.033.237-.198h.119l.178-.04.118-.04.297-.073.178-.118.178.042.355-.118.238-.078.118-.08.119.042.356.078.237.038.949.074.178-.005.118.082.238.034.356.078.237.038.118.084.178.118.356-.198.178.16.237-.036.119.078.178-.118.178.04.178-.12h.178l.83-.075.237-.04.119-.044.178-.158.237.04.534-.044.178-.078.118.002.297-.082.178.158.178.038.118-.12.297.233 1.364.158.237.038.119.08.415.195.119-.158h.178l.415-.08.237-.035.949-.032.178-.16.118.002.771-.395.238.04.296-.078.119-.04.178.122.593-.04.178-.075.237.036.178.08.415.155.475.078.118.08.119-.042.296.077.712.076.178.076.178.078.237.037.237-.077.06-.198.059.12h.178l.178.042.118.04.178-.078.83-.036.12-.038.236.04.416-.153.118-.08.237-.036 1.127-.086.178-.118.178.16h.771l.06-.118.059.038.237.038 1.068.078.237.2.178-.04.118.04.12-.12.296.08h1.898l.296-.282.89-.08.118.002.178.118.356-.118.83.002.06-.2.059.158.297.08 1.067.078.119.078.237-.08.534.237 1.423.084.178.04.356-.116.119.04.178-.16.177.043.356-.12.415.124.178.118 1.305.033.178.12.356.082.356.116.06-.158.058.118.178.118.178-.082.119.038.534-.278.178.04.178.004.118-.002h.119l.237.122.119-.08h.118l.178-.036.119.08.711-.357.356-.076.119.002.296.118.297-.082.474-.08.356-.123.771.075.238.16.415.038.118.078.238-.04h.059l.06-.118.059.12.177.2.594.077h.118l.119-.038.237.04.119.042.118.036.178-.118.237.04.119-.04.119.04.355-.076.12-.038.296.08.415-.038.237-.16.771-.004.178-.078.949.074.178.078.178-.122.118-.04.416.078.474.24.119-.12.296.08.178.082.237.038.178.04.06-.238.059.08.178.12.356-.082.118-.118.178.162.178-.038h.178l.297-.078.355-.118.593-.04.12-.078.236.08.415-.197.178.002h.297l.237-.162.06.118.059-.04.474.08.593.272.415-.08.297-.082.237.078.119.077.237-.042.356.08.06.08.059-.078.118.08.178.077.119-.04.178.08.178-.075.178-.08.059-.158.06.08h.177l.89-.074.237-.033.296-.078.653-.317.118-.08.178.002.178.036.356-.122.415.078.238.075.177-.04.178.198.178.076.712.038.237.197.119.042.178.12.178.042.178.12.059-.04.178.162.237.04.119.04.178-.158.178.12.118-.118h.178l.178.084.06.08.059-.082.237-.038.415-.078.771-.402.415-.035.178-.242.237.04.356-.082.356-.202.237.2.238-.08.059.12.06-.04.118.08.415.16.178-.002.118.04.06-.12.06.118.177.12.237.077.178.12.771.082.119-.002.237-.08.119.04.118-.08.178.04.178-.12.06.12.059-.08.237-.038.178-.04.118-.038.238-.08.356-.16.237.082.296-.081 1.483.042.119-.004.118-.04 1.068-.004.237.242.178.037h.119l.118-.002.178-.042h.119l.06-.12.058.078.178.118.238.078h.178l.177.004.238.08.178-.003.415-.075.178.002 1.364-.105.356-.156.355.158.475-.078.237-.038.653-.088.177-.12.12.082.355-.124.237.08.178-.004.534-.038.06-.238.059.158.296.078.119.082.178-.002.296.002.06-.12.059.082.237.042.119.084.059.078.06-.082.177-.078.356.12.474-.08.12-.078.177.12.178.04.119.04.355-.082.178.004.712-.088.119-.08.355.118.178-.042.297.08.178-.078.119.038.415-.164.237.04.178.082.178.076.237.08.06-.158.059.12.237.157.178.084.178.118.237-.038.06.04.059-.118.059.08.296.084.475.122.237.042.415-.04.178-.078.83-.08.178-.076.712-.084.178-.08.178.039.237-.082.06.16.059-.04.415.04.119.037.237-.044.06.08.177-.122.949.078.297.075.533.004.119-.159.178.12.178-.04.178.04.178.004.118.04.119-.118.178.08.237-.038.119-.04.178.002.237-.08.356-.115.118.04.178-.12.178.082.356-.12.297-.078.118-.16.06.043.177.033.178-.04.356.2.178-.12.119.042.83.032.119.042.178.036.177.16.12-.083.236.156.178.084.178.08.178-.036.06.08.059-.12.059.04.415.084.119.078.237-.042h.119l.059-.158.06.12.118.08.178-.078.118.162.06-.082.237-.038.356-.078.237-.035.119-.003.178-.12.178.078.177-.08h.178l.238-.084.296-.075.237.038.416-.084.118-.08.178.082.237-.082.06-.04.178.158.711.033.06.08.177-.718.594-3.428.237-.24.237-.399.119-.759.415-2.79.296-.478.06.08.237-.636.474-3.308.06-.12.118-.796.06.12.415 2.66.06.2.058-.32.06.08.059.043.474-2.432.06.123.356 2.036.059.12.06.397.059-.202h.059l.178-.362.118-.479h.06l.059-.317.06.28.059.476.059-.48.06.08.236 1.152.12-.123.058.36.06-.08.118-.042.238-.874.177-.834.06.28.06-.08.118.077.237.677.119-.043.118.4.06-.32.059.2.06-.08.236-.919.178-.474.06.082.059.36.06-.48.058.357.06.12.06-.28.118.32.059-.358.06.203.059.16.059-.24.119.322.059-.357.06.242.059.12.059-.32.06.2.058.08.06-.278.06.04.058.4.06-.32.296.679.06-.32.059.16.06.402.058-.32.06-.04.06.4.118-.397.059.359.06-.28.059-.24.059.32.06-.162.059.04.059.317.06-.28.058-.157.06.4.06-.12.058-.04.06.317.059-.242.06-.32.118.482.06-.16.059.28.059-.16.06-.279.118.317.06-.16.058.2.06-.122.059-.277.119.434.059-.361.06.279.059.12.059-.32.118.439.06-.36.06.2.058.238.06-.322.059.24.06.117.059-.277.118.4.119-.322.06.319.059-.28.296.637.06-.16.118.238.119-.317.059.397.06-.278.059-.042.059.28.06-.238.058.042.06.32.06-.162.058-.08.06.16.118-.24.06.32.059-.24.06-.08.059.24.059-.118.06-.04.118.32.06-.278.058.362.06-.08.059-.24.06.163.118-.082.06.24.059-.08.059-.358.06.28.058.08.06-.2.118.317.06-.36.059.24.06.322.059-.24.118.158.06-.32.059.282.06.2.058-.277.06.117.06.08.058-.157.119.677.06-.28.059-.082.059.32.06-.2.118.399.119-.28.059.16.06-.12.296.602.118-.163.06.24.059-.082.06-.118.059.28.059-.122.06-.12.058.24.12-.28.058.24.06-.16.059-.08.119.357.059-.24.06.2.059-.04.059-.28.06.322.058-.122.06-.2.06.2.058-.04.06-.037.118.317.06-.279.059.157.06.082.059-.197.118.237.06-.32.059.123.06.2.058-.278.06.16.059.157.06-.24.059.163.059.16.06-.238.059.158.059.08.118-.24.06.317.06-.322.058.16.06.24.059-.118.297.48.118-.24.06.28.059-.12.06.04.058.28.06-.118.059-.198.06.24.059-.16.059-.04.06.32.059-.122.059-.04.06.277.059-.12h.059l.06.24.118-.4.118.4.06-.2.059.2.06-.08.059-.24.118.277.06-.08.059.198.06-.042.058-.238.12.357.058-.24.06.119.059.16.06-.12.118.277.06-.237.059.122.059.08.06-.2.058.157.06.078.06-.197.058.122.06.08.118-.16.06.24.118-.24.06.239.059-.2.296.438.119-.238.06.202.059-.158h.059l.06.16.059-.12.059.003.119.24.059-.12.06.16.058-.12.06-.118.059.24.06-.12.059-.08.059.12.06-.078.059.003.118.28.06-.2.059.2.06-.08.058-.16.06.159.06-.04.058-.157.06.12.059-.003.06-.16.059.12h.059l.06-.157.118.197.06-.162.058.118.06.24.06-.16.414.401.06.04.059-.118.06.118.058.32.06-.162.06-.003.058.198.06-.12.059.04.06.24.118-.242.237.437.06-.158.059-.04.06.12.058-.04.06-.002.118.195.06-.158.059.2.06-.08.059-.157.059.24.06-.04.058.04.06.239.06-.04.058-.04.119.28.06-.12.118.195.06-.16.059.162.059-.037.06-.16.059.16.059-.158.118.198.06.08.059-.12.119.237.059-.118.06.118.059.08.059-.24.06.04.059.122.059-.157.06.12.058.12.06-.16.118.24.06-.08.118.077.06-.157.059.04.06.16.059-.04h.059l.06.12.058-.078.06-.078.06.16.058-.083.119.2.119-.2.059.12.06-.12.059-.002.059.202.06-.118.058-.16.06.12.118-.12.06.162.059-.042h.06l.237.318.296-.158.119.118.059-.2.119.282.059-.042.06.117.059-.042.059-.16.119.2.118.04.06.042.059-.12.059.04.06.118.059-.12h.059l.237.275.119-.04.118.04h.06l.06.198.058-.04.06.04.059.202.06-.122.652.477.059-.16.06.04.118.2.237-.083.06.24.059-.04h.178l.059.002.119.24.059-.238.06.2.236.24.06-.118.06.122.177.12h.06l.059-.12.059.042.178.08.356.044.237.162.06-.078.059.08.059.082.06-.08h.058l.06.12.06-.08.118.16.059-.12.237-.16.06.12.059-.12.118-.04.178.082.06.08.059-.12.06.16.059-.04.059-.08.06.08.118-.04.06.12.059-.082.237-.078.118.12.238-.202.118.12.119.04.178.078.118-.078.119.12.119-.084 1.127.677.118-.12.178.158.237.24.238.077.118.042h.237l.119.24.06-.04.177-.04.178.036.119-.08.237.162.119-.158.237.08.118-.038.06.08.178-.162.118.002.238.04.474-.198.178.002.77-.078.12-.12.237.162.178-.12.652.08.119.036.237-.201.178.158.712.35h.059l.06-.16.058.119.356.117h.06l.059.12.06-.042.236.078.416.162.83.046.178.08.237-.04.178-.158.415.203.297-.077.118-.08.178-.036.238.036.355-.12.771-.047.178-.077.771-.002.119-.082.296.08.297-.086.356.084.178.12.83.084.178.037h.297l.118-.08.237.122.06-.08.059.082h.119l.178-.037.178.042.474-.278.06.08.059-.08.652-.038.178-.241.119.12.474-.196.178.082.237-.04.415-.081.178.002.534.117.237.04.89.08.356.156.356-.284.177.277.297.08.178.076h.297l.059-.12.06.04.948.078.297.08.415-.154.237.042.297-.078.415-.195.237.038.296-.078 1.898.11.475.235.237-.042.712.36.178-.158h.118l.119-.158.06.118.177.08.653-.118.177.002.416-.078.178-.118.177-.038.238-.157.356-.038.118-.12.178.122.178-.044.178-.08.237-.078.119-.04.06-.08.058.08.178.12.238-.042.059.118.06-.08h.058" clip-path="url(#pa07a1ccc3f)" fill="none" stroke="#1f77b4" stroke-linecap="square" stroke-width="1.5"/><path d="m73.833 152.37.415-11.505.415-5.098.178-.472.119 1.09.06.746.236 16.92.534 48.554.534 7.277.652 4.813 1.127 6.692.06.519.118-.853.119.35.356 1.793.237.052.237-.073.415-.206.119.197.119-.08.355-.882.653-1.444.237-.958.178 1.49.06.004.236-.355 2.076 3.897.119.12.296.514.178.24 1.246 1.518.356.359.296.242.237.037.238.082.237.12.178-.117.178.042.178.002.237.078.178.08.534-.276.355.12.297.084.178.036.237-.038.415.038.238.197.118-.04.178.078.119.038.059-.158.06.08.237.04.415.397 1.127.068 1.364.126.118-.002.356-.116.356.084.178.08h.178l.237-.08.178-.036.119.038.059-.12.06.078h.177l.237.08.119-.002h.119l.237.04.118-.04.594.08.237.074.06-.118.058.04.594.04.177.115h.119l.237-.037.238.08.177-.04.119.12.237-.043.178.04.178.082.356-.126 1.957-.072h.119l.178.082.059-.2.06.158.237-.04.177.086.12-.04h.118l.237.08.178-.12 1.72-.081.178-.038h.178l.355.038.12.12.296-.122.296.237.415-.122.178.002.415.16.178-.04.178-.002h.119l.474.202.178-.038.119.04.178-.16.356.122 2.55.082.237.036.119-.038.534.036.178.117.296-.08.237.08.238-.077.237.04.237-.038.237.078.356-.122.949-.04.178-.2.178.122.712-.084.177.004.12.035.058-.157.06.12.356.124.533-.044.119-.08h.119l.237-.034.415.156.297-.122.533.24.95.077.118-.002.237-.118.178.12.534-.077.118-.038.83-.08.179.004.77-.08.06-.08.06.08.177.08.119-.04.178.04.237-.078.297.12.296-.124.356.122 1.72-.008.237.157.475-.078.177-.038h.178l.593-.075.06-.078.059.08h.06l.177.198.119-.04.415-.198.89-.08.296-.08.119-.042.712.042.177.12.178-.118.356.122.83.08.772.078.355.12 2.254-.17.178.001.712-.075.237-.036.356-.038.178-.118 1.245.087.237.235.416-.2.296.038.297.234.356.076.178.078.83.12.237.037.237-.04.178-.075.415.157.297-.08.237-.195.237.08h.178l.475-.203.77-.04.179-.077.237.078.119-.08h.177l1.009.08.178.121.237.08.178-.006.118-.195.06.08h.178l.355.077.238.074.237-.036.178.08.178-.002 1.127-.07.118-.08.119-.08.415.163.415-.074.237-.038.06.038.06-.12.058.118.178.04.178-.078.237-.082.178.002.119.04.178-.116.296.082 2.55-.058.238.157.356.082h.178l.178.002h.059l.178.198.474-.078.178-.117 1.661-.034.178-.162.237.08.06-.158.059.04.711.08.178-.004.06-.12.059.04h.119l.118.002.178.078.237.08.119-.004h.178l.652.077.119-.044.296-.078.12.08.236.038.712.078h.119l.178-.082.237-.038.118-.038.297.08.534-.08.118-.038.178.038h.178l.119-.08.178-.075.474-.002.06-.12.059.08.652.08.178-.004.06-.002.059-.118.059.04h.119l.118-.04.178.122.712.037.237.158 1.72.088.178-.002.237-.04.119-.08.178.004h.118l.06.158.059-.04.237-.082.178-.035.119-.04.178.002.711-.084.238-.038 1.127-.004.118-.158.356.321.415.076.297.118.178.002.355.08.12.038.77.042.178.04.178.002.77-.036.179-.078.356.08.237.04.178-.08.178-.118h.118l.06-.04.178.158.415-.08.237-.075.119.038.178-.12.77-.044.12-.158.059.04.118-.08.237-.038.238.08.118.078.415-.162.238.038.178.082.177.116.178-.04.297.078.83.042.178.16.237-.039.119.038.178-.118.83-.038.119-.038.237.082.178.04.237-.042.178-.082.119.002.178.038.059-.12.06.038h.177l.119-.037.178.04.178-.078.178.075.178-.161h.118l.178.002.297.078.178-.005.237-.16.415.162h.178l.534.038.118.08.238-.044.177.038.12-.078.296.08 2.372-.072.178-.08.178.12.06-.2.058.12.89.003.178-.122.534.084.237.038.296.04.178.121 1.187.032.178.118.237-.156.296.12.238-.076.177.12.297-.118.237.04.237-.115.178.078.297-.078.593-.036.178-.16.474.242.475-.244.237.08.06-.118.059.078.356.08.118-.042.119-.038.178.12.534.08.474.197 1.957-.168.297-.08.533-.082.238-.195.296.078.475-.08.178.004.237.036.119-.04.177-.122 1.068.122.297.08.177-.047.12-.038h.296l.83.042.178.124.296.078.178-.004.238.042.178.082.177.038.12-.038.177.078.237-.036.297.08 1.838-.158.356-.12.119-.08.178.003 1.127-.004.059-.198.06.08.236.04 1.009.04.178.077.77.082.12-.002.177-.08.178.078.178-.04.297.12.296-.117.178.042.178-.074.534.242.296-.078.119.002.119.04.652-.08.237-.036.593.076.119-.004.118-.04.178.073.416-.201.237.035.178.04.118.038.297-.08.356.12.178.084.178.116 1.186.048.296.08.356-.034.178-.078h.178l.356-.082.534-.235h.059l.178.198.178-.002.356-.122.118.004.297-.084.118-.04.178-.082 1.187.03.177.037.475-.201.296.08.712.077.237.038.653.084.296.076.238-.078.177.004.771-.078.12-.038.236.16.238.08.237-.036.415-.002.06-.16.059.118 1.6.078.238.036.178-.118h.178l.356.04.178.078.77.044.179.078.474-.078.297-.118.237.08.237-.038.593-.035.178-.12.89-.076.118.002.475.198h.178l.178-.08.237-.042.06.038.059-.158.059.078.356.12 1.482-.135.119-.078h.178l.356.04.237.202.949-.073.237-.078.356.117.356-.078.118.003.238.041.533-.08.238-.155 1.779.038.178.118.415-.166.415.082.237.154.178-.038.475.197 2.076.042.178-.158.355.122.356-.118.119-.042.119-.04.177.12h.178l.416-.08.177-.08.178.038.06-.08.059.08.89-.084.118-.04.593.08.119.04.356-.162.415.158 1.068.082h.118l.297-.076.237.04.534-.233.296.24.534-.036.119-.04.356.118.355.082.119-.042.119-.04.237.197h.178l.237.04.178.116.356-.002.178-.158.356.118.177-.042h.178l.119-.038.06-.118.059.038.118.04.475.082.118-.002.178-.12.83-.078.179.002.237.08.118.002.475-.24.356.12.178-.08.415-.157.118.084.119-.082.237.278.178-.045.178.038.178.002.178.078.178-.12.593.04.178.076.118-.078.178.04h.119l.237.038.119.08.118.038.12-.002.058-.158.06.04.415-.078.178.002.118.038.238-.2.474.198.297-.08.178-.078 1.72-.078.118-.038.356.162.356-.122 1.423-.052.178-.08.237.084.356.118.83.08.12.082.236.04.119.04.534.084h.118l.178-.038.238.042.296-.082.89-.076.237-.033.119-.082.178-.078.474-.124.415-.16.178.116.06-.04.177.238.297.081.83.038.178.078.712.08.296.082.415-.076.178-.118.238.042.415-.084.118-.042.771-.08.238-.08.296.08h.178l.237-.08.297-.075.712-.12.296-.074.178.08h.178l.119.003.237.037.296-.002.06-.12.059.118.178.04h.178l.534.272.118-.04.297.08.415.075.119.036.177-.078.178.08.119.08.237-.08.178.038.178-.156.297.08.474-.082.178-.076.771-.086.297-.076.296.078.593.084.297.117.237-.037.178-.078h.119l.177.036.06-.12.06.12.177-.08.119-.002.118.044 1.186.034.119.038.415-.2.297.078.296-.08.178.004.178.08.178.124.475-.202.355.084.119.04.297-.078.118-.08h.119l.415.16.296-.078.356.122.356-.122h.178l.237.04.178.08.237.036.83.038.06-.158.06.04.355.084.356.12.89.08.118.038.297-.076.652-.082.119-.04.296.082.475-.036.237-.2.712-.08.237-.077.415.158.178.002.475-.078.237-.042.178-.002.949.036.178.12.415-.127.356-.122.237.038.178.04.118.078.238-.038.652-.078.237-.08.297.08.652.082.237.044.534-.08.119-.12.178.124.06-.08.118.238.652-4.265.297-.448.059.04.474-2.309.416-2.513.355-.32.119.078.593-3.832.06.4.118.396.297 2.234.059-.118.06.12.059.437.059-.28.415-2.192.06-.16.118.48.06-.122.355 2.19.06.037.059.44.059-.2.06.04.237-.799.237-.915.118.596.06-.082.118.24.06-.24.118.679.06-.282.059-.04.06.12.533-2 .06.04.296 1.196.06.04.058.197.06-.12.059-.478.06.239.059.082.237-.959.06-.04.058.28.12-.68.058.32.06-.2.118.52.06-.16h.059l.06.2.118-.237.06.436.058-.357.06-.037.06.322.058-.197.06.04.059.36.06-.083.059-.24.059.4.119-.32.059.28.06-.2.059-.037.059.357.06-.117.058-.077.12.4.058-.32.119.36.06-.36.059.242.118-.358.06.24.118-.12.119.519.06-.362.058.317.06.12.059-.28.119.36.059-.28.06.12.059.162.059-.437.06.28.058.16.06-.32.06.12.058.24.06-.24.059.197.06.317.059-.277h.059l.06.397.059-.162.059.08.06.277.118-.277.06.12.058-.2.06.16.059.359.06-.158h.059l.059.32.06-.238.059-.04.059.32.06-.16.058-.2.06.28.06-.2.058-.12.06.362.059-.162.06-.12.059.397.059-.117.06-.08.059.28.059-.2.06-.36.059.283.059.082.06-.277.058.32.06-.16.06-.318.058.083h.06l.059-.12.119.437.059-.28.119.4.059-.28.06.2.058.042.06-.237.06.16.058.237.06-.32.059.082.06.198.059-.238.118.358.06-.238.118.32.119-.282.06.277.058-.28.06.12.059.36.06-.202.296.444.118-.24.06.24.06-.197.058-.003.06.28.059-.16.06.08.118.319.06-.12.059.317.059-.2.06-.16.118.355.06-.08.058.278.06-.158.059-.36.06.28.059.08.059-.28.06.24h.059l.059-.16.06.28.059-.043.059-.237.06.202.058-.002.06-.2.118.277.06-.237.059.08.06.12.059-.2.237.521.06.08.058-.32.06.163.06.157.058-.197.119.317.06-.237.059.197.059.242.06-.237.059.038.059.279.06-.16.296.397.118-.314.06.36.059-.238.06-.12.059.16.059-.158.06-.04.118.318.06-.12.058.28.06-.08.178-.164.059-.038.06.237.059-.08.059-.04.118.16.06-.237.118.317.06-.24.059.24.06-.12.059-.2.059.2.06-.122.059-.16.118.397.06-.2.118.198.06-.24.059.2.059.04.06-.162.059.037.059.16.06-.16.059.12.059.12.119-.282.059.12.06-.158.058.118.06.317.06-.237.058-.003.06.36.059-.08.06.038.059.237.118-.36.06.16.059-.12h.06l.058.24.06-.078.06-.037.058.239.06-.117.059-.04.119.16.059-.2.06.237.059-.082.059-.12.06.16.058-.082h.06l.06.2.058-.08.06.082.118.441.06-.24.059.16.06.04.059-.2.118.238.06-.24.059.12.06.003.058-.12.119.32.06-.16.118.44.06-.119.118.277.06-.197.058.038.06.24.06-.28.058.08.06.12.059-.158.119.322.059-.16.06.12.059.12.118-.16.06.197.059-.16.06.038.058.2.06-.12.296.244.119-.16.06.2.059-.12h.059l.06.16.118-.322.118.28.06-.04.059.2.06-.12.059-.16.059.241.06-.037.059-.04.118.158.06-.16.118.2.06-.24.059.078.059.002.06-.158.118.28.06-.2.059.08h.059l.06-.118.118.275.06-.24.058.16.06.08.059-.12.06.12.059.12.059-.158.119.242.059-.122.06.122.059.08.059-.12.06.12.058.118.06-.08.059-.04.06.28.059-.08h.059l.06.16.059-.12.296.244.119-.12.06.2.058-.08.06-.002.059.118.06-.158.059.04.118.16.06-.12.118.241.06-.04.059.158.06-.082h.058l.238.36.059.04.06-.198.059.16.059.078.06-.12.058.12.594.435.059-.2.06.04.058.082.06-.12.06.04.058.16.06-.12.118.239.06-.12.237.082.06.16.058-.12.06-.082.06.16.058-.038.06-.04.059.2.119-.08.178.12.059.078.118-.195.06.16.06-.038.236-.16.06.16.059-.08.178.2.178-.123.118.04.06.042.059-.12.06.08.118-.08.119.242.118-.042.237.238.06-.12.06.118.236.035.119-.117.06.201.059-.077.355.117.238-.038.059.158.06-.158.118.04.237.156.178-.118h.06l.237.362.118-.123.06.12.118.04.06.12.059-.082.178-.082.593.004.118.28.06-.082.533.076.475.277.06-.12.058.042.12.04.236.08.06.08.059-.08.297.086.118-.12.119.124.059-.04.178.12.119.12.059-.122.06.04.118.002.06.12.058-.082.238-.036.296.28.237-.118.178.078.356.12h.06l.177.12.178.08.178.117.178.002.06.12.059-.04.77.002.238.238.06-.042.059-.238.059.08.356.12.237-.04.178-.004.178-.158.356.158.237-.08.06.08.059-.082.237-.08.356.118.237-.087.06.08.059-.082.177-.117 1.127.12.178.08.356-.12.89.08.118.081.178-.04.178.116.415.08.297.082.119.08.178-.004.177-.118.356.12 1.839-.158.534-.273.237.081.415-.197.178.002.119.042.118.042.119-.04.593-.078.178.003.178-.04.178.2.533.08.178.117.356-.122.297.078 1.067.12.178.04.238-.242.415.157h.178l.118-.002.178-.078.119-.001.415.16.296-.083.178-.118.653-.081.237-.04.237.08.356-.16h.356l.237.078.178.08.178-.118.415.08.119.076.06-.16.058.121.356.162.237-.04.238.156 1.067-.078.238-.04.177.08.416-.124.178-.156.177-.002.594-.084.177-.076.178-.002.593-.077.12.042.414.16.534.084.178.037h.297l.237-.035.415-.044.06-.16.059.12.296.08 1.364.151h.178l1.839-.074.178-.077.118.001.06.04" clip-path="url(#pa07a1ccc3f)" fill="none" stroke="#ff7f0e" stroke-linecap="square" stroke-width="1.5"/><path d="m73.833 152.09.474-13.534.416-5.43.118-.187.06.215.118 1.796.237 17.815.534 45.846.475 7.15.711 5.774.712 4.103.475 2.173.177 1.599.178-1.295.119.43.356 1.479.178.047.593-.514.06-.12.058.12.238-.282.178-.36.533-1.648.06.038.237-.718.178-.679.178 1.899.06.087.296-.55.296.754.178.202.83 1.522.119.08.415.644.119.075 1.245 1.506h.06l.296.394.356.193.06-.12.059.12 1.127.627 1.838.094.356.12.593.086.237.16.356.122.415.08.238.077h.118l.534.236.178-.122.593.084.237.158.06-.16.059.08.83.521.178-.16.474.24.297-.08.237.082.297.12.534-.32.177.082.297-.242.237-.044.237-.238.178.043.475-.198h.237l.178.16.534.08.474.196.119.04.534.243h.118l.178.116.178.08.356.32.474-.045.06-.118.06.08.177.04.178.24.06-.083.236.08.356-.322h.178l.89-.08.712-.355.118.08.237-.042.12-.08.177-.121 2.016.157.416.156.178-.038.415.16.118-.04.178.277.119-.238.06.08.296.08.118.08.178-.078.119.123.237-.28.415.16 1.246-.078.178-.36.059.082.237.038 2.254.083.83.437.06-.08.059.08.178-.003.178-.035.118-.002.238-.16.355.12.238-.122.118.04.238-.238.355.12.238-.08.118-.04.237-.158 1.84.045.118.122.237-.04h.119l.118.002.178.04.178-.076.119.04.059-.077.178.12.237-.08.475.244.118-.002.178.157.415.165.356-.082.297-.08.355.117.653.076.178-.003.415-.124 1.008-.521.178.12h.178l.119-.04.178-.116.177-.002.12-.04.296.118.355-.115h.178l.119-.04.237.155.178.08.415.2.178.004.712.395.178-.082.118.04.297-.162.297.24.177-.087.356-.076.178-.08.297-.08.178-.077.118.155.297-.277h.119l.415-.156.178.043.118-.12.119.042.712-.075.237-.043.237.078.237.036.356-.123.178.078h.178l.296.08.356-.005.119.118.119-.04.177.04h.12l.236.078h.119l.178.2.237-.08h.119l.059-.08.06.082.177.082.356.162.356-.122.237.038.297-.038.178-.118.77-.077.297-.074.297-.08.534-.275.415.162.237-.035.83-.005.178.122.237-.04.178.114.178-.08.119.04.474.037.119.118.119-.162.059.08.296.08.178.12.356-.036.237-.16.534-.002.06.118.059-.08.296-.118.238.04.415-.075.237-.156.652-.321.356.042.178.12.356-.116.119.04.118-.08.475.198.178.082.415.158.178.037.237.2.119.04.296.237.119.042.593.076.178.077h.356l.059-.157.06.08.177.08.237.04.119-.08.297.117.415-.162.118-.08.475-.28.178.04.533-.236.12-.083.177-.117.178.038h.178l.415-.082.297-.078.474.082.237.077.06-.04.118.12.119-.082.237.24.119.08.296.237h.06l.177.28.06-.04.118-.04.119.04.178-.078.178.038.178.002.118.158.06-.04.118.04.653.077.059.12.06-.08.237-.157.474-.08.297-.32.118-.038.297.078.237.038.237-.078.119-.2.06.082.77-.08.119-.157.178.08h.475l.236.04.297-.002.178.12.118-.08.119-.038.475.195.237-.082.356.164.237-.04.178.156.178-.08.593.082.06.12.058-.04.297-.278.356.12.178-.035.059.04.178-.24.178.004.118-.08h.178l.356.003.178-.238.237.04.238-.08.118-.04.178-.08.119-.16.237.16.237.039.534.073.178.075.356.12.118.04.178.08.119.04.178.115h.06l.236.24.593.28.416-.163.355.12h.06l.06.12.058-.04.238-.158.89-.042.177-.118.237-.04.178-.117h.356l.178.122 1.66-.157.06-.08.06.08.652.077.356.12.89.038.118-.002.118-.202.06.08.296.082.06.08.059-.08.237.077.06.08.059-.08.178-.16.178-.002.593-.084.237-.317.237.04.415-.078.178-.28.06.042.77-.077.12-.04.177.164.237.08h.119l.119.002.177.002.12-.077.236.284.712.08.237.157h.119l.356.122.296.078.119.038.415-.202.475.24.177-.247.06-.08.06.08.355.12.237-.04.178-.08.178-.117.297.08.415.004.178-.198.474-.077.237-.038.119-.042.119-.04.059.082.06-.08.355-.082.178.002.297.045.118.08.119-.002.178.04.178-.12.237.037.178.08.356.116.237.08.178.04.178.002.474.04.237.16.238.042.178-.085.059-.157.06.12.236.08.119.08.297-.08.118-.08.178-.198.237.038.238-.08.177.002.06.078.06-.08.177-.078.237-.082h.178l.297-.047.178-.24.118.16.178-.082.237-.08.297.083h.119l.118.162.06-.04.593.279.237.08.77.399.179.084.118.038.178-.117.178.04h.119l.118.077.178-.157.178.08.119-.202.06.08.77-.082.237-.202.356-.08.178-.078 1.72-.04.119-.08.237.042.771.083.178.035h.178l.118-.002.06-.04.178.2.356.122.177.037.178.158.238-.084.355.12.178-.08.238-.04.118-.12.178.08.119-.038.237.042.237.08.297-.237.296-.08.356-.076.178-.197.771-.042.119-.2.118.244.06-.04.237.078.119-.04.177-.082.12.002.118-.16.178.2.118-.002.178.08.178-.158.178.078.119-.122.178.197.059-.08.06.08.177.08.415.162 1.068.08.06.12.058-.08.416-.202.474.238.237-.158.297-.12.118.04.238-.16.118.118.238-.278.177.08.297-.122.178.003.356.037.178.08.356-.115h.178l.237-.042.296.077.178.118.356-.002.178.117h.178l.237.036.178.082.534.077.415.238.178-.08.178.2.237-.04.119-.04.178-.076.533-.077h.178l.238.084.177-.08.594-.073.355-.118h.178l.178-.28.178.083.237.08h.119l.356-.12.415.078.237.04.297-.083h.178l.237.038.593-.002.119.162.059-.042h.119l.178.04h.177l.12.04.236.04.178.08.06-.16.118.16.237.08.238.04.118.041.119.08.296-.24.178.08 1.424-.068.178-.158.296.12.415-.162.06-.003.118-.2.237.243.297-.04.06-.12.059.04.355.038.12.115.118.038.237-.08.119-.042.178.117.177-.08.06.12.059-.042.297-.12.711.358.119-.04.415.16.415-.08.178-.198.237.08.119.162.06-.08.237.044.059.08.237-.237.475-.127.652-.31.534-.078.118-.16.238.16.949.078.296.16.06-.08.059.082.474.237.119-.082.178.118.711.355.475.037.06.12.058-.042.178-.042.119.16.06-.083.118-.24.06.12.474-.081.118-.038.119.122.237-.24.415-.08.178-.12h.178l.475-.2.118.04.178-.159.119.082.178-.16.474.202.178-.08.178-.002.119-.08.118.04.238-.04.652.042.296.238.653.089.178.075.118-.038.593.045.178.202h.178l.119.04.178.08.237.04.297-.036.118-.277.06.08.296.04.06.08.059-.083.296-.082.119-.2.06.042.77-.084.356-.117.652-.085.119.04.178.118.237-.042.178-.118.297-.002.118.2.06-.042.059-.04.178.16.118-.04.12.04.177.077.178-.117.178.075.296.12.119.042.178.078.296.082.356-.118.475.042.06.08.058-.08.119-.04.178-.077.474-.2.356-.038.06-.12.059.04.356-.04.178-.075.178-.04.059-.12.06.04.177.16 1.483.077.296.08.593.078.475.193h.06l.118.12.237-.04.178.042h.178l.178.036.118-.16.06.04.356.12.178-.084.118.042.06.08.059-.08.178-.2.296.08.119-.04.178-.12.178.042.296-.237.356.12.297.004.118-.16.178.122.237.08h.119l.178.007.119-.085.118-.12.119.12.237-.042 2.076-.05.118-.04.12.04.236.077.06.12.059-.04.119-.12.059.12.89-.076.118-.04.356.16.237-.038.119-.04.237-.237h.178l.593-.08.237-.036.653-.084.178-.078.178.118.296-.042.119-.12.474.28.178-.002.119.12.118-.04.238.121.118-.117.237.155.178-.04.415.202.178.003.119.077.119-.118.178.12.77-.08h.238l.118.04.475-.04.178-.197.178.078.237.04.771-.442.534-.035.178-.12.178.124.118.038.119.08.237-.158.356.08.237.038.119-.04.296.244.593.077.356.16.178-.004.119.08.118-.043.238-.04.178.04.177.12h.178l.119.118.474-.238.12.08.236-.122.119.162.06-.08.177-.12.119.118.178-.12.474-.073.119-.04.77-.08.179-.16.474.236.119-.08.237.12.119-.04.237.042.178.08.652.315.119.038.178.08.237-.038.356.084.06.12.058-.04.178-.078.534-.082.119.043.118.037.119-.28.06.08.177.04.119-.037.119-.08.237-.16h.06l.236-.4.06.04.711-.046.119-.16.119.042.711-.12.119-.12.178.125.178-.002h.178l.474.082.178.08.119.04.118.12.178-.078h.178l.119-.04.178.12.059-.04.119.16.593.082.415.24.178-.08.296.237.119.002.06.12.177-.12.297-.12.237.158.296-.045.238-.317.593-.085.593-.28.118.04.238-.196.178-.08h.118l.178.04h.119l.118.08.475-.193.237.28.534.241.237.036.119.037.178-.04.533.278.119-.038.178.078.119.08h.178l.118.08.178.077h.178l.06.12.059-.04.474-.28.178.08.178-.038.178.04.178-.117.178-.08.118-.04h.119l.178-.115.118.117.238-.277.118.08.475-.195.118.04.178-.2.178.117 1.068.038.178.12.118-.04.238.036h.178l.355.077.356.158.178-.078.178.12.119.04.356.04.118.04.178-.08.178.12.119-.16.059.08h.297l.237.04.118.04h.119l.178-.16.296.08.416-.085.296-.237.712-.04.118-.08.178.002.356-.08.119-.04.118.12.178-.078.178.082.297-.081.118-.083.238.162.296.12.178-.082.178.08.06-.08.059.08.178.118h.118l.534.237.119.04.118.002.178-.082.297.036.178.2.237.201.474-.08.119-.08.178.043.119-.04.118.04.178-.12.178-.078.356-.315.178-.716.237-.204.119-.477.059-.04.534-4.105.059-.08.178-.719.237-.204.06-.32.059.08.06.08.533-3.714.06-.12.177-.557.178-.04.297.304.533-2.183.475 3.024.06-.16.058.04.06.437.06-.237.474-2.547.118.6.06-.44.059.32.237 1.394.119.08.059.316.06-.279.533-1.834.178.676.06.04.059.317.059-.322.06.2.059.316.059-.24.06-.12.058.28.356-1.556.06-.043.178-.556.474 1.43.119-.437.059.36.06-.203.059-.399.118.442.06-.28.059.237.118-.519.06.32.059-.083.06-.16.118.4.06-.36.059.28.059.12.06-.36.058.28.06.08.06-.28.058.24.06.117.059-.357.119.521.059-.36.06.24.059.08.059-.356.06.28.058.439.06-.36.06-.002.058.4.06-.28.296.798.06-.12.118.278.119-.434.06.4.058-.318.06-.043.059.28.06-.2.118.482.06-.122.059-.16.059.24.06-.118.059-.077.059.397.06-.2.058-.04.06.32.06-.117.058-.28.119.44.06-.358.059.28.059-.082.06-.32.059.32.059-.08.06-.117.058.319.06-.2.06-.399.058.28.06.08.059-.237.119.397.059-.36.06.12.059.32.059-.24.118.2.06-.32.118.44.06-.36.059.12.06.04.059-.277.118.716.06-.32.059-.082.06.32.058-.28.12.397.058-.16.119.2.06-.197.059-.04.059.32.06-.278.059-.04.059.283.06-.2.058-.083.06.24.06-.12.058-.117.06.36.059-.083.06-.157.059.319.059-.2.06-.08.059.32.059-.2.06-.04.118.402.06-.24.118.317.06-.317.058.362.06-.12.059-.118.06.2.059-.08.059-.08.119.4.059-.28.118.402.06-.197.118.237.06-.28.059.123.06.2.059-.24.059.122.06.198.059-.238.118.24.06-.197.059.117.06.24.058-.24.06.04.059.357.06-.163.296.438.06-.24.058.202.06.36.06-.238.058-.04.06.28.059-.2.06.04.059.36.059-.16.06-.16.059.24.059-.2h.06l.058.357.06-.162.06-.04.058.238.06-.078.059-.04.06.24.059-.2.059-.24.119.44.059-.2.06.237.059-.082.059-.24.06.203.058.037.06-.12.118.238.06-.238.118.317.06-.2.118.357.06-.24.059.12.06.118.058-.28.06.122.06.162.058-.24.06.16.059.08.06-.237.059.042.059.12.06-.24.059.038.059.28.06-.2.118.32.06-.283.058.16.178.277h.06l.118-.355.06.242.059-.237.06.037.058.24.06-.16h.06l.058.24.06-.04.059-.16.06.16.118-.318.06.28.059-.042.059-.08.06.24.058-.078.06-.2.118.32.06-.24.059.16.06-.04.059-.279.059.24.119-.16.059.242.06-.04.059-.242.059.16.06.08.058-.198.12.235.058-.24.119.437.06-.239.059.2.059.04.06-.16.118.442.06-.198.058.12.06.04.118-.12.06.317.059-.202.06-.04.059.16.059-.16.06.12.059.24.059-.04h.06l.236.401.119-.197.06.2.059-.118.059-.002.119.16.059-.04.06.28.058-.04.06-.12.06.24.058-.08.06.042.059.24.06-.08.059-.04.118.361.06-.12.118.238.06-.28.059.2.118-.2.06.2.059-.08h.06l.118.2.06-.16.059.157.059.04.06-.157.118.437.06-.2.296.402.118-.16.06.08.059-.12.06.12.059.117.059-.12.06-.08.058.203.06-.16.06-.003.058.12.119-.317.06.12.059-.12.059.08.06.16.059-.12.059-.04.06.12.118-.28.06.2.058-.12.06-.16.059.12.119-.12.059.28.06-.08h.059l.059.2.06-.08.118.2.06.119.058-.16.06.118.059.082.237-.32.297.235.06-.16.118.28.059-.12.119.08.059-.117.06.08.059.197.059-.122.474.477.119-.04.237.519.06-.122.059.037.237.24.119-.12.059.28.06-.08.118.12.06-.12.059-.16.118.202.06-.082.059.12.06-.08.058-.04.119.24.237-.16.119.24.06-.2.058.12.238.077.059-.118.06.08.237.16.059-.12.06.08.414.2.06-.16.059.122.237.16.297-.237.237.319.296-.157.06.12.118-.24.119.042h.06l.118.12.06-.12.059.12.296-.12.119.158.237-.158.119.12.059-.042.06.12.059-.04.059-.08.06.16.058-.043h.06l.237.24.415.277.06-.12.059.04.06.08.058-.16.06.038.178.242.415.437h.118l.178.12.238.242.118-.08.237.317.119-.28.06.12h.118l.237.162.06.04.059-.122.06.04.058.08.238-.237.178-.08.296.361.178-.122.474-.197.297.08.534-.318.178.164.296.08.297-.077.118.037.06-.04.237.318h.237l.178-.12.712.397.237.04.178.28.178.042.178.116.178.08.296.241.475-.04.06-.08.058.08.297.08.178.08.178-.075.118.12.119-.16.06-.118.059.08.711-.042.238-.278.177-.082.178-.08.238-.077.118.04.237-.158.297-.08.237-.16.178.076.178-.12.178.078.771.042.178.078.593.279.475.075.415.2.237-.082.356.12.296.08.178-.005.356-.08.06-.16.059.12 1.66-.08.297-.237.178-.002.474.007.119-.12.296.118.178-.08.06.08.059-.08.119-.038.177.078.771.04.178.08.653.357.118-.04.178-.002.178.08.119.04.178-.118.415.2.593-.318.237.042.178-.082.415-.357.178-.12.297-.08.237-.038h.119l.237-.038.593.043.119.075.118-.04.119.044.83.043.237.28.89.077h.06l.118.2.119-.04.237.16.118-.082.178-.036.119.038.356.078.415.162.415-.153.237.04.119.08.237-.038.178-.002.237-.318h.178l.238-.042.296-.082.415-.2.119.04.237-.2 1.66.111.12-.04.118-.037.178.12.415.04.297.24.296.074.652.122.12.12.177-.12.119.08.118.08" clip-path="url(#pa07a1ccc3f)" fill="none" stroke="#2ca02c" stroke-linecap="square" stroke-width="1.5"/><path d="m73.833 147.5.415-11.283.475-6.129.118.014.119 1.002.118 5.795.297 30.372.237 25.966.415 8.474.594 7.862.593 3.967.533 2.873.593 3.792.06-.863.118-.347.593 2.06.238-.242.296-.28.178-.199.06.156.059-.04.237-.44 1.127-3.211.178 1.843.118-.146.178-.322.06.038.593 1.315.237.437.297.481.237.479.534.839.118.162.356.477.178-.038.296.235.238.12.237.16.119.04.355.321.475.32.118-.082.297.12.119.002.474.2.178.084.119.077.118-.04.475.477.593.078.296.078.178.04.178.202.178-.083.119.2.06-.042.177-.002h.237l.178.16.237.037.119.038.474-.198.475.282.237-.24.297.24.237-.077.415-.156.178.078h.178l.178.002.118-.037.178-.2.238.162.237.04.237-.08.119-.005.118-.16.178.162.237-.08h.12l.118.003.237.035.06-.04.236.275.06-.2.06.16.533.08.415.156.237.08.593.36.178-.078.178-.04.356.117.356-.118.178.082.77-.082h.179l.178.08.118-.042.653-.355.178.078.533-.273.178.08.712-.118h.119l.178.08.059-.08.06.08.177-.04.119-.037.593.315.06-.12.058.08.178.04.297.235.178.002.474.038.178.24.06-.08.77.042.178-.003.178-.037.178.002.178-.078.415-.037.178-.118.119.08.356-.198.178.2.118-.08.178-.117.119.117.06-.12.236-.037.297.077.119.08.178-.002.118-.002.119-.04.178.117.178-.042.178.04.118.042.119.078.178-.08.237.118.178-.078.237-.04.119.077.178-.04.296.123.119-.042.415-.078.119-.12.177.24.178-.078.238-.122.118.16.06-.08h.178l.177.078.238-.158.296.08.119-.042.237-.078.475-.202.237.04.296-.078.119-.2.06.043.177.002.178.2.356-.04.178-.122.237.08.119-.04.178.04.118.002.178.12.178.042.178.078.06-.12.059.04.415.08.415.193.237-.08.415.16.356-.125.415.12h.119l.178-.04.06.078.059-.08.177-.28.06.042 1.305.005.118-.16.06.042.237-.077.059-.08.06.08.118.08.06-.04.177.12h.119l.118-.083.178.038.119-.12.178.202 1.423-.01.178.077.178.08.178.117h.06l.177-.157.238.04.177.084.83.122.179-.002.118.042.06.08.059-.08.119.002.237.04h.118l.06.042.118-.122.238.085.237-.198.237.078.119.04h.059l.119-.162.059.042.178-.08.118-.08.238.16.237.12.178-.122.118.037.297-.24.119-.042.178.16 1.186.042.178.116.118.044.178.118.415-.2.119.084.178.003.119.082.118.158.06-.04h.059l.178-.158.178.04.355.12.12.077.236-.157.238.038h.118l.178-.118.178-.044.119-.2.059.042.356.078.118-.003.119-.037.178-.082.119-.24.059.042.712-.038.237-.2.415.198h.178l.237.082.06-.04.237.238.118-.038.593.042.297.233.119-.042.533.082.238.2.296-.078.119.04.118.12.238-.124.059.12.06-.083.236-.237.178.08.178.04.178-.005.237-.04.178-.075.297.08h.178l.237-.083.474-.195h.12l.177-.158.178.043.119-.12.237.117.178-.08.118-.04.178-.075.178-.08.06-.08.177.198.06-.002.059-.16.06.12.355.08.178.082.652.031.238.158.296.12.178-.04.771.441.415-.195.178.12.238-.16.118.08.178-.118.119-.036.356-.08.177-.155.12.042.177-.16.237.04.237-.04.238-.161h.118l.119-.04.178.16 1.483.077.118.036.178.086.178.038.06-.158.059.12.415.085.118.08.06-.08.118.16.06-.042.237-.08.415.155.178.004.119.078.177-.12.238.04.237.16.119-.076.118.158.237-.202.238.04.296-.04.119-.118.118.038.178-.118.416.198.237-.073.118.035.119-.24.06.122.533-.08.415-.202.237.036.178-.04.119-.08.297.235.118.04.178.116.06-.12.059.08.178-.04.118-.04.119.04.237.038.178.075.297-.124.593.32.237-.158.415.156.178-.038h.119l.178-.198.83-.033.178-.156h.356l.059-.12.06.038.177.002.415.045.178.12.119-.04.178-.076.296.08.178.076.178-.08.593-.002.178.195.534.082.119.04.118-.04.178.076.06-.002.177-.118.178.08.238.035.177.002.12-.08.118-.077.356.117.474-.08.119-.117.415.16.296-.122.119.04.178-.078.415-.04.119-.12.178.082.118-.24.06.04h.118l.119-.04.296-.082.119-.037.119.04.177-.16.06.122.06-.042.177-.003h.119l.237-.035.118.08.178-.156.178.08.415.078.178.12.119-.042.297.117.177-.038.475.198.06.002.118.2.06-.082.236-.036.178.04.178.12.119-.04.356.118.474-.04.119-.078.415.167.712-.04.178-.118.178.08.593-.08.178-.242.177.044.12.042.236-.08.119.04.119.078.355-.124.06-.002.059-.12.06.118.118.04.119-.12.237.2.178.04.178.073.474.08.475.233.296-.122.415.16.238-.078.177-.12.712-.075.297-.078.593-.078.237-.317.356.12.118-.08.238-.04.356.117.118.04.237-.08.119-.037.356.078.178-.003.06-.12.118.16h.059l.119-.2.059.08.178.078h.118l.12.202.058-.042.416-.162.237.16.474-.078.119-.04.119.04.237.237.711.004.178.12.238-.082.059.12.06-.082.177-.198.83-.033.12-.04.296.08.652-.354.178.035h.178l.415.162.119-.04.237.282.06-.12.058.04h.178l.06-.12.059.08.237.198.119-.118.178.158.06-.003.058-.157.06.04.415.197.237-.04.119-.04.178-.118.356.162.237-.077.178-.005.237-.16.712-.077.237-.156.296.16.238-.155.178-.04.237-.158.356-.042.178-.12.237-.042.059-.08.06.083.415.201.355-.164.593.355.06-.12.06.04.177.158.178-.042.237.315.356.04.178.162.237-.038.06.12.059-.042.178-.124.178-.002.118-.04.119.04.178-.082.178.037.415-.16.118.16.06-.04.356-.033.237-.435.06.04.177.08.178-.003.297-.082.118-.08.119.045h.178l.178.2.118-.04.237-.036.178-.12.356.16.297-.124.118.035h.119l.237.278.06-.08.059.08.119-.04.118-.2.06.042.237.08.118.04.415-.044.12-.16.058.08.238.158h.118l.119.12.415-.24.237.084.237-.04.12-.002.177-.078.415.156.83.042.06.04.178-.163.237-.077.06-.12.059.042.177.082.297.12.178-.118 1.542.085.178.08.06-.12.058.042.356.08.178.118.475.077.237.078.119.002.178-.004.177-.118h.178l.119.2.06-.082.177-.08.119.04.415-.16.119.04.118-.003.119-.042.178.085.178-.122.474-.08.237-.073.119-.003.119-.16.059.043h.119l.296.077.119.003.178.002.178-.08 1.186-.03.118.199.593-.002.178.157.238.04.593.04.118.078.238-.042.237.08.118.12.178-.158.119.197.06-.04.118-.002.178-.198h.296l.238-.033.059.118.06-.04.296-.24.652-.042.119-.16.06.042.71-.004.179-.242.178.038h.178l.474-.047.119-.2.059.08.119.078.118-.04.178.08.119-.24.059.082.178.2.119-.08.237.156.06-.12.058.12.178-.08.119-.038.178.04h.118l.12.122.236-.04.178.118.119.042.237.2h.119l.118.12.297-.08.712-.005.178-.235.415.16.296-.08.178-.118.297.082.178-.04.178-.16h.118l.178-.08.119.12h.178l.118.04.237-.155.238-.078.356.122.178-.04.059-.08.06.08.948.036.237.2.712.08.178.077.119.038.059-.08.178.115.237-.04.119.04.237.158 1.305-.112.237-.16.178.08.118.08.238-.155.178-.037.118-.12.119.042.356-.042.118-.118.178.082.178-.12.178.078 1.72.036.06.122.059-.04.118.036.06-.158.177.24.178.04.06.08.059-.083.237.005.119.117.178-.16.474.238.119.005.118.122.297-.12.356.16.237-.076.06.078.177-.202.712.082.119.035.118-.12.119.084.474-.2.83-.046.12-.24.059.043.178.075.118-.04.178.078.297-.082.118-.12.237.202h.12l.177.118.06-.002.059-.12.059.08.178.08.118-.04.178.08h.119l.178.157.415-.162.178.24.06-.083 1.186-.037.237-.198.415-.08.178-.077.178-.038.178-.078.296.085.415-.155.06.04.118-.2.06.08.237.2 1.305.04.178.117.177-.04.238.073h.178l.474.197.297-.082.118-.117.475.195.118.002.119.08.178-.08.296.08.12.082.177-.158.119.083.059.08.178-.16.415-.04.237-.198.119.118.178-.08.178.002.237-.04.237-.235h.119l.178-.16.118.038.119-.042.593-.044.119-.04.178.08.415.08.178.2.178-.078.178.038.177-.045.12.04.118-.04.178.278.059-.043.237.202.534.043.119.042.177-.08.12.162.058-.042.356-.118.119.08.118-.04.178-.115.119.16.119-.2.059.04.415.161.771-.397.534-.077.356-.12.178.08.118.04.119-.04.178.077.237-.042.534-.002.178.28.06-.043h.118l.237.196.06-.08.059.08.474.077.297.08.177-.042h.178l.119.04.178-.002.415-.075.178-.158.297.16.178-.12.177.002.178-.158h.178l.178.08.06.04.118-.2.06.043.533-.24.653-.042.118-.038.297.082.356-.2.118.04h.119l.178.158.178-.04h.178l.118-.04.178.12.178.04.06.12.059-.042.118-.002.119.16.296.042.178.117.119-.08.178.116.178-.002.237.08.178.08.534-.276.118.08.12.04.118.12.178-.123.178.043.474-.236.119.12.178-.16.237-.035.178-.078.237-.042.178-.04.178-.117.178.037.059-.08.06.08.177.082.237.078.238-.117.118.077.178-.12.178.078 1.364.075.475.204.534-.002.118.118.178-.08.475-.24.237.08.178-.038.237.085.237-.038.297.08.118-.08.178-.035.06.037.296-.357.178.08.593-.042.06-.08.177.122h.178l.297-.16.118.118.119-.122.237.042.237.077h.297l.297.078.177.036.12-.08h.177l.06-.08.059.082.178.12.177.002.178.116.06-.12.059.12.475.277.118-.04.178.12.237-.042.297.08.06.08.058-.08.356-.08.178-.118.356.157.119-.164.059.04.415-.155.653-.078.355-.317.297.16.178-.16.178.08.118-.16.06.082.296.237h.119l.118-.16.06.043.237.082.119-.038.118.078.237-.082.12-.04.118.002.237.038h.119l.296.075.653.043.177.117.238-.077.356.197.177-.08.178.118.178-.078.297.078.474-.038.178-.075.178-.003.356-.08.356-.12h.178l.237-.041.178-.118.237.042.06-.12.059.04.178.082.237.08.415.162.356.036.119.08.237-.04.237.157.297.082.415.082.237.036.356-.002.06-.118.058.08.416-.082.178-.162.237.04h.06l.058-.12.06.04.711-.08.178-.12.178-.002.356-.08.415-.155h.178l.475.084.059.077.178-.16.949.047.118.122.119-.04.178.12.237.04.178.158h.119l.178.038.178-.005.296.082.06.12.059-.04.296.082.178.038h.178l.356.117.119-.042.178.036.355-.12.593-.073.12-.12.355.124h.119l.177-.118.12.08.177-.162.771-.073.297-.12.177-.002.178-.08.178-.12.178.038.119-.04.178.158.06-.082.177.202.297-1.476.059-.12.356-2.674.059-.122.178-.679h.06l.118-.24.06.038.058-.002.712-4.392.06.04.118-.316.297-.005.059-.437.06.12.059-.12.415-2.76.118-.475.475 2.589.118.042.06.32.06-.12.474-2.31.474 2.361.119.08.355-1.636h.06l.06-.437.058.277.06-.12.059-.4.237.917.237.716.12-.4.058.32.06-.237.118-.08.238-.836.118-.24.297.437.237.718.119-.324.059.08.06-.08.236-.722.06.478.059-.282.06-.08.059.356.059-.157.06-.04.118.602.06-.4.059.32.059.12.06-.358.058.4.06-.12.06-.28.058.282.06-.2.059-.12.119.477.059-.399.119.559.059-.28.118.397.06-.32.06.243.058.316.06-.4.059.203.06.118.059-.318.059.123.06.16.059-.28.059.24.06.439.058-.277h.06l.06.397.058-.362.06.122.059.402.06-.162.059.002.059.118.06-.24.059.12.059.282.06-.238.058-.04.06.439.06-.24.058-.002.06.359.059-.32.06-.358.059.362.059-.083.06-.117.059.357.059-.2.06-.2.058.32.06-.16.06-.077.058.357.06-.16.059-.319.119.4.059-.28.06.2.296-.52.118.358.06-.238.118.397.06-.24.118.4.06-.28.059.077.06.28.059-.277.118.561.06-.282.059.123.06.077.058-.237.119.4.119-.36.059.4.06-.28h.059l.059.28.06-.28.058.24.06.32.06-.16.118.2.118-.36.06.4.059-.278.06-.002.059.197.059-.158.06-.04.118.28.06-.2.058.24.06-.04.059-.078.06.357.059-.122.059-.117.06.24.059-.078.059-.24.119.277.059-.44.06.36.058.04.06-.24.118.32.06-.2.059.2.06-.12.059-.279.059.24.06.12.059-.198.118.357.06-.36.059.198.06.32.058-.28.119.24.06-.24.059.2.059.16.06-.28.059.157.059.12.118-.355.06.4.06-.28.058-.002.06.2.059-.198.06.12.059.32.059-.08h.06l.059.16.118-.28.06.24.118-.275.06.277.059-.12.059-.082.119.24.059-.118.06.282.059-.12.059-.24.06.2.118-.2.06.24.058-.12h.06l.118.203.06-.243.059.158.06-.04.059-.32.118.322.06-.32.059.24.118-.08.12.4.058-.28.119.32.06-.2.118.514.06-.32.059.04.059.24.06-.16.118.277.06-.16.058.04.06.08.059-.16.06.12.059.28.059-.2h.06l.059.32.059-.16.06.002.058.242.06-.12h.06l.058.158.06-.162.059.04.06.24.059-.12.059-.04.06.16.059-.12.059.04.06.279.058-.16.06-.202.06.242.058-.04.06.002.059.32.06-.162.059-.16.118.202.06-.04.118.32.06-.28.059.24.06.082.058-.16.06.157h.059l.06-.2.059.163.059.08.06-.16.118.2.06-.358.059.24.059.12.06-.2.058.16.06.08.06-.16.058.08.06.277.059-.242.237.357.06.08.059-.2.06.12.058.08.12-.162.058.24.06-.12h.059l.06.2.059-.163.237.278.06.037.118-.28.06.243.058-.2h.06l.059.198.06-.12.059-.2.118.32.06-.16.059.16.06-.08.058-.158.06.2.06-.042.058-.04.119.16.06-.118.118.317.06-.12.118.28.06-.12.058.12.06.038.06-.158.058.162.06-.04.059-.12.06.12.059.08.059-.157.119.28.059-.16.119.52.059-.12.118.159.06-.16.059.123.178.241.06.04.118-.117.06.282.059-.162.059-.003.237.36.237-.04.06.002.059.237.06-.117.059-.04.059.12.06-.08.058-.04.12.197.058-.2.06.16h.059l.06-.12.237.322.296-.04.119.198.059-.24.06.042h.059l.059-.12.06.08.118.04.118.2.06-.163.06.038h.058l.06-.118.118.438.06-.162h.059l.06.202.059-.16.118.28.119-.2.06.16.058-.04.06-.08.059.16.06-.118h.059l.059.202.06-.04.474.24.118-.08.06.16.059-.08.06-.08.118.122.237-.24.06.202.059-.122.06-.08.177.118.119.2.059-.16.237.326.356-.313.06.04.059-.12.118.28.119-.12.06.12.058-.08.83.513.12-.04.118.197.06-.042.237.362.177-.003.238.002.059-.12.06.12.059.04.237-.281.178.237.06-.002.118-.162.118.16.06-.12.059.04.178.16.237.086.237-.198.06-.157.059.08.06-.04.118.239.06-.08.118.12.06-.12.355-.075.06-.08.059.122.059-.04.06-.002.059.12.059-.04.118.08.238.037.059-.037.06.117.059-.082.118.08.237.24.06-.04.118.16.178-.12.356.075.356.238.06-.08.059.08.118-.12.06.12.059.12.06-.04.236.075.119.157.06-.04.177.24.06.12.059-.08.06-.042.236.322.119-.04.237.277.119-.04.83.44.119-.12.415.24.06-.12.059.04.296-.036.178-.198.119.04.059-.08.06.08.118.042.237-.157.119-.04.534-.235.118-.003.475-.28.059.123.06-.04.177-.003.119.04.237-.197.119.038h.178l.237.16.237-.08.119.042.178.117.177.04.12.078.118-.082.237.08.119.002.237.16.118.08.178.115h.06l.118.16.178.04.237.197.178-.122.238-.082.178-.042.355.118h.178l.06.12.059-.04.237-.198.237.08.119.08.237-.28h.119l.296-.278.416-.08.237-.035 2.669.082.533.236.12.04.177-.08.119.04.415.077.118.118.238-.042.593.084.059.08.06-.08.177-.08.415-.037.178-.078.178.002.297-.117.356.117.296-.075.119-.2.06.042h.177l.237.16.178-.118.119.122.06-.122h.118l.178.082.296.118.119-.04.237.078.297-.08.178.08h.177l.12-.038.236.035h.06l.118.2.06-.042.474.04.119.12.178-.16.237.08.06-.16.058.08.178.04.119.04.178-.003.296-.037.178-.282.06.038.89-.078.236-.042.178.08.178-.12.178.033.178-.197.237.04.297-.08.119.042.237-.002.118.162.119-.038h.237l.119-.16.296.244h.119l.356.16.237-.12.178.122.119-.04.178.16.533.08.356.12.178-.044.475.28.237-.165.118.08.416-.2.178.2.177-.085.238-.04.178-.117.178.077.296-.082.178-.073.119-.078.237-.037.178.077.593-.272.118.082" clip-path="url(#pa07a1ccc3f)" fill="none" stroke="#d62728" stroke-linecap="square" stroke-width="1.5"/><path d="M57.6 307.58V41.47m357.12 266.11V41.47M57.6 307.58h357.12M57.6 41.472h357.12" fill="none" stroke="#000" stroke-linecap="square" stroke-width=".8"/><path d="M253.42 108.18h154.3q2 0 2-2V48.468q0-2-2-2h-154.3q-2 0-2 2v57.712q0 2 2 2z" fill="#fff" opacity=".8" stroke="#ccc"/><path d="M255.42 54.57h20" fill="none" stroke="#1f77b4" stroke-linecap="square" stroke-width="2"/><g transform="matrix(.1 0 0 -.1 283.42 58.07)"><defs><path id="DejaVuSans-78" d="M9.813 72.906h13.28l32.329-60.984v60.984h9.562V0H51.703L19.391 60.984V0H9.813z"/><path id="DejaVuSans-99" d="M48.781 52.594v-8.406q-3.813 2.11-7.64 3.156t-7.735 1.047q-8.75 0-13.594-5.547-4.828-5.531-4.828-15.547t4.828-15.562q4.844-5.531 13.594-5.531 3.906 0 7.734 1.047t7.641 3.156V2.094Q45.015.344 40.984-.53q-4.016-.89-8.562-.89-12.36 0-19.641 7.765-7.266 7.766-7.266 20.953 0 13.375 7.344 21.031Q20.219 56 33.015 56q4.14 0 8.094-.86 3.953-.843 7.671-2.546z"/><path id="DejaVuSans-97" d="M34.281 27.484q-10.891 0-15.094-2.484t-4.203-8.5q0-4.782 3.156-7.594 3.156-2.797 8.563-2.797 7.484 0 12 5.297t4.515 14.078v2zm17.922 3.719V0h-8.984v8.297Q40.14 3.327 35.547.953T24.313-1.422q-8.39 0-13.36 4.719-4.952 4.719-4.952 12.625 0 9.219 6.171 13.906 6.188 4.687 18.438 4.687h12.61v.89q0 6.204-4.079 9.595t-11.453 3.39q-4.687 0-9.14-1.125-4.438-1.125-8.531-3.375v8.313q4.921 1.906 9.562 2.844Q24.22 56 28.61 56q11.875 0 17.734-6.157 5.86-6.14 5.86-18.64z"/><path id="DejaVuSans-100" d="M45.406 46.391v29.594h8.984V.001h-8.984v8.203Q42.578 3.33 38.25.954 33.937-1.42 27.875-1.42q-9.906 0-16.141 7.906-6.219 7.922-6.219 20.812t6.219 20.797q6.234 7.907 16.14 7.907 6.063 0 10.376-2.375 4.328-2.36 7.156-7.235zM14.797 27.297q0-9.906 4.078-15.547t11.203-5.64 11.22 5.64q4.108 5.64 4.108 15.547t-4.109 15.547q-4.094 5.64-11.219 5.64t-11.203-5.64-4.078-15.547z"/><path id="DejaVuSans-103" d="M45.406 27.984q0 9.766-4.031 15.125-4.016 5.375-11.297 5.375-7.219 0-11.25-5.375-4.031-5.36-4.031-15.125 0-9.719 4.03-15.094t11.25-5.375q7.282 0 11.298 5.375 4.031 5.375 4.031 15.094zM54.39 6.781q0-13.953-6.203-20.766Q42-20.797 29.203-20.797q-4.734 0-8.937.703t-8.156 2.172v8.734q3.953-2.14 7.812-3.156 3.86-1.031 7.86-1.031 8.843 0 13.234 4.609t4.39 13.938v4.453q-2.781-4.844-7.125-7.234T27.875 0Q17.828 0 11.672 7.656q-6.156 7.672-6.156 20.328 0 12.688 6.156 20.344Q17.828 56 27.875 56q6.063 0 10.406-2.39t7.125-7.22v8.298h8.985z"/></defs><use xlink:href="#DejaVuSans-78"/><use x="74.805" xlink:href="#DejaVuSans-111"/><use x="135.986" xlink:href="#DejaVuSans-32"/><use x="167.773" xlink:href="#DejaVuSans-99"/><use x="222.754" xlink:href="#DejaVuSans-97"/><use x="284.033" xlink:href="#DejaVuSans-114"/><use x="325.146" xlink:href="#DejaVuSans-116"/><use x="364.355" xlink:href="#DejaVuSans-114"/><use x="405.469" xlink:href="#DejaVuSans-105"/><use x="433.252" xlink:href="#DejaVuSans-100"/><use x="496.729" xlink:href="#DejaVuSans-103"/><use x="560.205" xlink:href="#DejaVuSans-101"/></g><path d="M255.42 69.249h20" fill="none" stroke="#ff7f0e" stroke-linecap="square" stroke-width="2"/><g transform="matrix(.1 0 0 -.1 283.42 72.749)"><use xlink:href="#DejaVuSans-84"/><use x="44.084" xlink:href="#DejaVuSans-101"/><use x="105.607" xlink:href="#DejaVuSans-116"/><use x="144.816" xlink:href="#DejaVuSans-114"/><use x="185.93" xlink:href="#DejaVuSans-105"/><use x="213.713" xlink:href="#DejaVuSans-115"/><use x="265.813" xlink:href="#DejaVuSans-32"/><use x="297.6" xlink:href="#DejaVuSans-40"/><use x="336.613" xlink:href="#DejaVuSans-103"/><use x="400.09" xlink:href="#DejaVuSans-101"/><use x="461.613" xlink:href="#DejaVuSans-110"/><use x="524.992" xlink:href="#DejaVuSans-117"/><use x="588.371" xlink:href="#DejaVuSans-105"/><use x="616.154" xlink:href="#DejaVuSans-110"/><use x="679.533" xlink:href="#DejaVuSans-101"/><use x="741.057" xlink:href="#DejaVuSans-41"/></g><path d="M255.42 83.927h20" fill="none" stroke="#2ca02c" stroke-linecap="square" stroke-width="2"/><g transform="matrix(.1 0 0 -.1 283.42 87.427)"><defs><path id="DejaVuSans-80" d="M19.672 64.797V37.406h12.406q6.89 0 10.641 3.563 3.766 3.562 3.766 10.155 0 6.547-3.766 10.11-3.75 3.562-10.641 3.562zm-9.86 8.11H32.08q12.266 0 18.53-5.548 6.282-5.546 6.282-16.233 0-10.798-6.281-16.313-6.266-5.515-18.531-5.515H19.673V0h-9.86z"/><path id="DejaVuSans-107" d="M9.078 75.984h9.031V31.109l26.812 23.578h11.47l-29-25.578L57.623 0H45.905L18.108 26.703V0h-9.03z"/><path id="DejaVuSans-66" d="M19.672 34.812V8.109H35.5q7.953 0 11.781 3.297 3.844 3.297 3.844 10.078 0 6.844-3.844 10.078-3.828 3.25-11.781 3.25zm0 29.984V42.827h14.609q7.219 0 10.75 2.703 3.547 2.719 3.547 8.281 0 5.516-3.547 8.25-3.531 2.735-10.75 2.735zm-9.86 8.11h25.204q11.28 0 17.375-4.688Q58.5 63.53 58.5 54.89q0-6.703-3.125-10.656t-9.188-4.922q7.282-1.563 11.313-6.531 4.03-4.953 4.03-12.375 0-9.766-6.64-15.094Q48.25-.001 35.984-.001H9.812z"/><path id="DejaVuSans-108" d="M9.422 75.984h8.984V0H9.422z"/></defs><use xlink:href="#DejaVuSans-80"/><use x="56.678" xlink:href="#DejaVuSans-111"/><use x="117.859" xlink:href="#DejaVuSans-107"/><use x="172.145" xlink:href="#DejaVuSans-101"/><use x="233.668" xlink:href="#DejaVuSans-109"/><use x="331.08" xlink:href="#DejaVuSans-111"/><use x="392.262" xlink:href="#DejaVuSans-110"/><use x="455.641" xlink:href="#DejaVuSans-32"/><use x="487.428" xlink:href="#DejaVuSans-66"/><use x="556.031" xlink:href="#DejaVuSans-108"/><use x="583.814" xlink:href="#DejaVuSans-117"/><use x="647.193" xlink:href="#DejaVuSans-101"/><use x="708.717" xlink:href="#DejaVuSans-32"/><use x="740.504" xlink:href="#DejaVuSans-40"/><use x="779.518" xlink:href="#DejaVuSans-103"/><use x="842.994" xlink:href="#DejaVuSans-101"/><use x="904.518" xlink:href="#DejaVuSans-110"/><use x="967.896" xlink:href="#DejaVuSans-117"/><use x="1031.275" xlink:href="#DejaVuSans-105"/><use x="1059.059" xlink:href="#DejaVuSans-110"/><use x="1122.438" xlink:href="#DejaVuSans-101"/><use x="1183.961" xlink:href="#DejaVuSans-41"/></g><path d="M255.42 98.605h20" fill="none" stroke="#d62728" stroke-linecap="square" stroke-width="2"/><g transform="matrix(.1 0 0 -.1 283.42 102.1)"><defs><path id="DejaVuSans-76" d="M9.813 72.906h9.859V8.297h35.5V0H9.812z"/></defs><use xlink:href="#DejaVuSans-87"/><use x="92.502" xlink:href="#DejaVuSans-97"/><use x="153.781" xlink:href="#DejaVuSans-114"/><use x="194.895" xlink:href="#DejaVuSans-105"/><use x="222.678" xlink:href="#DejaVuSans-111"/><use x="283.859" xlink:href="#DejaVuSans-32"/><use x="315.646" xlink:href="#DejaVuSans-76"/><use x="371.359" xlink:href="#DejaVuSans-97"/><use x="432.639" xlink:href="#DejaVuSans-110"/><use x="496.018" xlink:href="#DejaVuSans-100"/><use x="559.494" xlink:href="#DejaVuSans-32"/><use x="591.281" xlink:href="#DejaVuSans-50"/><use x="654.904" xlink:href="#DejaVuSans-32"/><use x="686.691" xlink:href="#DejaVuSans-40"/><use x="725.705" xlink:href="#DejaVuSans-103"/><use x="789.182" xlink:href="#DejaVuSans-101"/><use x="850.705" xlink:href="#DejaVuSans-110"/><use x="914.084" xlink:href="#DejaVuSans-117"/><use x="977.463" xlink:href="#DejaVuSans-105"/><use x="1005.246" xlink:href="#DejaVuSans-110"/><use x="1068.625" xlink:href="#DejaVuSans-101"/><use x="1130.148" xlink:href="#DejaVuSans-41"/></g><defs><clipPath id="pa07a1ccc3f"><path d="M57.6 41.472h357.12v266.11H57.6z"/></clipPath></defs></svg>