<svg width="614.4" height="460.8" viewBox="0 0 460.8 345.6" xmlns="http://www.w3.org/2000/svg" xmlns:xlink="http://www.w3.org/1999/xlink"><defs><style>*{stroke-linecap:butt;stroke-linejoin:round}</style></defs><path d="M0 345.6h460.8V0H0z" fill="#fff"/><path d="M57.6 307.58h357.12V41.47H57.6z" fill="#fff"/><defs><path id="m1150d2bd09" d="M0 0v3.5" stroke="#000" stroke-width=".8"/></defs><use x="73.833" y="307.584" stroke="#000" stroke-width=".8" xlink:href="#m1150d2bd09"/><g transform="matrix(.1 0 0 -.1 70.651 322.18)"><defs><path id="DejaVuSans-48" d="M31.781 66.406q-7.61 0-11.453-7.5Q16.5 51.422 16.5 36.375q0-14.984 3.828-22.484 3.844-7.5 11.453-7.5 7.672 0 11.5 7.5 3.844 7.5 3.844 22.484 0 15.047-3.844 22.531-3.828 7.5-11.5 7.5zm0 7.813q12.266 0 18.734-9.704 6.469-9.687 6.469-28.14 0-18.407-6.469-28.11-6.469-9.687-18.734-9.687-12.25 0-18.719 9.687-6.469 9.703-6.469 28.11 0 18.452 6.469 28.14 6.469 9.703 18.719 9.703z"/></defs><use xlink:href="#DejaVuSans-48"/></g><use x="145.032" y="307.584" stroke="#000" stroke-width=".8" xlink:href="#m1150d2bd09"/><g transform="matrix(.1 0 0 -.1 141.85 322.18)"><defs><path id="DejaVuSans-53" d="M10.797 72.906h38.719v-8.313H19.828V46.736q2.14.734 4.281 1.093 2.156.36 4.313.36 12.203 0 19.328-6.688 7.14-6.687 7.14-18.109 0-11.766-7.328-18.297Q40.234-1.42 26.906-1.42q-4.594 0-9.36.78-4.75.782-9.827 2.345v9.922q4.39-2.391 9.078-3.563t9.906-1.172q8.453 0 13.375 4.438 4.938 4.437 4.938 12.062 0 7.609-4.938 12.047-4.922 4.453-13.375 4.453-3.953 0-7.89-.875-3.922-.875-8.016-2.735z"/></defs><use xlink:href="#DejaVuSans-53"/></g><use x="216.231" y="307.584" stroke="#000" stroke-width=".8" xlink:href="#m1150d2bd09"/><g transform="matrix(.1 0 0 -.1 209.87 322.18)"><defs><path id="DejaVuSans-49" d="M12.406 8.297h16.109v55.625l-17.531-3.516v8.985l17.438 3.515h9.86V8.297H54.39V0H12.406z"/></defs><use xlink:href="#DejaVuSans-49"/><use x="63.623" xlink:href="#DejaVuSans-48"/></g><use x="287.431" y="307.584" stroke="#000" stroke-width=".8" xlink:href="#m1150d2bd09"/><g transform="matrix(.1 0 0 -.1 281.07 322.18)"><use xlink:href="#DejaVuSans-49"/><use x="63.623" xlink:href="#DejaVuSans-53"/></g><use x="358.63" y="307.584" stroke="#000" stroke-width=".8" xlink:href="#m1150d2bd09"/><g transform="matrix(.1 0 0 -.1 352.27 322.18)"><defs><path id="DejaVuSans-50" d="M19.188 8.297H53.61V0H7.329v8.297q5.61 5.812 15.297 15.594 9.703 9.797 12.188 12.64 4.734 5.313 6.61 9 1.89 3.688 1.89 7.25 0 5.813-4.078 9.47-4.078 3.672-10.625 3.672-4.64 0-9.797-1.61-5.14-1.61-11-4.89v9.968q5.953 2.391 11.125 3.61 5.188 1.219 9.484 1.219 11.328 0 18.062-5.672 6.735-5.656 6.735-15.125 0-4.5-1.688-8.531-1.672-4.016-6.125-9.485-1.218-1.422-7.765-8.187-6.532-6.766-18.453-18.922z"/></defs><use xlink:href="#DejaVuSans-50"/><use x="63.623" xlink:href="#DejaVuSans-48"/></g><g transform="matrix(.1 0 0 -.1 215.83 335.86)"><defs><path id="DejaVuSans-84" d="M-.297 72.906h61.672v-8.313H35.5V0h-9.906v64.594H-.297z"/><path id="DejaVuSans-105" d="M9.422 54.688h8.984V0H9.422zm0 21.297h8.984V64.594H9.422z"/><path id="DejaVuSans-109" d="M52 44.188q3.375 6.063 8.063 8.938T71.093 56q8.547 0 13.189-5.985 4.64-5.969 4.64-17V0h-9.031v32.72q0 7.859-2.797 11.655-2.781 3.813-8.484 3.813-6.985 0-11.047-4.641-4.047-4.625-4.047-12.641V0h-9.031v32.719q0 7.906-2.782 11.688t-8.593 3.781q-6.891 0-10.953-4.656-4.047-4.656-4.047-12.625V.001H9.078v54.688h9.032v-8.5q3.078 5.031 7.375 7.422T35.688 56q5.968 0 10.14-3.03 4.173-3.016 6.173-8.782z"/><path id="DejaVuSans-101" d="M56.203 29.594v-4.39H14.891q.594-9.282 5.594-14.142t13.938-4.859q5.172 0 10.03 1.266t9.657 3.812v-8.5Q49.266.734 44.188-.344T33.891-1.422q-13.094 0-20.734 7.61-7.64 7.624-7.64 20.624 0 13.422 7.25 21.297Q20.017 56 32.329 56q11.03 0 17.453-7.11 6.421-7.093 6.421-19.296zm-8.984 2.64q-.094 7.36-4.125 11.75-4.032 4.407-10.672 4.407-7.516 0-12.031-4.25t-5.203-11.97z"/><path id="DejaVuSans-40" d="M31 75.875q-6.531-11.219-9.719-22.219Q18.11 42.672 18.11 31.39q0-11.266 3.203-22.328T31-13.188h-7.813Q15.875-1.704 12.234 9.374T8.594 31.39q0 10.891 3.61 21.922 3.624 11.047 10.983 22.562z"/><path id="DejaVuSans-115" d="M44.281 53.078v-8.5q-3.797 1.953-7.906 2.922-4.094.984-8.5.984-6.688 0-10.031-2.047T14.5 40.281q0-3.125 2.39-4.906t9.626-3.39l3.078-.688q9.562-2.047 13.594-5.781t4.03-10.422q0-7.625-6.03-12.078-6.032-4.438-16.578-4.438-4.39 0-9.156.86T5.421 2v9.281q4.985-2.594 9.813-3.89 4.828-1.282 9.578-1.282 6.344 0 9.75 2.172 3.422 2.172 3.422 6.125 0 3.657-2.469 5.61-2.453 1.953-10.812 3.765l-3.125.735q-8.344 1.75-12.062 5.39-3.703 3.64-3.703 9.985 0 7.719 5.469 11.906Q16.752 56 26.813 56q4.97 0 9.36-.735 4.407-.718 8.11-2.187z"/><path id="DejaVuSans-41" d="M8.016 75.875h7.812q7.313-11.516 10.953-22.562 3.64-11.031 3.64-21.922 0-10.938-3.64-22.016T15.828-13.187H8.016Q14.5-1.999 17.703 9.063t3.203 22.328q0 11.281-3.203 22.266-3.203 11-9.687 22.219z"/></defs><use xlink:href="#DejaVuSans-84"/><use x="57.959" xlink:href="#DejaVuSans-105"/><use x="85.742" xlink:href="#DejaVuSans-109"/><use x="183.154" xlink:href="#DejaVuSans-101"/><use x="244.678" xlink:href="#DejaVuSans-32"/><use x="276.465" xlink:href="#DejaVuSans-40"/><use x="315.479" xlink:href="#DejaVuSans-115"/><use x="367.578" xlink:href="#DejaVuSans-41"/></g><path d="M57.6 307.58h357.12" clip-path="url(#pb36e282249)" fill="none" stroke="#b0b0b0" stroke-linecap="square" stroke-opacity=".2" stroke-width=".8"/><defs><path id="m562c3d0360" d="M0 0h-3.5" stroke="#000" stroke-width=".8"/></defs><use x="57.6" y="307.584" stroke="#000" stroke-width=".8" xlink:href="#m562c3d0360"/><g transform="matrix(.1 0 0 -.1 31.512 311.38)"><use xlink:href="#DejaVuSans-50"/><use x="63.623" xlink:href="#DejaVuSans-48"/><use x="127.246" xlink:href="#DejaVuSans-48"/></g><path d="M57.6 241.06h357.12" clip-path="url(#pb36e282249)" fill="none" stroke="#b0b0b0" stroke-linecap="square" stroke-opacity=".2" stroke-width=".8"/><use x="57.6" y="241.056" stroke="#000" stroke-width=".8" xlink:href="#m562c3d0360"/><g transform="matrix(.1 0 0 -.1 31.512 244.86)"><use xlink:href="#DejaVuSans-50"/><use x="63.623" xlink:href="#DejaVuSans-53"/><use x="127.246" xlink:href="#DejaVuSans-48"/></g><path d="M57.6 174.53h357.12" clip-path="url(#pb36e282249)" fill="none" stroke="#b0b0b0" stroke-linecap="square" stroke-opacity=".2" stroke-width=".8"/><use x="57.6" y="174.528" stroke="#000" stroke-width=".8" xlink:href="#m562c3d0360"/><g transform="matrix(.1 0 0 -.1 31.512 178.33)"><defs><path id="DejaVuSans-51" d="M40.578 39.312q7.078-1.516 11.047-6.313 3.984-4.78 3.984-11.812 0-10.78-7.422-16.703-7.421-5.906-21.093-5.906-4.579 0-9.438.907T7.625 2.203v9.516q4.094-2.39 8.969-3.61 4.89-1.218 10.219-1.218 9.265 0 14.125 3.656t4.86 10.64q0 6.454-4.516 10.079-4.516 3.64-12.562 3.64h-8.5v8.11h8.89q7.266 0 11.125 2.906t3.86 8.375q0 5.61-3.985 8.61-3.969 3.015-11.39 3.015-4.063 0-8.704-.89-4.64-.875-10.203-2.72v8.782q5.625 1.562 10.531 2.344t9.25.781q11.234 0 17.766-5.11 6.547-5.093 6.547-13.78 0-6.063-3.469-10.234t-9.86-5.782z"/></defs><use xlink:href="#DejaVuSans-51"/><use x="63.623" xlink:href="#DejaVuSans-48"/><use x="127.246" xlink:href="#DejaVuSans-48"/></g><path d="M57.6 108h357.12" clip-path="url(#pb36e282249)" fill="none" stroke="#b0b0b0" stroke-linecap="square" stroke-opacity=".2" stroke-width=".8"/><use x="57.6" y="108" stroke="#000" stroke-width=".8" xlink:href="#m562c3d0360"/><g transform="matrix(.1 0 0 -.1 31.512 111.8)"><use xlink:href="#DejaVuSans-51"/><use x="63.623" xlink:href="#DejaVuSans-53"/><use x="127.246" xlink:href="#DejaVuSans-48"/></g><g transform="matrix(0 -.1 -.1 0 25.433 219.82)"><defs><path id="DejaVuSans-73" d="M9.813 72.906h9.859V0h-9.86z"/><path id="DejaVuSans-110" d="M54.891 33.016V0h-8.984v32.719q0 7.766-3.032 11.609-3.03 3.86-9.078 3.86-7.28 0-11.484-4.641-4.203-4.625-4.203-12.641V0H9.08v54.688h9.031v-8.5q3.235 4.937 7.594 7.375Q30.079 56 35.798 56q9.422 0 14.25-5.828 4.844-5.828 4.844-17.156z"/><path id="DejaVuSans-112" d="M18.109 8.203v-29H9.078v75.484h9.031V46.39q2.844 4.875 7.156 7.235Q29.593 56 35.593 56q9.969 0 16.188-7.907 6.235-7.906 6.235-20.797T51.78 6.484q-6.219-7.906-16.188-7.906-6 0-10.328 2.375-4.312 2.375-7.156 7.25zm30.578 19.094q0 9.906-4.078 15.547t-11.203 5.64q-7.14 0-11.22-5.64T18.11 27.297t4.078-15.547 11.219-5.64q7.125 0 11.203 5.64t4.078 15.547z"/><path id="DejaVuSans-117" d="M8.5 21.578v33.109h8.984V21.921q0-7.766 3.016-11.656 3.031-3.875 9.094-3.875 7.265 0 11.484 4.64 4.234 4.641 4.234 12.657v31h8.985V-.001h-8.985v8.406Q42.047 3.42 37.718.999q-4.312-2.422-10.03-2.422-9.422 0-14.313 5.86Q8.5 10.294 8.5 21.576z"/><path id="DejaVuSans-116" d="M18.312 70.219V54.688h18.5v-6.984h-18.5V18.016q0-6.688 1.828-8.594t7.453-1.906h9.219V0h-9.219Q17.187 0 13.234 3.875q-3.953 3.89-3.953 14.141v29.688H2.687v6.984h6.594V70.22z"/><path id="DejaVuSans-111" d="M30.609 48.391q-7.219 0-11.422-5.64t-4.203-15.454 4.172-15.453q4.187-5.64 11.453-5.64 7.187 0 11.375 5.656 4.203 5.672 4.203 15.438 0 9.719-4.203 15.406-4.188 5.688-11.375 5.688zm0 7.61q11.719 0 18.406-7.626 6.703-7.609 6.703-21.078 0-13.422-6.703-21.078-6.688-7.64-18.406-7.64-11.766 0-18.438 7.64-6.656 7.657-6.656 21.078 0 13.47 6.656 21.078Q18.843 56 30.609 56z"/><path id="DejaVuSans-119" d="M4.203 54.688h8.985L24.42 12.016l11.173 42.672h10.594l11.234-42.672L68.61 54.688h8.984L63.282 0H52.688L40.922 44.828 29.11 0H18.5z"/><path id="DejaVuSans-114" d="M41.109 46.297q-1.516.875-3.297 1.281Q36.031 48 33.89 48q-7.625 0-11.703-4.953T18.11 28.813V.001H9.078v54.688h9.031v-8.5q2.844 4.984 7.375 7.39 4.547 2.422 11.047 2.422.922 0 2.047-.125 1.125-.109 2.484-.359z"/><path id="DejaVuSans-87" d="M3.328 72.906h9.953L28.61 11.281l15.28 61.625h11.094l15.328-61.625 15.281 61.625H95.61L77.297 0H64.891L49.516 63.281 33.986 0H21.578z"/></defs><use xlink:href="#DejaVuSans-73"/><use x="29.492" xlink:href="#DejaVuSans-110"/><use x="92.871" xlink:href="#DejaVuSans-112"/><use x="156.348" xlink:href="#DejaVuSans-117"/><use x="219.727" xlink:href="#DejaVuSans-116"/><use x="258.936" xlink:href="#DejaVuSans-32"/><use x="290.723" xlink:href="#DejaVuSans-112"/><use x="354.199" xlink:href="#DejaVuSans-111"/><use x="415.381" xlink:href="#DejaVuSans-119"/><use x="497.168" xlink:href="#DejaVuSans-101"/><use x="558.691" xlink:href="#DejaVuSans-114"/><use x="599.805" xlink:href="#DejaVuSans-32"/><use x="631.592" xlink:href="#DejaVuSans-40"/><use x="670.605" xlink:href="#DejaVuSans-109"/><use x="768.018" xlink:href="#DejaVuSans-87"/><use x="866.895" xlink:href="#DejaVuSans-41"/></g><path d="m73.833 262.84.27-20.128.029-1.907.228-17.392.043.479.142-15.327.057 5.257.1 8.62.042-3.837.086-6.69.057 3.194.1 8.9.056-2.714.029-1.118.057-3.663.057 3.016h.014l.043 1.757.17-8.807.015.16.1 5.732.057-1.108.113-5.593.029.48.114 3.035.014-1.429.014-.149.1 2.408.014-.638.014-.639.057 1.598.029-.778.071 1.758.043-.95.014-.95.071 2.555.015-1.447.113 2.076.015-1.748.07 1.917.015-.958.114 3.316.043-.63.014-.8.028 2.076.029-.629.057 1.446.057-1.119.014-.48.014 1.448.029-1.128.057 1.918.028-2.235.029 1.456.1-1.887-.072 2.057.086-.948.057 1.118-.029-1.597.071 1.446.015-.949.028 1.588.057-1.11.071 1.759.043-.019.014-1.118.071 2.236.015-.64.114 1.607.014-.638.156 3.155.015-.63.014-1.438.085.638.015 1.118.028-1.118.071 1.108.057-.949.029 2.076.014-.79.043-.16.07 1.76.015-.95.071 2.076.015-.639.113 1.768.015-.95.057-.63.028 1.271.014-.479.015 1.118.07-1.127.03.63.042.48.014-.95.029 1.269.057-1.279.028.31.014-.639.029 1.588.057-.97.114 1.42.057-1.277.028 1.738.029-.959.057 2.219.057-1.28h.014l.114 1.466.014-.8.014.95.071-.496.143 2.574.014-.008.014-.96.072 1.287.014-.639.114 2.716.014-1.12.157 1.928.014-.639.071 1.268.014-.48.114.975.014-.638.015-.648.057 1.757.028-1.119.114 1.448.057-1.269.057.639h.014l.014-.47.029 1.1.057-.48.156 2.086.029-.48.014 1.12.029-.32.1 1.136.014-.48h.014l.114 1.11.014-.48.057 1.438.014-.329h.014l.143 1.76.142 1.74-.114-1.9.157 1.588.014-.48.071 1.277.015-.479h.014l.028-.319.2 2.078.114-.932.1 1.117.014-.488.042.329.057-.48.114 1.749.014-.48.114.95.015-.31.07.63-.028-.64.071.32.072-.16-.029.798.043-.47.256 2.228.014-.328.1-.647.014.32.1 1.134.043-.345.014-.311.029.631h.056l.214 1.277h.014l.1.346.028-.48.057.816h.029l.1.638-.057-.647.07.32.03-.16.042.336h.014l.128.807.015-.168.057.497.156 1.26-.128-1.277.157 1.269.014-.32.028.808.057-.32h.015l.1.488-.058-.648.072.488.014-.16.028.648.029.302.014-.168.014-.95.086.639.014.16.028-.32.057.303.057-.791.057.471.057-.168.043.328.043-.656.07.32h.015l.029.16.042-.345.029.32.043-.808.1.017.099.302.014-.16h.014l.1.648.029-.32.028-.327.085.008.1.463-.043-.639.057.48.015-.16.042.664h.015l.042-.16.029.471.028-.016.029-.16.028.479.014-.16.129.976.028-.177.043-.471.057.479.1.151.014-.16.028-.471.071.327.057-.176.057.488.143-.79.128-1.093.043.168.014.16.057-.32.1-.622.014.328.042-.152.072.32.114-.63.028.167h.014l.014-.16.029.8h.057l.114.798.028-.176.072-.32.028.328.043-.017.085.312h.014l.072-.16.014.16.1.496.014-.168.057-.967.057.479.1.302-.043-.32.057.16.057-.47.057.311.07.488.043-.177.157-.967.029.009h.028l.043-.328.042.487h.029l.157-.958.113.95.015-.32.07-.159.03.009.17 1.117-.1-1.134.115.974h.042l.043.791.085-.328h.015l.114.48.014-.16.1-.631.028.32.043-.01.213-1.285.057.31.029-.479.057-.463.057.152.057.16.028-.152.043-.48.043.648.156.656.029-.16.028.32.043-.168.043.479.057-.462h.028l.1-.816.014.48.142.479h.015l.014.32.057-.816.028.312h.014l.015-.16.042.48h.015l.042-.01.043.48.071-.32h.015l.042.32.043-.328.028.168.043-.32.029.337h.028l.143.008.07-.783.058.32.128-1.412.057.168.128.968.014-.009.043-.48.057.328.057.48.057-.311.057-.009.17 1.27.043-.018h.015l.028.328.043-.648.028.16.171 1.102.1-.815.014.32.1.504.014-.16.029-.487.085.168h.014l.228-1.42.085.159.015-.16.128-4.593.427-32.34.071-.966.071.026.043.025.057-1.26.029 1.736.441 29.546.014.009.114.16h.057l.214 3.488.1 2.067.17-9.781.072-2.253.07.471.2 2.714.043-1.094.156-.63.186 13.125.114 2.412.014-.008.441-24.706.328-14.923h.014l.014.16.029-.48.028.02.128-1.59.029.17.043.159.042-.32.185-1.887.015.319.057-.798.014.01.028.169.029-.809.014-.16.014.33.086-.32.014.16.057-.46.014.16.043-.32.028.48.043-.328h.014l.071-.16-.042.32.057-.16.014.16.043-.49.028.32.057-.64.057.16.128.64.014-.01.057-.159.029.16.057.948.043-.47.156-1.917h.014l.114-.798.015.32.042.488.057-.32.128-.789-.057.959.072-.64.028.31.043-.319.014.16.043-.949.071.32.114.789.014-.16.029-.16.042.33.029-.32.028.799.072-.658.142-.808.114.64.014-.32.043.638.043-.17.085-.346-.057.657.071-.328h.014l.072.478.057-.179.07-.808.058.169.043.638.042-.648.029.329.128-.799.043.479.057-.3.042-.16.029.498.014.32.043-.648.028.16.057-.47.071.17.057.79.072-.32h.014l.128.808.085-.489.029.17.014.16.057-.49.014.16.043-.329.043.488.1 1.118.056-.47h.015l.1-.62.014.16.014.329.028-.489.057.16h.014l.029-.798.085.489h.015l.128-.78-.057.959.085-.79.071.16-.042-.32h.057l.114-1.127.042.478.043-.009.029.479.028-.489.043.17.042-.32.029.639.014-.17.014.31.029-.478h.043l.085-.668-.028.818.057-.178.142.488.071-.01.029 1.11.1-.329.014-.32.056.969.029-.46.014-.16.014.32.072-.141h.028l.014-.32.029.799h.043l.014.01.028.16.114-.809.1.818.028-.16.029-.639.085.338.029.32.028-.809.114-.19h.057l.029.16.028-.478h.014l.071-.32.015.489.057.319.042-.16.114-1.118.015.489.042.16.015-.33.042.32.029-.32.057.5h.014l.014-.151.029.47.057-.329.1.639.042-.17h.014l.128.931.043.639.1-.02.028-.318.086.169.1.3.014-.16.028-.319.086.17h.014l.057-.16.014.32.142-1.909.015.16.042-.639.086-.47-.043.48.071-.16.015-.01.17-1.108.015.16.057 1.099.057-.479.042-.31.015.33.042-.17.128.968.015-.32.057.799.085.48.057-.141h.028l.143.497.043-.78.057.799.042.16.015-.33.014.01.028.17.143-.978.014.16.057-.47.014.15.057-1.137.071.47h.014l.1.948.029-.488.057.31.057-.489.042-.01.043.17.043-.33.042.49.015-.01h.014l.2 1.466.014-.169h.014l.156-.948.015.32.042.469.072-.15.014-.16.028.648h.015l.014-.01.17-1.117.043.479.057-.33.057-1.118.071.489.043.32.057-.31.071-.969.057.17.029.319.071-.3.057-.63.043.639h.014l.085-.32.043.01.1.799.042-.32.043-.638.086.16.07 1.268.058-.798h.014l.114.939.028-.17.015-.168.057.32h.028l.128 1.108.014-.329h.029l.142.639.072-.639.042.48.043.318.071-.498.014.16.029-.48.028-.31.043.33.029-.16.028.478.029-.967.242-2.105.028.02.171.947.014-.01.086-.45-.029.48.043-.32.114.61.014-.318.043 1.287h.014l.214 2.104.042-.179.086-.967.043.169h.014l.014-.32.057.639.028-.16h.015l.014.64.085-.461.185-2.425.015.01.014.159.057-.488.014.16h.014l.114-.771-.042.79.057-.63.014.319.057-.488h.014l.128-1.418.071.31.114.668-.057-.818.086.668h.014l.114.808.014-.32.043.33.043-.01.085.47.043-.15h.028l.128.788.1-.648.014.319.015.32.07-.649.03.47.028-.479.085.17.029.319.057-.48.085-1.118.029.16.056.479.043-.47.029.01.042-.63.043.818.014-.01.1-.329-.043.649.057-.49h.015l.042-.799.071.63.072-.639.042.49.015-.01.085 1.268.085-.488h.015l.1 1.41.1-.33.013-.159.029.659.1.79-.072-.8.1.63.014-.31.057.958.043.16.043-.17.1-1.269.042.48.1.657.014-.48.043-.808.07.498.03.32.042-.5h.043l.042-1.127.086.169h.014l.029.16.042-.46.029.17h.028l.043.798.071-.658.114-.648.029.649.07-.658.044-.16.028.5.085.498.043-.169h.014l.057-.33.029.32.085.94.043-.489.114.817-.071-.958.1.629h.028l.071-.48-.043.64.072-.151.07.639.03-.649.127-.639.015.15.014-.009.028.01.143-.92.042.638.072-.329.114-.93.014.33.028.16.029-.33h.014l.043-.319.042.34.029-.16h.014l.014-.32.029.479.057-.151.1.47.014-.33h.014l.014-.16.029.48.014-.01.214 2.04-.186-2.209.228 1.87.072-.47.014.32.1.789-.015-.8.043.48.085-.478.029.319h.014l.114-.93-.057 1.119.085-1.11h.015l.07.16-.042-.319h.057l.014.01.086-1.09.071.48.043.478.042-.469.072-.16.014.32.17.948.015-.489.057.808h.014l.071.15.015-.319.1-.508.056 1.26.057-.32.057.16.057-.49.185.96.114-.499.014.01.157 1.297.014-.32.043-.47.1.019.014.16.014-.49h.029l.07-.169.03.169.028-.01.142-1.118h.015l.128-.658.114-.478.014.15h.014l.085.62-.056-.63.07.31.015-.328.057.499.043-.48.085.639.029-.16.028-.319.029.489h.042l.014-.16.015.48.057-.339.1.968.042-.17.086-.47-.057.63.085-.46.071.648-.043-.808.1.638.014-.8.1.32.057.48.071-.02.043-.48.057.499.014-.17.043.32.028-.48.015.01.07-.63.03.32.014.32.085-.489.043-.479.07.02.044.169.042-.329h.015l.085.19.014-.32h.029l.042.329.057-.32.057-.318.029.479.028-.01.015-.16.028.63.014.15.057-.318.014.16.029-.16.014.489.014.478.072-.639.028.62h.014l.029-.479.028.639.029-.16.028.48.057-.15.071-.649-.042.658.085-.489h.043l.014.32.071-.61.057-1.25.086.319h.028l.114-1.119.029.17.014.319.057-.648.014.32.1-.65.014.16.114 1.597.028-.32h.015l.128 1.381.028-.15h.029l.028-.479.029.648h.014l.071.95-.028-1.12.114.95.028-.479.029.639.028-.01h.028l.072-.347-.043.507.071-.338.086.479.028-.16.086-1.108.1.328h.013l.114-.958.015.17.042.168.015-.319.042.16.114-.46.014.008.029.17.043-.488h.014l.114.32.014-.32.028.648.043-.019.043.479.028-.798h.015l.1.658.028-.169.014-.01.071-.638.043.488.014.16.029-.169.07.132.072-.31.014.32.128.949.029-.31.057.01.043.957.07-.828.03-.01.028-.47.043.808.056.639.029-.649.085-.958.086.32.014.159.029-.32.042.01.214-1.428.028.02.086.647-.043-.807.086.63.07-.16.015.329.085.489.043-.028.071-.62.043.469.071.61-.028-.79.1.63h.014l.142 1.119.043-.178.085-.301.014.16.015.16.028-.18.029.02.07-.32-.042.48.086-.47.057.328.028-.319.17-1.099-.127 1.288.156-1.128h.015l.114-1.739.1.46h.013l.114-1.099.029.329.043-.01.128-.817.014.16.128.958.014-.32.057-.16.029.32.299 2.698.028-.16h.015l.128.789.07-.818.044.179h.028l.043.798.057-.32.142-1.418.014.32.072-.63.057-.959.07.48.03.479.056-.49.029.16.042-.479.029.648.014.32.071-.639.029-.479.057.649.028.009.171.949.014-.16.029.31h.014l.057 1.11.057-.32.014-.16.043.339.114.479.085-.32.015.16.114.441.042-.479.043.489.028-.16.029.32.057-.48.157-1.109.014.32.057-.79.028.32.029-.958.085.63.1.348.185-1.758h.028l.057.48.057-.34.143.79.028-.32.057.79.029-.01.1.639.028-.339.014-.16.029.8.056-.01.043.17.014-.16.029.638.1.63-.057-.64.07.48.044-.291.028.32.029-.16.113.667.015-.169.1-.77.028.16h.014l.114-.949.028.17.086.31.114-.77.014.16.043-.019.085-.488.029.319.1.619-.058-.958.086.63h.014l.057-.64.071.329.128.639.029-.639.085.14.072 1.42.057-.63.014-.16.028.649.071-.64.157.95-.1-1.288.114 1.128.114-1.617.086.489.028.319.071-.15.114-1.1.029.32h.014l.114-.658.014.01.029.328.057-.488.014.16.085-.48.015.16.128 1.269.014-.32.085-1.108.029.48.014.478.1-.338.014-.16.028.34.057-.17.029.8.085-.499h.015l.028-.16.029.48.014-.01h.014l.043.16.114-.79.042 1.118.086-.14.043-.639.042.648.057.479.057-.32.071-1.26.086.16.014.32.043-.489.028.34.043-.96.071.799.157-.509.043.808.056-.658.057-.329.015.32.1.328.014-.169.142.959-.057-.968.071.798.014-.329.029.48.071-.32.157 1.438.014-.009.085.179-.056-.498.07.338.015-.32.028.809.072-.789.014.64.1-.3h.014l.028.168.043-.638.014.01.029.32.028-.33.057.169.185-2.856.043.16h.014l.071-.32.029.16.057-.01.128.94.029-.32.028.33.057-.16.057.478.057-.15.014-.319.043.798.014-.01.328 2.518.028-.31.014.32h.043l.114.62-.014-.64.028.47.029-.338.07.169.044.479.042-.63.029.01.285-2.207.014.329.071-.489h.014l.114-1.568.057.17h.029l.085.16-.028-.65.057.63.028-.48.085.3h.015l.156 1.438-.128-1.597.171 1.419.057-.47.029.639.1 1.098.028-.169.085-.32.014.32.015.01.042-.32.043.49.029-.01.085-.47.028.16.015.16.028-.489.029.02.07-1.438.058.488.014.32.057-.649h.014l.228-1.258.014.01.015.16.042-.64h.015l.042.32.014-.33h.043l.029-.478.028.489.057-.17.128.949.015-.16.056.33h.043l.157 1.578.114.779.014-.01.014-.15.029.33h.028l.114.807.043-.169.085-.3-.042.319.057-.16.014.16.057-.15.057-.959.057.338h.014l.157-1.756.07.168.043.16.029-.479.1-.798.028.319.085.3.015-.478.1.17.042.469.071-.17.029-.159.014.32.114 1.108.028-.009.029.01.2 1.446.07-.47.029.639h.014l.057-.65.071.142.086.638.028-.489.015.01.156-1.099.029.32h.014l.142-1.448.015.32.07.469-.042-.479h.071l.029.02.028.48.086-.151.17-.809.043.63.071-.17.029-.478.057.648.014-.329.185.959.043-.01.014-.16.014.64.129.46.128.968.014-.16.085-.63.015.48.028.319.029-.489h.014l.17-1.457.058.16.014-.32.057-1.429.071.498h.014l.143-1.776.057.789.057.15.014-.32.014-.318.071.818h.015l.042.818.071-.01.029-.489.071.49.228 1.428.028-.16.015.48.07-.46h.03l.014-.32.042.639.043-.18.014-.16.015.64.057-.338.028.01.071.648.043-.33.071-1.277.086.019h.014l.028.16.015-.48.028.02.057-.789.057.488h.014l.171-1.709-.128 1.87.157-1.54.07.939.043-.63.015.01.1.959.028-.338.071-.32.029.32.185 1.398-.114-1.418.128 1.099h.028l.1.929.029-.01.085-1.258.043.638.028-.01.014-.16.015.48.014.47.043-.808.042.329.057.16.071-.64.015.64.028-.808.057.178.029-.16.028.48.014.16.029-.64.028.02.057-1.128.086.169.014.32.028-.49.043.18.057-1.11.071.48.029.479.028-.639.043.01.1.48-.057-.8.07.63.086-.968.043.64.043-.01.17 1.447.058-.18.014.48.043.61.07-.31h.015l.1.799.028-.01.1-.958.014.329.1 1.109.028-.658h.014l.072-.15-.015.319.029-.16.028.32.057-.3.072-1.25.07.328h.015l.043.16.042-.31h.015l.028-.479.043.658.014-.01h.029l.028.16.014-.489.1-.939.028.33.015.15.042-.338h.029l.028-.799.086.132.057.958.057-.329.028-.32.057.47.014-.16.214 1.907.029-.15.085-.649.028.33.143.967.014-.17.157-.798.014.15.043-.64.014.32.128-1.616.043.16.085-.62-.042.639.07-.3.086.459.014-.32.114-.938.015.479.014-.16.043.47.028.32.028-.64.057.35.029-.32.057.649h.028l.043.488.086-.188.014-.16.028.8.014-.16.015.31.014-.329.085.179.114 1.258.072-.329h.014l.057.639.085-.01.114-.799.014.17.029.16.043-.15.056-.49.057.179.072.16.114-1.56.028.169.085.31.029-.16.071-.15-.014.32.028-.15.1.47.014-.16.029-.33.042.48h.029l.157-.958.128 1.249.028-.178.014-.31.072.478.114 1.428.042-.16h.029l.014-.159.043.649.028-.33.043.01.028.64.086-.16.014-.16.029.479.042-.15.015.01.028.169.142-.94h.015l.114-2.235.057.169.113.479.015-.01.042-.64.057.63h.015l.156-.997.114 1.09.014-.32.015-.16.028.649.114 1.41.057-.48.029-.48.042.818.014-.169h.029l.1.46.028-.16h.014l.129 1.139.056-.31h.029l.057.478.057-.658h.014l.057-.64.071.01.015.32.042-.958h.029l.057-.64.057.17.057.469.028-.48.086-1.267.056.808.015.15.057-.479.07.19.044-.63.185 1.926h.014l.142.63.043-.16.014.48.015-.01.07.789.086-.15.014-.16.029.479.1 1.109-.043-1.27.071.772.313-2.827.015.16.028.478.057-.62.014.16.057-1.109.057.63.043.16.014-.32h.014l.086-.94-.057 1.11.1-.63.014.15.014-.319h.043l.028-.16.043.48.014-.16h.014l.114.789.015-.16.028-.479.071.31.057.62.057-.48h.014l.029-.478.043.629.042-.48.043.958.085-.16.015-.16.028.48.043-.16h.014l.029.47.042-.489.043.17.142.817.015-.16.028-.479.071.329.043.479.071-.32.043-.488.085.16.029.32.057-.63.057-.799.057.498h.014l.157-1.607.014.16.057.62.057-.32.014-.159.029.499.028-.01h.014l.015-.16.028.488.029-.009.07-.15.086.949.1-.499.014.16.171 1.278.1-1.428.028.478h.014l.129-.996.014.01h.014l.071.319-.043-.48.072.32.085-.959.043.338h.014l.057.32.085-.79h.015l.014-.319.043.978.028-.18.043.48.057-.47h.014l.043-.479.028.818h.015l.014-.01.057.31.028-.479h.029l.114.94.028-.488h.043l.014-.319.057.958.014-.17.029-.479.085.31.157.959.014-.01.043-.488.07.329.086-.02.029.48.114-.79.028.32.029-.798.014.01.313-2.818-.27 2.987.299-2.659.014-.009.114-.319.17.808h.015l.014-.329.057.789.014-.16h.015l.185 1.747.057-.17.043 1.118.085-.3.043.01.057-.33.042.949.072-.48.1-.478-.043.489.07-.32.015.16.028-.32.043.01h.029l.028.479.043-.639.028.17.015-.01.014.48.042-.818.043.151.071.63.057-.15.057-1.279.086.17h.014l.028.319.072-.47.17-.807h.015l.114.817-.071-1.137.1.808.013.009.057-.639.043.649.014-.01.029-.16.014.489.171 1.906.014-.17h.029l.042.31.057-.479.086.48-.043-.64.071.31h.029l.014.16.043-.658.014.33.028-.31.043.638h.014l.228-1.596.014.16.029-.639.043-.79.014.8.071-.3.014-.01.029-.33.028.48.043-.31.029.18.028-.64.028-.31.057.79.015-.32.057-.16.07.64.015-.32.043.639.028-.02.057.01.029-.32.028.65.043-.17.014-.16.029.479.042-.169.185 1.428.015-.01.028-.48.071.33.129.808.057-.79.056.64.029.318.057-.46.014.16.171-1.436.014.01.071-.949.057.338.072-.01.114-1.287.028.489.014-.01.015.15.014-.478.042.16.043-.48.057.15.114 1.277.029-.319h.014l.1 1.418.056-.338.015-.15.028.319.043-.16.1.789-.043-.959.071.63h.014l.128-.629-.1.639.115-.47.014.01.043.63.042-.64.029.16h.014l.043.32.071-.79.014.32.057-1.128.1.47-.043-.479.057.15.043.02.057-.799.057.64h.014l.043.478.057-.488.057-.649.057.33h.014l.014-.16.029.479.042-.32.1.837.043-.02.07-.638.058.169h.014l.014-.16.029.798.028.31.071-.15.015-.32.042.489.043-.33.057.79.057-.48.029-.318.028.479.057-.339.071-.018.128 1.296.114-.797-.057.967.086-.639h.042l.029.16.028-.34.029.18.071-.808.057.31h.029l.014.319.071-.64h.014l.114-.638h.014l.015.16.042-.48.029.16.043-.96.07.621.115.34.014-.01.043-.31.028.488.029-.17.014.01.057-.32.057.49.1-.357-.03.657.044-.488.185 1.137.1-1.597.028.478.1.489.014-.16.014-.488.071.497.015-.16.042.16.043-.15.057-.949.071.16.157-1.288.014.33.114 1.108.028-.319h.015l.1.64-.072-.65.1.471.142.639.014-.16.043.648.071-.159.029.16.057.809.1-.19.014.01.014-.15.043.319h.028l.057-.18.057.63.014-.319.086.169.028.32.043-.63.085-.338-.042.808.07-.799h.03l.099-.31.014.16.015.64.07-1.108h.015l.071.15-.028-.32.042.16.1-1.248.086.31.028.16.014-.32.071.31.015-.16.028.33.029-.15.057.788.057-.479.014.01.028-.49.086.78.085-.789.057.31h.014l.057.807.086-.32h.014l.114.789.014-.32.029-.178.114.648.042-.17.029.64h.014l.1-.95.042.48.072.15-.015-.32.029.15.114-.798.014.16h.014l.114-.949.014.17.015.328.07-.657.015.16.114-1.248.014.319.1.94.014-.32.1-.94.014.49.114.629.014-.16.143 1.437.057-.31h.014l.014-.16.029.799.113.469.015-.32.057.498.014-.16.128 1.099.014-.16.1-.79.014.32.014.16.043-.31.014.01.072-.808-.043.958.114-.649.028.16.043-.489.014-.01.071-.498-.042.65.085-.33.014-.01.328-2.723.1.798.028-.179.043.02.142.987h.014l.029-.179.057.338h.014l.128 1.438.015-.17.014-.479.071.977h.014l.128.63.015-.48.057.49.042-.16.029.16.028-.47.086-1.447.1.48.014.16.028-.63.014.16.057-.479.029.499h.014l.014.15.029-.648.156-1.748.072.31.028.479.029-.649.056.48h.029l.057.958.071-.639.014-.16.043.48h.014l.015-.01.227 1.427.029.01.128.967h.014l.114.488.086-1.108.057.479.085.329-.028-.48.057.31.014-.488.057.498.042-.16h.029l.014.16.043-.47.043-1.296.114.17.113-.649.015.33.014.478.085-.497.114-.94.029.33.014.15.043-.498.028.32.1-.81.014.16.029.809.1-.019.013-.16.029.639.014.16.029-.31h.014l.014-.32.014.329.086-.16.142 1.249.029-.33.085-.939.029.479.085.808-.043-.818.072.33.014-.15.043.178h.056l.086-.799.043.47.014-.009.043.47.07-.328.1-.92.043.32.071.46.015-.479.114-.968.028.16.029-.019.028-.16.028.48.029-.16.014.01.057.469.057-.31h.014l.086-.3.014.318.128 1.249.014-.15.057.009.129 1.099.014-.32.1-1.258.028.479.085.31-.028-.63.043.47.042-.61.057.478.029.32.028-.799.029.18.071-.958-.043 1.437.1-1.128h.028l.029.32.071-.29.014-.16.043.648.014-.16.086.62.014-.489.1-.63-.057.65.07-.33.03.3.028-.647h.014l.043-.16.028.32.328 2.854-.285-2.865.313 2.846.086-.63-.057.64.07-.15.115 1.109.043-.46h.014l.085.798.071-.16.271-2.386.014.01.1.329.114-1.438.028.328.086.46.014-.319.1-1.258.028.817.014.31.029-.498h.057l.085-.658.029.48.114.77.014-.32.142 1.1.015-.48.014.01.057-.798.042.798.086.46-.029-.47.043.14.014-.319.057.338h.029l.028.649.086-.508.1-1.269.028.48.014.319.043-.65.071-.789.043.179h.043l.028.16.028-.639.043-.79.014.8.043-.15.043.638.071-.488.086-.61-.029.64.057-.31.114.638.014-.319.057.659.029-.32h.014l.043-.01.128 1.428.17.79.015-.16.043.638.014-.17.028-.009.043.63.1-.16.042.16.057-.5.029 1.119.085-.179.128-1.108.015.16.014-.49.114-.619.028.32.029-.48.014.01.071-.46-.042.63.085-.31.128.659.128-1.118.057-.17.057.48.029-.32.042.657.029-.018.085-.32-.028.48.043-.31.1.938.028-.018.085-.62.029.479.028-.01.014-.32.043.959.142.826.029-.479.028.16.029.95.085-.49h.015l.07-.16-.028.32.057-.14.029.32.014-.48.043-.789.07.301h.015l.342-3.345.028.179.015.17.085-.02.1-.968.014.31.043.799.07-.48.015-.159.029.48.1 1.098.042-.178.014.01.128.478.015-.16.028.47.057-.329h.014l.043-.32.014.49.1.629.014-.489h.014l.015-.48.07.977.115.63.014-.17.114-.639.014.16.014.16.029-.799.028.02.114-.61.015.15h.014l.014.16.029-.48.056-.779.057.17.015.33.07-.818h.015l.114-1.578.043.17.17 1.427.2 2.067.043-.5.014-.16.043.63.213 1.597-.17-1.907.185 1.737.028-.46.043.488.028-.319.114.789.014-.33.1-.63.014.32h.015l.284-2.196.057-.15.043.488.157-1.287h.014l.128.81.014-.16.029-.32.042.63.015-.16h.014l.128.948.014-.16h.015l.042.789.086-.348.014-.17.043.33.085.638.029-.17.142-.948-.1 1.428.114-1.268.029.638.085-.149.043-1.118.1.329.014.16.028-.49h.015l.014-.16.014.64.057-.3.014.009.029.3.014-.319.043.16.1-1.109.028.649h.014l.029.3.057-.159.028-.648.085.14.114 1.259.029-.48.185 1.307.014-.16.014-.32.057.969.015-.17h.014l.071.94.057-.47.029-.16.028.489h.028l.1-.96.043.33.071.16.029-.18h.028l.014.16.029-.808.142-1.278.114-.79-.057 1.11.071-.78.015.32.085-.18.057-.799.057.16.014.49.071-.668.029.32.085-.77.029.488.1.94.014-.32.057.509.057-.808.042.62.043-.639.029.16h.014l.128 1.466.028-.33.015.01.1.967.042-.179.043.47.042-.639.015.17h.028l.086-.5-.043.659.071-.498.029.479.028-.64.057.339h.014l.385-3.634.014.01.128.62.029.009.042-.47.043.48.014-.17.157 1.26.043.009.299 2.216.07-.31.03.32.056-.01.029.488.043-.64.014.01.142-.958.029 1.118.1-.14.17-1.946.071.94.057-.49h.029l.071-.637-.043.647.086-.488.071.31.014-.319.1-1.118-.057 1.128.114-.658.043.32.028-.48.014-.16.029.49.085.666-.057-.817.1.639.028-.31.057.489.1.648-.028-.959.057.95.014-.16.042.648h.015l.014-.32.028.639.057-.17.029.48.043-.818.042-.47.029.479h.028l.029-.01.114-.968.028.488h.014l.086-.329.028.17.015.799.042-.959.043.02.014-.01.128-.62.086.819.028-.17.114-1.257.014.64h.015l.014-.32.028.658.072-.488.014.16.028-.48.043.17.057-.32.014.48.029-.02.128.48-.1-.64.114.63h.014l.029-.16.043.46.028-.31.171 1.736.071-.169h.043l.128.958.029-.648.056.817h.015l.042.16.015-.48.028.15h.014l.015.64.042-.958.043.16h.014l.171-1.438.014-.15.043.639.043.47.043-.64.014.01.17-.817.043-.16.043.34.029-.48.042.808h.1l.014-.16.043.638.1.978.042-.47.043-.48.043.48.085.94.086-.31.057.318.057-.479.028.48.043-.809.028.01.071.16.015-.16.114-.657-.043.808.057-.639.014-.16.029.62.028.32.043-.48.014.01.085-1.268.086.15.028.32.057-.15.043-.648.057.64.071.31-.042-.32.085.17h.014l.171-.79.171 1.089.014-.16.043.328.043-.479.1 1.108.042-.329.071-.15-.028.479.042-.16.1.3-.028-.47.042.301.029-.489.057.648h.043l.014.16.057-.47.014.32.043-.63.1.17.014.16.014-.33.057.32.043-1.129.085.31.142-.929.015.16.014.329.085-.188.114-.629.014.16.015.489.07-.818.015.16.086-.629.028.48.128 1.277.014-.479.129 1.438.057-.47.042-.48.029.64h.014l.071.61-.028-.63.057.31.014-.32.057.818.014-.32.114.34.128-.78.014.16.015.159.028-.639.1-1.287.043.64.042.797.057-.808.071-.78.057.311.072.47.057-.01.128-.64h.014l.17 1.608.03-.179.042-.63.057.81.085.957.057-.32.072-.629-.043.639.085-.15h.029l.185 9.901.37 20.528.257 10.394.028-.32.085-1.108.47-45.271.185-12.793.1-4.988.029 1.289.1 4.465.028-1.277.014 1.268.028-4.59.029.936.014-1.567.043 2.225.028-.779.1 6.042.029-1.598.014.16.142-7.673.1 5.248.043-.15.142-5.733.071 4.588.043-1.906.028.63.143-4.749.142 6.563.014.31.029-1.416.1-4.774.057 2.393.1 2.083.013-.63h.015l.1-4.137.014-1.415.07 2.518.058 1.112-.014-2.371.057 1.573.056-2.88.057.459.015.457.014-2.222.014.32.014-.32.143 5.228.085-2.424.014.79.129 6.342.014-1.907.085-3.183.029 1.26.057 2.871-.029-3.01.071 1.754.057-2.225.029 3.66.028-2.057.029.936.071-1.588.057 1.913.029-2.99.028 1.578.057 1.128.057-2.056.043-.16.1 4.444.085-2.07-.029 2.218.043-1.588.085 2.865.043-.172.086-2.686.057.629.028.15.029 3.649.07-3.182.043.788.043-1.099.071 1.747-.028-2.224.071.966.114-1.428-.028 2.066.042-1.906.014 2.214.057-3.334.029 1.599.014-.15.014.8.015 1.419.014-2.541.071 1.267.014.009.057-1.108-.028 1.278.043-.959.014 2.692.085-2.338.014-.15.086 3.34.043-1.415.014.14.043-1.756.042 2.557.015-.63.07 1.117-.014-2.066.029 1.418.1-4.743-.057 5.083.085-2.86.171-2.389.028.301.015-1.26.085 1.25.014-.009.029-3.174.085 2.063h.015l.07-4.132.058.472.028 2.215.029-4.927.028 2.995.014-1.256.029 1.748.057-.47.014.311.014-.48.015-1.575.042 2.057.029-1.596.014 2.851.071-4.451.014.169.1 1.417-.043-2.535.057 1.418.043 2.075.029-2.545.028.633.014-2.68.1 2.042.014-1.428.057 4.768.014.786.057-1.866.029 1.568.014-2.692.085 1.914.1 3.185-.071-5.088.114 3.969.128-5.22.128 4.922h.014l.057.8.029-1.887.028 1.737.086-3.197.043 2.214h.014l.1 1.905-.043-2.533.07 1.265.03-.17.014-1.585.028 3.502.057-.962.014.01.015-.47.014 1.277.128 2.565.028-1.118.015.17.014 1.736.028-5.233.029.608.014-.47.029.659.085 3.505.014-2.221.128-3.164.129 2.207.1-2.264-.072 2.423.1-1.634.028.14.1-3.012.028 4.273.1-.315.071 1.252-.014-3.17.043 1.253.028 1.267.014-.32.057 1.267.015-1.895.014-1.429.085 2.534.015-1.447.028.478.029 1.278.1-3.496.085 3.172.028-1.437.029 3.173.07-2.523.015-1.119.057 2.865.014-.47.029 3.653.085-2.222.014.01.143 3.666.014-.958.057 2.553.029-2.044.014 2.216.1-1.448h.014l.07.944-.013-2.692.028.789.143-3.68.014-.15.014 2.691.085-2.852.015-.15.014.64.014 2.693.086-3.163h.014l.071-.808.014 1.894.029-2.673.028 3.02.043-1.416.014 1.268.043-3.511.043 1.737.014-.949.028 3.808.015-.16.1 2.586.042-3.338.071 1.426.029.79.028-1.74.029.789.128-2.685.014.16.014.16.014 2.373.043-2.53.043 1.566.014-2.213.071 3.69.015-.8.156-6.67-.1 6.673.114-3.344.1 1.914.014-.48.1-1.892-.028 2.533.042-1.106.086 2.565.028-.161.043 1.278.057-2.365.057 2.844.028-3.946.029 2.524.043-2.205.042 2.843.029-2.055.028 3.66.086-2.549.028-.009.086-1.91-.015 2.055.029-1.085.014 2.042.057-2.215.043.928.014.96.028-2.064.043.95.029-2.374.028 2.684.057-.948.014 2.201.1-.33.114-2.99.014 2.52.057-1.43.014 1.745.114 2.081.029-4.13.085 2.376.086 2.669.028-.47.014-1.268.072 2.86.014-.798.071-2.532.029 2.055.014.48.028-2.537.014-.15.015 2.692.1-1.907.113-3.044.015 2.076.085 1.262.014-1.585.114-3.79.043 1.41.1 2.232-.057-2.701.07 1.434.072-1.287.014 1.436.157 2.569-.128-2.888.142 2.719.043-1.568.028 3.182.029-.786h.014l.043-1.428.028 2.205.029-.777.042 1.267.029-2.214.014 1.268.1-2.705.014 1.277h.029l.014.798.057-1.916.028.939.014-.32.043.009.014 1.895.086-2.066h.014l.086 3.662.042-1.428.015-.649.056 1.915.029-.799.214 5.257h.014l.014 1.277.057-2.837.028 1.279.057-1.128.029.788.014 1.447.071-1.915.015.31.085 2.057-.057-2.226.128.82.043 1.099.142-3.206.1 1.596.142 3.523.015-.16.299 6.233.014-.48.043 1.767.142 4.17.1.958.028-.489.014-.329.057.96h.015l.042.337.029-.638h.014l.043.159.071-.32.028-.009.072-.32.028.64.057-.649.057.47h.029l.085.48-.028-.639.07.48h.015l.185 1.277.043-.638.028.798.029-.009h.014l.071-.15.014.32.029.318.057-.328.028.15.1-.47.014.16.015.159.028-.32h.057l.214-1.41.014.63.043-1.118.042.169.043-.01.27-4.122.171-1.644h.015l.384-4.292.014.798.228 2.723.1-.291.014-.16.029.639h.014l.071.948.043-.49.028-.31.014.48.029-.01.128 2.067.029-.49.128.63.014-.319.043.658.114 1.1.028-.16.029.479h.014l.27 2.096.057-.32.015.48.028-.01.014-.008.015-.16.042.488h.015l.042.958.086-.16.057-.648.057.32.028.16.029-.658.028-.01.029.63.042-.8.029.01h.014l.185-3.166.37-17.773.057-1.756.143-4.97.128-5.454.1 4.31.014-1.288.057-1.588-.015 2.697.072-1.449.156 6.873.057-1.266.086-2.672.014 2.554.142 4.641-.114-5.587.143 4.003.014-.018.086-3.96.056.337.086 2.735.014-1.12.043.33.1-5.552.014 2.205.085-2.697.029 1.736.085-1.29.071-3.82.057 1.604.114 3.799-.071-3.979.114 3.969.128-3.968.157 7.946.07-4.128.058.79.128 3.23-.071-3.671.085 1.915h.029l.028 1.109.029-1.896.042 1.12.015-1.437.028 2.697.043-.943.071 1.754-.028-2.375.042 1.727.1-2.69.014.48.043.138.043-1.723.085 2.523.029-.479h.014l.057-1.932-.014 2.542.07-.786.043.627.015-1.596.07-1.92.015.01.014 2.349.057-2.545.029 1.098.085-2.717-.042 3.81.07-2.872.1-1.889.015 2.361.085-3.968.014-.15.086 4.118.043-2.052.014-.009.014-1.427.057 3.343.028-.937.086 2.865.028-.467.072-1.247-.029 2.533h.043l.142 3.544.029-1.906.014 3.011.057-1.746.071 1.278.014-1.427.043 1.764.114-4.303.014 1.416.043-2.364.043.005.014-.16.085 3.638.029-2.535.028 1.418.043-1.907.028.77.043-1.116.014 1.907.029-.64.028 3.005.072-2.704.028-.479.029 2.196.057 2.235-.029-3.662.085 1.596.114-1.468.043 1.755.071-1.14.043-.16.071-4.793.057.628.128-2.706.015.809.014.629.028-3.495.029-.01.1 2.219.056 1.594-.028-1.764.057.806.014-1.43.086.48.114 3.837.014-.48.07-.937-.042 2.397.071-1.118.015.009.014-.789.057 2.076.014-.949.086 2.055-.043-3.497.071 2.568.071 1.745-.028-2.064.085 1.444h.014l.057 1.443.029-3.014.128 2.54.014-.479.014-.16.015.17.042 1.749.015-2.372.042 1.108.015-.949.07 1.57.058 3.517.071-1.92.028-1.255.1 2.856.014-1.106.029 2.543.028-1.889.072 2.866.042-1.905.1 2.685.014-1.587.114-1.093-.071 2.994.085-2.824.015.309.028-1.597.029.648.085.637.014-1.576.014 1.576.072-3.52.142-2.727h.014l.015.151.142-5.596.043 3.008.014-3.01.071 2.844.114-2.377.014.32.1 3.65.057-.628.043-.62.042 1.13.015-.16.07 2.88.015-1.587.014-2.204.086 1.786.014 1.587.043-2.54.057 1.425.057-1.737.028 3.487.014-1.108.043.787.114-3.207.014 2.223.029-3.001.057 1.119.014-.15.014 1.256.057-2.387.014 1.416.029-3.194.028 4.28.043-1.106.028.46.086-2.204.014.49.014 1.894.015-2.693.07 1.099.015.009.014 1.587.029-2.066.057.163.07.31-.028-.789.043.62.029 3.321.085-2.392.1 3.995.085-.64.043-.82.043 2.067h.014l.014-.947.029 2.862.057-2.547.07 2.554-.028-3.024.057.492.015.009.014 1.578.07-2.043.015-2.213.1.995.014.15.014-.47.029.317.1-1.886.014 1.108.014.3.028-1.554.029 1.427.142-2.713.043 1.889.043-2.388.028 1.883.029-1.89.07 2.052.058 3.012.057-1.614.014-.16.1-4.292.014 2.838.085 2.062-.028-2.54.071 2.527.086-4.747.028 2.546.071 1.733-.028-2.848.071 2.718.028-1.895.086 1.432.028 1.1.029-2.993.043 1.255.128 3.211-.1-3.818.142 3.339.086-2.682.014.17.128 5.555.1-3.619-.028 4.436.042-3.34.043 1.277.014-1.736.057.787.014-.47.029 2.213.014-.47.029.33.014-2.064.057 3.184.043-2.062.1 1.415-.058-2.69.071 2.061.043 1.262.071-2.205.043-1.597.014-.78.057 2.675.015-2.043.028 3.957.085-1.58h.015l.17-3.028.015.16.085 3.03.029-2.057.028-2.066.057 2.197.029-1.1.042 2.044.057-1.766.057-.48.057 2.063.043-1.598.014-.16.071-.002.057 2.401.015.16.014 2.381.057-3.818.028.79.015-.17.1 2.383-.058-2.545.071 1.437.029.01.014-.95.057 1.588.029-.14.014 1.427.085-1.583h.015l.085 2.378-.057-3.015.085.95.171 4.232.043-1.893.043-1.118.028 1.578.029-.47.014.948.057-3.194.014.63.086-.826-.043 1.926.057-1.917.014 2.055.086-3.007.014-.328.014 1.735.057-1.576.028 1.905.057-2.226.015.32.028-.01.086 1.933.014-1.748.043-.62.014.63.028-.32.1 3.033.028-.469.015-.8.057 1.447.028-.64.128 3.187.014.3.043-1.269.014.788.1-.638-.057.64.071-.32.128 3.823.043-.94.014-.47.057 1.11.257 7.523.014-.151.014-.31.029 1.286h.014l.256 5.289h.014l.186 2.536.128-.959h.057l.042.48.072-.32.185-.95h.014l.028.32.029-.639.014-.32.1.178.014.16.029-.639.014-.47.028.79.072-.46h.085l.043-.8.07.49.1.78.015-.16.1-.639.014.16.028.648.1-.027.014-.32.043.64.057-.48.014.48.1-.028h.014l.043.958.07-.15.243-4.454.484-8.616.128 2.076.029-.48.014-.319.028.96.043-.64.157 1.24.014.01.185 2.528.3 4.922.013-.16h.015l.398 3.73.015-.16.114-1.128.042.009h.029l.156-.949.114.64.129-.649.042-.009.086-.967.07.329.015.01.029 1.278.057-1.435.142-2.392.085 1.092.015-.947.142-2.382.085.96.015-.948.17-3.808.015.14.014-.159.014.16.029 2.054.085-1.417.029 2.065.057-2.359.014.32.014.009.014-.16.029 1.576.085-1.259.029 2.206.043-2.686.028.63.014-.009.014-.16.029 1.895.057-1.896.014.15.014-.48.029 2.524h.014l.086-1.567.014.958.014.947.071-2.385h.014l.043 1.896.071-.795.114-1.426-.07 2.533.099-2.214.028 1.426.057-1.576.014.15.015-.479.028 1.746.043-.778.213 3.005-.156-3.333.213 2.226.029-.639.014 1.118.014.938.057-1.879.029.31h.014l.029 1.576.042-1.896.029.472.1-.61-.058 2.027.072-1.557.057.938.057-1.737.014.63.028-2.68.029.31.028-1.278.071-1.765.057.317.015.32.128-5.125.014-.01.37-8.324.043.31.014.96.071-2.228.015.31.028-1.256.043 1.733.071-2.862.029 1.906.042-2.054.043 1.087.043-1.272.014 1.587.1 2.08.014-.789h.014l.029-.16.014.48.071 1.897-.014-2.52.043.933.042-.63.015 1.906.014.31.014-1.745.014-.949.014 1.428.086-.972.028 3.002.086-.309.014-2.688.1.67.128 2.357-.029-2.366.043 1.27.029.798.1-3.04.099 2.375-.028-2.375.042.803.014-.47.043 2.227.014.639.029-2.038.071 1.894.014.01.015-.151.014.169.014 2.838.1-1.42.028-1.427.086.627.014-.16.114 3.975.014-1.097.214 7.644.114-.157.028-1.577.043 1.418.071 1.908.057-.137.071-.487.071 1.877.015-.15.142 3.164.085-2.695.029 1.757.014.467.043-1.727.028.781.1-1.278-.057 2.536.1-2.385.028 2.055.071-1.424.086-.592-.043 2.037.057-1.877.071 1.419.029-1.726.028-.64.043.302.028 1.575.072-1.425.014-.32.028 1.736.057-1.428.043.31.029 2.057.085-.938.028 2.533.086-2.067.043 1.416.085-2.225.029 2.365.085-1.409.1-.94-.057 2.207.07-1.735.044 1.428.042-1.718.057-.488.015.798.014.947.057-3.312.014.951.17 2.227-.142-2.386.157 1.748.086-1.388.014.639.014.789.057-2.378h.028l.129-4.904.028 1.567.043-2.695.057-.657.028 1.745.427-11.173.057 4.926.057-1.125.043-2.861.071 1.594.242-6.09.015.48.057 4.915.085-1.451.057 1.578.014.949.057-1.738.043-2.894.057 3.312.1-1.437-.072 1.767.086-1.447.057 4.122.1-1.598.014-.48.028 2.058.014 1.747.072-4.121h.014l.028-1.43.043 2.855.014-.31.014.96.043-2.06.014.479.029-1.597.028 2.695h.015l.042 1.618.057-2.707.114 1.614-.085-2.573.1 2.104.056-3.345.043 3.654.114-2.029-.085 2.368.1-1.1.056 2.695.086-.619h.014l.142 3.515.015-.639.028 2.396.114 1.76.014-.479.029 1.747.185 5.891.028-1.896.072 2.53.056.95.029-1.269.028-.638.029 1.887.057 1.608.043-1.747.028-1.118.043 2.359.014.32.057-.79.057-1.577.028 1.562.029 1.118.057-1.57.043-1.746.028 2.047.029 1.597.07-1.41.043-2.228.057 2.697.1-4.265.043 2.988.014.329.057-.612.057-2.546.057 1.888.014.008.014.169.015-.49.057-2.365.042 2.837.015.169.042-.612.057-2.535.043 2.696.028.499.043-.47.057-1.906.029 2.046.057 1.153.042-1.736.029-1.429.057 3.025.014.01.1-2.49.028 1.886.029 1.278.07-2.04.03-1.425.056 2.524.014.018.086-5.255.057.966.114-5.398.028 1.417.029.648.014-2.852.114-2.873.028.938.015.64.028-3.003.2-5.596.085 3.339.028-.956.029-.818.043 2.045.014-.16.014.17.029-.79h.014l.028-2.541.071 3.152.1-1.924-.071 1.933.1-1.151.042 2.88.072-1.916.028-.817.029 1.885.028 1.925.071-2.525.114 2.872.043-.788.014-2.542.057 4.272.029-.45.085-2.696.043 2.066.014.787.071-2.2.043-1.726.043 3.006.057.506.014-.32.057-2.852.057 2.045.014.01.014.168.029-.15.028-3.17.071 3.648.029.009.057-1.435.014-1.268.071 2.527.057.308-.028-.618.042.299.029-.799.028.928.086 1.596.014-1.116.043-.479.014 1.587.142 2.507.029 1.258.157 4.61.07-1.249-.042 1.419.057-.15.242 5.608.057-1.247h.028l.015.96.085-1.1.043-.948.028 2.046.029.658.057-1.42.043-2.524.042 2.685.014.48.057-.94.057-3.173.072 2.218.028.338.014-.639.043-2.384.043 2.844.014-.32.014.01.086-1.885-.043 2.373.071-1.114.029 1.418.07-1.258.044-1.267.028 1.728.057.966.028-.967.043-2.054.043 2.514.028.648.043-.95.057-1.905.029 1.728.042 1.126.057-.787.029-2.385.057 3.482.014-.31.071-1.878.029-.958.042 2.506.015-.31.07-1.259.03-1.597.042 3.305.014.479.071-1.1.043-1.286.043 2.187.028.178.029-.169.057-2.713.042 2.825.029.169.014-.799.2-8.661.028.31.071.59.114-7.986.029 1.89.057-3.485.227-6.404.057 2.048.029-2.534.028.95.029.637.128-3.014.014-.15.1 3.365-.057-4.003.071 3.057.128-3.185.1 3.522.014-1.277.114-4.295.014.009.114 5.267.029-1.406.128 2.366.057-1.736.028 2.683.029-1.408.057 3.644.071-.476.028-1.258.029.47.114 6.388.028-1.566h.015l.114 2.525.07-2.994.043.34.015-.16.028.79.086 1.596-.043-2.074.057.326.114-2.367-.043 3.632.071-3.172.014.948.029-1.575.057.297.057-1.429.014 1.886.014.47.015-1.577.014.019.043-2.394.057.62.014 1.894.07-4.12.015 1.894.071-.488.029 1.276.043-4.14.085.314.029 2.861.085-.32.014-.16.114-3.471.014.168.015.937.014-2.222.085 2.044.057-2.206.029 2.043.085 1.756.014-.479.029-1.607.057 4.14.028.32.029-2.215.085 1.255.014-.009.1 2.878-.057-3.824.071 3.504.057-2.725.043 2.693.029.8.014-1.747.042.3.015-2.86.1 1.596.014.639.028-2.384.071 1.896.015.16.014-.95.014.48.029-2.532.042 2.826.029-.781.028.63.029-1.886.014.159.028.948.114 2.395-.014-2.545.043 2.396.043-1.429.042-.947.071 4.44.072-3.648.042 2.214.1-2.374-.071 3.014.085-1.587.071 2.062.043-.648.014-.16.015.15.085 2.234.029-.3.085-2.855.043.32.042 2.085.057-3.005.043 1.417.071-1.114.1 1.775-.071-2.066.114.82.2-6.841.028.45.114 2.544.128-3.995.014.16.028-2.846.1.935.057-1.748.014 1.747.114 2.851-.057-3.165.071 2.058.015-.16.028.629.029-.48.07 2.888.072-.797.029-1.727.014 2.839.17 5.105-.113-6.985.142 6.816.086-.804-.015 2.063.029-1.734.014.469.043-1.897.014-.47.028 2.512.015.009.028-2.045.086 1.278.028.947.043-2.053.028 1.247.114-1.266-.085 2.054.1-1.724.014 2.21.085-1.247.057-2.367.029 2.373h.014l.014-.16.014-1.576.057 2.843.015-.31.1 1.435.028-.169.014.32.014-1.893.029 1.098.042-3.036.072 1.603.042 1.902.015.32.028-2.67.085 1.565.029.947.043-2.046.028.929.114-4.253.014.48.029.629.014-1.596.014.01.014.008.086-2.544.028 2.052h.015l.028-2.84.057 3.15.014-.16.043.61.028-2.217.043 2.68.043-.778.043-2.074.057 2.495.014-.32.014.65.1 2.375-.043-3.793.057 3.303.085-2.383-.028 2.392.057-1.764.057 1.755.028-.639.057.338.072-3.316.028-1.735.043 2.855.028-.31.114 2.236-.057-3.502.071 2.713.072-1.738-.043 1.917.057-.33.37 7.872-.313-7.902.327 5.996.015-.935.056 2.356.029-.77.028-.008.1-1.427.014 1.117.015.15.014-.639.014-1.894.057 2.386.029-.62.1 1.448-.044-3.005.057 2.845.072-2.194-.043 2.202.085-.784.015 1.598.07-2.516.015-1.118.029 2.682.07-1.92.03-.17.013-2.846.1 1.107.029-1.758.028 2.374.043-.32.014-.009.157-3.821h.014l.028-.48.029 2.672.071-1.926.029-1.417.028 2.376.043-.468.142 4.297-.114-4.456.157 3.981.014-2.066.086 2.229.028-1.897.029 2.533.014-.32.014.64.014-2.679.029 1.4.028-1.92.029 2.217.042-.328h.015l.1-3.774.028 1.088.014.02.014 1.437.086-2.046.085-1.096.057 3.96.171-5.231.057 3.966.071-.948.029-1.4.028 2.064.071 1.114-.028-3.465.071 2.667.085-1.416-.028 1.417.043-.31.014.478.028-.009.1-2.373.014.01.015.47.042-2.227.071-.306.072 2.224.1-2.055-.03 2.215.044-1.436.114 3.632-.072-4.747.114 3.478.128-4.444.015 1.242.185 3.699.028-4.106.086 2.052.014 1.428.028-2.384.072 1.904.014-.15.1-6.365.014 1.907.014.789.057-2.703.014 1.587.029-.319.014 3.157.085-3.498.086-1.588-.043 3.172.057-2.702.057 4.575.071-2.2.057 1.407-.028-1.425.042 1.106.015-1.735.07 1.402.03 4.445.099-.454.142 3.798.015-2.055.085.971.029 2.532.028-3.161.043.123.014.009.028 3.327.086-2.052.085-1.427-.042 3.81.085-3.65.029 3.009.085-1.386.1-1.575-.057 3.65.085-3.331.157 4.948.028-4.121.086 2.534.07-.948.015 1.268.029-.63.014 3.012.071-3.81h.014l.015-.16.028 1.736.085-.817.015-.15.014 2.691.085-2.402h.015l.028 1.734.057-2.523.014.619.029-.639.014 3.011.057-1.907.043-.169.028 1.427.057-2.843.014.788.029-.789.014 2.693.014.148.086-1.904.014.32.014 1.265.057-2.866.029.789.014.17.028 2.225.072-2.524.17 3.501.015-1.723.042-.31.029.629.014-.15.143 3.797.057-2.045.042.31.029 2.225.07-2.706.015-.48.014 1.109.057 2.56.057-1.418.185 4.623.015-.15.042-.33.015.17.142 2.694.014.01.157 2.265-.114-2.727.185 2.239.057-.32.014.959.1 1.269.014-.479.071-.8.043.32.114 1.588-.071-1.747.114 1.437.071.009.071-.65.128.949.043.319.071-.639.043-.16.128 1.748.043-.32.014.32.143 1.1h.028l.014-.16.029.49.156 1.108.257 2.058.014-.16h.014l.128.959.015-.01h.014l.2 1.456.013-.16.086-.63.028.329h.015l.128-.95.042.169.072-.169.185-.987h.042l.043-.479.071.32.029.16.028-.178h.029l.043-.32.028.32.029 1.11.085-.48.028-.328.072.169.114.649.042-.01.071.01.057.808.072-.31.042.01.086.478.014-.32.043-.479.071.16.114.48.128-1.091h.014l.057.16.029-.16.114-.809-.043.968.071-.63h.014l.185-.959.043.17.043-.311h.028l.029-.32.043.63.028-.31.071.461.057-.009.057-.79.057.48.029.49.085-.347h.014l.015-.16.014.479.1.648.028-.009.014-.328.057.479h.014l.129.479.042-.63.071.328.029.16.014-.32h.057l.043-.169.057.178h.014l.043.32.028-.48.086-.32.014.169.014.169.057-.488.014.16h.015l.042-.959.072.16.156 1.1.071-1.425-.042 1.745.057-1.586.128-6.74.014.01.214-9.96.014.009.014.32.029-.01.156-8.471.071-1.596.072-3.824.042 2.381h.015l.1 1.759.013-1.588.043 1.752.014-2.363.1 3.652.014-1.576.029.798.028-2.555.015-.462.014 2.705.028-2.382.015 2.065.085-.65.128-4.627.057 3.342.057-2.245.043.47.085-3.35.086 3.821.028-3.173.157 6.191.071-2.204-.029 2.533.086-1.733.157 6.056.014-2.365.085 3.66.143-4.14.028 2.063h.014l.072-1.571-.015 1.74.043-.474.014.16.015-.17.07-4.452.058 1.914.028 1.426.029-1.89.042 1.109.072-4.111.057 2.075.014.798.042-2.545.029.94.085-5.212.057 1.895.1 3.016.014-2.678.015.16.014-.799.014.17.014-.16.014.49.043-.169.114 1.908.014-2.847.057 3.64.043-1.607.1-1.89-.029 2.219.043-1.1.128 4.603.014-.169.086-4.121.043 1.422.113 3.96.1-6.365.029 1.4.028-.967.029 2.865.028-.62.029 1.427.014-2.382.014.479.071-2.704-.028 3.014.085-2.55.086 2.694.042-1.913.015-.31.014 2.228.071-3.515.014.009.029 1.268.014-.488.014-2.067.029 2.862.057-2.064.07 3.366.044-1.886.028.62.014-2.541.015-.15.085 5.727.043-.788.014.949.014-2.226.057 1.278.029-2.214.07 1.106.072 3.504.043-1.915.014-.15.128 4.61.043-2.685.114.16.085 1.416.014-.16.1-3.321-.057 3.8.086-2.075.085-1.25-.043 1.26.071-.311.015.319.014-.96.043.48.07-2.88.044 1.106.128-3.051-.057 4.146.071-4.136.028 2.36.086-1.102.043 1.738.014-2.373.028 1.108.029-3.502.071 4.267h.014l.086-1.274-.043 1.435.057-.786.043-1.906.07 4.287.1-3.34.029 2.543.014-.17.015-2.054.07 3.184h.015l.071.792.014-1.596.015-.789.028 2.843.029-.147.057 1.296.042-1.595.071-.797.029 1.886.014-2.693.057 4.142.029-.489.028-1.437.071-1.12.015 1.585.014.47.028-2.695.057 2.223.029-.009.142-3.965.014 2.212.086-.319.071-2.697.043 2.057.014-1.098.014 2.213.071-1.268.157 4.028-.128-5.59.17 4.96.058-3.164.057 1.424.057-.316.07 2.544.058-2.526.057 2.224.014.63.028-1.758.129-3.162.042 1.893.072-.782.1-4.924.013 2.226.157-5.218.057.47h.014l.029 1.737.057-.62.014-2.374.043 3.502.042-1.267.086 1.418.014-1.437.057-1.61.029.641.085 4.427.028-.63.057-2.874-.028 3.662.071-2.408.114 3.344.086-5.713.042 2.382.057 2.045.057-.949.086-2.84.028 2.067.029-.328.028 1.277.014 1.268.071-2.373.015 1.277.014-.649.028 2.703.029-.617.085 1.57-.028-1.887.057.448.085 4.139.029-.162.1 1.621.028-3.183.071 3.173.029 2.074.028-2.366.029 1.588.1-6.512.028 1.097.042 1.768.072 1.442.014-2.063.071-1.126.014-1.906.086 2.055.07-2.715.058 2.055h.014l.057-3.83.057 1.567.128 4.585.043-2.064.028-2.077.072 1.41.114 5.408.028-1.416.071-2.705.057 1.108.014-.47.029 2.049.014-1.12.029 3.97.085-1.424.085-2.368.029 1.26.014-.788.029 3.322.028-.449.014.95.057-2.407.029 1.257h.014l.086-2.218.028.938.114 2.543.014-.16.029-1.738.07 2.215.058-2.356.057 1.12.014.618.043-1.418.042.95.086-1.57-.057 2.366.071-2.197.014 1.59.072-2.226.014.16.014-.16.029.931.014-.32.014 1.278.071-2.386.014 1.43.029-1.578.028 2.066.057-1.258h.015l.014-.32.028 1.428.015-.32.014 1.607.028-2.698.071 2.058.086-3.813.085 1.904.072 2.396-.029-2.854.071.794.086-3.325.042.817.015.48.014-.798.128-4.294.029-.33.014.3.057.978.057-.33.028-.799.043 1.925.028-.939.015.47.042-2.077.029 1.279.043-1.097.042 2.229.043 3.022.114-.326.043-.789.085 4.135.043-2.692.071 2.217.014.01.029-1.269.057 1.42.028 1.586.014-2.222.1 2.204.1-5.247.057 1.444.057-1.438.028 2.064.014.33.015-1.414.042-2.378.057 2.993.185-3.473.057 3.153.072-1.894.014-.949.043 3.32.028.51.043-.159.1-1.734-.058 2.362.072-.932.014-.638.043 2.063.014.479.071-1.277.029 1.257.056-1.725.143 3.515.014.009.014-.47.043 2.055.086 1.943.17 5.536.015-.312.014 1.268h.028l.171 7.161.029-.48h.014l.2 3.183.113-.648.114 1.136.029-.32.085-1.118.086.328h.028l.142-1.108.029-.018.071.16.029-.32.185 1.26.014-.16.014-.16.043.49.071.967.1-.178h.014l.114 1.128.028-.15.029.008.085.48.029-.16.17-.79.043.32.015-.48.014.16.085-.808.043.178h.057l.014.16.043-.64.028.32.171-4.143.328-3.663.057.48.014-.01.085-1.277.057.799.143 3.194.043-.16.014-.15.043.479.014-.15.17 1.756.072-.179.043-.977.07.497.043 1.118.086-.499.1-.799.014.16.156 1.268.143.15.1.96.042-.187.071-.32.015.33h.014l.157.611h.014l.156.63.015-.01.085-.31.014.16.257 1.953.299-13.549.327-15.017.014-.009.1-5.745.043 1.726.114 2.548.071-2.865.014 3.024.057 3.023.071-.969.015.16.014-.798.014-.459.029 2.215.028-1.084.086 4.31.028-2.704.128 2.693.014-.32.143-4.57-.114 4.58.17-3.782.015 2.054.085-.78.072-2.533.028 2.375.029-1.108.014 2.701.085-1.128.015-2.85.085 3.004.028-.947.015 2.235.085-.32.014-3.02.086 4.929.014.16.014-1.257.057 1.587.029-.48.014.47.014-3.02.014-.31.086 3.802.043-.48.1-3.032-.03 3.172.044-.321.014.48.014-1.588.057.967.028.168.1-3.014.014 3.01.072-4.65.07-1.268.03.64.07 2.373.015-3.024.128-3.482-.1 3.641.128-2.69.029-.47.043 2.384.056-2.08.129-4.612.042 1.426.086 4.8.043-1.088.014 1.267.028-3.347.043.779.028-.63.114 5.441.015-.957.014 1.584.057-3.813.014.788.014-.958.043 2.557.028-1.107.214 5.863.057-2.087.014-.479.043 2.087.071 1.436.029-.639.1-3.554-.072 4.172.1-3.543.028 3.343.086-1.268.014-.64.028 2.057.072-1.604h.014l.028 2.218.072-3.024.028-.95.029 2.386.042-1.585.015.151.014-.798h.028l.014 1.58.072-3.015.014.48.014-.64.029 3.342.014-1.257.043.959.028-1.745.029 1.419.142-4.77.014.489.071-1.417-.042 1.736.057-.138.014.628.028-2.683.015 1.747.057-3.35.056 1.275.072 1.936.042-1.597.072-2.868.042 1.906.015-1.108.07 1.413.03 1.585.042-3.473.014.46.014-.948.043 2.71.029-1.567.085 1.882.014-2.714.015-2.532.085 4.118.142-4.738.015 3.17.014.618.014-1.59.057.818.128-2.81.029 5.534.085-1.888.071-.809.029 2.228.014-2.201.071 5.754.057-3.18.071 1.42.015.3.014-2.677.071 4.637.014-.17.015.151.142-5.083.057 2.38.057-1.606.028 1.577.029-3.004.028 1.897.029-2.695.085.763.114 2.064-.085-3.17.1 2.53.014-1.088.028 2.836.057-1.437.214 4.483-.185-6.058.199 5.579.014.32.014-2.693.086 3.512.17 3.201-.142-3.829.157 2.404.014-.15.014.798.086 2.526.028-1.251.057-2.863.057.797.1 1.728.043-3.654.07 3.002h.015l.128-3.665.043.61.071 2.366.043-1.872.014.15.014-.33.015-1.268.028 2.209.057-.934.071 3.011.043-2.37.071 2.677-.028-3.156.1 1.57.042-.452.014.938.029-3.02.071.478.014 2.838.086-2.548.014.01.071-1.14-.043 3.03.1-3.02.029 2.842.07-1.757.129-3.355-.085 4.288.1-4.278.028 2.385.028-2.546.043.302.1-2.24-.057 3.504.07-1.913.086-3.31-.028 3.81.1-3.49.014 2.852.1-1.885.056-2.52-.028 3.319.1-3.17.085 3.161.028-.479.015-.15.014 2.066.028-2.388.057.481.015.01.085 3.333.029-.638.014-1.268.057 4.441.014-.15.014.648.029-.638.07 3.352.044-1.762.014-1.28.028 4.599.043-1.1.114 2.548-.085-2.697.128 1.593.014-.81.028 2.548.043-.292.043-2.553.1.53.1 1.744.013-1.107.086-2.382.014 3.011.029-2.829.085 1.898.014 1.098.029-2.214.057.329.014.168.014 2.383.029-2.692.057.32.057 3.492.114-.53.1-2.55.013 1.425.015 1.425.07-2.395.03 1.414.014 1.116.07-2.057.015.151.114-2.376-.071 3.98.1-3.041.014 1.584.085-1.089.043 1.266.085-3.148.029 2.541.085-1.268.071-1.244-.028 3.148.085-2.837.029 2.065.085-.799.015-.319.014.479.014 2.542.071-3.168.014.16.029.938.043-1.896h.014l.057 1.1.014 2.688.086-3.17.128-1.914-.057 2.875.07-2.564.03 2.668.085-2.207.057 1.578.028-1.109.043-2.222.057 3.656.185-4.162.014 1.095.015 1.576.085-1.758.014.32.014-.17.1-2.996.014.48.057.789.015-1.584.028.479h.014l.043-1.59.014.64.015 1.583.028-1.916.043.47.014-2.067.085.803.072 2.395.042-1.257h.015l.17 5.422.029-.306.1 2.85.028-.8.014-1.586.071 3.336.015 1.437.057-2.853.028 1.267.029 2.232.085-1.915.014-.01.015.169.014 2.395.057-4.45.028.16.029 1.417.042-1.885.015.01.042-.96.015.01.014 2.37.085-3.95.015-.159.014.809h.014l.014.16.043-.47.014.15.029-.63.014 2.223.085-2.072h.015l.042 1.906.072-1.108.014-.32.043 2.545.07-1.755.015.01.17 5.037.015-.47.057.798.157 3.482-.072-3.492.086 3.342.014-.151.014.8.057 1.267.185 4.337.186 3.371.014-.16.014-.16.014.32.157 2.378h.014l.029-.32.057.64.014-.32h.028l.015.16.042-.178.057.169h.015l.07 1.108.072-.178.014-.32.1.17.085.318.015-.16.028-.32.085.179h.015l.014.16.014-.79.043.48.213-2.041.043.489h.014l.015-.48.085.32.029.319.028-.798h.014l.1.338.028-.009.043-.01.014.16.029-.478.043.319.042-.16.015.32.028.47.086-.338h.014l.07 1.428.044-.779.213-3.693.015.17.042-.81.057.01.185-3.176.171-1.606.157 2.705.114-.788h.014l.014.17.057-.348.043.32h.014l.014-.16.029.798h.014l.043-.16.17 2.707h.015l.043-.019.114.799.014-.16.014.799.185 1.926h.014l.285 2.226.043-.64.043.65.028-.48.071.009.114-.64-.085.8.114-.65.142.48.143-1.439.028-.01.085-.638.057.15h.015l.014.32.057-.957.057-1.445.043.78.028.63.028-1.896.015-.48.07.951.015.31.057-2.533.071 1.76.015.16.014-.47.057-.815.057.47.014.16.014-.629.029-1.268.07 1.26.015.79.029-1.898.07 1.888.058-1.1.014-1.109.043 2.047.042-.64.029.32.014-1.268.014-.48.043 2.197h.014l.072-2.688.057 1.09.056.497.015-.779.014-.947.057 1.737.028-.46.015.15.014-.8.028-1.566.057 2.517.015-.47.014.009.014.32.014-.959.015-2.055.056 3.006.029-.452.028.48.029-2.235.085 1.427.015.32.028-1.746.043 1.258.028 1.288.057-1.597.014-1.107.057 2.196.029-.302.014.479.029-1.736.014-.629.043 2.518.014.16.028-.613.015.48.028-2.065.057 2.696.057.348-.029-.64.043.01.014-1.258.057 2.716.029-.781.114 2.075-.071-2.695.085 1.905.057-2.046.028 1.736.029 1.11.057-.142.157-8.15.227-9.776.086-3.074.014.48.1-7.777.042.13.015-.152.07-3.84.044 3.167.042.637.029-.329.014-.948.057 3.345.014-.787.015-.47.042 2.218.086 1.907.042-1.087.015-.32.014 1.44.1 3.641-.072-3.82.114 2.703h.015l.113 2.546.1-3.314.029.8.014.629.057-2.224.028 1.886.029-2.535.014.96.1-3.354.014 2.053.014.15.014-.32.114-2.374.029 3.011h.085l.057-2.034.043 1.562.142 3.819.043-.92.014-.32.015 1.256.085 2.588.028-1.43.029.178.057-1.265-.029 1.415.072-.467.014.787.057-2.686.028 1.897.057-2.356.071.465.015.64.042-2.393.015.01h.014l.128 3.665.228 6.67.028-1.408.015.01.213 8.238.043-2.196.043 3.164h.014l.071-2.527.043 1.887.014.48.057-.32.014-1.269.071 2.066.015-.461.114 1.09-.057-1.878.07 1.718.072-1.908.028 1.577.029.95.057-.647.028-1.427.043 2.518.014.64.072-1.588.028 1.249.029.78.056-.46.029-1.887.043 2.347.028-.46.029.63.014-.958.028-1.408.043 1.897.029-.31.028.01.029-1.897.085 1.098.057-1.08.057 2.385.085-2.848.057.789.071-2.233.029 1.256.028 1.28.057-.95.029-1.725.057 2.018.014-.47.014.01.015.159.014-.958.014-1.418.057 2.047.028-.612.029.48.028-2.076.057 2.038.214-6.661.014.319.029.937.042-.79.186-9.89.057 2.526.042-2.993.014.31.015-.31.142-5.09.1 2.539.028-.948.015-.47.028 1.898.028.47.015-1.895.014.17.028-.97.057 2.236.015-.17.014 1.13.1 3.49-.057-4.42.085 2.068.1-2.576.028 1.747.014.169.072.775.057-3.475.014 1.745.057-1.916.043 1.737.014-1.907.057 2.054.042-1.747.1-1.928-.071 2.715.157-2.546.085 2.344-.043-2.515.071 2.205.015-1.418.057 2.528.028-1.247.128 2.677.015-.629.014-1.267.057 2.705.028-1.576.128 4.164.043-2.045.071-.968-.028 2.056.057-1.896.114 3.501.128-3.155.142 5.72.029-2.055.07 1.896.143 4.111.015.17.014-1.268.057 2.375.028-.16.214 4.953.1-1.079-.057 1.878.07-.927h.015l.014-.32.014 1.428.015.948.085-1.577.029 2.067.057-2.215.07 1.89.058-.62.014.79h.028l.029 1.566.071-1.744.014-.47.029 1.905.043-.93h.014l.057 1.417-.029-1.736.072.15.085.316.057-1.877.071 1.576-.028-1.585.057.497.028-.64.043.649.014 1.107.057-2.206.014.31.029-.8.028 2.055.043-1.568.071 1.702.029-1.427.042-1.278.043.8.014 1.576.043-1.738.043.302.014-.169.014 1.107.014.469.057-1.737.057 1.896.043-2.048.014-.16.015.461.028-.328.029 1.266.07-.609.086-1.26-.043 2.358.072-1.887.057 1.595.07-.476.129-4.621.014-.16.143-5.747.014.949.043-2.869.17-5.279.015.788.07-2.888.015.15.1-4.58.014 2.062.029.17.014-1.907.085.81.057 2.705.086-.324.085-1.395-.043 2.536.057-2.068.086 2.405.042-.16.015-2.2.042 2.867.043-2.522.128 3.77.114-3.15-.071 3.484.085-1.748.015-.169.014.15.014-1.906.029 1.929.057-1.108.028 1.568.043-1.587.057 1.447.014-2.383.071 2.689.014-1.724.029 2.848.057-2.857.028.774.015.16.028-1.903.086.965.042 2.364.014-2.692.057 2.384.1-1.863-.043 2.512.057-1.246.015-.01.042-1.099.029 1.925.085 1.26-.028-2.533.057 1.893.1-2.398.028 1.419.014.142.057 2.544.043-3.036.014.809.014-.01.2 6.665.014-.31.014 1.276.014-.16.214 6.037.014-.649h.014l.029.48.128 4.15.057 3.505.085-2.073h.015l.028 1.586.086-1.277.028 2.048.057-2.215.014.15.057.477.086-2.526.028 2.068.057-3.163.071 2.057.072-.938.1-1.082-.058 2.187.071-1.867.043.95.014.947.072-1.568.014-.32.028 1.746h.015l.028-1.407.071 1.42.014 1.267.043-1.726.043.31.157 2.223.014-.628.043-1.737.056 1.427.015.308.042-1.087.043-.649.014.32.015 1.107.042-1.746.043.143.1-2.399-.057 3.186.1-2.866.028 1.566.071-1.105.014-.32.015.8.014 1.256.057-2.546.028.47.015-.159.028 1.726.043-2.057.028.782.128-5.117.015-.009.014.808.057-2.226.27-7.326.228-8.403.071.318.015 3.033.07-3.652.03 2.374.056.966-.028-1.744.057 1.423.043-2.851.042 3.172.014-.79.029 2.077.043-2.203.042 1.266h.015l.042 1.925.057-2.056.128 3.64.029-2.524.014-.16.114 3.002.014-1.268.086-1.095-.014 1.904.028-1.107.029.47.042-1.099.029.78.042-2.366.072 1.895.014-.628.057 2.365.014-2.042.1 1.897.014-.8.1 2.55-.057-3.004.1 2.196.042-3.812.086.29.028 3.329.1-1.147.014.48.014-2.064.057 1.098.1-2.875.014 1.883.014-.01.029-.939.028-.958.043 2.853.014-1.579.214 7.661h.014l.029.162.028-.489.2 7.361.028-1.096.057 2.05.043-.13.113 2.705.057-1.576.043.808.029 1.407.028-1.577.043.142.014-.95.029 2.385.07-1.893h.03l.028 2.046.07-1.427.015-.63.029 3.013.057-2.196.07 1.869-.028-1.887.1 1.578.014-.16.014.799.029 1.276.043-1.576.028.302.014-.31.015.958.128 2.212.014.16.014-.778.1.158.057-1.726.071 2.056.043-1.719.085 1.418-.042-1.427.056.48.072-1.287.014.788.014 1.266.057-1.568.029.15.028 1.418.043-1.417.057-.967.014.958.014.937.043-2.047.028.47.1-.968-.043 2.056.057-1.904.057 2.525.057-2.356.071 1.089.029-1.258.071-1.433-.028 2.064.07-1.925.143-5.561.029.14.085-2.393.157-6.544.156-6.398.029 1.426.028-3.486.029.456.014.47.043-2.054.043 1.716.014-1.895.085.94.057-2.066.043 3.002.014-2.373.086 2.222.014 2.054.071-3.018.014 1.279.029-1.118.028 1.428.043-.79.1 2.705.014-1.094.014-.47.029 2.524h.014l.028-1.239.015-.47.014 1.895.043-1.578.1 2.393.013-.16.015-1.747.042 3.013.057-2.377.015.16.028-2.535.043 2.696.028-.949.043 1.926.028-2.695.043.94.029-3.17.085 2.231.014.33.015-1.269.057.769.085-1.715-.043 2.373.071-1.085.029.92.014-1.426.014-.31.015 1.427.014.47.014-.32.014-2.692.086 4.64h.028l.1-1.929.114 4.432.085-3.508.043.489.043-1.109.071 2.356.043-1.11.014-1.096.043 1.737.028-1.11.029 2.523.085-1.616.043.2.085-2.223.014.01.015-.48.014 1.744.071-1.102.071 1.116.015-1.288.014-.32.043 1.088.014.8.057-2.188.028 2.046.014-.649.029 2.065.043-1.874.07 2.038.044-1.405.213 5.83.014-1.574.086 2.375.014 1.118.014-2.21.072 2.099.142-3.005.028 1.573.043-2.217.029.48.014-.16.028 2.702.072-2.524.042 1.597.015-.798.028-2.387.1.46.085-1.429.128 3.306.143 2.856-.086-3.316.1 2.22h.014l.014-.79.015.8.042-.027.015 2.223.042-3 .043 1.42.014-.639.043 2.086.043-1.587.07 3.022.072-.622.014.01.029.639.342-10.666.042 2.052.057-2.057.015-.479.042 2.206.029-1.108.014-.01.014.47.029-2.372.014-.48.028 2.673.043-1.42.014-.18.015.948.042 1.44.086 1.768-.043-2.376.057.46.2 4.733.085-3.492.028.954.014.47.043-2.205.029 1.587.185-5.06.014.948.014.15.015-.968.07-1.598-.014 2.395.043-.958.014.809.029-2.208.043.779.085-1.754.014.009.114 2.834.014-2.838.043 2.845.043-.77.142 5.226.015-.958.014.32.085-3.512.029 2.084.1 2.21-.043-2.676.07 2.194.13-2.355-.058 2.395.071-.808.015.31.028-.62.014-1.575.014 2.368.086-1.767.014.64.014-2.373.057.789.015-1.417.042 2.066.029-.935.085 1.916-.014-2.045.043 1.547.014.169.128-2.056h.014l.1 2.378-.028-2.704.057 2.554.028-3.171.085 2.183.114-3.8.015.787.014-.009.043 1.264.057-2.554.014 1.588.042-1.867.057 1.11.029-2.545.057 3.322.043-2.365.042.48.1 2.853-.057-3.951.071 2.217.014.01.015-.629.042 1.288.114 3.667-.07-3.978.085 3.499.085-.778-.057 1.419.071-.94.143 3.012.014-.468.071.776.057-2.046.043 1.079-.014-1.576.057.469.028-.16.114 3.153.071-2.073.057.486.057 2.674.057-2.373.128 3.164.057-1.566.043 2.207.014-.938.014-.461.015 1.108.014-.32.014 2.374.1-1.586.014.011.114-2.057.014.16.014-.01.015.48.028-1.427.043-1.268.028 2.842.043-2.354.028-.338.015.95.014.947.071-2.065.014 1.577.072-1.874.028 1.897.014-.788.043-.48.014 1.588.043-1.745.071 2.523.014-.79.057 2.376.015.319.014-.778.057-1.278.014 1.577.043-.608h.014l.014.16.114 3.01.029-2.031.057 2.513.042-2.225.143 3.005-.057-3.013.071 2.545.085.957.043-2.524.014-.16.015.31.114 3.492.014-1.095.042-1.268.043 1.736.043.019.014-.311.014 2.052.057-.144.1 2.413.014-.31.015 1.894.042-.79.029-.15.014.308.128 3.174.029-.63h.014l.142 1.582.043.17.085-.986.086.48-.043-.8.057.64.086-.329.014.489h.014l.043-.32.057.789.014-.48.1.17h.014l.156 2.396.015-.47.014-.48.057.977.014-.16.143 1.42.014-.16.014-.16.029.657.313 3.654.071-.47.014-.01.014-.319.057.958.171.771.043.16.071-.506h.029l.213 1.145h.029l.057.95.071-.46.043-.649.1.019.099.17.2-1.11h.014l.128-.808.085.48-.057-.96.086.79.028-.32.086.15.085.488-.043-.639.072.31.07-.018.143 1.277.086-.018.085-.15.157 1.118.014-.16.014.169h.071l.143.808.014-.15h.014l.071-.01.1 1.139.029-.48.085.169h.014l.27-1.926h.015l.071-.799.071.01h.015l.142-.959.029.178.028-.009.014-.16.015.16" clip-path="url(#pb36e282249)" fill="none" stroke="#1f77b4" stroke-linecap="square" stroke-width="1.5"/><path d="M57.6 307.58V41.47m357.12 266.11V41.47M57.6 307.58h357.12M57.6 41.472h357.12" fill="none" stroke="#000" stroke-linecap="square" stroke-width=".8"/><path d="M297.71 64.15h110.01q2 0 2-2V48.472q0-2-2-2H297.71q-2 0-2 2V62.15q0 2 2 2z" fill="#fff" opacity=".8" stroke="#ccc"/><path d="M299.71 54.57h20" fill="none" stroke="#1f77b4" stroke-linecap="square" stroke-width="2"/><g transform="matrix(.1 0 0 -.1 327.71 58.07)"><defs><path id="DejaVuSans-103" d="M45.406 27.984q0 9.766-4.031 15.125-4.016 5.375-11.297 5.375-7.219 0-11.25-5.375-4.031-5.36-4.031-15.125 0-9.719 4.03-15.094t11.25-5.375q7.282 0 11.298 5.375 4.031 5.375 4.031 15.094zM54.39 6.781q0-13.953-6.203-20.766Q42-20.797 29.203-20.797q-4.734 0-8.937.703t-8.156 2.172v8.734q3.953-2.14 7.812-3.156 3.86-1.031 7.86-1.031 8.843 0 13.234 4.609t4.39 13.938v4.453q-2.781-4.844-7.125-7.234T27.875 0Q17.828 0 11.672 7.656q-6.156 7.672-6.156 20.328 0 12.688 6.156 20.344Q17.828 56 27.875 56q6.063 0 10.406-2.39t7.125-7.22v8.298h8.985z"/></defs><use xlink:href="#DejaVuSans-84"/><use x="44.084" xlink:href="#DejaVuSans-101"/><use x="105.607" xlink:href="#DejaVuSans-116"/><use x="144.816" xlink:href="#DejaVuSans-114"/><use x="185.93" xlink:href="#DejaVuSans-105"/><use x="213.713" xlink:href="#DejaVuSans-115"/><use x="265.813" xlink:href="#DejaVuSans-32"/><use x="297.6" xlink:href="#DejaVuSans-40"/><use x="336.613" xlink:href="#DejaVuSans-103"/><use x="400.09" xlink:href="#DejaVuSans-101"/><use x="461.613" xlink:href="#DejaVuSans-110"/><use x="524.992" xlink:href="#DejaVuSans-117"/><use x="588.371" xlink:href="#DejaVuSans-105"/><use x="616.154" xlink:href="#DejaVuSans-110"/><use x="679.533" xlink:href="#DejaVuSans-101"/><use x="741.057" xlink:href="#DejaVuSans-41"/></g><g transform="matrix(.1 0 0 -.1 46.08 34.56)"><defs><path id="DejaVuSans-78" d="M9.813 72.906h13.28l32.329-60.984v60.984h9.562V0H51.703L19.391 60.984V0H9.813z"/><path id="DejaVuSans-58" d="M11.719 12.406h10.297V0H11.719zm0 39.297h10.297V39.312H11.719z"/><path id="DejaVuSans-104" d="M54.891 33.016V0h-8.984v32.719q0 7.766-3.032 11.609-3.03 3.86-9.078 3.86-7.28 0-11.484-4.641-4.203-4.625-4.203-12.641V0H9.08v75.984h9.031V46.187q3.235 4.937 7.594 7.375 4.375 2.437 10.094 2.437 9.422 0 14.25-5.828 4.844-5.828 4.844-17.156z"/><path id="DejaVuSans-102" d="M37.109 75.984V68.5h-8.594q-4.828 0-6.719-1.953-1.875-1.954-1.875-7.032v-4.828h14.797v-6.984H19.921V0h-9.03v47.703H2.295v6.984h8.594V58.5q0 9.125 4.25 13.297 4.25 4.187 13.47 4.187z"/><path id="DejaVuSans-97" d="M34.281 27.484q-10.891 0-15.094-2.484t-4.203-8.5q0-4.782 3.156-7.594 3.156-2.797 8.563-2.797 7.484 0 12 5.297t4.515 14.078v2zm17.922 3.719V0h-8.984v8.297Q40.14 3.327 35.547.953T24.313-1.422q-8.39 0-13.36 4.719-4.952 4.719-4.952 12.625 0 9.219 6.171 13.906 6.188 4.687 18.438 4.687h12.61v.89q0 6.204-4.079 9.595t-11.453 3.39q-4.687 0-9.14-1.125-4.438-1.125-8.531-3.375v8.313q4.921 1.906 9.562 2.844Q24.22 56 28.61 56q11.875 0 17.734-6.157 5.86-6.14 5.86-18.64z"/><path id="DejaVuSans-122" d="M5.516 54.688h42.672v-8.203L14.407 7.173h33.78V0H4.298v8.203l33.797 39.312H5.516z"/><path id="DejaVuSans-100" d="M45.406 46.391v29.594h8.984V.001h-8.984v8.203Q42.578 3.33 38.25.954 33.937-1.42 27.875-1.42q-9.906 0-16.141 7.906-6.219 7.922-6.219 20.812t6.219 20.797q6.234 7.907 16.14 7.907 6.063 0 10.376-2.375 4.328-2.36 7.156-7.235zM14.797 27.297q0-9.906 4.078-15.547t11.203-5.64 11.22 5.64q4.108 5.64 4.108 15.547t-4.109 15.547q-4.094 5.64-11.219 5.64t-11.203-5.64-4.078-15.547z"/><path id="DejaVuSans-45" d="M4.89 31.391h26.313v-8H4.89z"/><path id="DejaVuSans-118" d="M2.984 54.688H12.5L29.594 8.797l17.094 45.891h9.516L35.688 0H23.485z"/><path id="DejaVuSans-99" d="M48.781 52.594v-8.406q-3.813 2.11-7.64 3.156t-7.735 1.047q-8.75 0-13.594-5.547-4.828-5.531-4.828-15.547t4.828-15.562q4.844-5.531 13.594-5.531 3.906 0 7.734 1.047t7.641 3.156V2.094Q45.015.344 40.984-.53q-4.016-.89-8.562-.89-12.36 0-19.641 7.765-7.266 7.766-7.266 20.953 0 13.375 7.344 21.031Q20.219 56 33.015 56q4.14 0 8.094-.86 3.953-.843 7.671-2.546z"/><path id="DejaVuSans-108" d="M9.422 75.984h8.984V0H9.422z"/><path id="DejaVuSans-33" d="M15.094 12.406H25V0h-9.906zm0 60.5H25V40.922l-.969-17.438H16.11l-1.016 17.438z"/></defs><use xlink:href="#DejaVuSans-78"/><use x="74.805" xlink:href="#DejaVuSans-111"/><use x="135.986" xlink:href="#DejaVuSans-116"/><use x="175.195" xlink:href="#DejaVuSans-101"/><use x="236.719" xlink:href="#DejaVuSans-58"/><use x="270.41" xlink:href="#DejaVuSans-32"/><use x="302.197" xlink:href="#DejaVuSans-116"/><use x="341.406" xlink:href="#DejaVuSans-104"/><use x="404.785" xlink:href="#DejaVuSans-105"/><use x="432.568" xlink:href="#DejaVuSans-115"/><use x="484.668" xlink:href="#DejaVuSans-32"/><use x="516.455" xlink:href="#DejaVuSans-102"/><use x="551.66" xlink:href="#DejaVuSans-105"/><use x="579.443" xlink:href="#DejaVuSans-103"/><use x="642.92" xlink:href="#DejaVuSans-117"/><use x="706.299" xlink:href="#DejaVuSans-114"/><use x="745.162" xlink:href="#DejaVuSans-101"/><use x="806.686" xlink:href="#DejaVuSans-32"/><use x="838.473" xlink:href="#DejaVuSans-117"/><use x="901.852" xlink:href="#DejaVuSans-115"/><use x="953.951" xlink:href="#DejaVuSans-101"/><use x="1015.475" xlink:href="#DejaVuSans-115"/><use x="1067.574" xlink:href="#DejaVuSans-32"/><use x="1099.361" xlink:href="#DejaVuSans-97"/><use x="1160.641" xlink:href="#DejaVuSans-32"/><use x="1192.428" xlink:href="#DejaVuSans-122"/><use x="1244.918" xlink:href="#DejaVuSans-111"/><use x="1306.1" xlink:href="#DejaVuSans-111"/><use x="1367.281" xlink:href="#DejaVuSans-109"/><use x="1464.693" xlink:href="#DejaVuSans-101"/><use x="1526.217" xlink:href="#DejaVuSans-100"/><use x="1589.693" xlink:href="#DejaVuSans-45"/><use x="1625.777" xlink:href="#DejaVuSans-105"/><use x="1653.561" xlink:href="#DejaVuSans-110"/><use x="1716.939" xlink:href="#DejaVuSans-32"/><use x="1748.727" xlink:href="#DejaVuSans-118"/><use x="1807.906" xlink:href="#DejaVuSans-101"/><use x="1869.43" xlink:href="#DejaVuSans-114"/><use x="1910.543" xlink:href="#DejaVuSans-116"/><use x="1949.752" xlink:href="#DejaVuSans-105"/><use x="1977.535" xlink:href="#DejaVuSans-99"/><use x="2032.516" xlink:href="#DejaVuSans-97"/><use x="2093.795" xlink:href="#DejaVuSans-108"/><use x="2121.578" xlink:href="#DejaVuSans-32"/><use x="2153.365" xlink:href="#DejaVuSans-115"/><use x="2205.465" xlink:href="#DejaVuSans-99"/><use x="2260.445" xlink:href="#DejaVuSans-97"/><use x="2321.725" xlink:href="#DejaVuSans-108"/><use x="2349.508" xlink:href="#DejaVuSans-101"/><use x="2411.031" xlink:href="#DejaVuSans-33"/></g><defs><clipPath id="pb36e282249"><path d="M57.6 41.472h357.12v266.11H57.6z"/></clipPath></defs></svg>