<svg width="614.4" height="460.8" viewBox="0 0 460.8 345.6" xmlns="http://www.w3.org/2000/svg" xmlns:xlink="http://www.w3.org/1999/xlink"><defs><style>*{stroke-linecap:butt;stroke-linejoin:round}</style></defs><path d="M0 345.6h460.8V0H0z" fill="#fff"/><path d="M57.6 307.58h357.12V41.47H57.6z" fill="#fff"/><defs><path id="m0b091f32f4" d="M0 0v3.5" stroke="#000" stroke-width=".8"/></defs><use x="72.35" y="307.584" stroke="#000" stroke-width=".8" xlink:href="#m0b091f32f4"/><g transform="matrix(.1 0 0 -.1 69.169 322.18)"><defs><path id="DejaVuSans-48" d="M31.781 66.406q-7.61 0-11.453-7.5Q16.5 51.422 16.5 36.375q0-14.984 3.828-22.484 3.844-7.5 11.453-7.5 7.672 0 11.5 7.5 3.844 7.5 3.844 22.484 0 15.047-3.844 22.531-3.828 7.5-11.5 7.5zm0 7.813q12.266 0 18.734-9.704 6.469-9.687 6.469-28.14 0-18.407-6.469-28.11-6.469-9.687-18.734-9.687-12.25 0-18.719 9.687-6.469 9.703-6.469 28.11 0 18.452 6.469 28.14 6.469 9.703 18.719 9.703z"/></defs><use xlink:href="#DejaVuSans-48"/></g><use x="131.658" y="307.584" stroke="#000" stroke-width=".8" xlink:href="#m0b091f32f4"/><g transform="matrix(.1 0 0 -.1 128.48 322.18)"><defs><path id="DejaVuSans-49" d="M12.406 8.297h16.109v55.625l-17.531-3.516v8.985l17.438 3.515h9.86V8.297H54.39V0H12.406z"/></defs><use xlink:href="#DejaVuSans-49"/></g><use x="190.967" y="307.584" stroke="#000" stroke-width=".8" xlink:href="#m0b091f32f4"/><g transform="matrix(.1 0 0 -.1 187.79 322.18)"><defs><path id="DejaVuSans-50" d="M19.188 8.297H53.61V0H7.329v8.297q5.61 5.812 15.297 15.594 9.703 9.797 12.188 12.64 4.734 5.313 6.61 9 1.89 3.688 1.89 7.25 0 5.813-4.078 9.47-4.078 3.672-10.625 3.672-4.64 0-9.797-1.61-5.14-1.61-11-4.89v9.968q5.953 2.391 11.125 3.61 5.188 1.219 9.484 1.219 11.328 0 18.062-5.672 6.735-5.656 6.735-15.125 0-4.5-1.688-8.531-1.672-4.016-6.125-9.485-1.218-1.422-7.765-8.187-6.532-6.766-18.453-18.922z"/></defs><use xlink:href="#DejaVuSans-50"/></g><use x="250.275" y="307.584" stroke="#000" stroke-width=".8" xlink:href="#m0b091f32f4"/><g transform="matrix(.1 0 0 -.1 247.09 322.18)"><defs><path id="DejaVuSans-51" d="M40.578 39.312q7.078-1.516 11.047-6.313 3.984-4.78 3.984-11.812 0-10.78-7.422-16.703-7.421-5.906-21.093-5.906-4.579 0-9.438.907T7.625 2.203v9.516q4.094-2.39 8.969-3.61 4.89-1.218 10.219-1.218 9.265 0 14.125 3.656t4.86 10.64q0 6.454-4.516 10.079-4.516 3.64-12.562 3.64h-8.5v8.11h8.89q7.266 0 11.125 2.906t3.86 8.375q0 5.61-3.985 8.61-3.969 3.015-11.39 3.015-4.063 0-8.704-.89-4.64-.875-10.203-2.72v8.782q5.625 1.562 10.531 2.344t9.25.781q11.234 0 17.766-5.11 6.547-5.093 6.547-13.78 0-6.063-3.469-10.234t-9.86-5.782z"/></defs><use xlink:href="#DejaVuSans-51"/></g><use x="309.584" y="307.584" stroke="#000" stroke-width=".8" xlink:href="#m0b091f32f4"/><g transform="matrix(.1 0 0 -.1 306.4 322.18)"><defs><path id="DejaVuSans-52" d="M37.797 64.312 12.891 25.39h24.906zm-2.594 8.594H47.61V25.39h10.406v-8.203H47.61V-.001h-9.812v17.188H4.89v9.515z"/></defs><use xlink:href="#DejaVuSans-52"/></g><use x="368.892" y="307.584" stroke="#000" stroke-width=".8" xlink:href="#m0b091f32f4"/><g transform="matrix(.1 0 0 -.1 365.71 322.18)"><defs><path id="DejaVuSans-53" d="M10.797 72.906h38.719v-8.313H19.828V46.736q2.14.734 4.281 1.093 2.156.36 4.313.36 12.203 0 19.328-6.688 7.14-6.687 7.14-18.109 0-11.766-7.328-18.297Q40.234-1.42 26.906-1.42q-4.594 0-9.36.78-4.75.782-9.827 2.345v9.922q4.39-2.391 9.078-3.563t9.906-1.172q8.453 0 13.375 4.438 4.938 4.437 4.938 12.062 0 7.609-4.938 12.047-4.922 4.453-13.375 4.453-3.953 0-7.89-.875-3.922-.875-8.016-2.735z"/></defs><use xlink:href="#DejaVuSans-53"/></g><g transform="matrix(.1 0 0 -.1 215.83 335.86)"><defs><path id="DejaVuSans-84" d="M-.297 72.906h61.672v-8.313H35.5V0h-9.906v64.594H-.297z"/><path id="DejaVuSans-105" d="M9.422 54.688h8.984V0H9.422zm0 21.297h8.984V64.594H9.422z"/><path id="DejaVuSans-109" d="M52 44.188q3.375 6.063 8.063 8.938T71.093 56q8.547 0 13.189-5.985 4.64-5.969 4.64-17V0h-9.031v32.72q0 7.859-2.797 11.655-2.781 3.813-8.484 3.813-6.985 0-11.047-4.641-4.047-4.625-4.047-12.641V0h-9.031v32.719q0 7.906-2.782 11.688t-8.593 3.781q-6.891 0-10.953-4.656-4.047-4.656-4.047-12.625V.001H9.078v54.688h9.032v-8.5q3.078 5.031 7.375 7.422T35.688 56q5.968 0 10.14-3.03 4.173-3.016 6.173-8.782z"/><path id="DejaVuSans-101" d="M56.203 29.594v-4.39H14.891q.594-9.282 5.594-14.142t13.938-4.859q5.172 0 10.03 1.266t9.657 3.812v-8.5Q49.266.734 44.188-.344T33.891-1.422q-13.094 0-20.734 7.61-7.64 7.624-7.64 20.624 0 13.422 7.25 21.297Q20.017 56 32.329 56q11.03 0 17.453-7.11 6.421-7.093 6.421-19.296zm-8.984 2.64q-.094 7.36-4.125 11.75-4.032 4.407-10.672 4.407-7.516 0-12.031-4.25t-5.203-11.97z"/><path id="DejaVuSans-40" d="M31 75.875q-6.531-11.219-9.719-22.219Q18.11 42.672 18.11 31.39q0-11.266 3.203-22.328T31-13.188h-7.813Q15.875-1.704 12.234 9.374T8.594 31.39q0 10.891 3.61 21.922 3.624 11.047 10.983 22.562z"/><path id="DejaVuSans-115" d="M44.281 53.078v-8.5q-3.797 1.953-7.906 2.922-4.094.984-8.5.984-6.688 0-10.031-2.047T14.5 40.281q0-3.125 2.39-4.906t9.626-3.39l3.078-.688q9.562-2.047 13.594-5.781t4.03-10.422q0-7.625-6.03-12.078-6.032-4.438-16.578-4.438-4.39 0-9.156.86T5.421 2v9.281q4.985-2.594 9.813-3.89 4.828-1.282 9.578-1.282 6.344 0 9.75 2.172 3.422 2.172 3.422 6.125 0 3.657-2.469 5.61-2.453 1.953-10.812 3.765l-3.125.735q-8.344 1.75-12.062 5.39-3.703 3.64-3.703 9.985 0 7.719 5.469 11.906Q16.752 56 26.813 56q4.97 0 9.36-.735 4.407-.718 8.11-2.187z"/><path id="DejaVuSans-41" d="M8.016 75.875h7.812q7.313-11.516 10.953-22.562 3.64-11.031 3.64-21.922 0-10.938-3.64-22.016T15.828-13.187H8.016Q14.5-1.999 17.703 9.063t3.203 22.328q0 11.281-3.203 22.266-3.203 11-9.687 22.219z"/></defs><use xlink:href="#DejaVuSans-84"/><use x="57.959" xlink:href="#DejaVuSans-105"/><use x="85.742" xlink:href="#DejaVuSans-109"/><use x="183.154" xlink:href="#DejaVuSans-101"/><use x="244.678" xlink:href="#DejaVuSans-32"/><use x="276.465" xlink:href="#DejaVuSans-40"/><use x="315.479" xlink:href="#DejaVuSans-115"/><use x="367.578" xlink:href="#DejaVuSans-41"/></g><path d="M57.6 307.58h357.12" clip-path="url(#pe7a62ceaee)" fill="none" stroke="#b0b0b0" stroke-linecap="square" stroke-opacity=".2" stroke-width=".8"/><defs><path id="m04df460ea2" d="M0 0h-3.5" stroke="#000" stroke-width=".8"/></defs><use x="57.6" y="307.584" stroke="#000" stroke-width=".8" xlink:href="#m04df460ea2"/><g transform="matrix(.1 0 0 -.1 31.512 311.38)"><use xlink:href="#DejaVuSans-50"/><use x="63.623" xlink:href="#DejaVuSans-48"/><use x="127.246" xlink:href="#DejaVuSans-48"/></g><path d="M57.6 241.06h357.12" clip-path="url(#pe7a62ceaee)" fill="none" stroke="#b0b0b0" stroke-linecap="square" stroke-opacity=".2" stroke-width=".8"/><use x="57.6" y="241.056" stroke="#000" stroke-width=".8" xlink:href="#m04df460ea2"/><g transform="matrix(.1 0 0 -.1 31.512 244.86)"><use xlink:href="#DejaVuSans-50"/><use x="63.623" xlink:href="#DejaVuSans-53"/><use x="127.246" xlink:href="#DejaVuSans-48"/></g><path d="M57.6 174.53h357.12" clip-path="url(#pe7a62ceaee)" fill="none" stroke="#b0b0b0" stroke-linecap="square" stroke-opacity=".2" stroke-width=".8"/><use x="57.6" y="174.528" stroke="#000" stroke-width=".8" xlink:href="#m04df460ea2"/><g transform="matrix(.1 0 0 -.1 31.512 178.33)"><use xlink:href="#DejaVuSans-51"/><use x="63.623" xlink:href="#DejaVuSans-48"/><use x="127.246" xlink:href="#DejaVuSans-48"/></g><path d="M57.6 108h357.12" clip-path="url(#pe7a62ceaee)" fill="none" stroke="#b0b0b0" stroke-linecap="square" stroke-opacity=".2" stroke-width=".8"/><use x="57.6" y="108" stroke="#000" stroke-width=".8" xlink:href="#m04df460ea2"/><g transform="matrix(.1 0 0 -.1 31.512 111.8)"><use xlink:href="#DejaVuSans-51"/><use x="63.623" xlink:href="#DejaVuSans-53"/><use x="127.246" xlink:href="#DejaVuSans-48"/></g><g transform="matrix(0 -.1 -.1 0 25.433 219.82)"><defs><path id="DejaVuSans-73" d="M9.813 72.906h9.859V0h-9.86z"/><path id="DejaVuSans-110" d="M54.891 33.016V0h-8.984v32.719q0 7.766-3.032 11.609-3.03 3.86-9.078 3.86-7.28 0-11.484-4.641-4.203-4.625-4.203-12.641V0H9.08v54.688h9.031v-8.5q3.235 4.937 7.594 7.375Q30.079 56 35.798 56q9.422 0 14.25-5.828 4.844-5.828 4.844-17.156z"/><path id="DejaVuSans-112" d="M18.109 8.203v-29H9.078v75.484h9.031V46.39q2.844 4.875 7.156 7.235Q29.593 56 35.593 56q9.969 0 16.188-7.907 6.235-7.906 6.235-20.797T51.78 6.484q-6.219-7.906-16.188-7.906-6 0-10.328 2.375-4.312 2.375-7.156 7.25zm30.578 19.094q0 9.906-4.078 15.547t-11.203 5.64q-7.14 0-11.22-5.64T18.11 27.297t4.078-15.547 11.219-5.64q7.125 0 11.203 5.64t4.078 15.547z"/><path id="DejaVuSans-117" d="M8.5 21.578v33.109h8.984V21.921q0-7.766 3.016-11.656 3.031-3.875 9.094-3.875 7.265 0 11.484 4.64 4.234 4.641 4.234 12.657v31h8.985V-.001h-8.985v8.406Q42.047 3.42 37.718.999q-4.312-2.422-10.03-2.422-9.422 0-14.313 5.86Q8.5 10.294 8.5 21.576z"/><path id="DejaVuSans-116" d="M18.312 70.219V54.688h18.5v-6.984h-18.5V18.016q0-6.688 1.828-8.594t7.453-1.906h9.219V0h-9.219Q17.187 0 13.234 3.875q-3.953 3.89-3.953 14.141v29.688H2.687v6.984h6.594V70.22z"/><path id="DejaVuSans-111" d="M30.609 48.391q-7.219 0-11.422-5.64t-4.203-15.454 4.172-15.453q4.187-5.64 11.453-5.64 7.187 0 11.375 5.656 4.203 5.672 4.203 15.438 0 9.719-4.203 15.406-4.188 5.688-11.375 5.688zm0 7.61q11.719 0 18.406-7.626 6.703-7.609 6.703-21.078 0-13.422-6.703-21.078-6.688-7.64-18.406-7.64-11.766 0-18.438 7.64-6.656 7.657-6.656 21.078 0 13.47 6.656 21.078Q18.843 56 30.609 56z"/><path id="DejaVuSans-119" d="M4.203 54.688h8.985L24.42 12.016l11.173 42.672h10.594l11.234-42.672L68.61 54.688h8.984L63.282 0H52.688L40.922 44.828 29.11 0H18.5z"/><path id="DejaVuSans-114" d="M41.109 46.297q-1.516.875-3.297 1.281Q36.031 48 33.89 48q-7.625 0-11.703-4.953T18.11 28.813V.001H9.078v54.688h9.031v-8.5q2.844 4.984 7.375 7.39 4.547 2.422 11.047 2.422.922 0 2.047-.125 1.125-.109 2.484-.359z"/><path id="DejaVuSans-87" d="M3.328 72.906h9.953L28.61 11.281l15.28 61.625h11.094l15.328-61.625 15.281 61.625H95.61L77.297 0H64.891L49.516 63.281 33.986 0H21.578z"/></defs><use xlink:href="#DejaVuSans-73"/><use x="29.492" xlink:href="#DejaVuSans-110"/><use x="92.871" xlink:href="#DejaVuSans-112"/><use x="156.348" xlink:href="#DejaVuSans-117"/><use x="219.727" xlink:href="#DejaVuSans-116"/><use x="258.936" xlink:href="#DejaVuSans-32"/><use x="290.723" xlink:href="#DejaVuSans-112"/><use x="354.199" xlink:href="#DejaVuSans-111"/><use x="415.381" xlink:href="#DejaVuSans-119"/><use x="497.168" xlink:href="#DejaVuSans-101"/><use x="558.691" xlink:href="#DejaVuSans-114"/><use x="599.805" xlink:href="#DejaVuSans-32"/><use x="631.592" xlink:href="#DejaVuSans-40"/><use x="670.605" xlink:href="#DejaVuSans-109"/><use x="768.018" xlink:href="#DejaVuSans-87"/><use x="866.895" xlink:href="#DejaVuSans-41"/></g><path d="m75.297-1 .374 146.34.356 23.341.534 19.87.83 19.449.712 17.8.059-2.974.06-.286.118 2.2.356 7.835.237.509.119-.32.118.16h.06l.118.15.178-.32.119.48.059-.16.06-.159.77-5.981.06.151.118-.647.178-1.925.178-2.742.178 6.467.06-.134.237-1.875 1.126 11.04.178 1.277.416 3.374.474 3.042h.119l.356 2.255.118.48.297 1.117.949 2.237h.118l.237.328h.06l.178.471.237-.008.119.16.177 1.11.178.958h.06l.237.463.237-.009.06.16.059-.32.296 1.252h.06l.118.16h.06l.237.32h.237l.237.957h.119l.178.48h.06l.177.328h.119l.118-.471.119.319.178-.462.118.169h.06l.118-.16.06.008.356.799.118-.16.06.009.118-.151.119.16.118-.16.178.008.178.32h.178l.178.327.415-.95h.06l.118.16h.06l.059.16.118-.168h.06l.178.462.118-.32.119.176.118-.008.238-.471.118.48h.06l.177.31.12-.16.058.328.06-.16.059.152.119-.168h.178l.059-.48.178.631h.06l.474 1.093.118-.16h.119l.06-.479.058.32h.06l.06.16.177-.32.119.32.059-.169.06.152h.059l.059-.16.118.32.178-.48.119.32h.06l.118-.16.178.471h.06l.118-.151.178.319.118-.47.119.319h.06l.177-.31h.06l.177-.48.238.487.237.008.06.16.118-.151.356.008.118.488.119-.16.119.16h.059l.178.151.118.018.178-.48.297.647h.178l.178-.487.118.319.119-.16h.06l.236.471.06-.008.06-.16.118.32.059-.8.06.632.296.79.06-.16.236.463.06-.168.059.16.119-.16h.059l.06-.48.059.16.177.47.12-.168.058.009.119.311.06-.008.118-.48.06.16.059-.16.415.958h.059l.06-.16.118.32.237-.471.119.16h.06l.118.168h.059l.119-.16.118.017.119.32.178-.631.178.487.178-.311.059.16.237-.47.119.151.118-.64.06.16.178.328.059-.008.297-.48h.059l.06-.15.118.328.118-.48.238.471.178-.328.059.16.178-.488h.118l.238-.648.178.312.118-.488.06.16h.059l.06-.16.296.798.178-.63.059.32.06-.16.118-.017.118-.311.119.32.06-.632.059.472.178.311.177-.008.06.16.237-.48.178.328h.06l.059-.16.177.806h.06l.237.497h.06l.118-.32.178.328.118-.16h.06l.118.16h.06l.237.8.06-.16.059-.16.237.487.118-.32.119.16.356.026.119-.16.237.488.06-.009.414-.805.119-.018.178-.32.237.48h.06l.059.16.296-.487h.119l.118-.16h.06l.059.168.06-.16.059-.008.296.47.06-.319.059.152.118.16.238-.018.178.472.059-.008.118-.152h.06l.06.16.058-.471.06.32.178.319h.118l.06-.151.237.942.178-.32h.118l.06-.47.059.319.119.32.118-.16h.06l.296.63.119.009.118.16.119-.16.06.168.059-.16h.059l.178-.294h.06l.236-.95.238.478h.118l.119.32h.06l.118-.143.059.15.297-1.102h.237l.06-.319.118.312h.059l.06.16.059-.152h.059l.119-.48.118-.63.06.008.177-.336h.119l.06-.16.118.632h.06l.177.302h.119l.118.648.06-.168.059-.008.178-.48.06.16.118-.487.178.32.178-.329.178.32.118-.017.119-.16.119.16.118-.152.119.16.178-.009.178.79.059-.167.178-.312h.06l.058.16.12-.63.118.318h.059l.178-.32.119.153.237-.472.356.647.118-.009.237.472.12-.32.236.655.119-.16h.06l.059.16.118-.16.178.009.178-.64.06.169.118.168.474-.016.178.336.178-.48.178.48.237-.495.06.48.059-.32.119-.151.118.008.119-.48.06.16.118.152.06-.008.177-.327h.06l.059-.16.059.152h.06l.118.487.06-.168h.118l.06-.16.177.463.06.151.059-.15h.118l.06.159.059-.48.06.16.296-.017.06-.16.118.488.118-.176.06.008.178.647.118-.311.178.638h.119l.059-.151.178.48.178-.463.178.638.06-.631.058.48.06.319.059-.16.119-.15h.059l.119.319.177-.64.06.009.178.32.118-.153.238.017.118-.152.06.16.177-.647.178.327.178-.487h.238l.118-.151.06.15.118-.319.06-.48.059.169h.059l.119.31.178-.478h.059l.118-.16h.06l.118.16.119-.16.06.009.177.487.06.16.118-.32.06.16.059-.167.118.631.238-.008.118-.16.119.32.178-.496.06.168.058-.16h.06l.059-.631.06.312.237.47h.118l.237.631.119-.47.119.319.118-.32.178.48h.06l.118-.16.119.47.296-.655.06.16.178-.472.118.32h.06l.237.488.118-.48.06.16.118.008.178.32.06-.16.118.32.119-.16.178.017.237-.64.178.32.178-.32.059.16.178-.32.119.01.177-.64.238.487.059-.16.06.16.237-.327h.118l.06.16.177-.32.119.328h.06l.059.151.118-.16h.06l.118-.319.415-.025.178.48.178-.336h.06l.059.16.06-.8.058.472.297.63h.06l.177.631.178-.487.119.32h.06l.058-.32.06.16.118.319.238-.009.059.32.06-.168.236-.48.416.807h.118l.06-.16.118.16.237-.471.119.479.119-.152h.059l.06.16.118-.16.118.009.06.16.296-.623.06.16.118-.32.06.16.059-.16.06.16.236-.47h.119l.119-.48.178.656h.059l.237-.48.297.018.059.16.119-.32.177.328.12-.017.058-.16.119.32.178-.488.119.16h.059l.118-.32.238.463.118-.008.475.966h.178l.118.311.06-.008.059.152.119-.16h.059l.06.32.058-.632.06.312.178.31.118-.16.06.01.178.622.296.017.119-.16.118.807.06-.16.178.009.118.16.178-.472.178.008.178-.478.119.319.059-.16.237.496.237-.79.119.318.178-.647.119.32.118-.151.06.009.118.15.237-.79h.238l.059.16.356-.799h.059l.178-.32.237.631.178-.319.119-.008.059-.16.178.48.178-.488.118.16.238-.008.118.16.119-.168.178.479.118-.168.06.008.237.463h.06l.177.32.06-.632.059.472.178.958.178-.008.178.799.178-.471.177.319.06-.632.06.16.118.32.118-.152h.06l.178.48.178-.471.237.479.059-.16.06.168.059-.16.178.008.118.471.06-.16.177-.63h.119l.06.16.059-.16.118.16.178-.32.06.008.237-.79.06-.328.058.168.178-.008.06-.16.178.48.177-.488h.12l.177-.64.178.48.296-.008.06.152.118-.16.119-.008.178-.48.237.471.119-.479.118.16.06-.48.059.152.237.47h.119l.237.464h.119l.118.32.119-.48.178.807.118-.009.06-.16.118.32.297-.639h.119l.059-.63.06.479.118.479.118-.16.06.009.06-.152.118.152.118-.32.178.328h.297l.178-.311.178.009.178-.632.118.009.06.16.059-.16.118.16h.06l.118-.16.119.017.06.16.236-.472.06.009.118.151.119-.16h.119l.118-.327.06.16.059-.152.06-.008.059.15.118-.319.119.336.06-.16.118.144.118-.16h.06l.118.64h.06l.118.16.119-.01.06-.159.236.463.06-.008.118-.32.06.16.118-.487.119.319h.296l.178.463h.119l.178.32.06-.16.236.957.178.009.119.311.118-.016.06-.152.118.168h.06l.118-.63.178.318.178-.008.119.16.178-.312.178.488.118-.312.178.64.178.008.119.311.237-.783.119.16.415-.95h.06l.118.152.118-.64.06.16h.237l.06-.16.177.32.178-.31.119.008.118-.32.178.488.297-.647.059.16.119-.32h.059l.119.16.118-.32.06.009.177.328.119-.009.119.16h.059l.178.791.119.16.177-.32.06.168.059-.16.06-.008.059.152.118-.311.119.16.06-.48.059.152.237.47h.118l.06.16.118-.168.238.32h.118l.06-.16.177.479.119-.151h.06l.118.31.237-.815.06.16h.059l.06-.16.118-.631.059.16.119-.16h.059l.06-.16.177.48.119-.16.06.008.118.32.118-.16.06.007.118.16.178-.31.119.008.296-.95.06.159h.118l.178.32.119-.32.178-.009.178-.32.178.497.118-.168.06.16.177-.168.178.008.06.16.178-.488.178.336.118-.168.119.16.06-.168.118.32h.118l.119.143h.119l.237.782.118-.319.119.16.06-.64.059.312.178.48h.177l.356.782h.06l.118.319.06-.32.059.168.118.32h.178l.238.462.059-.167.119.167h.118l.119-.63.296.496.06.008.059.328.06-.16.118-.64.06.169h.059l.118.16h.06l.059-.312.118.32.119-.16h.119l.118.16.237-.783h.12l.177-.32h.06l.118-.319.178.009.237-.631.06.168.059-.16.059-.008.119-.16.178.311.118-.319.178-.017.119-.488.118.328.06-.167.059.151.06-.008.118-.16.119.16.118-.16.178.168.119-.32.237.943.119-.008.118-.16.06-.64.177.952h.297l.06.168.118-.176.237.32h.06l.059-.472.059.16.178.478.178.009.118.16.06-.008.178-.304.118.16.119-.32.119.48.237-.329.06.16.296-.942.059.16.296.487h.238l.118.151.238-.471.118.16h.178l.06.326.059-.16.178-.319.118.009.178-.32.178.328.119-.32.178.48.118-.16.178.177.178-.48.178.647.119-.167h.059l.237-.328h.06l.118.168.119-.151h.06l.118.311.296-.016.119-.326.296.621h.119l.237.783h.119l.118.32.06-.792.06.312.177.63.178-.008.178.631.237-.487.119.32.059-.32.06.167.118.32.119-.169h.059l.119.64.177-.48.178.008.119-.16h.06l.118.16.119-.151.059.008.118.328.297-1.11.06.16.177-.32h.06l.059.16.178-.462.06.008.058.16.178-.96.06.169.118.168h.06l.177-.472.06.32.118-.32.178.017.178-.647.06.328.059-.16h.06l.236.311h.06l.059.152.119-.16.118.152.119-.328h.06l.236.471.06-.16.178.32.118-.16h.06l.177.302.12-.16.177.48.237-.017.06.16.059-.48.06.313.177.48h.178l.237.798.119-.32.119.16.118-.63.06.319.118.32.119-.16.118.017.119.311.178-.471.118.16h.06l.178-.48.059.16.119-.16.118.017.06.32.059-.168.237-.463h.06l.059.151.118-.16h.119l.119-.167.118.008.06.151.237-.959.118.328.119-.168h.06l.059-.32.059.16.119-.167.118.008.119.143.118-.48.119.337.06-.16.177-.328.06.16.059-.16.118.632h.06l.118.16.06-.01.118-.479.238.943h.177l.06.16.06-.48.058.152.178.487h.06l.118-.16.119.32.237-.496h.06l.118.32h.06l.237.63.118-.16h.06l.177.623h.12l.177.479.119-.631.118.16.119-.16h.118l.12.32.236-.783.238.008.059.32.06-.16.118-.16.118.009.06.32.059-.16.178-.312.178.008.178-.639.06.168.058-.16.178-.302h.119l.237-.79h.06l.177-.488.06.16.415.008.119-.64.059.16.178.488h.178l.059-.32.06.32.059-.16h.237l.118-.31.06.008.118.16.178-.017.415.95.238-.008.178.312h.178l.118.319.06-.32.059.152.178.31h.178l.118.16.119-.016.178-.32.06.16.118-.16.118.799.06-.008.178-.018.177.463.297.017.119-1.11.059.48.06.159.118-.16.118.009.12.48.177-.48.119.008.118.16h.119l.06.16.177-.311h.06l.118.168.178-.64.06.168.177.32.356-.79.178.017.178-.631.06.008.118.152.178-.009.118.16.297-.008.178-.48.118.168.12-.008.236-.631.178.64h.06l.059.16.118-.17h.06l.118.337.06-.16.237-.487.06.32.059-.472.059.152.118.16.238-.009.178.311.118-.168.119.009.06.16.118-.64.06.168.118.32.059-.01.356.96.119-.16h.059l.06.32.058-.16.12-.48.177.48.119-.16.059.008.119.312.059-.009.118-.16h.06l.118.16.119-.327.119.32h.059l.119-.16.059.008.06.16.177-.488.237.488h.06l.118.16h.06l.237-.79.06.159.236-.959.119.16h.06l.059-.16.118.16h.06l.059.152.118-.32h.178l.119-.48.237.64.119-.16.06.16.177-.471h.06l.118.168.06-.009.118-.15.119.327.059-.16.178-.327h.06l.058.16.06-.8.059.632.237.479.119-.16.178.328.06-.008.118-.16h.178l.059-.48.06.16.177.47h.178l.119.312.178-.48.237.48h.06l.118.638.06-.008h.177l.06.16.177-.496.06.168.059.008.118.32.06-.32.06.168h.058l.119.32.119-.16h.178l.178-.32.177.647h.12l.058-.152.06.16.178-.47h.059l.119.16.177-.64.12.168h.058l.178-.319h.119l.119-.151h.059l.118.32.12-.16.236.799h.06l.059-.16.119.32.118-.009.06-.16.177.32h.06l.118-.16.119.16.237-.496h.119l.237.8h.06l.118-.152h.06l.236.782h.178l.06.16.059-.631.06.471.177.47.178-.327.06.32.059-.168.474-1.278.178.327h.06l.118-.151.119.328.118-.328.297.647.119-.32.059.16.178-.31.06.008.118.32.356-.792h.059l.118-.479.06.16.178-.31.059.008.119.16.178-.64.237.639.06-.16.058.16.178-.168h.06l.118-.15.06.15.177-.319.06.168.06-.16.236-.655.06.16.178-.168.118.16.06-.009.177-.479.178.48.297.47h.06l.177.48.06-.01.118-.159h.06l.177.471.178-.479.119.32.06-.472.236 1.278.06-.008.118-.16.178.47.237.009.06.16.118-.472.06.16.118.16h.178l.119.479.06-.168.177-.472.119.32.178-.32h.059l.06.32.059-.16.177.017.06.16.118-.48.06-.32.059.168.178.32h.237l.119-.16.178.009.178-.648h.296l.119-.32.118.48h.238l.178-.647.059.168.178-.008.118-.16h.119l.06.312.059-.16h.178l.059.152.118-.16.178.64.06-.009.178-.487.059.16.119-.328.178.319h.177l.238.471h.059l.178.487.119-.478.177.319h.238l.178.63h.059l.178-.15.06.159.058-.95.06.319.178.479h.059l.119-.16.059.32.06-.16.177-.8.178.648.119-.32.118.328.119-.16.119.008.059.16.415-.95h.119l.059-.16.06.16.118-.16.119.009.118.32.178-.64.178.32h.06l.059-.16.118.16.237-.79.12.328.118-.48.178.328.296-.815.06.472.059-.16h.178l.059.16.119-.16.296.615h.06l.355.79h.119l.119-.32.059.01.06.16.236-.497h.178l.06-.16.237.782.178-.328.118.16.119-.017.237.656.119-.312.178.639.06-.009.118-.16.118.32h.06l.118-.311.119.008.119-.32.059-.63.06.319.058.16.12-.16.058.008.06-.16.118.48.178-.32.237.008.178-.311h.06l.118-.151.178.017.178-.32.06.008.355-.647h.06l.178-.63.118.009.178-.64.178.48.06-.009.177-.319.06.16.118-.328h.119l.06.32.118-.328h.06l.236.783.119-.32.06.16.059-.16.177.791.12.311.177-.008.119.327.355-.008.06-.32.06.152.236.79h.06l.296.64.06.008.177.806.06-.16.059-.16.178.648.06-.009.118-.16.118.648.06-.16.178-.631.178.479.118-.472.119.16.118-.16.06.009.118.648.178-.648.06.008.118.16h.06l.118-.152h.119l.237-.47.06-.009.237-.959h.059l.178-.487.06.16h.118l.118-.16.178.017.178-.967.119.168.356-.008.178-.487h.118l.178-.647.237.799.119-.32.06.16.059-.16.059.48.06-.16h.059l.177.48h.12l.177.479.119-.177.178.328.059-.48.178.951.237-.008.237.799.06-.009.177-.151h.06l.06-.32.236.807h.178l.06.16.237-.648.178.32.118-.32.119.32.237-.64.06.48.059-.32.118-.328.178.176h.06l.118-.47.06.16h.059l.237-.48.06.16.118-.488.06-.32.059.169.178.487.177-.32.06.153.237-.48h.178l.119-.16.178.488.118-.32.06.16.059-.16.06.16.118-.16.178.328.118-.48.237.624.12-.487.058.16h.06l.178-.32.178.328.118-.16h.06l.118.312.119-.017.059-.16.119.32.059-.32.178.959.06.008.177.152.06-.16.118.32.178-.496.119.32.059-.16.06-.48.058.312.178.47.178-.008.178.48.178-.304.119.16h.118l.178.479.119-.16h.06l.118.32.237-.783h.06l.118.16.119-.312.059.16.119-.16.118.017.119.488.118-.48.06.16.178.487.178-.47.059.16.296-.614.06.16.178-.64.059.168.178.303h.06l.118.16h.06l.118-.32.178.329.178-.471.356-.017.237-.327.178-.009.178-.479.118.328.178-.655.119.32.118-.16.238.47.059-.009.119-.151.118.32.119-.017.237-.462.06-.95.059.63.178.48.118-.168h.06l.177.479.178-.312.119.16h.06l.059-.48.059.328.118.16.178.016.119.64.178-.648.06.008.118.16h.118l.178.32.178.008.297-.648.06.008.177.48h.06l.177.478.119-.16.178.009.178-.496.178.176.118-.167.119.16.356-.017.178-.647.237.63.237-.479.237.32.06-.008.06.16.118-.48.118.488.06-.168.178-.327h.118l.119-.328.06.16h.296l.178.639.059-.008.237.32.06-.632.059.48.178.638h.178l.237.8.118-.312.178.32.06-.472.059.32.237.327.119.017.118.312.119-.32.237.647.119-.16.118.168.238.008.059.16.178-.807.178.336h.06l.118-.16h.118l.119-.16.119.009.059.151.297-.631h.177l.06.16.059-.32.06.16.177-.327.178-.009.119-.48.178.32.06-.008.118-.327.059.16.06-.16.059.638.059-.16h.237l.06-.32.059.16.118.64.06-.168.178-.495.118.638.119-.487h.118l.12.16.177-.48.06.32.059-.16.178-.017.059.16.06-.16.355.798h.178l.06.32.059-.16.059.152.178-.463h.06l.058.16.119-.639.178.48.119-.16h.059l.118.32.178-.312.178.327.119-.47.119.319h.059l.178-.47.118.479.119-.48.178.169h.119l.178-.48.177-.31.06.008.118.16.178-.48.119.328h.06l.236-.479.06.16.118-.16.178.009.178-.96.06.169.118.143.06-.008.118-.16h.06l.355.799.178-.48.06.32.059-.152.118-.008.119-.16.06.16.059-.16.059.152h.06l.177.31.119-.167h.06l.058.327.06-.16.059-.008.297.79.118-.327.178.63.178.009.178.63.06.009.118-.303.119.479.059-.48.06.16h.058l.12.16.118-.16.059.01.178.638.119-.176.237.008.06-.63.058.479.119.319.119-.32.059.01.119.647.177-.648.06.008.118.16h.06l.178-.312h.059l.119-.15.118.008.06.151.237-.64.178.312.118-.32h.06l.059.16.119-.16.177-.008.178-.807.178.176.178.152.178-.008.06-.16.118.168.06-.008.177-.648.119.336.119-.016.118-.32h.06l.059-.159.06.632.058-.16.119.16.119-.018.118-.32.119.488.06-.168.118-.176.06.009.118.638.178-2.872.593-13.714.178-.639.118-.639.06.16.77-16.273.06-.16.118-1.11.06.32.237-2.546.475-13.23.059-.48.118-3.185.06.48.415 10.64.06.8.059-1.28.059.32.06.17.474-9.725.059.489.356 8.145.06.48.058 1.588.06-.808h.059l.178-1.446.119-1.916h.059l.06-1.268.118 3.024.06-1.918.058.32.238 4.603.118-.489.06 1.437.059-.32h.06l.058-.168.238-3.494.178-3.337.059 1.119.06-.32.118.31.178 1.756.06.95.058-.329.06.16.118 1.596.06-1.277.059.798.06-.32.236-3.674.178-1.897.06.328.059 1.437.06-1.918.059 1.428.059.48.06-1.118.118 1.277.06-1.428.059.809.059.64.06-.96.118 1.288.059-1.428.06.968.059.479.059-1.277.06.798.059.32.059-1.11.06.16.059 1.597.059-1.277.296 2.714.06-1.278.059.64.06 1.606.059-1.277.059-.16.06 1.597.118-1.589.06 1.437.058-1.117.06-.958.06 1.277.058-.649.06.16.059 1.268.119-1.748.059 1.599.06-.479.059-.16.059 1.269.06-.968.058-1.277.12 1.926.058-.638.06 1.117.059-.638.06-1.118.059 1.277.059-.01.06-.64.059.8.059-.489.06-1.108.118 1.738.06-1.447.058 1.118.06.479.059-1.28.119 1.757.059-1.437.06.798.059.95.059-1.288.06.959.058.47.06-1.109.118 1.599.119-1.288.06 1.277.059-1.117.296 2.546.06-.639.118.95.119-1.27.06 1.589.058-1.11.06-.169.059 1.118.06-.95.059.17.059 1.277.06-.647.059-.32.059.639.118-.958.06 1.277.06-.958.058-.32.06.96.059-.47.06-.16.118 1.277.06-1.109.059 1.447.059-.319.06-.958.058.648.12-.328.058.958.06-.32.059-1.427.06 1.119.059.32.059-.8.119 1.269.059-1.439.06.958.058 1.288.06-.958.06.638.058-.01.06-1.278.118 1.926.06-1.108.059.47.06.32.059-.63.118 2.707.06-1.119.059-.33.06 1.28.058-.798.119 1.596.119-1.118.059.639.06-.479.118 1.756.06-.798h.059l.059 1.447.06-.64.058-.01.06.96.06-.329.058-.47.06 1.117.059-.488.06-.479.059.958.118-1.117.06.957.059-.638.06-.32.118 1.429.06-.96.058.8.06-.16.059-1.119.06 1.287.059-.488.059-.798.06.798.059-.16.059-.15.118 1.27.06-1.117.06.629.058.328.06-.789.118.95.06-1.28.059.49.06.798.059-1.109.059.639.06.63.058-.958.06.649.06.638.058-.95.06.63.059.32.119-.959.059 1.269.06-1.287.059.64.059.958.06-.47.296 1.917.118-.958.06 1.119.059-.48.06.16.059 1.118.059-.47.06-.79.059.96.059-.64.06-.16.058 1.28.06-.489.059-.16.06 1.11.059-.48h.059l.06.958.118-1.598.119 1.596.059-.798.06.798.058-.32.06-.959.118 1.11.06-.32.059.79.06-.169.059-.95.118 1.429.06-.958.059.471.06.64.058-.48.12 1.11.058-.95.06.489.059.32.06-.8.059.63.059.311.06-.79.059.488.059.32.118-.639.06.958.118-.96.06.959.059-.799.297 1.749.118-.95.06.807.059-.63h.06l.058.639.06-.48.059.01.119.96.059-.48.06.639.059-.479.059-.47.06.96.059-.48.059-.32.06.48.058-.31.06.008.118 1.118.06-.798.059.798.06-.32.059-.639.059.639.06-.16.059-.63.059.48.06-.01.058-.64.06.48h.06l.058-.63.119.79.06-.648.059.47.059.958.06-.638.296 1.916.06-.47.118.32.059-.471.297 1.882.059-.479.06.16.058.958.12-.968.236 1.748.06-.63.059-.16.06.48.059-.16.059-.01.118.782.06-.63.06.798.058-.32.06-.63.059.96.06-.16.059.16.059.957.06-.16.059-.16.118 1.12.06-.48.118.782.06-.64.059.648.059-.151.06-.639.059.639.059-.63.06.151.118.958.06-.48.118.95.06-.47.118.79.06-.959.058.16.06.488.059-.63.06.479.059.479.059-.639.06.48.059.48.059-.32.118.31.06-.63.06.16.058.64.06-.16h.059l.06.48.059-.311.059-.312.06.639.059-.328.118.798.119-.799.06.479.118-.488.059.807.06-.47.059-.64.059.48.119-.48.059.648.06-.168h.058l.12.63h.058l.06.64.059-.16.06-.638.059.479.059.008.06-.32.118.47.06-.798.118 1.127.06-.168.058.47.06-.168.059-.639.119.799.059-.16.119.487.059-.479.06.16.059.47.118-.48.237 1.102.06-.327.059.168.06.32.059-.16h.059l.06.79.059-.16.059.16.06.808.058-.488.06.15.178.8.059.32.06-.169h.059l.059.48.06-.152.059-.16.059.639.06-.64.058.16.12.798.058-.008.06.32.059-.16.06-.48.059.959.059-.16.06-.168.059.16.118.017.119.958.06-.95.058.799.178.798.06.16.059-.47.178.807.119.16.059-.48.06.169.058.319.06-.32.118.328h.06l.118.319.06-.479.059.328.178.648h.06l.058-.31.12.647.118-.32.059.48.06-.32.118.639.178-.639.118-.48.06.48.118-.799.06.16.118.008.119.639.06-.479.059.639.059-.16.06-.32.058.32.06-.16h.06l.058.479.06-.328.178-.32.059.009.119.48.059-.329.06.16.059-.16.059-.479.118.48.06-.16.178.63h.059l.119-.31.118.478.119-.336.06.16.058-.32.06.16.118.632.178.487.06.16.059.48.06-.16h.059l.177.958.06.312.06-.16.058-.32.06.32.059-.16.06-.32.059.632.059-.16.06.16.177.79.237.488.06-.009.059-.16.119.328h.059l.06.16.059-.16.118.958.06-.16.118-.16h.06l.118.472.178-.647.237.647.119-.632.178.32h.059l.119-.151.059.32.178-.648.06-.152.177.32h.119l.059-.153.119.16.178-.622.059-.008.06-.168.059.16.118-.152.06.008.177-.168h.178l.06-.16.178.169h.059l.178-.64.178.656.059-.008.178-.48.119-.007.118-.16.06.009.118.319.119-.32.237.623.237-.807.178.632.237.462h.06l.415.942h.06l.058-.64.06.472.237.47h.178l.06.48.058-.168.06-.008.296.639.06-.32.059.168.178.479h.178l.06.32.058-.16.178-.631.178.806.119-.311.237.479h.119l.059.16.237-.951.237.487.06-.152.118.48.06-.16.118-.16.178.009.178-.472.06.008.118.312.178-.328.06.16.237-.48.118-.008.119-.32.237.631.119-.487.059.16.237-.48.178.017.119-.16.178.472h.059l.178-.328h.119l.118-.327.178.319h.119l.059-.16.06.32.059-.168.178-.328.059.008.118-.152.178.792.119.16h.119l.059-.152.119.16.118-.008.06-.152.177.328.06-.312.06.152.177.479.06-.009.118-.16.119.32.177-.48.238.488.059-.32.119.487.178-.319.059.009.118.328.178-.32.06.008.178-.319.118-.639.06.32.118-.32.119.009.118.151h.06l.178-.311h.118l.178-.966.119.48.178-.311.118.008.178-.48.119.329h.06l.177-.32.119.16.118-.16h.178l.178-.487.119.336.178-.008.178.319.059-.008.237.479.178-.32.06.168.059-.16.06-.008.236.471.178-.311.237.47h.12l.177.472.178-.336h.119l.059-.8.06.632.236.47.119.009.119.64.059-.169.178.152h.178l.06-.48.058.16h.06l.237-.328h.06l.118.152h.06l.118-.152.415.958h.178l.296-.95.06.168.178.327.178.009.059.16.178-.471.356-.95.059.167.178.152h.06l.059-.152.059.16.178-.32h.178l.118-.32.238.472.118-.16.06.16.237-.48.178.32h.059l.06-.16.177.472.06-.008.118-.168.119.16.059-.32.06.152.237.79h.118l.178.47.178-.327.593 1.278.06.008.118.312.178-.631.06.16.177-.792.178.951.237-.328.119.32.296-.623h.06l.118-.16.119.168.178-.311h.06l.059.16.296-.623h.06l.118-.479.119-.471.118.16.119-.151h.178l.118-.48.12.647.058-.16.06-.007.178-.488.059.16.237-.479.06.009.059.16.118-.64.238.8.118-.329.178.632.119-.32" clip-path="url(#pe7a62ceaee)" fill="none" stroke="#1f77b4" stroke-linecap="square" stroke-width="1.5"/><path d="m75.355-1 .376 134.42.534 33.003.711 23.096.712 16.413.475 8.69.178 6.397.177-5.179.12 1.72.355 5.914.178.189.534-1.728.118-.808.06.48.059-.17.119-.478.355-3.512.416-4.998.059.151.178-1.915.237-3.672.178 7.594.06.35.296-2.202.296 3.015.119.48.415 2.894.534 3.524 1.72 8.738.178.48.296 1.578.356.77.06-.479.177.959h.119l.178.948.06-.009.414 1.1.119-.168.06.32.059-.16h.059l.118.16h.178l.06-.16.178.32h.059l.178-.312.118.32.12-.16.236.01.06-.151.118.169h.06l.118-.32.475 1.136.178-.31.118.159.06-.16.593 1.296h.178l.177.329h.06l.059-.16.119.328.059-.009.178.311h.06l.059.16.059-.16.415.95h.06l.118.15.178-.488h.118l.12-.319.592 1.288.06-.64.059.32.296.958.119.32h.06l.236.977.12-.169.118-.799.059.16.415 1.108.237-.31h.06l.118-.16.238.488h.059l.118.32h.06l.237-.48.06.16.177-1.128.06.169.118.328h.06l.177-.479.475-1.465.06-.32.059.169.059.169.06-.16.058.16.178-.32.06.16.178-.79.118.16h.06l.059-.16.06.16.118.648.06-.008h.058l.119.311h.119l.178-.31.177.47h.12l.177.799.119-.328.178.479.415.816h.118l.06.48.059-.169.89 2.058.178-.488.059-.47.06.319h.058l.238.798.059.32.06-.33.059.16h.059l.06-.16.059.32.296-1.278.06-.008.118.16.119-.16.118.15.119-.168h.06l.118.32.118-.48.06.009.178-.151h.059l.119-.16h.059l.178-.63.06.01.296-.64.118.32.178-.168h.119l.237-.808.06.01.059.16.118-.32h.06l.118.32.119-.16h.118l.119.479.178-.62.119.319.118-.32h.06l.118.31.06-.008.059-.16.06.311.058-.16h.119l.06-.318.237.789.355.621h.06l.118-.31.119.318.06-.16.296.64.118-.16.178 1.11.119-.95.06.319h.059l.118.32.06-.32.177.639.178-.31.119.488.237-1.12.356.799.178-.169h.06l.118.329.296-.63.119.31.06-.32.059.16h.059l.06.16.118-.32.178.01.178-1.439.06.329.177.31.119-.159h.059l.06.16.118-.32.06.01.118.31.178-.329.059.329.06-.16h.059l.118.32.119-.16h.06l.118-.32.06.01.118.168.178-.328.059.32.06-.16.118-.169.178.64h.118l.06-.32.178.639.118.009.06.16.177 1.11.06-.009.06-.32.058.169.178.319.06-.32.178.48.177-.48.12.329.296-.808.118.16h.06l.118.478.06-.16.237-.488.059.32.06-.16.177-1.11.06.16.178.32h.059l.06.319.058-.16.178-.32h.06l.059.16.237-.95.178-.008.06-.16.118.16h.06l.059-.16.059.15.178.01.178-.489.118.657.06-.16.118.16h.178l.178-.48.06.01.118.32.119-.16.178.816.118-.16h.119l.06.16.118-.32.178.338.06-.01.118-.47.178.329.059-.311.119.48h.059l.178-.48.296.488.06.01.178.639.118-.009.178.631.297.808.059-.16.178.018.119.32.237-.817h.118l.06-.16.237.47h.178l.118.311.06-.008.178-.32h.118l.238.638.118-.337.119.01.06.15.236-.8.06-.63.059.16h.06l.118-.48.06.16h.058l.297-.647.06-.01.118-.647.237.64.06-.16h.059l.118.16.238-.621.118.31.119-.64.06.16.059.17.118-.169.119.47.06-.159.058.16.178-.63.178.329.178-.32.178.622h.119l.178.479.059-.16.237.808.06-.01.118-.14.178.47.06-.16.177.639h.119l.237.79.06-.17.118-.16.06.32.059-.16.178-.807.118.16.178.478.119.48.118-.498.238.32.355-.79h.06l.059-.32.06.32.059-.16.237-.47.118.62.238-1.27.059.16.06.16.177-.479.06.16.237-.46.118.328.178-.64.06.329.059-.16h.356l.118-.31.12.018.058.15.238-.479.415.781.178-.337.118.15.178-.48.06.32.059-.16.06.152.058-.16.238.479.059-.32.06.16.118.16.119-.018.118-.32.178.79.06-.32.059.16.059.16.06-.16.059.16.059-.16.237.48.06-.01.059-.16.06.16.177.8.06-.16.059-.64.059.48h.06l.059.16.118-.48.178.826.06-.168.059.16.059-.151.119.799.059-.16h.06l.296-.487h.06l.118.16.178-.01.118-.15.06.32.237-.791h.118l.06.16.06-.16.058.16.06-.16.059.16.06-.17.059.16.059-.15.06.168.059-.16.177-.95.06.169.06.009.118.16.118-.16h.06l.237-.47h.118l.238-.79.178.327h.059l.178.32.178-.47.178.479.118-.32.178.32.06-.16.059.152h.06l.118.16.118-.32.178.488.178-.32.237.614.12-.32h.058l.06.32.059-.16h.119l.118.16.06-.17.059.16.06-.16.177.631.119-.648.118.32h.178l.178.958.06-.16.059.01.118-.142.06.32.06-.16.118-.489.059-.48.06.16h.177l.119.16h.06l.058-.328.06.15.118.01.06.47.059-.32.06-.16.059-.48.059.01h.06l.118.319.06-.16.118.16h.06l.118-.17.059.01.119-.15.059.008.119-.64.059.17.356-.63h.06l.236-.808.119-.01.119-.32.059.16.178.657h.06l.058.16.06-.16.059.16.237-.46.119.159.118-.32.356.791h.238l.237.799h.178l.178.31h.059l.237.799.06-.16.296 1.109.237.329.119-.018.06-.16.177.32.06-.16.296.63h.06l.059-.15.118.479.06-.01.118-.95.06.32h.059l.296.639.178-.48.237.64.356-.816h.178l.178-.488.356-.95.06.168.118-.008.119-.32.118.16.475-1.437.059-.32.06.168.177.152.119-.16.118.16.06-.169.059.16.178.009.178-.808.118.169h.178l.06.16.059-.16.06.319.059-.32.059.16.237.48h.06l.059-.16.118.479.119-.328.178.799.534 1.428.178 1.119.118-.48.06.16.118.16.119-.48.178.329.06-.01.118-.31.178.95.059-.16.06-.16.177.48.06.16.059-.16.118.16.238-.489.118.96.06-.32.177-.791.178.32.119-.16h.119l.296-.79.178-1.128.178.32h.119l.178.48.118-.17.178.01.178-1.12.06.329.059.008.059-.16.06.152h.118l.06-.16.118.32.118-.17.119.17.178-1.11.119.328.059-.008.06-.16.236.479.12-.48.177.33.178-.01.119.32.118-.328.119.48h.118l.119-.64.06.17.177.31h.119l.118.639.178-.657.06.16h.059l.119.32.059-.32.06.16.118.497.06-.169.177.01.178.62.119-.319h.118l.119-.32.178.48.118-.16.12.329.058.48.06-.16.296-1.11.297.638.178-.31.059.009.06.16.177-.96.06.169.059-.311.06.16h.058l.178-.48.119.16.119-.31.059.01.119.31.118-.96.06.01.059.168.06-.16.177.152h.119l.118-.639.06.16h.059l.118-.32.12-.639.177.64h.06l.059.151.118-.16.119.16.06-.328.058.15.12.16.058-.01.119-.16.119.8.059-.008.06-.009.296.799.118-.32.238.479h.059l.949 2.379h.06l.118.32.178-.809.06.16.118.16.059-.16.178.497.06-.169.059-.009.177.64.06-.16.178-.631h.118l.06.16.118-.48.178.32.119-.329.06-.009.177.329.297-.631h.059l.119-.32.059.16.178-.47h.178l.118-.32.238.808.059-.008.06-.16.177.48.06-.32.059.169.178.009.178-.48.118.328.06-.16.059.152h.06l.118.16h.059l.119-.489.118.498.119-.489.118-.64.12.32.118-.328.118.16h.06l.059.16.06-.16.355.79.06-.16.118.328.06-.009.059-.16.178.329.177-.48.178.32.119-.009.06-.16.118.48.119-.497.059-.48.06.32h.118l.237.648.119-.328h.118l.119.64.237-.96.119.152.118-.16.119.16h.06l.177-.329h.06l.059.32.296-1.758.06.16.118-.16.178.319.178-.47h.119l.178-1.12.237.49h.119l.177-.48.06.151.118-.142h.06l.178-.32.178.657h.118l.178.48.119-.32.118.337.06-.16h.059l.119-.31.237 1.136.06-.009.118.16h.059l.119-.639.178.488h.059l.178.64.118.31h.06l.06-.159.177.32h.119l.118.328.119-.01.06.16.058-.16.12.64.058-.169.06-.168.059-.64.06.48h.059l.178-.479.059.16.06.479.058-.16h.178l.119.48.06-.169.177-1.136.06.32h.059l.06.16.058-.16.12.638.058-.16.06-.168.059.16h.06l.414-.942.06.16.118-.16.178.32.238.018.059.32.296-1.102.06-.16.059.16.119-.16.118.32.178-.799.06.01.118.15.119-.48.06.16.058.329.119-.32.06-.008.059-.16.118.16.119-.48.178.179h.178l.178.488.059-.16.06.152.118.16h.06l.118-.64.06.16.118.48.059-.17.119-.16h.059l.178.623h.118l.12.16h.058l.06-.16.237.789.06-.15.118-.311.119.32.059-.01.06-.16.177.489h.06l.059-.16.178.639h.059l.119.168.059-.15.06.15.118-.017.118-.95.06.48h.059l.297.638.237-.48.118.16.238-1.11.178.312.118-.16h.06l.177-.47.06-.01.118.48.178-.64.06.01.237-.328.118.319.178-.497.06-.16.118.15.178-.958.119.639.06-.32.058.151.119-.319.119.16.059-.32.06.17h.059l.118.319.119-.16h.06l.118.648.059-.16.297.798.059-.16.178.48.118-.01.12-.16.177.8h.06l.177.806.06.16.059-.32.178.657h.237l.119.64.059-.168.178-.471.118.319.12-.32.177.47.178-.63.119.49.059-.17.118-.807.06.32h.118l.119-.16.119.32.118-.33.06.16.059-.15.119.16.237-1.287.059.152h.119l.059-.32.06.16.177-.488.06.169.059-.151h.06l.058.15.178-.479.06.328.059-.16.178.152h.119l.059.16.06-.489.058.17.12.159.118-.01.118-.319.119.337.06-.16.118.16.118-.16h.06l.118-.32.178.489.119-.32h.06l.118.329.118-.16h.06l.06-.16.118.32.118-.17.178.32.06-.01.118-.159.119.32.118-.328.178.799.119.16h.06l.118.328.119-.01.296.791.119-.488.059.151h.06l.059.16.118-.16.178.48.119-.489.178.498.118-.489.119-.48.178.32.06-.32.058.17.12.319.118-.15h.059l.119.48.059-.16.237-.951h.06l.118-.32.119.16.178-.328.118.018.06.16.296-1.102.119.16h.118l.238-.488.118.018.119.142.118-.799.12.976.058-.16.06-.008.059.16.06-.16.118.479.178-.807.118.328.06-.16.118-.64.119.809.06-.009.059-.16.059.152.178.319.178-.63.118.32.06-.01.118-.488.119.8.06-.01.059-.319.118.32h.06l.118.479.06-.32.237.967.118-.15h.06l.059.32.06-.169.118-.328.118.32h.06l.118-.32.178.648.06-.16.059-.168.06.16.059.009.059.48.06-.32.355-.809h.06l.118.48.06.478.059-.328h.177l.06.32.178-.48.356-.63.118.16.178-.489.06-.15.118.47.237-1.11.119.32h.06l.118-.16h.118l.06-.329.06.151.058.01.238-.48.355.799.06-.16.06.16.058-.16.06-.479.059.01.178.488.178-.64.118.151.12-.008.236.638.06-.168.178.639.059-.01.178-.32.118.48.06-.008.059-.16.119.16h.059l.06.319.059-.169.059-.009.118.337.12-.018.058.16.06-.16.118.32h.06l.059-.32.178.48.356.789.118-.329.06.01.178.799.059-.16.06-.48.118.48h.06l.236-.461h.06l.118-.32h.06l.118.648.178-.64.119-.159.118.32.06-.32.118.497.119-.488.237.507.297-.631h.118l.178-.32h.119l.118-.15h.12l.177-1.12.119.329h.178l.177.479.12-.32.118.17.237-.489.178.32.178-.008.118.319.06-.32.059.16.06.01.118.15.178-.648.06.32.059-.16.177.31.119-.16.06.32.118-.48.178.32.119-.169h.059l.118.648.12-.328.177.48.178-.32.119.479.059-.16.06-.009.296.649.059-.16.06-.64.118.64h.119l.059-.16.178.798.118-.16h.06l.178.49.178-1.28.059.16.118.479.06-.32.178.48.059-.16.237.347.178-.639.237.009.178.319h.06l.118-.32.06.01.059-.15.06.31.058-.16.12-.8.058.169.119.168.06-.008.118.32.296-.817.06.168.118-.009.119-.799.178.817.119.151.059-.16.119.16.059-.16.06-.478.058.16h.06l.118.15h.178l.06.47.059-.008.06-.16.177.471.119-.479.06-.328.058.16.178.47.119-.32h.06l.059.479.059-.168.118-.329.06.169.06-.16.058-.16.416.968.059-.16.06.16.058.48.06-.01.06-.008.058-.32.06.16.178.32.059-.16.178.479.06-.01.118-.159.06.01.058.319.06-.16.296-1.11h.119l.178.966.118-.319.12.018.118.48.118-.8.06.01.118-.169.06.16.177-.48.06.16.178-.488.059-.15.06.169.059-.16.118-.96.06.16.118.009.119-.16h.237l.178-.3.119-.01.118-.64.119.64.06-.32.118.32h.059l.119.16h.059l.119-.479.178.47.177-.48.178.64.297.639.06-.32.236.808.12-.169.058.16.119.48.119-.329.118.471h.06l.474 1.1h.06l.059.32.059-.16.119.15.059-.32.06.16h.236l.119.799.06-.169.118-.329.119.48.059.32.178-1.288.06.48h.058l.06.16.118-.16h.119l.178-.488.06.01.118.487.118-.799.06.16.118-.32h.119l.119-.16.059.16.237-.798.119.16.118-.32.06-.48.059.01h.06l.118-.169.06.16.059-.16.118.16.119-.648.06.009.118.328.178-.639.178.177.296.63.119-.328.059.01.119.159.178-.489.059.32.06-.16.118-.16h.178l.059.16.06-.479.059.16.178.488.059-.32.06.16.058-.16.475 1.27.119-.479.178.657.059-.169.06-.31.058.169.178.639.06-.009.059-.32.06.168h.177l.06-.16.177.329.06-.169.296.986.06-.16h.059l.237.639.06-.32.177.48.06-.17.118.178.06-.15.118.32.178-1.43.119.32h.118l.178.478.119-.328h.178l.178-1.128.06.169.177-.008.119-.32.118.48.06-.16.177.009.06.15.178-.967.059.169.06-.151.059-.16.059.151h.119l.118.32.119-.648.06.168.118-.009.059.15.119-.479.237.79.06-.008.118-.319.06.16.118-.639.06.169h.118l.118.15.06-.16.118.8.06-.168.059-.16.178.64.06.159.118-.48.178.64.059-.01.178-.47.118.311.06-.009.237.48h.06l.059-.16.178.808.059-.17.06.16.118-.15.118.32.06-.16.118-.8.06.169.237.479.356.009.059.32.237-.792h.119l.119-.319.059.16.296-.639h.06l.118.32.119-.64.06.169.059-.48.059.16h.118l.12.16h.058l.119-.639.06.169.296-.79.06.16.177.64h.06l.177.319.178-.489.119.32.237-.48.119.32.059-.16.06.151h.118l.119.16.059-.32.06.16h.058l.178.48.06-.152.178.312.059-.16.119.16h.059l.178-.32.237.79.356.621h.06l.118.48.178-.32.178.498.059-.169.06-.169.059.16.059.01.119.31.177-.808.06.16.118.32.119-.16.119.32.059-.01.178-.479.118.64.238-1.12.118.16h.119l.119.16.237-.64.118.489.297-1.27h.06l.118.16h.06l.118.478.118-.15.119.018.06.31.177-.959.06.488.059-.16.118.16h.06l.178.48.178-.302.118.16.178-.809.119.48.178-.168h.178l.118-.329.178.488.178-.488.06.32.059-.16.178.31.118-.159.06.16.118-.48.119.32.118-.018.12-.32.118.64.059-.169.06-.32.059.16h.178l.118-.478.06.16.059.319.06-.16.177-.009.119.8.059-.16.119-.48.118.48h.06l.118-.16.119.169.118-.329h.06l.178.657.237-.959.237.48h.06l.118.319.06-.17.059.16.118-.141h.06l.059-.16.178-.95h.06l.118.16.118-.16.119.16.06-.17.059.16.118-.15.06.32.059-.16.118-.64.06.169.059-.311.06.16h.237l.059.16.178-.33.118.16.178-.648.06.01.178.47h.059l.118-.16.06.32.178-.807.237.479.06-.16.118.808.06-.009.058-.16.06.152h.06l.118.479.059-.32.06.16.237.488.118-.47.178.63.06-.008.118-.16h.06l.118.16h.06l.237.647.059-.16.06.01.177.47.119-.471.178.48h.059l.06-.32.177.657.119-.337.06.16.058-.151.06.32.059-.169.178-.64.06.16.059.16.118-.32.178.48.178-.32.06.01.059.15.059-.16.119-.799.059.009h.06l.236.47.06-.16.059.16.474-1.287.06.16.178-.48.118-.159h.06l.118.16.119-.31.06.168.059-.15.059-.01.118-.639.06.16.06.488.058-.151.297.63.178-.79.178.31.118-.319.297.64h.06l.118-.16.06.32.058-.32.297 1.136h.06l.059-.32.118.48.119-.169.237.639.119-.32.237.462h.119l.118.48.178-.497.237.008.119.48.06.318.059-.16h.059l.06-.16.058.16.06.48.06-.009.118-.32.059-.63.06.48h.118l.119-.48.118.32.237-.488.12.648.236-.8.119.472.119-.639.059.16h.06l.177-.31.06.009.118.328.119-.64.059.16.06.01.059-.16.059.15h.06l.058-.159.12.32.118-.488.118.16.06.008.059-.16.178-.639.178.311.06-.008.236.638.119-.32.178.649.06-.169.058-.32.06.16.178.329.118-.16.178.479.06-.01.237.79.06-.32.058.16.416.951h.059l.119-.319.177.169.06-.01.296.827.06-.16.118-.48.119.168h.06l.118-.319.118.479.238-.648.118.648.06-.168.118-1.12.06.32.118.16h.06l.059-.32.059.17h.06l.177-.959.06.16.237-.8.118-.959.06.16h.118l.119-.16h.06l.059.16.118-.169h.119l.06.151.177-.808.119.168.178-.008.059.16.178-.32.237.018.178-.808.119.497h.059l.119-.328.177.48.12-.16.118.328.059-.169.06.17.059-.16h.059l.237.479h.06l.177.638.119-.478.119.337.059-.16.06-.009.118-.16.118.649.06-.169.06-.16.118.64h.178l.059-.16.178.32.118.009.12.328.058.48.06-.169.059-.008.06-.16.118.647.178-.32.237.95.178.009.06.48.059-.16h.059l.178-.48h.06l.118-.32.178.639.296-.018.119-.648.237-.79h.06l.118-.16.119.16.118-.33.119-.008.119-.32.118-.639.06.168.059-.16.178-.007.059-.16.119.16.237-.79h.06l.058.151.12-.63.118.328.059-.16.06.152.059-.16.178.48.059-.16.118-.63.178.338.119-.32.237 1.119.178.63.119.32.06-.32.058.169.119.168.06-.009.237.47.177-.328h.06l.474 1.118.06-.009.118-.15.119.319.118-.009.178.48.119-.16.178.798.178-.178.06.01.058.479.06-.16.474-1.119.119.48.118-.33.238.498.178-.95.059.16h.119l.118-.639.06.16.059.16.237-.62.119.47.237-1.111.118.32.178-.48.06.16.178-.47.059.01.119.16.178-.8.177.471h.119l.06.16.059-.16.059.16.119-.32.178.48.177-.64.178.48.06.151.059-.16.119.64.059-.16.06-.32.059.16.177.31.178-.328.119.16.178-.01.178.48.06-.32.236.79.06-.32.059.16.06-.15.118.639.06-.16.059-.16.118.32h.178l.06-.16.118.639.06-.16.118-.32h.06l.118.649.06-.169.118-.639.118.48.178-.32.178.32h.119l.06-.16.118.48.06-.16.177-.64.178.32.06-.16.118.16h.06l.236-.33.06-.009.237-.95h.119l.178.32.059-.16.06.16.118-.32.118.009.06.16.178-.648.059.168.06-.32.059.16h.118l.119-.319.06.32.177-.48.119.48.118-.32.06.009.118.488.237-.328h.06l.178-.488.178.648h.059l.296.48.06-.32.059.152.06-.16.177.32.06-.32.237.79.06-.16.296.63h.118l.178.48.06-.16.118.478.297-.479.118.302.119-.16.178.8.237.807h.06l.118-.169.119.018.059.47.06-.319.177-.64.119.328.118-.479.06.16.118.16.178-.48.06.01.177-.64.178-.47.119-.47.178-2.863.06-.16.118-.657h.06l.118-1.907.06-.16.533-16.423.06-.319.177-2.874.237-.818.06-1.279.059.32.06.32.533-14.858.06-.48.177-2.225.119-.48.118.471.06-.167.178 1.232.534-8.733.474 12.094.06-.638.059.16.059 1.747.06-.948.474-10.186.118 2.398.06-1.759.059 1.278.237 5.576.119.32.06 1.267.533-8.133.06-.32.177 2.704.06.16.059 1.267.059-1.288.06.798.059 1.268.059-.96.06-.48.059 1.12.355-6.226.06-.17.178-2.227.237 3.195.118 1.747.06-.17.06.949.118-1.748.059 1.439.06-.81.059-1.595.118 1.765.06-1.118.059.948.119-2.076.059 1.277.06-.33.058-.64.12 1.6.058-1.44.06 1.12.059.48.06-1.439.059 1.118.059.319.06-1.118.059.958.059.469.06-1.428.118 2.087.06-1.439.058.96.06.32.059-1.428.06 1.119.059 1.758.059-1.439.06-.01.059 1.599.059-1.118.296 3.193.06-.48.118 1.11.119-1.737.06 1.599.059-1.269.059-.17.06 1.12.058-.8.06.49.06 1.436.058-.488.06-.639.059.958.06-.47.059-.308.059 1.587.06-.798.059-.16.059 1.28.06-.47.058-1.119.12 1.758.058-1.43.06 1.119.059-.33.06-1.276.059 1.277.059-.32.06-.468.059 1.277.059-.798.06-1.597.058 1.12.06.32.06-.95.118 1.588.059-1.438.06.48.059 1.28.059-.96.119.799.059-1.277.119 1.756.059-1.437.06.48.058.16.06-1.11.118 2.865.06-1.279.059-.33.06 1.28.059-1.12.118 1.589.06-.639.059.16.06.638.118-.947.06 1.277.058-1.108.06-.16.059 1.129.06-.8.059-.33.059.96.06-.48.059-.47.059 1.438.06-.329.058-.629.06 1.278.06-.799.058-.319.06 1.277.059-.798.06-.16.118 1.607.06-.96.118 1.269.06-1.269.058 1.448.06-.48.06-.47.058.799.06-.32.059-.319.119 1.596.059-1.117.119 1.606.059-.789.06.958.059-.01.059-1.118.06.49.058.799.06-.96.059.49.06.79.059-.948.059.478.06.48.059-.789.059.469.06.958.059-.958.059.16.06 1.427.058-.649.297 1.749.06-.96.059.81.059 1.436.06-.947.059-.16.059 1.117.06-.798.058.16.06 1.437.118-1.277.06.959.059-.8h.06l.059 1.428.059-.648.06-.16.059.952.059-.31.06-.16.058.957.06-.798.06-.958.118 1.756.059-.798.06.949.059-.33.059-.958.06.808.059.15.059-.48.118.95.06-.95.118 1.268.06-.798.118 1.427.06-.958.059.479.06.469.059-1.12.059.49.06.649.058-.96.06.64.06.32.058-.95.06.17.059.48.06-.959.059.15.059 1.117.06-.798.059.32.059.957.06-1.128.059.639.177 1.109h.06l.118-1.419.06.968.059-.951.06.15.059.958.059-.638h.06l.059.958.059-.16.06-.639.058.639.12-1.268.058 1.119.06-.17.059-.32.06.96.059-.31.059-.8.119 1.28.059-.959.06.639.058-.16.06-1.117.06.958.118-.64.059.97.06-.16.059-.969.059.64.06.32.059-.79.118.94.06-.959.118 1.748.06-.958.059.798.059.16.06-.639.118 1.767.06-.79.059.48.059.16.118-.48.06 1.269.06-.808.058-.16.06.64.059-.64.06.48.059.957.059-.16h.06l.059.64.059-.32.06.33.059.957.059-.63.06-.16.058.8.06-.47.06-.01.118.64.059-.16.06 1.118.059-.16.059-.479.06.958.059-.32.059.17.06.958.058-.32.06-.159.118 1.448.06-.48.118.95.06-1.12.059.8.119-.799.059.798.06-.319h.058l.12.798.058-.638.119.789.06-.63.118 1.749.06-.8.118.49.06-.16.118 1.277.118-.639.06.32.059-.48.119.949.118-.798.06.808.059-.64.06-.01.059.48.118-1.27.06.48.059-.479.06.32.058.638.06-.48.059-.159.06.48.118-1.118.06.798.059-.48.059-.638.06.48.118-.48.06 1.119.058-.32h.06l.059.798.06-.32.059.16.118 1.118.06-.639.059.47.06.329.058-.47.06.47.118-1.28.06.32.059.16.06-.169.118.631.06-.638.118 1.117.06-.479.118.32.06-.47.058.319.06.789.059-.488.297 1.43.059-.16.119.638.059-.319.06.16.236 2.075.06-.489.059.15.178.64.06.32.118-.48.06 1.119.058-.32.12.48.118-1.118.118.807.06-.328.059.479.06-.32.059-.16.118.96.06-.32.059.32.118-.64.119.958.06-.799.059.48.059.159.06-.32.059.48.059-.01.06-.47.058.32.238.64.059-.48.06.32.059.16.059-.32.119.958.059-.479.06.16.058.319.06-.639.06.49.236.638.238-.95h.059l.237 1.277.297-.629.059.48.119-.96.059.32.06-.15h.058l.12.479.058-.479.06.479.059-.16.178-.168.06-.15.118.629.06-.32.059.16.118-.47.119.48.06-.169.058.479.06-.16.059-.319.06.639.059-.17h.059l.119.958.059-.16.118.32.06-.32.296 1.27.06-.479.059.16.06.32.059-.64.059.151.178.968.415 1.748h.119l.118.48h.06l.237.966.118-.32.238 1.27.118-1.119.06.48.059-.16.356.967.059-.488.06.16.059.32.059-.47.06.16.058-.16.178-.64.06-.16.237 1.118.06.328.118-.478.06-.01.118-.32.06.32.118-.479h.059l.06-.47.059.16.059.159.06-.16.177.32.237-.64.06.17.06-.16.177-.64.178.657.119.16.059-.16.118.32.12-.489.058.169.178.32.119-.32.237 1.27h.06l.059-.32.118.32.119-.48h.06l.533 1.28.06-.01.177.32.06-.16.118.32.119 1.127.06-.01.058.01.297.622h.06l.474 1.286.178-.32h.06l.058.32.06-.16h.059l.06-.32.177.48h.06l.059-.16.178.799.237-.461.119.48.059-.16.119-.951.059.32h.178l.178.319.178-.648.118.32.06-.16.237-1.11.118-.009.178-.639h.06l.118-.319.06.169.059-.16.118.16.12-.64.058.16.238-.311h.059l.296-.798.12.47.236-.648.06.32.059-.169.119.16h.059l.178.32.118-.31.119.328.119-.489.059.16.297.63h.059l.415.959.237-.01.06.32.059-.16.06-.008.058-.16.238.639.059-.16.178.639.237-.329.237.48h.356l.119.479.178-.178h.06l.118.32.178-1.28.059.48h.06l.059.16.177-.32h.238l.059-.159.178.329.119-.16h.059l.118.152.12-.32.177.32.119-.32.059.16.415-1.11.119.151.178-.32.178.17.059-.151.119.169.118-.48.237.48.06-.009.178-.32.059.32.178-.47.118.48.178-.33.119.16.119-.16h.059l.178.48.118-.329.297.648h.06l.177.631.06-.16.177.48.12.319.058-.32.06.16.118.16.119-.169h.06l.177.48.119-.64.06.168.177.48.06-.32.177.639.237-.47h.06l.178-.96.059.16h.06l.118.16.06-.16.118.169h.06l.177-.48.06-.16.059.16.296-1.758h.119l.118-.319.06.16.178-.32.118.01.06.16.178-.48.118.168.534-.159.178.63.119-.16.059.329.06-.151.236-.009.06.16.178-.48.237.498h.118l.238 1.12.178-.01.059.32.119-.479.177.32h.06l.118-.32.238.48.118.798.119-.16.06.32.058-.16.178.48.178-.48.06.01.059.319.06-.168.118-.01.118.32h.12l.355.799.119-.302.059.32.237-.95.178.328.06-.16.177.48.119-.17.118.019.12.15.058-.16.238-1.27.118.16.119-.319.06.16.118-.169h.06l.296-.489.059.16.119-.32h.059l.119-.478.059.16h.06l.236-.799h.06l.059.15.119-.479.296.622.119-.319.06.16.177-.32.178.48.178-.32.178.47h.06l.058-.16.178.32.178-.47.178.48h.119l.118.16.06-.16.652 1.578.119-.15.118.319.119-.32.119.16h.059l.118.32h.06l.118.478.178-.479h.06l.178.64" clip-path="url(#pe7a62ceaee)" fill="none" stroke="#ff7f0e" stroke-linecap="square" stroke-width="1.5"/><path d="m75.327-1 .344 140.5.415 28.259.83 29.356 1.009 20.269.237 9.1.119-2.795.118 1.699.416 7.359.237.997.237.038.297-1.926.059.32.06-.01.177-.798.119-.488.237-1.437.356-3.992.06-.008.474-4.816.177 5.698.06-.133.237-2.388.178 2.219.356 2.855.178 1.287.237 2.396.06.168.414 3.345.593 3.185.178 1.278.06-.169.474 2.253h.06l.237.338h.059l.119-.32.356 2.094.118.479.06-.32.059.16.118.019.06-.169.118.64h.06l.237 1.118.296.798.06-.16.178.657.059-.48.06.16h.059l.296 1.261h.06l.118.48.119-.48.237 1.109h.118l.238.773.237-.009.06.16.059-.16.296 1.588h.119l.118.16.06-.009.118-.16h.237l.178 1.118.06-.169.059-.009.06-.32.237 1.11.118-.15.237.008.178.798.06-.169.059.151.119-.15.059.958.06-.008.296.025.118.16h.06l.118.16.297-.959.118.48h.119l.119.168h.296l.119-.638.06.168.118.329.178-.96.059-.008.119.16.296-.008.178-.479.119.48.118-.48.06.168.059-.32.06.169.177-.026.119-.16h.118l.119-.319.237.488h.06l.118-.16.475-.017.237.798.06-.008.059.16.059-.16.118.487h.297l.297.967.059-.169.118-.151h.06l.118.79.06-.16h.059l.237.496h.119l.118.48.12-.488.058.32.06-.48.059.32.06.47.059-.168.118-.328.415.008.178-.487.06-.151.059-.8.06.8.059-.328.059-.16.296.807.06-.16h.178l.474-1.428.06.168h.118l.06.151.118-.16h.119l.059-.319.06.16.118.017.237-.47.178.479.178.16h.119l.059-.169.06.151.058.009.12.32.058-.16.178.487.06-.151.178-.177.118-.16.119.16h.06l.177.64.06-.17.059-.16.237.783.178-.328h.237l.178.638.119-.168h.059l.178 1.278.237-.471h.178l.178.496.118-.31.178.48.297-.48.119.319.118-.16h.119l.178-.301.059.007.06.48.059-.32.178-.293.059.008.06-.16.118.16.237-.008.119-.16h.059l.237-1.278.119.177.06-.009.118.16h.178l.474-.976.06.009.059.168.237-.504h.237l.178.479.178-.816.119.638.059-.008.119-.017.118-.16.06.16.177-.31.534 1.268h.178l.119.16h.06l.177.647.06-.168h.059l.118-.16.119.15.06-.008.058-.16.178.337h.297l.06-.169.059.152.059.008.06.16.059.48.059-.16.118-.16.12.017.118.16.059-.16.178.32.237-.48.06.32.059-.168h.06l.058-.16.119.177.06-.16.059.16.118-.16h.119l.118-.487.06.169.06.008.058-.64.06.96.059-.16.119.009.118.168.297-.017.118-.638.06.16.059-.16.06.16.177-.648h.178l.06.151.118-.168h.178l.119-.328.118.017.238-.488.177.479.06.151.06-.16.177.32.06-.16.296.799.06-.16.058.151.238.463.118-.143.119.16h.06l.177.647.237-.329.119.48.119-.008.118-.143h.06l.118.16h.06l.118.487.178-.496h.06l.118.958.06-.16.177-.639h.178l.06-.16.118.16h.06l.118-.32.06.17.059-.16.059.16.415-.951h.178l.178-.47.119-.31.059.479.06-.32.118-.32.118.169.119-.009.119-.16h.118l.06-.328.059.16.06-.16.058.16.178-1.118h.06l.178.328.059-.009.119-.16h.118l.119-.327.118.328.238-.488.118.168.119-.017.118.16H123l.238.95.178-.8.118.647.178-.176.06.008.177.32h.06l.178.665h.118l.237.79.06-.008.118-.152h.238l.118.328h.06l.177-.48.12 1.111.058-.008h.06l.296.487h.119l.118.16h.06l.118-.302h.06l.059.48.06-.328.177.008.178.32.119-.16h.118l.178-.47.356-.782.237.48h.178l.119-.16.119.168.177-.64.06.01.118.176.119-.017.119-.16h.059l.06.16.177-.479.119.47.118-.32.06.01.118.167.06-.008.178-.496.118.16.119-.32.178.639.118-.009.06-.16.178.48.059-.009.178-.32h.178l.237.47.178-.319.06.32.059-.169.237-.479h.118l.06-.16.178.48.178-.623h.059l.06.311.058-.16.06-.008.118-.151.06.008.059.16.119-.16.118.32h.06l.177-.497.06-.16.06.8.058-.16h.06l.178-.311h.355l.297-1.127.06.48.059-.48.118.017.178.32.237-.009.119-.327.06.15.118-.487.06.48.059-.32.118-.16.178.63.06-.008.237.48.059-.32.178.665.06-.8.058.16.06-.008.356.782h.059l.415 1.118.06-.16.118-.16.119.151.059-.008.178.168h.06l.414.807h.06l.178.799.059-.168.356-.782h.06l.118.32.118-.018.119-.32.119.48.059-.009.178-.622h.06l.118.16.118-.151.297.008.119.79.118-.15h.06l.118-.311.06.16h.059l.059-.16.119.16h.059l.178-.622.06-.64.058.32.178-.639.06.009.059.16.178-.177h.178l.178-.781.06.328.236-.95.178.31.178-.327h.119l.178-.488.059.16.119-.48.118.16.237-.008.06-.16.118.16.178-.328.534 1.26.119-.16.059.01.178.319h.06l.177.79.119-.169h.06l.177.614h.06l.177-.311h.178l.119.487.237-.479.178.47.119-.327.118.168h.178l.119.168.178-.79.059-.47.178.48.178-.463.06.16h.118l.06-.16.118.16h.059l.237-.79.119.807.178-.453.178.327h.118l.119.16.296-1.11h.06l.118-.31.119.336.06-.168.059.16.118-.16h.119l.119-.16.177.79.178-.48.178.631.06-.008.059.16.06-.16.059.16.177-.64.178.968.119-.791h.06l.177.63.06-.168.059-.168.06.16h.058l.06.16.118-.16.238.798.118-.16.178.782.178-.328.178.32h.06l.177.318.06-.008.118.168.06-.16.059.32.06-.16.177-.47h.237l.178.478.237-.488.06.312.059-.16.119-.488.059.168.119.009.059.16.118-.16h.12l.177-.31h.06l.059.479.059-.168.178-.613.119.327.177-.319h.12l.177-.639.119-.958.059.799.06-.16h.059l.177.648.178-.177h.06l.059.16.178-.79.119.48.177-.48.238.487.118-.328.119.16.119-.16.177.639.178-.48.238.622.118-.168h.06l.118.16h.06l.237.798.059-.32.178.64.237-.328.119.008.06.16.058-.16.238.95.118-.329.119.631.178-.504.178.336.118-.16.119.16h.06l.177-.497h.06l.059.48.06-.009.177-.799.178.488.119-.16.118.16h.06l.118-.328h.06l.177-.488.178-.311h.06l.059.151.119-.16h.118l.119-.168.06.009.058-.151.06-.48.059.48.06-.32.118-.151.119.168.237-.017.118.16.06-.168.059.16.119.008.118-.64.06.01.177.487.238-.496.059.16.178-.32.178.657h.06l.118-.16.118.328.12-.017.177-.31.237.327h.06l.177.151.06-.151.118.647.119-.017.119-.143.118.32.119-.16.178.328h.06l.118-.16.178.47.118-.159.06.009.118.319.119-.16h.06l.118.16h.059l.119-.47.118 1.278.119-.16.237.488.06-.009.118-.16.06.16.118-.16h.06l.118-.31.06.47.059-.159.177-.31.178.318.119-.16h.119l.059-.328.06.169.118-.462.06.32.177-.48.178.328h.06l.118-.16.119.16h.059l.118-.319.06.32.178-.96.296-.63.178.009.06.16.059-.48.06.16h.058l.119.48.178-.64.119.168.296-.655.06.16.118-.16.178.487.119-.168h.059l.237.462.119-.32.118.32.119-.16h.06l.118.32.06-.329.059.169h.059l.178.958.06-.009.058-.168.178.327h.06l.059-.16.178.48.237-.488.06.31.059-.159.118-.017.238.496.059-.16.178.32.178-.168h.059l.06.48.059-.16.415-.942h.178l.118-.479.06.328.296-1.454.119.337.06-.16.118-.168h.178l.118-.639.06.01.059.168.06-.471.058.48.06-.16.06-.16.118.176.118-.016.119-.168h.178l.06-.32.059.16.059.008.06.17.058-.64.06.16h.06l.296.622h.118l.415.949h.06l.356.79.177.009.356.949.178-.328.06.479.059-.168.06-.009.118-.152.118.169h.178l.238.47.059-.47.118.79.06-.16.06-.008.118-.152.178.488.178-.32h.059l.118-.336.238.8.237-.8.119.16h.059l.119-.16h.118l.119-.48.06.17.058-.32.06.32.118-.311h.06l.118.16.178-.01.119.32.237-.798.06.319.177-.48.119.017.178-.184h.06l.118.16h.059l.119-.152.118.169.06-.64.059.16.237.488.119-.336.059.16h.297l.118.487.119-.168h.118l.119.32.178-.329.119.169.118-.32.237.64.178-.489.178.462h.06l.296-.462h.06l.118.479.119-.16.059.009.06-.16.118.327.119-.16.296.488h.178l.119-.328.237.648.178-.311.06.008.236-.327h.119l.06.16.236-.489.06.8.06-.328.118-.311h.059l.297.63h.059l.415-.824.06-.009.118-.15.178-.009.06-.16.177.32.119-.16.118.168.119-.327.06.008.118-.16h.119l.355.639.06-.16.178.657.059-.8.06.32.059.009.177.168.12-.177.058.009.178-.32.119.009.119.328.059-.009.118-.32.178.48.356-.799h.06l.177.32.178-.649.06-.008.118.311.415-.958h.12l.058.16.238-.649.118.311h.06l.118-.15.475.007.059-.328.06.169.059.007.059.64.06-.168.118-.151.118.017.178.151h.178l.119-.479.06.169.059.168.059-.312.06.32.058-.151h.06l.237.479h.297l.059-.479.06.168.118.497.06-.32.118-.16h.059l.119.32.118-.017.178.32.119-.16h.06l.058.328.06-.16.118-.647h.06l.237.462h.178l.356.958.118-.336.06.16.296-.025.178.327h.178l.119.32.059-.009.119-.32.177.472.12-.168.177.016.06.16.059-.16.118.16h.06l.059-.168.06.16.118-.16.06.479.058-.168.238-.463h.118l.178-.319.119-.008.178-.782.118.16h.119l.06-.16.118.168h.237l.06.16.177-.47.06.16.059-.8.06.8.059-.32.118-.009.06.168.177-.185h.12l.058.16.119-.328.06.16.059-.168.059.328.119-.48.177.018.12.142.058-.008.119.16h.119l.118-.16.297.63.237-.009.119-.168h.178l.059-.16.296.63.119-.15.119.327.296-.63.06.16.059-.16.178.496.059.168.178-.488.178.462.119-.151.177.328h.12l.118.168.237-.79.119.808.118-.168.178.008.178.32h.119l.296-.79.06.31.059-.16.118-.47.238.48.118-.16h.06l.059.16.118-.648.06.009.06.008.058.48.06-.32.118-.32.119.169.119-.017.059-.16.178.48.06-.32.058.16.119.478.178-.48.178.178.415-.017.237.479h.178l.178.47.415-.159.178.647.119-.479.06.009.177.32.119-.009.059-.151.119.16.118-.32.119.32h.06l.118-.648.178 1.11.059-.01.06-.159.118.168.178-.32h.178l.118.152h.178l.06.151.237-.47.178.319h.118l.119.16.06-.32.059.16.118-.16.06.47.059-.159.06-.008.118-.152.06.009.118.16.059-.16.178.479.178-.47.06.168.236-.95.119.017.119-.177.118.16h.178l.119-.47.06.16.058-.8.06.64.118-.32.119.32.237-.505.119.32.118-.48.178.64.119-.48h.06l.177.488.178-.177.06.16.177-.48.178.64.178-.329.178.462.119-.168.06.168.058-.16h.06l.118.16h.06l.178.32.177.008.12.328h.058l.06-.16.118.177.178-.48.178.48.06-.009.118-.488.06.16.059.151.296-.63h.178l.178.319.237-.488.119.48.119-.152.178.177.118.16h.06l.118.319.297-.782.059.471.178-.479.118.169.297-.009.297-.79.059.16.237-.462.06.152.177-.336.119.16h.06l.059-.16.177.647.06-.64.06.32.177.152.178-.185h.06l.059.16.178-.48.237.47.178-.32.178.631.059-.168.06.16.059.008.415.807.059-.168.06.16.118.638.119.303.118-.152.06.009.118.16.119-.32.178.32.118-.17h.06l.177.48.416.009.118.16.119-.488.118.16.06.639.06-.009.296-.63.118.15h.178l.297-.638.059.32.178-.63.06.008.059.16.178-.177h.177l.119-.31.119.017.178-.8.178-.302.059.152.178-.328h.06l.118-.16.178.497.118-.64.06.16.059-.16.178.488.118-.008.119-.152.06.16.059-.168.059.16.178.487.06-.64.058.16h.06l.178.79.059-.168.06.169.059-.152.118-.16h.119l.118.16.238-.008.178.63h.059l.06-.16.236.487h.178l.119-.168.119.009.118.807.06-.16.237-.48.118.16.06-.16.178.488.178-.621.118.79.06-.168.118-.48.06.169.059-.16h.06l.177.32h.119l.178-.48h.059l.06.64.058-.328.178-.462.119.009.178-.32.237-.008.178-.63.06-.009.118-.32.06.01.177.47.178-.319.06.16.118-.639.06.16.118.32.178-.312.178.488.06-.008.058.15.12-.318.058.16.119-.16.178.487.06-.64.059.16.415.933h.118l.119.16h.06l.118.488.06-.169h.177l.119.151.237-.479h.119l.059-.16.178.32.178-.337h.06l.058.32.06-.16.118-.488.06.168.059-.152h.119l.059-.16.118.16h.06l.06-.319.058.16.119-.16.06.151.296-.773.237.479h.119l.237-.63.06.479.059-.009.118-.31.237.479.178-.009.119.16.119-.32.059.169.06-.64.059.48.118-.328.178.48.06-.009.237.47.118-.647.06.151.118.009.178-.8.178.32.119-.016.237-.48h.06l.177.489.119-.328.237.479.06-.168.059.16.059.008.178.487.118-.16.178.48.06-.32.059.16.06.008.118.32.118-.328.178.176.119-.32.178.817.06-.169.059.151h.118l.119.631.237-.471.178.319h.06l.177.31.06-.008.118-.15.119.32.118-.497.06.16.059.008.296-.487.12.16.118-.312.059.169.06-.16.059.151.118-.31.178.168.06-.168.059.16.178.319h.06l.058-.32.06.16.118-.151.06.8.059-.48h.119l.118.151.119-.017.118-.16h.06l.237-.461.06.32.118-.48h.118l.06.16.118-.169.06.152.118-.152h.119l.119-.319.118.32.178-.329h.178l.178.152h.297l.177.479.119-.64.356.8.119-.152.118.16h.119l.118.16.119-.489.06.16.177.647h.06l.118-.152h.119l.237.48h.06l.059-.169.059.16.237-.017.415-.95h.178l.178-.32h.06l.059.16.178-.79.178.176.059.16.119-.16.118.32.237-.462.06.16.178-.639.118.337.06-.16h.177l.12-.16h.118l.118.177.06-.64.118.809.119.017.119.32.118-.169h.178l.119-.16.178.178.059-.48.06.16h.059l.118.479.119-.177.06.152.118-.16h.059l.119-.32.178.48.059-.169.06.16h.058l.12.799.058-.009.06-.168.059.151h.06l.177.32h.06l.237.47.118-.16.238.462.059-.32.06.169h.118l.178.319h.118l.12-.16.118.008.059.151.297-.613.177.32h.12l.118.15.178-.32.059.16.296-.622h.12l.177-.319h.06l.296-.781.06.151.118-.319.296.631h.06l.118.16.119-.32.119.32.059-.639.06.48.118-.16.178.622.059-.008.119-.168.118.319.178-.47.119.327.06-.48.058.16h.119l.178.472.06-.009.118-.16.118.16.12-.16.177.471.06-.16.177.169.237-.009.178-.151h.06l.178.479.178-.177h.059l.118.319.356.017.06-.16.118.32.178-.01.06-.63.059.48.118.311.178-.48.178.488.119-.16h.119l.177-.487.06-.16.118.79.178-.327.06.008.059-.16.06.16.177-.319h.06l.296-.959.06.48.059-.32.118-.319.178.311.119-.328.178.32.118-.151h.06l.059.319.06-.16.177-.47.119.327.178-.336h.178l.059-.16.178.496.178-.79.178.177.118.142.119-.16.474.967h.119l.119.168.059-.008.119-.151.059.008.119.16.118-.16.119.16.237-.488.119.63.059-.168.178-.48.118.16h.12l.118.16h.059l.119-.168h.059l.119.478h.059l.118-.32.178.329.119-.16.119.16h.059l.178-.782.178.32.118-.488.06.168h.059l.06.16.118-.32.178.32.119-.32h.118l.06.8.059-.32.118-.302.178.647.119-.008.178.479.118-.328.12.177.177-.488.06-.008.059.328.059-.151.06-.169.059.152.118.32.237-.64.119.48.06-.328.118.32h.06l.118.487.178-.505.06.16h.058l.178-.32.119.48.06-.151.059-.96.059.32h.06l.118.32.474-1.127.178.328.119-.16.178.329.296-.48h.06l.059.16.06-.16.177.48.06-.16.237.495.118-.31.238.017.118.16h.119l.06.159.177-.177h.06l.059.151.178-.168.237.48h.237l.119-.178.237.63.118-.319.238.488.178-.32h.059l.119-.168.118.16.06-.48.059.312.118-.488.238.614.118-.328.119.32.119-.48.177.346.12-.32h.118l.059.16.178-.176.06-.151.355.647.06.008.177-.807.119.32.237-.656.178.319h.06l.177.168.119-.488.178.648.237-.623.06.168h.059l.118-.16.119.32.178-.017.119-.16.118.48.178-.632.06.009.118.16h.06l.059-.16.118.168.06-.009.177-.319.06.48.06-.009.177-.479.06.009.059.16.237-.329h.06l.296-.621.059-.009.119-.319h.296l.06.16.059-.16.06.16.177-.79.119.168.059.96.06-.312.118-.16.178.472.178-.328h.059l.178-.47.119.487.118-.32.06.009.533 1.118h.06l.474 1.101.297-.008.178-.32.118.48.119.31.118-.8.238.808.059-.16.06-.151.059.168.059-.16.118.16h.06l.118.479.06-.16.059-.009.119-.16.118.64.237-.48h.06l.118.16h.178l.238-.48.118.647.297-.462.296.638h.06l.237-.479.06.152.177-.807.119.328.237-.328h.118l.238-.648.059.48.178-.808.119.328.118-.016.119-.16h.06l.058.16.06-.32.059.16.119.32.059-.48.06.152.118-.16.237.472.297-.639h.059l.178.488.06-.32.059.16h.059l.178.63.118-.016.119.168h.237l.119.337.06-.16h.118l.118.647.06-.168.178-.311h.059l.06.16.118-.32.178.488h.06l.058-.312.119.32h.119l.118-.32.119.169h.06l.118.16h.118l.12.15.177-.15.06-.01.177-.638.119-.312h.178l.178.48.237-.8.06.48.059-.32.177-.301.12.008.177.32h.06l.059.159.059-.16.237-1.118.119.312.06-.16.296.639.118-.16h.119l.118-.47.06.16.06-.631.058.48.178.016.178.8.06-.169.059.16h.06l.177-.639.178.648.06-.48.059.16h.059l.296.605.178-.32h.06l.059-.159.119.479.059.32.06-.169h.177l.119.151.06-.008.177-.311h.237l.178.31.06-.168.059.16.178.47.178-.639.059.169h.178l.119.319h.059l.237-.48.119.311.237-.454.237.48h.06l.118.159.178-.488.06.48.118-.018.178-.31.178-.01.178.48.296-.942.06.312.059-.16.118-.302.178.479.06-.168.059.151h.06l.118-.16h.119l.059.16.06-.16.058.16.12-.479.058.151.06.009.118.143.238-.488h.059l.118-.168.12.497.058-.64.06.32h.059l.119-.142.237.47.06.009.177-.479.237.63.06-.16.355-9.888.238-4.764.178-2.076.059.169.415-4.02.475-13.069.059-.32.178-3.343.118-.327h.06l.06-.169.414-6.07.356-9.73.06.16.118 1.576.297 8.435.059-.639.06.16.058 1.108.534-10.843.06 1.756.177 2.395.297 6.867.06.151.059 1.747.059-.798.296-5.265.12.169.118-1.757.059 1.597.119-1.597.237 3.672.06.798.058-.95.06 1.12.06-.01.236-4.302.06-.48.178-2.226.118.488.237 3.534.06-.48.059.15.06.789.059-.48.059-1.276.06.949.059.478.118-2.226.06.32.118-1.776.06.47.118-1.899.237 2.237.06-.958.118 1.758.06-1.596.059 1.117.06 1.767.058-1.277.06.32.06 1.755.058-1.277.119 2.235.06-.638.118.629.119-1.269.059 1.908.06-1.437.058-.16.06 1.118.06-.79.058.16.06 1.437.059-.488.06-.799.059 1.118.059-.649.06-.638.059 1.588.059-.958.06-.788.058 1.6.06-.629.06-.479.118 1.127.059-1.278.06 1.756.059-.009.059-1.447.06 1.128.118-1.259.06.958.059-.479.059-.638.118 1.587.06-.48.059.95.06-.151.059-1.597.118 1.756.06-1.437.059.799.06.16.059-1.437.059 1.117.06.479.058-1.596.06.47.06.638.058-.949.06.48.059 1.918.06-1.428h.059l.059 1.596.06-.798.118 1.747.06-1.128.058.17.06.638.06-.639.058.17.06 1.277.059-1.109.06-.16.059 1.597.059-.951.06-.01.059 1.436.059-.638.06-.48.058 1.27.06-.808h.06l.058 1.447.06-.639.059-.32.06 1.11.059-.64.059-.159.119 2.245.059-1.908.06 1.119.058.32.06-1.118.06 1.437.058-.488.06-1.128.059.789.119-.798.118 1.596.06-1.117.118 1.925.06-.958.118 1.428.06-1.279.059.639.059.949.06-1.118.059.639.059.63.06-1.11.118 1.767.06-.798.059.639.059.638.118-.958.06 1.268.06-.968.296 1.918.059-.959.06.33.059.487.118-1.117.06 1.277.059-.79h.06l.058 1.118.06-.808.059-1.277.06.948.118-.639.06 1.277.059-.808.059-.64.06 1.128.058-.15.06-.16.06 1.269.058-.639.06-1.117.118 1.596.06-1.437.059.639.119-1.749.059 1.759.06-.01.058-.63.06.64.06-.16.058-.95.119 1.42.06-1.277.059.798.059.32.06-.799.059.639.059.948.06-.949.058.65.12-.8.118 1.117.059-.638.119 1.43.118-.968.06 1.117.059-.958.06.16.059 1.118.059-.799.296 1.935.119-1.108.06 1.279.059-.958.059-.17.06 1.11.059-.79h.059l.118 1.118.06-.639.06 1.437.058-.16.06-.15.059.79.119-.96.059.63.06-.32.059-.169.118 1.269.06-.95.118 1.437.06-.798.118.798.06-.47.059.799.059-.33.06-.479.118 1.598.06-.798.118 1.118.06-1.12.058.959.06.967.059-.958.06.48.059.478.059-.958.06.799.059.638.059-.798.06.16.059.311.059-.8.118 2.227.06-.959.06-.01.058 1.12.06-.79.118 1.437.119-1.287.06.638.059-.798.059.16.06.63.118-.95.06 1.439.058-.31.06-.32.059.489.119-1.27.059.958.06-.32.059-.318.059.798.06-.32.058-.319.06.798.06-.319.058-.15.119.8.06-.489.118.48.06-.96.059.968.059-.328.06-.488.118.798.06-.32.118 1.278.059-.958.06.63.059.328.059-.79.119 1.43.059-.95.06.16.059.8.059-.96.06.63.058.47.06-.798.118 1.447.06-.639.059.47.06.32.118-.47.06.64.059-.64.059.16.237 2.227.119-.488.059.319.119-.639.059.799.06-.48.059.16.059 1.118.06-.48.058-1.119.06.64h.06l.058-.16.06 1.12.059-.33.06-.159.059.648.059-.32.06-.16.059.799.059-.479.06-.798.118 1.286.06-.798.058.15.06.16.059-.799.119 1.597.059-.48.06.32.118-.95.118.959.06-.799.06.48.058.487.06-.479.118 1.269.06-.96.059.64.06.638.059-.319.118.32.06-.8.059.488.06.32.118-.32.06.798.058-.478.06.16.059.638.06-.798.059.648.059.64.06-.32.118.47.118-.94.06.488.118-.48.06.64.059-.48h.06l.118.798.06-.478.059.949.059-.31.06-.48.058 1.119.06-.648.06-.15.236 1.287.06.151.059-.639.119.799.059-.48.06.32h.058l.06-.47.06.328h.058l.06-.168.118.638.06-.31.118.959.06-.328.296 1.117.06-.638.118.958.06-1.12.118 1.12.06-.48.296 2.059.06-.32.118.959.118-.799.06.48.059-.152.119.32.059-.48.06.01.118.647.06-.01.058.63.06-.319.06-.47.118.638.059-.16.237 1.118.119-.168.118.32.06-.17.118.782.06-.799.059.488h.06l.059-.32.059.32.06-.16h.059l.118.799.06-.488.059.32.06.16.058-.152.06.798.059-.16.119-.976.059.328.06-.47.059.32.059.318.06-.319.118.798.06-.16.058.152.06.15.059-.479.06.16.059.63.059-.479.06-.168.237 1.135.118-.16.119.32.06-.16.058.31.119-.47.237.808.119-.31.06.647.058-.16.06-.168.118.31h.06l.059.48.119-.799.059.17.06.16.059-.64.059.47.118-.647.12 1.128.058-.328.06.47.059-.168.06-.32.118.48.119-.48.118.018.06-.311.059.8.06-.32.177.496.119.462.059-.168h.119l.118-.16.178.488.06.639.059-.8.06.16.058-.008.06-.169.118.32.119-.177.06.169.059-.152h.059l.296 1.437.06-.32.059.16h.06l.059-.16.059.329.06-.16.059-.009.296.497.06-.16.177.638.06.152.118-.169.237.462.12-.47.058.16.238.478h.059l.06.16.177-.648.178.976.119-.328.237.328.06.151.118-.16h.118l.06-.478.06.16.058-.16.178.79.06-.16.118.169.178-.026.119-.16.118.16.12-.47.177.648.06-.151.118-.311.178.32.237-.488h.178l.119.337.178-.647.118.017.237-.328.119.008.06.16.118-.16.119.487.118-.48h.119l.296.649.238-.311h.059l.178.79.118-.48h.06l.178.462.178-.311h.059l.118.16h.12l.118.319.118-.328.238.47h.237l.06-.16.236.48.178-.169.238-.008.177-.631h.178l.119.16h.119l.237-.48.118-.008.12-.64.058.168.178.009.119-.16h.06l.059.16.177-.47.06.16.06.48.058-.169.119-.168.297.647.237-.479h.06l.177-.462.119.48.059.008.119.32.177-.337h.12l.058.16.119-.16.06.009.059.16.059-.312.119.32h.059l.356.782h.178l.059-.16.178.32.06-.8.058.32.06.009.178.48.237-.488.178.32h.06l.118.318.118-.168h.12l.118.16.118-.16.178.328.119-.32.178.32.06-.009.058-.32.06.16h.178l.237-.782.178.32h.178l.237-.48.06.152.177-.8.06.169.177.32h.06l.118-.16h.06l.237-.488.118.631.12-.32.118.32.059-.008.06.152.118-.169.119.32.177-.639.06.32.06-.64.058.48h.06l.059-.16.237.79.119-.167h.06l.355.966.06-.32.059.16.059-.15.178.31.415-.008.178.496.178-.64.237.48.178-.303.119.16.059-.16.178.488.119-.329.177.8.238-.64.118.327.238-.478.177-.009.12-.32.058.471.06-.008h.059l.119-.312.118.168.297-.008.237-.648.119.488.178-.79.118.008.119.16.118-.16h.119l.178-.471.119-.009.118-.479h.06l.059.16.178-.336h.059l.178.479.237-.488.06.959.059-.16.06.008.058-.31.119.32.119-.017.118-.151h.119l.119-.16.118.497.119-.488h.118l.238.79.118-.319.178.311h.06l.118.328.06-.008.237.328h.059l.119.16.118.008.06.16.177-.479.119.337.06-.16.177-.64h.06l.059.312.06-.169.177-.47.178.319h.06l.177.319.119-.169h.06l.118.64.178-.64.118.008.06.16.178-.31h.118l.237-.48.12.16.355-.782.237.479.237-.63.119.32.119.008.059.168.06-.151.059.151.118-.328.119.16h.06l.236-.462.06.48.059-.169.119-.16.118.17.178-.337h.178l.119-.32.118.488.06-.64.059.48h.06" clip-path="url(#pe7a62ceaee)" fill="none" stroke="#2ca02c" stroke-linecap="square" stroke-width="1.5"/><path d="M57.6 307.58V41.47m357.12 266.11V41.47M57.6 307.58h357.12M57.6 41.472h357.12" fill="none" stroke="#000" stroke-linecap="square" stroke-width=".8"/><path d="M253.42 93.506h154.3q2 0 2-2V48.472q0-2-2-2h-154.3q-2 0-2 2v43.034q0 2 2 2z" fill="#fff" opacity=".8" stroke="#ccc"/><path d="M255.42 54.57h20" fill="none" stroke="#1f77b4" stroke-linecap="square" stroke-width="2"/><g transform="matrix(.1 0 0 -.1 283.42 58.07)"><defs><path id="DejaVuSans-78" d="M9.813 72.906h13.28l32.329-60.984v60.984h9.562V0H51.703L19.391 60.984V0H9.813z"/><path id="DejaVuSans-99" d="M48.781 52.594v-8.406q-3.813 2.11-7.64 3.156t-7.735 1.047q-8.75 0-13.594-5.547-4.828-5.531-4.828-15.547t4.828-15.562q4.844-5.531 13.594-5.531 3.906 0 7.734 1.047t7.641 3.156V2.094Q45.015.344 40.984-.53q-4.016-.89-8.562-.89-12.36 0-19.641 7.765-7.266 7.766-7.266 20.953 0 13.375 7.344 21.031Q20.219 56 33.015 56q4.14 0 8.094-.86 3.953-.843 7.671-2.546z"/><path id="DejaVuSans-97" d="M34.281 27.484q-10.891 0-15.094-2.484t-4.203-8.5q0-4.782 3.156-7.594 3.156-2.797 8.563-2.797 7.484 0 12 5.297t4.515 14.078v2zm17.922 3.719V0h-8.984v8.297Q40.14 3.327 35.547.953T24.313-1.422q-8.39 0-13.36 4.719-4.952 4.719-4.952 12.625 0 9.219 6.171 13.906 6.188 4.687 18.438 4.687h12.61v.89q0 6.204-4.079 9.595t-11.453 3.39q-4.687 0-9.14-1.125-4.438-1.125-8.531-3.375v8.313q4.921 1.906 9.562 2.844Q24.22 56 28.61 56q11.875 0 17.734-6.157 5.86-6.14 5.86-18.64z"/><path id="DejaVuSans-100" d="M45.406 46.391v29.594h8.984V.001h-8.984v8.203Q42.578 3.33 38.25.954 33.937-1.42 27.875-1.42q-9.906 0-16.141 7.906-6.219 7.922-6.219 20.812t6.219 20.797q6.234 7.907 16.14 7.907 6.063 0 10.376-2.375 4.328-2.36 7.156-7.235zM14.797 27.297q0-9.906 4.078-15.547t11.203-5.64 11.22 5.64q4.108 5.64 4.108 15.547t-4.109 15.547q-4.094 5.64-11.219 5.64t-11.203-5.64-4.078-15.547z"/><path id="DejaVuSans-103" d="M45.406 27.984q0 9.766-4.031 15.125-4.016 5.375-11.297 5.375-7.219 0-11.25-5.375-4.031-5.36-4.031-15.125 0-9.719 4.03-15.094t11.25-5.375q7.282 0 11.298 5.375 4.031 5.375 4.031 15.094zM54.39 6.781q0-13.953-6.203-20.766Q42-20.797 29.203-20.797q-4.734 0-8.937.703t-8.156 2.172v8.734q3.953-2.14 7.812-3.156 3.86-1.031 7.86-1.031 8.843 0 13.234 4.609t4.39 13.938v4.453q-2.781-4.844-7.125-7.234T27.875 0Q17.828 0 11.672 7.656q-6.156 7.672-6.156 20.328 0 12.688 6.156 20.344Q17.828 56 27.875 56q6.063 0 10.406-2.39t7.125-7.22v8.298h8.985z"/></defs><use xlink:href="#DejaVuSans-78"/><use x="74.805" xlink:href="#DejaVuSans-111"/><use x="135.986" xlink:href="#DejaVuSans-32"/><use x="167.773" xlink:href="#DejaVuSans-99"/><use x="222.754" xlink:href="#DejaVuSans-97"/><use x="284.033" xlink:href="#DejaVuSans-114"/><use x="325.146" xlink:href="#DejaVuSans-116"/><use x="364.355" xlink:href="#DejaVuSans-114"/><use x="405.469" xlink:href="#DejaVuSans-105"/><use x="433.252" xlink:href="#DejaVuSans-100"/><use x="496.729" xlink:href="#DejaVuSans-103"/><use x="560.205" xlink:href="#DejaVuSans-101"/></g><path d="M255.42 69.249h20" fill="none" stroke="#ff7f0e" stroke-linecap="square" stroke-width="2"/><g transform="matrix(.1 0 0 -.1 283.42 72.749)"><defs><path id="DejaVuSans-80" d="M19.672 64.797V37.406h12.406q6.89 0 10.641 3.563 3.766 3.562 3.766 10.155 0 6.547-3.766 10.11-3.75 3.562-10.641 3.562zm-9.86 8.11H32.08q12.266 0 18.53-5.548 6.282-5.546 6.282-16.233 0-10.798-6.281-16.313-6.266-5.515-18.531-5.515H19.673V0h-9.86z"/><path id="DejaVuSans-107" d="M9.078 75.984h9.031V31.109l26.812 23.578h11.47l-29-25.578L57.623 0H45.905L18.108 26.703V0h-9.03z"/><path id="DejaVuSans-66" d="M19.672 34.812V8.109H35.5q7.953 0 11.781 3.297 3.844 3.297 3.844 10.078 0 6.844-3.844 10.078-3.828 3.25-11.781 3.25zm0 29.984V42.827h14.609q7.219 0 10.75 2.703 3.547 2.719 3.547 8.281 0 5.516-3.547 8.25-3.531 2.735-10.75 2.735zm-9.86 8.11h25.204q11.28 0 17.375-4.688Q58.5 63.53 58.5 54.89q0-6.703-3.125-10.656t-9.188-4.922q7.282-1.563 11.313-6.531 4.03-4.953 4.03-12.375 0-9.766-6.64-15.094Q48.25-.001 35.984-.001H9.812z"/><path id="DejaVuSans-108" d="M9.422 75.984h8.984V0H9.422z"/></defs><use xlink:href="#DejaVuSans-80"/><use x="56.678" xlink:href="#DejaVuSans-111"/><use x="117.859" xlink:href="#DejaVuSans-107"/><use x="172.145" xlink:href="#DejaVuSans-101"/><use x="233.668" xlink:href="#DejaVuSans-109"/><use x="331.08" xlink:href="#DejaVuSans-111"/><use x="392.262" xlink:href="#DejaVuSans-110"/><use x="455.641" xlink:href="#DejaVuSans-32"/><use x="487.428" xlink:href="#DejaVuSans-66"/><use x="556.031" xlink:href="#DejaVuSans-108"/><use x="583.814" xlink:href="#DejaVuSans-117"/><use x="647.193" xlink:href="#DejaVuSans-101"/><use x="708.717" xlink:href="#DejaVuSans-32"/><use x="740.504" xlink:href="#DejaVuSans-40"/><use x="779.518" xlink:href="#DejaVuSans-103"/><use x="842.994" xlink:href="#DejaVuSans-101"/><use x="904.518" xlink:href="#DejaVuSans-110"/><use x="967.896" xlink:href="#DejaVuSans-117"/><use x="1031.275" xlink:href="#DejaVuSans-105"/><use x="1059.059" xlink:href="#DejaVuSans-110"/><use x="1122.438" xlink:href="#DejaVuSans-101"/><use x="1183.961" xlink:href="#DejaVuSans-41"/></g><path d="M255.42 83.927h20" fill="none" stroke="#2ca02c" stroke-linecap="square" stroke-width="2"/><g transform="matrix(.1 0 0 -.1 283.42 87.427)"><use xlink:href="#DejaVuSans-80"/><use x="56.678" xlink:href="#DejaVuSans-111"/><use x="117.859" xlink:href="#DejaVuSans-107"/><use x="172.145" xlink:href="#DejaVuSans-101"/><use x="233.668" xlink:href="#DejaVuSans-109"/><use x="331.08" xlink:href="#DejaVuSans-111"/><use x="392.262" xlink:href="#DejaVuSans-110"/><use x="455.641" xlink:href="#DejaVuSans-32"/><use x="487.428" xlink:href="#DejaVuSans-66"/><use x="556.031" xlink:href="#DejaVuSans-108"/><use x="583.814" xlink:href="#DejaVuSans-117"/><use x="647.193" xlink:href="#DejaVuSans-101"/><use x="708.717" xlink:href="#DejaVuSans-32"/><use x="740.504" xlink:href="#DejaVuSans-40"/><use x="779.518" xlink:href="#DejaVuSans-114"/><use x="818.381" xlink:href="#DejaVuSans-101"/><use x="879.904" xlink:href="#DejaVuSans-112"/><use x="943.381" xlink:href="#DejaVuSans-114"/><use x="982.244" xlink:href="#DejaVuSans-111"/><use x="1043.426" xlink:href="#DejaVuSans-41"/></g><g transform="matrix(.1 0 0 -.1 46.08 34.56)"><defs><path id="DejaVuSans-58" d="M11.719 12.406h10.297V0H11.719zm0 39.297h10.297V39.312H11.719z"/><path id="DejaVuSans-104" d="M54.891 33.016V0h-8.984v32.719q0 7.766-3.032 11.609-3.03 3.86-9.078 3.86-7.28 0-11.484-4.641-4.203-4.625-4.203-12.641V0H9.08v75.984h9.031V46.187q3.235 4.937 7.594 7.375 4.375 2.437 10.094 2.437 9.422 0 14.25-5.828 4.844-5.828 4.844-17.156z"/><path id="DejaVuSans-102" d="M37.109 75.984V68.5h-8.594q-4.828 0-6.719-1.953-1.875-1.954-1.875-7.032v-4.828h14.797v-6.984H19.921V0h-9.03v47.703H2.295v6.984h8.594V58.5q0 9.125 4.25 13.297 4.25 4.187 13.47 4.187z"/><path id="DejaVuSans-122" d="M5.516 54.688h42.672v-8.203L14.407 7.173h33.78V0H4.298v8.203l33.797 39.312H5.516z"/><path id="DejaVuSans-45" d="M4.89 31.391h26.313v-8H4.89z"/><path id="DejaVuSans-118" d="M2.984 54.688H12.5L29.594 8.797l17.094 45.891h9.516L35.688 0H23.485z"/><path id="DejaVuSans-33" d="M15.094 12.406H25V0h-9.906zm0 60.5H25V40.922l-.969-17.438H16.11l-1.016 17.438z"/></defs><use xlink:href="#DejaVuSans-78"/><use x="74.805" xlink:href="#DejaVuSans-111"/><use x="135.986" xlink:href="#DejaVuSans-116"/><use x="175.195" xlink:href="#DejaVuSans-101"/><use x="236.719" xlink:href="#DejaVuSans-58"/><use x="270.41" xlink:href="#DejaVuSans-32"/><use x="302.197" xlink:href="#DejaVuSans-116"/><use x="341.406" xlink:href="#DejaVuSans-104"/><use x="404.785" xlink:href="#DejaVuSans-105"/><use x="432.568" xlink:href="#DejaVuSans-115"/><use x="484.668" xlink:href="#DejaVuSans-32"/><use x="516.455" xlink:href="#DejaVuSans-102"/><use x="551.66" xlink:href="#DejaVuSans-105"/><use x="579.443" xlink:href="#DejaVuSans-103"/><use x="642.92" xlink:href="#DejaVuSans-117"/><use x="706.299" xlink:href="#DejaVuSans-114"/><use x="745.162" xlink:href="#DejaVuSans-101"/><use x="806.686" xlink:href="#DejaVuSans-32"/><use x="838.473" xlink:href="#DejaVuSans-117"/><use x="901.852" xlink:href="#DejaVuSans-115"/><use x="953.951" xlink:href="#DejaVuSans-101"/><use x="1015.475" xlink:href="#DejaVuSans-115"/><use x="1067.574" xlink:href="#DejaVuSans-32"/><use x="1099.361" xlink:href="#DejaVuSans-97"/><use x="1160.641" xlink:href="#DejaVuSans-32"/><use x="1192.428" xlink:href="#DejaVuSans-122"/><use x="1244.918" xlink:href="#DejaVuSans-111"/><use x="1306.1" xlink:href="#DejaVuSans-111"/><use x="1367.281" xlink:href="#DejaVuSans-109"/><use x="1464.693" xlink:href="#DejaVuSans-101"/><use x="1526.217" xlink:href="#DejaVuSans-100"/><use x="1589.693" xlink:href="#DejaVuSans-45"/><use x="1625.777" xlink:href="#DejaVuSans-105"/><use x="1653.561" xlink:href="#DejaVuSans-110"/><use x="1716.939" xlink:href="#DejaVuSans-32"/><use x="1748.727" xlink:href="#DejaVuSans-118"/><use x="1807.906" xlink:href="#DejaVuSans-101"/><use x="1869.43" xlink:href="#DejaVuSans-114"/><use x="1910.543" xlink:href="#DejaVuSans-116"/><use x="1949.752" xlink:href="#DejaVuSans-105"/><use x="1977.535" xlink:href="#DejaVuSans-99"/><use x="2032.516" xlink:href="#DejaVuSans-97"/><use x="2093.795" xlink:href="#DejaVuSans-108"/><use x="2121.578" xlink:href="#DejaVuSans-32"/><use x="2153.365" xlink:href="#DejaVuSans-115"/><use x="2205.465" xlink:href="#DejaVuSans-99"/><use x="2260.445" xlink:href="#DejaVuSans-97"/><use x="2321.725" xlink:href="#DejaVuSans-108"/><use x="2349.508" xlink:href="#DejaVuSans-101"/><use x="2411.031" xlink:href="#DejaVuSans-33"/></g><defs><clipPath id="pe7a62ceaee"><path d="M57.6 41.472h357.12v266.11H57.6z"/></clipPath></defs></svg>